<?xml version="1.0" encoding="utf-8"?>
<!DOCTYPE svg PUBLIC "-//W3C//DTD SVG 1.1//EN" "http://www.w3.org/Graphics/SVG/1.1/DTD/svg11.dtd">
<svg version="1.1" id="Layer_1" xmlns="http://www.w3.org/2000/svg" xmlns:xlink="http://www.w3.org/1999/xlink" x="0px" y="0px"
	 viewBox="0 0 50 50" enable-background="new 0 0 50 50" xml:space="preserve">
<g>
	<g>
		<g>
			<path fill="#00000B" d="M37.5,30.3c0,0.1-0.1,0.2-0.1,0.3c-0.7,0-1.9,0-1.9,0.1c0,0,1,0.1,1.8,0.1c-0.1,0.1-0.1,0.3-0.2,0.4
				c-0.1,0-0.3,0-0.3,0.1c0,0,0.1,0,0.2,0c0,0.1-0.1,0.1-0.1,0.2c-0.5,0-1,0-0.9,0.1c0,0,0.4,0,0.9,0.1c-1.1,2.1-2.9,3.9-4.9,5.1
				c-0.1,0-0.4,0-0.3-0.1c0-0.1,0.3-0.1,0.4-0.2c0-0.1-1.3,0-1.2-0.1c0-0.1,0.4-0.1,0.4-0.2c0-0.1-0.1-0.1-0.1-0.1
				c0-0.1,0.8-0.1,0.8-0.2c0-0.1,0.3-0.1,0.4-0.2c0-0.1,0-0.1,0-0.1c0-0.1-0.8,0-0.8-0.1c0-0.1,0.8-0.1,0.8-0.2s-1.7,0-1.6-0.1
				c0-0.1,0.1-0.1,0.1-0.1c0-0.1,1.8-0.2,1.8-0.2s-0.2-0.1-0.2-0.1c0-0.1-0.1-0.1,0-0.1s-0.1-0.1-0.1-0.1c0-0.1,0.8-0.1,0.8-0.2
				c0-0.1-1.5,0-1.4-0.1c0-0.1,0.7-0.1,0.8-0.2s0.7-0.1,0.8-0.2c0-0.1-1.4,0-1.4-0.1c0-0.1,1.7-0.2,1.8-0.2c0-0.1-1.2,0-1.2-0.1
				c0-0.1-0.4,0-0.4-0.1c0-0.1,1.8-0.2,1.9-0.2s-2.1,0-2.1,0c0-0.1,1-0.1,1.1-0.2c0-0.1,0.6-0.1,0.6-0.2c0-0.1-1,0-1-0.1
				c0-0.1,1-0.1,1.1-0.2c0-0.1-0.9,0-0.9-0.1c0-0.1-0.5,0-0.5-0.1s0.6-0.1,0.6-0.2c0-0.1-0.7,0-0.7-0.1c0-0.1,1.9-0.2,1.9-0.2
				s-1.8,0-1.8,0c0-0.1,0.2-0.1,0.2-0.2c0-0.1,1.7-0.2,1.8-0.2s-0.7,0-0.7-0.1c0-0.1-0.9,0-0.8-0.1s1.1-0.1,1.5-0.2c0,0,0,0-0.1-0.1
				c-0.4,0-1,0-1,0c0-0.1,0.9-0.2,0.9-0.3c0-0.1-0.6,0-0.6-0.1c0,0,0.7-0.1,1.2-0.2c0,0-0.1-0.1-0.1-0.1c-0.4,0-0.8,0-0.8,0
				c0,0,0.1,0,0.2,0s0.2,0,0.3,0c0.2,0,0.8,0,0.9-0.1c0.2-0.1,1,0,1.2,0c0.2,0,0.5,0,0.7,0.1c0,0,0,0,0.1,0.1
				C37.2,30.3,37.3,30.3,37.5,30.3L37.5,30.3z M31.8,36.7c-0.3,0.2-0.6,0.3-0.9,0.5c-0.3,0-0.7,0-0.7,0c0-0.1,0.5-0.1,0.5-0.2
				s-0.5,0-0.5-0.1C30.3,36.8,31.3,36.8,31.8,36.7L31.8,36.7z M25.9,38.5c-0.2,0-0.4,0-0.7,0c-0.2,0-0.4,0-0.6,0
				c-0.1-0.4-0.4-0.8-0.6-1c-0.2-0.3-0.5-0.7-0.7-1c-0.1-0.2,0.1-0.9,0.2-1.1c0.1-0.3,0.2-0.5,0.4-0.7c0.1-0.1,0.2-0.4,0.2-0.5
				c0-0.2,0.1-0.3,0-0.5c-0.1-0.4-0.6-0.4-0.9-0.4c-0.8,0-2.1,1.7-2.6,2.4h-0.2c0.1-0.1,0.1-0.2,0.2-0.2c0.1-0.2,0.3-0.5,0.1-0.7
				c-0.2-0.3-0.8-0.2-1-0.1c-0.1,0-0.3,0.1-0.4,0.1c-0.1,0-0.3,0.1-0.5,0.2c-0.3-0.2-0.6-0.5-0.8-0.8c0.2,0,0.3,0,0.3,0
				c0-0.1,0.3-0.1,0.3-0.1c0,0-0.3,0-0.7-0.1c0-0.1,0-0.1-0.1-0.2c0.5,0,0.9,0,0.9-0.1c0-0.1-1-0.1-0.9-0.1c0-0.1,0.8-0.1,0.8-0.1
				c0-0.1-0.7-0.1-0.6-0.1c0,0-0.2,0-0.4-0.1c0-0.1,0-0.1,0-0.2c0.3,0,0.6,0,0.6-0.1s-0.3,0-0.6-0.1c0-0.1,0-0.2,0-0.2
				c0.2-0.1,1.4-0.1,1.5-0.1c0,0-0.7-0.1-1.4-0.1c0,0,0-0.1,0-0.1c0.6,0,1,0,1.1-0.1c0-0.1-0.6-0.1-0.6-0.1c0,0-0.2,0-0.4-0.1
				c0-0.1,0-0.1,0.1-0.2c0.6,0,1.1,0,1.1-0.1c0,0-0.5-0.1-1-0.1c0-0.1,0.1-0.2,0.1-0.2c0.2-0.1,0.9-0.1,1-0.1c0,0-0.4,0-0.8-0.1
				c0.2-0.2,0.4-0.5,0.6-0.7h0.1c0.1,0.3,0.3,0.5,0.5,0.7c0.2,0.1,0.4,0.2,0.6,0.2h0.2l0-0.2c0.1-0.3,0.1-0.5,0-0.7
				c0.1,0,0.1,0,0.1,0c0-0.1,0.1-0.1,0.1-0.1c0,0-0.1,0-0.3,0c0-0.1-0.1-0.2-0.2-0.3c0.8-0.1,1.5-0.2,2.3-0.3c0.6,0,1.1-0.1,1.6-0.1
				c0.4,0,0.8,0,1.2,0.1c0.5,0.1,1,0.1,1.5,0.1c0.5,0,0.9-0.1,1.3-0.1c0.4,0,0.8,0,1.3,0l-0.6,0.2l0,0h-0.1
				c-0.5,0.1-1.4,0.1-1.4,0.2c0,0.1,0.8,0,0.8,0.1c0,0.1,0.4,0.1,0.3,0.1c0,0.1-0.9,0.1-0.9,0.2c0,0.1,0.6,0,0.6,0.1
				c0,0,0.3,0,0.5,0.1v0.1c-0.4,0.1-0.6,0.1-0.7,0.2c0,0.1,0.2,0.1,0.1,0.1c0,0.1,0.6,0,0.5,0.1c0,0.1-0.8,0.1-0.8,0.2
				s-0.1,0.1-0.1,0.1c0,0.1,1.3,0,1.2,0.1c0,0.1-0.5,0.1-0.5,0.2s0.5,0,0.5,0.1s-1.7,0.2-1.8,0.2c0,0.1,0.5,0,0.4,0.1
				c0,0.1-0.3,0.1-0.4,0.2c0,0.1,1.3,0,1.2,0.1c0,0.1-0.4,0.1-0.4,0.2c0,0.1,0.1,0.1,0.1,0.1c0,0.1-0.8,0.1-0.8,0.2
				c0,0.1-0.3,0.1-0.4,0.2s0,0.1,0,0.1c0,0.1,0.8,0,0.8,0.1c0,0.1-0.8,0.1-0.8,0.2c0,0.1,1.7,0,1.6,0.1c0,0.1-0.1,0.1-0.1,0.1
				c0,0.1-1.8,0.2-1.8,0.2s0.2,0.1,0.2,0.1c0,0.1,0.1,0.1,0,0.1c-0.1,0.1,0.1,0.1,0.1,0.1s-0.8,0.1-0.8,0.2c0,0.1,1.5,0,1.4,0.1
				s-0.7,0.1-0.8,0.2c0,0.1-0.7,0.1-0.8,0.2c0,0.1,1.4,0,1.4,0.1s-1.7,0.2-1.8,0.2c0,0.1,1.2,0,1.2,0.1c0,0.1,0.4,0,0.4,0.1
				c0,0.1-1.8,0.2-1.9,0.2s2.1,0,2.1,0c0,0.1-1,0.1-1.1,0.2c0,0.1-0.6,0.1-0.6,0.2c0,0.1,1,0,1,0.1c0,0.1-1,0.1-1.1,0.2
				c0,0.1,0.9,0,0.9,0.1s0.5,0,0.5,0.1s-0.6,0.1-0.6,0.2c0,0.1,0.7,0,0.7,0.1s-1.9,0.2-1.9,0.2c0,0.1,1.8,0,1.8,0
				c0,0.1-0.2,0.1-0.2,0.2c0,0.1-1.7,0.2-1.8,0.2c0,0.1,0.7,0,0.7,0.1c0,0.1,0.9,0,0.8,0.1c0,0.1-1.1,0.1-1.5,0.2c0,0,0,0,0.1,0.1
				c0.4,0,1,0,1,0c0,0.1,0,0.1,0,0.1c0,0.1,0.6,0,0.6,0.1C26.7,38.4,26.3,38.4,25.9,38.5L25.9,38.5z M21.1,37.9
				c-0.1-0.1-0.1-0.1-0.2-0.2c-0.1,0-0.1,0-0.2,0C20.8,37.8,20.9,37.8,21.1,37.9z"/>
			<path fill="#00000B" d="M37.6,30c-0.5-0.1-2.3-0.3-2.6-0.2C34.7,30,30.2,30,30.2,30c-1.7-0.4-2.8,0.2-4.7-0.1
				c-1.1-0.2-3.1,0-5.3,0.3c0,0-0.1-0.1-0.1-0.1l0.1-0.1c0.1-0.1,0.3-0.2,0.4-0.3c0.3-0.3,0.5-0.6,0.6-0.9c0,0,0,0,0.1,0
				c0.1,0,0.2,0,0.2,0c0.2,0,0.3-0.1,0.4-0.3H22l0,0.1c-0.1,0.2,0,0.3,0.1,0.4c0.1,0.2,0.3,0.3,0.5,0.2l0.1-0.1c0,0,0.1,0,0.1,0
				c0.2,0.1,0.4,0.1,0.5-0.1l0.1,0c0.1,0,0.1,0,0.2,0c0.1,0,0.1,0,0.2,0c0.2,0,0.4-0.2,0.4-0.4c0.1,0,0.3,0,0.4,0
				c0,0.1,0.1,0.3,0.2,0.3c0.1,0.2,0.3,0.4,0.5,0.2c0.1-0.1,0.2-0.1,0.2-0.2l0.2,0c0.2,0.1,0.4,0.1,0.5-0.1c0,0,0.1-0.1,0.1-0.1
				c0.1,0,0.2,0,0.3,0l0.3,0c0.2,0.3,0.5,0.2,0.5,0.2c0.1,0,0.1,0,0.2,0l0.1,0c0.1,0.1,0.3,0.2,0.5,0.1c0,0,0.1,0,0.1,0l0.1,0.1
				c0.2,0.1,0.4,0,0.5-0.2c0.1-0.1,0.2-0.3,0.1-0.4c0-0.1-0.1-0.1-0.1-0.2l0.3-0.1c0.1,0,0.1,0.1,0.2,0.1c0,0,0.1,0,0.1,0
				c0,0,0.1,0,0.1,0c0.1,0.1,0.2,0.1,0.4,0.1l0,0c0.2,0.1,0.4,0,0.4-0.1c0,0,0.1-0.1,0.1-0.1c0.1,0,0.2,0,0.3,0
				c0,0.1-0.1,0.2-0.1,0.3c-0.1,0.2,0,0.3,0.1,0.4c0.1,0.2,0.3,0.3,0.5,0.2l0.1-0.1c0,0,0.1,0,0.1,0c0.2,0.1,0.4,0.1,0.5-0.1l0.1,0
				c0.1,0,0.1,0,0.2,0c0,0,0.4,0.1,0.5-0.2c0.1,0.2,0.4,0.2,0.4,0.2s0.1,0,0.1,0c0.1,0.1,0.3,0.1,0.4,0.1l0.1,0
				c0.2,0.1,0.4,0,0.4-0.1c0,0,0.1-0.1,0.1-0.1c0.1,0,0.3,0,0.3,0c0,0,0.1,0,0.2,0l0,0c0.1,0.1,0.3,0.2,0.4,0.1c0,0,0,0,0.1,0
				l0.1,0.1c0.2,0.1,0.4,0,0.5-0.1c0.1-0.1,0.1-0.1,0.1-0.2c0.9,0,1.9,0,2.5,0C37.9,29.1,37.8,29.5,37.6,30L37.6,30z M13.5,31.3
				l-0.1,0c-0.2-0.3-0.3-0.6-0.5-0.9l0.8-0.1C13.7,30.6,13.6,31,13.5,31.3L13.5,31.3z M13.8,30.3c0.1-0.2,0.1-0.4,0.2-0.6L12.8,30
				c0.1,0.4,0,0.1,0.2,0.4C13.1,30.3,13.6,30.3,13.8,30.3z"/>
			<path fill="#00000B" d="M30.7,20.3L30.7,20.3L30.7,20.3L30.7,20.3L30.7,20.3z M32.7,14.1c-2.2-1.5-4.8-2.3-7.5-2.3
				c-2.8,0-5.4,0.8-7.5,2.3c-3.3,2.3-5.5,5.9-5.8,10.1c0.3-0.5,0.6-1.2,1.4-2.4c0.1-0.1,0.3-0.2,0.4-0.3c0.1,0.1,0,0.1,0.1,0.2
				c0.1,0.2,0.1,0.1,0.2,0.1c0,0,0.1,0,0.2,0.1l0.2,0.2c0.3,0.2,0.4,0.4,0.5,0.7c0-0.2,0.1-0.3,0-0.4c0,0,0,0,0,0l0,0
				c-0.1-0.1,0-0.1-0.1-0.3c-0.2-0.2-0.4-0.2-0.6-0.5c-0.1-0.1,0-0.1-0.1-0.1l0,0l-0.1-0.1c0.4-0.3,0.7-0.6,0.9-1.1
				c0.2-0.3,0.7-0.8,1-1c0.1-0.2,0.4-0.3,0.7-0.5c0.2-0.2,0.5-0.4,0.7-0.6c0.2-0.2,0.5-0.4,0.8-0.5c1.2-0.3,1.4,0.4,2,0.6
				c0.2,0.1,0.3,0,0.5,0.1c0.1,0.1,0.4,0.2,0.5,0.2c0.3,0.2,0.6,0.4,0.8,0.5s0.5,0.4,0.8,0.5c0.4-0.4,0.6-1.1,1.4-0.9
				c0.1,0,0.2,0,0.3,0.1c0-0.1,0.1-0.2,0.3-0.2c0.1,0,0.2-0.1,0.3-0.1c0-0.3,0.3-0.4,0.4-0.4c0-0.2,0.2-0.7,0.3-0.8
				c0.2-0.3,0.6-0.2,0.7,0.1c0.1,0.1,0.1,0.2,0.1,0.3v0.3c0.1,0.1,0.1,0.2,0,0.3c0.2,0.4,0.4,0.8,0.6,1.2c0.1,0.1,0.1,0.2,0,0.3
				c0.1,0.1,0.1,0.2,0.1,0.2c0.2,0,0.3,0,0.4,0.1c0.2,0.1,0.5,0.4,0.8,0.6l0,0c0,0,0-0.1,0.1-0.1c0-0.1,0-0.3,0.2-0.4
				c0,0,0-0.1,0-0.1c0-0.1,0-0.2,0-0.3c0-0.1,0-0.1,0-0.2c0.1-0.2,0.2-0.4,0.3-0.6c0-0.1,0-0.1,0-0.2v-0.1c0-0.1,0-0.2,0.1-0.2
				c0.1-0.2,0.4-0.3,0.6-0.1l0.2,0.5c0.1,0,0.2,0.1,0.2,0.2l0.1,0c0.2,0.1,0.3,0.3,0.2,0.4c0.1,0.1,0.3,0.1,0.3,0.3
				c0,0.1,0,0.2-0.1,0.2l0,0c0.3-0.2,0.6-0.4,0.7-0.5c0.4-0.4,1.5-1.5,1.9-1.7c0.6-0.4,1.2,0,1.7,0.3c-0.4,0-0.7-0.5-1.1-0.4
				c-0.1,0.4,0.1,0.3,0.1,0.6c0.1,0.2,0,0.5,0.1,0.7c0.2,0.2,0.2,0,0.4,0.3c0.1,0.1,0,0.4,0.1,0.6c0.2,0.2,0.5,0.3,0.6,0.5
				c0.1,0.2,0,0.3,0.1,0.5c0.1,0.2,0.2,0.1,0.4,0.2c0.2,0.6,0.7,0.7,0.5,1.1c-0.4-0.1-0.1-0.6-0.6-0.5c-0.1,0-0.2,0.1-0.2,0.3
				c0,0.2,0.1,0.2,0.2,0.3V22c0.1,0,0.1,0.1,0.1,0.2c0,0,0.1,0,0.1,0c0.2,0.1,0.3,0.3,0.2,0.5c0.1,0.1,0.2,0.1,0.3,0.2
				c0-0.1,0.1-0.3,0-0.4c-0.1-0.3-0.2,0-0.1-0.6l0,0.1c0.2,0.5,0.2,0.2,0.3,0.6c0.1,0.3,0,0.7,0,1c0.5-0.4,0.8,2.3,1.1,2.7
				c0,0,0.6,0.3,1.2,0.4c0.1-0.5,0.1-1,0.1-1.5c0-1.8-0.4-3.5-1-5.1c-0.2-0.4-0.1-0.5-0.6-0.7c-0.2-0.1-1.6-0.7-1.7-1.2
				c0.4,0.3,0.6,0.4,0.7,0.5l0,0c0.5,0.3,0.9,0.5,1.2,0.8C36.2,17.3,34.7,15.5,32.7,14.1L32.7,14.1z M27.3,20.4l-0.3-0.1l0,0l0,0
				c0.1-0.1,0-0.3-0.1-0.4c0,0,0-0.1,0.1-0.1c0.1,0,0.2,0,0.3,0.1c0.1,0.1,0.2,0.1,0.3,0.2c0.1,0.1,0.1,0.1,0.2,0.2
				c0.1,0.1,0.2,0.1,0.3,0.2c0,0.1,0,0.2,0.1,0.3c-0.1,0.1-0.1,0.3,0.1,0.4h0l-0.1,0L28,20.6c-0.1-0.3-0.5-0.2-0.6,0
				C27.4,20.5,27.4,20.5,27.3,20.4L27.3,20.4L27.3,20.4z M35.3,19.5L35.3,19.5c-0.2-0.2-0.2-0.2-0.1-0.3c0.1,0.1,0.1,0.1,0.1,0.2
				c0.1,0.1,0,0.1,0.2,0.1c-0.1,0.5,0.2,0,0,0.7c-0.2-0.1,0-0.1-0.4-0.3L35.3,19.5L35.3,19.5z M21.8,21.1L21.8,21.1
				c0-0.1,0-0.2-0.1-0.3c0-0.1,0-0.2,0-0.2c-0.2-0.3-0.4-0.6-0.5-1c0-0.1,0-0.2,0-0.3v-0.2c0-0.1,0-0.2-0.1-0.3
				c-0.1-0.3-0.5-0.4-0.7-0.1l-0.3,0.7c-0.1,0.1-0.3,0.1-0.4,0.4h0c-0.2-0.2-0.4-0.2-0.5-0.3c-0.1-0.1-0.1-0.3-0.2-0.4
				c-0.3-0.7-0.4-0.2-0.6-1.6c0.2,0.1,0.4,0.2,0.5,0.2c0.2,0,0.3-0.2,0.9,0.4c0.5,0.4,0.5-0.2,0.9,0.3c0.9,1,0.4,0,1.1,0.8
				c0.1,0.1,0.2,0.3,0.4,0.3c0.1,0,0.2,0,0.2,0.1l0,0l-0.2,0.7l0,0c-0.2,0-0.2,0.2-0.3,0.3C22.1,20.9,21.9,20.9,21.8,21.1L21.8,21.1
				z M21.8,21.2L21.8,21.2L21.8,21.2L21.8,21.2L21.8,21.2z M24.2,18.7c0,0.1,0,0.3,0.1,0.4c-0.1,0.1-0.2,0.1-0.3,0.2
				C24,19,23.8,19,23.8,18.7C23.9,18.7,24.1,18.7,24.2,18.7L24.2,18.7z M15.8,22.2c0,0,0-0.1,0-0.1l0.1-0.1
				c-0.3-0.3-0.3-0.4-0.8-0.6c-0.2-0.1-0.7-0.5-0.6-0.7c0.1-0.1,0.4-0.2,0.7-0.1c0.2,0.1,0.3,0.3,0.4,0.5c0.3,0.3,0.6,0.3,0.9,0.3
				l-0.2,0.5c-0.1,0.1-0.3,0.1-0.3,0.3C15.8,22.1,15.8,22.2,15.8,22.2L15.8,22.2z M17.2,21.8c0.3,0.2,0.5,0.4,0.7,1
				c-0.1,0.1-0.1,0.2-0.2,0.3c0,0,0-0.1-0.1-0.1c0-0.1,0-0.2,0-0.2C17.4,22.5,17.3,22.2,17.2,21.8C17.2,21.8,17.2,21.8,17.2,21.8
				L17.2,21.8z M31.5,19.7C31.5,19.7,31.4,19.7,31.5,19.7c-0.3-0.2-0.2,0-0.3-0.3c0.2,0,0.3,0.1,0.5,0.2c0.3,0.2,0.1,0.1,0.5,0.1
				c0.2,0,0.2,0.1,0.4,0.2l0.2,0.1c0.1,0-0.1,0.1,0.2,0.1c-0.2,0.4,0,0.2,0.1,0.5l-0.8-0.4c-0.6-0.4-0.3-0.3-0.6-0.2l0,0
				C31.8,19.8,31.6,19.7,31.5,19.7L31.5,19.7z M15.8,19.2c0.2,0,0.3,0.1,0.5,0.2c0.3,0.2,0.1,0.1,0.5,0.2c0.3,0,0.2,0.1,0.5,0.2
				l0.3,0.2l0.1,0c-0.1,0.2,0,0.3,0.1,0.4L16.9,20c-0.7-0.4-0.2-0.3-0.8-0.2C16,19.2,15.9,19.7,15.8,19.2z"/>
			<path fill="#00000B" d="M32.8,27.3c0,0,0.1-0.1,0.1-0.1C32.8,27.3,32.8,27.3,32.8,27.3c-0.1,0-0.2,0.1-0.2,0.1v0l0,0v0
				C32.6,27.5,32.7,27.4,32.8,27.3L32.8,27.3L32.8,27.3z M36.4,27.2c0,0.1,0,0.1,0,0.2c-0.1-0.1-0.2-0.2-0.3-0.3l0,0
				c0.1,0.1-0.1,0.2-0.1,0.1c0,0,0,0-0.1,0l0,0c0,0,0,0.1-0.1,0.1c0,0,0.1,0,0.1,0.1c0.1,0,0,0.2-0.1,0.1c-0.2-0.1-0.4-0.2-0.5-0.3
				c0,0,0,0.1,0.1,0.1c0,0.1-0.1,0.1-0.1,0.1c-0.1-0.1-0.2-0.3-0.3-0.4c0,0.1,0.1,0.2,0.1,0.2c0,0.1-0.1,0.1-0.1,0.1
				c0,0-0.1-0.1-0.1-0.1v0v0c0,0.2,0,0.4,0,0.6c0.1,0.3,0.2,0.5,0.3,0.8c0,0.1-0.1,0.2-0.1,0.1c0,0,0,0,0,0c0,0.1,0,0.1-0.1,0.1
				c-0.1-0.1-0.2-0.1-0.2-0.2c0,0,0,0-0.1,0s-0.1,0-0.1,0c0,0.1-0.1,0.1-0.1,0c-0.1,0-0.1-0.1-0.2-0.1c0,0,0,0-0.1,0
				c0,0-0.1,0-0.1,0c-0.1,0-0.1,0.1-0.2,0.1s-0.1-0.1,0-0.2c0.3-0.2,0.4-0.4,0.4-0.7l0,0l0,0l0,0l0,0l0,0l0,0l0,0l0,0l0,0l0,0l0,0
				l0,0l0,0l0,0l0,0l0,0l0,0l0,0l0,0l0,0l0,0l0,0l0,0l0,0l0,0l0,0l0,0l0,0l0,0l0,0l0,0l0,0l0,0l0,0l0,0l0,0l0,0l0,0l0,0l0,0l0,0l0,0
				l0,0l0,0l0,0l0,0l0,0l0,0l0,0l0,0l0,0l0,0l0,0l0,0l0,0l0,0l0,0l0,0l0,0l0,0l0,0l0,0l0,0l0,0l0,0l0,0l0,0l0,0l0,0l0,0l0,0l0,0l0,0
				l0,0l0,0l0,0l0,0l0,0l0,0l0,0l0,0l0,0l0,0l0,0l0,0l0,0l0,0l0,0l0,0l0,0l0,0l0,0l0,0l0,0l0,0l0,0l0,0l0,0l0,0l0,0l0,0l0,0l0,0l0,0
				l0,0l0,0l0,0l0,0l0,0l0,0l0,0l0,0l0,0c0.2,0.1,0.4-0.2,0.2-0.3l-0.1-0.1l0,0l0,0l0,0l0,0l0,0l0,0l0,0l0,0l0,0l0,0l0,0l0,0l0,0
				l0,0l0,0l0,0l0,0l0,0l0,0l0,0l0,0l0,0l0,0l0,0l0,0l0,0l0,0l0,0l0,0l0,0l0,0l0,0l0,0l0,0l0,0l0,0l0,0l0,0l0,0l0,0l0,0l0,0l0,0l0,0
				l0,0l0,0l0,0l0,0l0,0l0,0l0,0l0,0l0,0l0,0l0,0l0,0l0,0l0,0l0,0l0,0l0,0l0,0l0,0l0,0l0,0l0,0l0,0l0,0l0,0l0,0l0,0l0,0l0,0l0,0l0,0
				l0,0l0,0l0,0l0,0l0,0l0,0l0,0l0,0l0,0l0,0l0,0l0,0l0,0l0,0l0,0l0,0l0,0l0,0l0,0l0,0l0,0l0,0l0,0l0,0l0,0l0,0l0,0l0,0l0,0l0,0l0,0
				l0,0l0,0l0,0l0,0l0,0l0,0l0,0l0,0l0,0l0,0l0,0l0,0l0,0l0,0l0,0l0,0l0,0c0,0,0.1,0,0.1,0c0-0.1,0-0.2-0.1-0.4c0,0,0,0.1-0.1,0.1
				l0,0l0,0l0,0l0,0l0,0l0,0l0,0l0,0l0,0l0,0l0,0l0,0l0,0l0,0l0,0l0,0l0,0l0,0l0,0l0,0l0,0l0,0l0,0l0,0l0,0l0,0l0,0l0,0l0,0l0,0l0,0
				l0,0l0,0l0,0l0,0l0,0l-0.1-0.1c0,0,0-0.1,0-0.1l0,0l0,0l0,0l0,0l0,0l0,0l0,0l0,0l0,0l0,0l0,0l0,0l0,0l0,0l0,0l0,0l0,0l0,0l0,0
				l0,0l0,0l0,0l0,0l0,0l0,0l0,0l0,0l0,0l0,0l0,0l0,0l0,0l0,0l0,0l0,0l0,0l0,0l0,0l0,0l0,0l0,0l0,0l0,0l0,0l0,0l0,0l0,0l0,0l0,0l0,0
				l0,0l0,0l0,0l0,0l0,0l0,0c0,0,0,0,0,0l0,0l0,0l0,0l0,0l0,0l0,0l0,0l0,0l0,0l0,0l0,0l0,0l0,0l0,0l0,0l0,0l0,0l0,0l0,0l0,0l0,0l0,0
				l0,0l0,0l0,0l0,0l0,0l0,0c0,0,0,0,0,0l0,0l0,0l0,0l0,0l0,0l0,0l0,0l0,0l0,0l0,0h0l0,0v0c0,0,0,0,0,0l0,0l0,0l0,0l0,0l0,0l0,0l0,0
				l0,0l0,0l0,0l0,0l0,0l0,0l0,0l0,0l0,0l0,0l0,0l0,0l0,0l0,0l0,0l0,0l0,0l0,0l0,0l0,0l0,0l0,0l0,0l0,0l0,0l0,0l0,0l0,0l0,0l0,0l0,0
				l0,0l0,0l0,0l0,0l0,0l0,0l0,0l0,0l0,0l0,0l0,0l0,0l0,0l0,0l0,0l0,0l0,0l0,0l0,0l0,0l0,0l0,0l0,0l0,0l0,0l0,0l0,0l0,0l0,0l0,0l0,0
				l0,0l0,0l0,0l0,0l-0.1,0l0,0l0,0c0,0,0,0,0,0l0,0l0,0l0,0l0,0l0,0h0l0,0l0,0c0,0,0,0,0.1,0l0,0c0,0,0,0,0,0l0,0l0,0l0,0l0,0l0,0
				l0,0l0,0l0,0l0,0l0,0l0,0l0,0l0,0l0,0l0,0l0,0l0,0l0,0l0,0l0,0l0,0l0,0l0,0l0,0l0,0l0,0l0,0l0,0l0,0l0,0l0,0l0,0l0,0l0,0l0,0l0,0
				l0,0l0,0l0,0l0,0l0,0l0,0l0,0l0,0l0,0l0,0l0,0l0,0l0,0l0,0l0,0l0,0l0,0l0,0l0,0l0,0l0,0l0,0l0,0l0,0l0,0l0,0l0,0l0,0l0,0l0,0l0,0
				l0,0l0,0l0,0l0,0l0,0l0,0l0,0l0,0l0,0l0,0l0,0l0,0l0,0l0,0l0,0l0,0l0,0l0,0l0,0l0,0l0,0l0,0l0,0l0,0l0,0l0,0l0,0
				c-0.1,0-0.2-0.1-0.3-0.2c0.2,0.1,0.3-0.2,0.1-0.3c-0.1-0.1-0.1-0.1-0.2-0.2c0.1-0.1,0.1-0.2,0-0.2c0.1-0.1,0.1-0.2,0-0.3l0,0l0,0
				l0,0l0,0l0,0l0,0l0,0l0,0l0,0l0,0l0,0l0,0l0,0l0,0l0,0l0,0l0,0l0,0l0,0l0,0l0,0l0,0l0,0l0,0l0,0l0,0l0,0l0,0l0,0l0,0l0,0l0,0l0,0
				l0,0l0,0l0,0l0,0l0,0l0,0l0,0l0,0l0,0l0,0l0,0l0,0l0,0l0,0l0,0l0,0l0,0l0,0l0,0l0,0l0,0l0,0l0,0l0,0l0,0l0,0l0,0l0,0l0,0l0,0l0,0
				l0,0l0,0l0,0l0,0l0,0l0,0l0,0l0,0l0,0l0,0l0,0l0,0l0,0l0,0l0,0l0,0l0,0l0,0l0,0l0,0l0,0l0,0l0,0l0,0l0,0l0,0l0,0l0,0l0,0l0,0l0,0
				l0,0l0,0l0,0l0,0l0,0l0,0l0,0l0,0l0,0l0,0l0,0l0,0l0,0l0,0l0,0l0,0l0,0l0,0l0,0l0,0l0,0l0,0l0,0l0,0l0,0l0,0l0,0l0,0l0,0l0,0l0,0
				l0,0l0,0l0,0l0,0l0,0l0,0l0,0l0,0l0,0l0,0l0,0l0,0l0,0l0,0l0,0l0,0l0,0l0,0l0,0l0,0l0,0l0,0l0,0l0,0l0,0l0,0l0,0l0,0l0,0l0,0l0,0
				l0,0l0,0l0,0l0,0l0,0l0,0l0,0l0,0l0,0l0,0l0,0l0,0l0,0l0,0l0,0l0,0l0,0l0,0l0,0l0,0l0,0l0,0l0,0l0,0l0,0l0,0l0,0l0,0l0,0l0,0l0,0
				l0,0l0,0l0,0l0,0l0,0l0,0l0,0l0,0l0,0l0,0l0,0l0,0l0,0l0,0l0,0l0,0l0,0l0,0l0,0l0,0l0,0l0,0l0,0l0,0l0,0l0,0l0,0l0,0l0,0l0,0l0,0
				l0,0l0,0l0,0l0,0l0,0l0,0l0,0l0,0l0,0l0,0l0,0l0,0l0,0l0,0l0,0l0,0l0,0l0,0l0,0l0,0l0,0l0,0l0,0l0,0l0,0l0,0l0,0l0,0l0,0l0,0l0,0
				l0,0l0,0l0,0l0,0l0,0l0,0l0,0l0,0l0,0l0,0l0,0l0,0l0,0l0,0l0,0l0,0l0,0l0,0l0,0l0,0l0,0l0,0l0,0l0,0l0,0l0,0h0v0
				c0-0.1,0-0.1,0-0.2c-0.1,0-0.1,0.1-0.2,0.1l0,0l0,0l0,0l0,0l0,0l0,0l0,0c0.1-0.1,0.1-0.3-0.1-0.3l0,0l0,0l0,0l0,0l0,0l0,0l0,0
				l0,0l0,0l0,0l0,0l0,0l0,0l0,0l0,0l0,0l0,0l0,0l0,0l0,0l0,0l0,0l0,0l0,0l0,0l0,0l0,0l0,0l0,0l0,0l0,0l0,0l0,0l0,0l0,0l0,0l0,0l0,0
				l0,0l0,0l0,0l0,0l0,0l0,0l0,0l0,0l0,0l0,0l0,0l0,0l0,0l0,0l0,0l0,0l0,0l0,0l0,0l0,0l0,0l0,0l0,0l0,0l0,0l0,0l0,0l0,0l0,0l0,0l0,0
				l0,0l0,0l0,0l0,0l0,0l0,0l0,0l0,0l0,0l0,0l0,0l0,0l0,0l0,0l0,0l0,0c0,0,0,0,0,0c0.1,0,0.1-0.1,0.2-0.1c0,0,0-0.1,0-0.1s0,0,0-0.1
				c0,0-0.1,0-0.1,0c-0.1,0-0.1-0.1,0-0.1c0,0,0.1,0,0.1-0.1c0.1-0.1,0.1-0.1,0.2-0.2h0c-0.1,0-0.1-0.1-0.1-0.1
				c0.1-0.1,0.2-0.2,0.3-0.3c0,0,0,0,0,0l0,0c-0.1,0.1-0.2,0.2-0.3,0.2c-0.1,0-0.1,0-0.1-0.1c0,0,0.1-0.1,0.1-0.1
				c0,0-0.1-0.1-0.1-0.1c0.2-0.3,0.3-0.5,0.4-0.8l0,0c0,0,0-0.1,0-0.1v0c0,0,0,0,0-0.1c0,0,0-0.1,0-0.1v0c0,0,0,0,0-0.1
				c0-0.1,0.1-0.1,0.1-0.1c0,0,0,0,0-0.1c0-0.1,0.1-0.1,0.1-0.1c0.1,0.1,0.1,0.3,0.2,0.4c0,0,0,0.1,0,0.1l0,0v0
				c0.1,0.1,0.1,0.1,0.2,0.1c0.1,0,0.1,0.1,0,0.2c0.1,0.1,0.2,0.1,0.3,0.1c0.1,0,0.1,0.2-0.1,0.2c0,0-0.1,0-0.1,0
				c0.2,0.2,0.4,0.3,0.6,0.4c0.1,0.1,0,0.2-0.1,0.1c-0.1,0-0.2-0.1-0.2-0.1h0c0,0.1,0.1,0.1,0.1,0.2s0,0.1-0.1,0.1
				c0.1,0.1,0.3,0.2,0.4,0.3c0.1,0.1,0,0.2-0.1,0.2c-0.1,0-0.1-0.1-0.2-0.1c0,0,0,0-0.1,0l0,0c0.1,0.1,0.2,0.2,0.4,0.3
				c0.1,0.1,0,0.2-0.1,0.1l0,0c0,0,0,0.1,0,0.1c0.2,0.1,0.3,0.3,0.5,0.4c0.1,0.1,0,0.2-0.1,0.2c0,0-0.1,0-0.1-0.1c0,0-0.1,0-0.1,0
				c0,0-0.1-0.1-0.1-0.1c0,0-0.1,0-0.1,0l0,0c0,0,0.1,0.1,0.1,0.1c0.1,0.1,0.1,0.2,0.2,0.3c0.2,0.1,0.3,0.2,0.5,0.3
				c0.1,0,0.1,0.2-0.1,0.2c-0.1,0-0.1-0.1-0.2-0.1c0,0,0,0.1-0.1,0.1c0,0,0,0-0.1,0c0,0.1,0.1,0.1,0.1,0.2v0c0.1,0,0.1,0.1,0.2,0.1
				C36.5,26.9,36.4,27.1,36.4,27.2C36.2,27,36.2,27,36.1,27c0,0.1,0.1,0.1,0.1,0.2c0.1,0.1,0,0.2-0.1,0.1c0,0.1,0.1,0.1,0.1,0.2
				c0,0.1,0,0.1,0,0.1c0,0,0,0,0.1,0c0.1,0,0.1,0.3-0.1,0.2c0,0-0.1,0-0.1,0c0,0,0,0,0,0.1c0.1,0.1,0.2,0.1,0.3,0.2
				c0.1,0.1,0,0.2,0,0.2L36.4,27.2L36.4,27.2z M30.3,27.3L30.3,27.3C30.3,27.4,30.3,27.3,30.3,27.3C30.3,27.3,30.3,27.3,30.3,27.3
				L30.3,27.3z M29.8,27.4c0,0.1,0,0.2,0,0.2c0,0.2,0.1,0.4,0.2,0.5c0,0.1,0,0.1-0.1,0.1v0c0,0,0,0.1-0.1,0.1
				c-0.1,0-0.1-0.1-0.2-0.1l0,0c0,0-0.1,0-0.1,0c0,0-0.1,0-0.1,0c-0.1,0-0.1,0-0.1-0.1c0,0,0,0-0.1,0c0,0-0.1,0-0.1,0
				c0,0-0.1,0-0.2,0c-0.1,0-0.1-0.1,0-0.1c0.3-0.1,0.3-0.4,0.2-0.7c0,0,0,0.1-0.1,0.1c-0.2-0.1-0.4-0.2-0.6-0.3c0,0.1,0,0.1,0.1,0.2
				c0,0.1-0.1,0.1-0.1,0.1c-0.1-0.2-0.2-0.3-0.3-0.4c0,0.1,0.1,0.2,0.1,0.3c0,0.1-0.1,0.1-0.1,0.1c0,0-0.1-0.1-0.1-0.1v0v0
				c0,0.2,0,0.4,0,0.6c0.1,0.3,0.2,0.6,0.3,0.9c0,0.1-0.1,0.2-0.1,0.1c0,0,0,0,0,0.1c0,0.1,0,0.1-0.1,0.1c-0.1-0.1-0.2-0.1-0.3-0.2
				c0,0,0,0-0.1,0s-0.1,0-0.1,0c0,0.1-0.1,0.1-0.1,0c-0.1,0-0.2-0.1-0.2-0.2c0,0-0.1,0-0.1,0.1c0,0-0.1,0-0.1,0
				c-0.1,0-0.2,0.1-0.3,0.1c-0.1,0-0.1-0.1-0.1-0.2c0.5-0.3,0.5-0.7,0.4-1.2c0-0.2,0.2-0.2,0.2-0.1v0h0c0,0,0.1,0,0.1,0
				c0-0.1,0-0.3-0.1-0.4c0,0-0.1,0.1-0.1,0.1l0,0c0,0.1-0.1,0.1-0.1,0.2c-0.1,0-0.2,0-0.1-0.1c0.2-0.2,0.3-0.4,0.4-0.7v0
				c-0.1,0.2-0.3,0.4-0.4,0.5c-0.1,0.1-0.2,0.3-0.3,0.4c0,0.1-0.2,0-0.1-0.1c0,0,0.1-0.1,0.1-0.1c0,0-0.1,0-0.1,0c0,0-0.1,0-0.1,0
				c-0.2,0.2-0.5,0.4-0.8,0.4c-0.1,0-0.1-0.2,0-0.2c0.1,0,0.2,0,0.2-0.1c-0.1,0-0.1,0-0.2-0.1c-0.1,0,0-0.1,0-0.1c0,0,0-0.1,0-0.1h0
				v0c0,0,0.1-0.1,0.1-0.1c0,0,0,0,0-0.1c0,0,0.1-0.1,0.1-0.1c0,0,0-0.1,0.1-0.1c0,0-0.1-0.1,0-0.1c0.1-0.1,0.1-0.1,0.2-0.2
				c0,0,0-0.1,0-0.1v0l0,0c0,0,0,0,0-0.1c0,0,0-0.1,0-0.1l0,0c-0.1,0-0.2,0.1-0.3,0.1s-0.2-0.1-0.1-0.2c0.1,0,0.2-0.1,0.3-0.1
				c0,0,0-0.1,0-0.1c0.1,0,0.2-0.1,0.3-0.1c0,0,0-0.1,0-0.1c-0.2,0.1-0.3,0.2-0.5,0.3c-0.1,0-0.1-0.1-0.1-0.2
				c0.2-0.1,0.4-0.2,0.5-0.4c-0.1,0-0.2,0-0.3,0c-0.1,0-0.1-0.1,0-0.2c0,0,0.1,0,0.1,0c0,0,0-0.1,0.1-0.1c0.1,0,0.2-0.1,0.3-0.1l0,0
				c0,0-0.1,0-0.1,0.1c-0.1,0-0.2-0.1-0.1-0.2c0.1,0,0.2-0.1,0.2-0.1c0,0,0-0.1,0-0.1c-0.1,0-0.2,0.1-0.3,0.1c0,0-0.1,0-0.1,0l0,0
				c-0.1,0-0.1-0.1-0.1-0.1c0.2-0.1,0.3-0.2,0.4-0.3v0c0-0.1,0-0.1,0-0.2c-0.1,0-0.1,0.1-0.2,0.1S26.7,24,26.7,24
				c-0.1,0-0.1,0-0.2,0c-0.1,0-0.1-0.1,0-0.2c0.1,0,0.1-0.1,0.2-0.1c-0.1,0-0.1-0.1,0-0.1c0.1,0,0.2-0.1,0.2-0.1c0,0,0-0.1,0-0.1
				c0,0,0,0,0-0.1c0,0-0.1,0-0.1,0c-0.1,0-0.1-0.1,0-0.2c0,0,0.1,0,0.1-0.1c0.1-0.1,0.1-0.1,0.2-0.2l0,0c-0.1,0-0.1-0.1-0.1-0.1
				c0.1-0.1,0.3-0.2,0.3-0.4c0,0,0,0,0-0.1l0,0c-0.1,0.1-0.2,0.2-0.3,0.2c-0.1,0-0.1,0-0.1-0.1c0,0,0.1-0.1,0.1-0.1
				c-0.1,0-0.1-0.1-0.1-0.1c0.2-0.3,0.3-0.6,0.5-0.9l0,0c0,0,0-0.1,0-0.1v0c0,0,0,0,0-0.1c0,0,0-0.1,0-0.1v0c0,0,0,0,0-0.1
				c0-0.1,0.1-0.1,0.1-0.1c0,0,0,0,0-0.1c0-0.1,0.1-0.1,0.1-0.1c0.1,0.2,0.1,0.3,0.2,0.5c0,0,0,0.1,0,0.1l0,0v0
				c0.1,0.1,0.2,0.1,0.3,0.1c0.1,0,0.1,0.1,0,0.2c0.1,0.1,0.2,0.1,0.4,0.2c0.1,0,0.1,0.2-0.1,0.2c0,0-0.1,0-0.1,0
				c0.2,0.2,0.4,0.3,0.6,0.5c0.1,0.1,0,0.2-0.1,0.2c-0.1,0-0.2-0.1-0.3-0.1h0c0,0.1,0.1,0.1,0.1,0.2s0,0.1-0.1,0.1
				c0.1,0.1,0.3,0.3,0.5,0.4c0.1,0.1,0,0.3-0.1,0.2c-0.1-0.1-0.2-0.1-0.2-0.2c0,0,0,0-0.1,0l0,0c0.1,0.1,0.3,0.3,0.4,0.4
				c0.1,0.1,0,0.2-0.1,0.1l0.1-0.1c0,0,0,0.1,0,0.1c0.2,0.2,0.4,0.3,0.5,0.5c0.1,0.1,0,0.2-0.1,0.2c0,0-0.1-0.1-0.1-0.1
				c0,0-0.1,0.1-0.1,0c0,0-0.1-0.1-0.1-0.1c0,0-0.1,0-0.1,0l0,0c0,0,0.1,0.1,0.1,0.1c0.1,0.1,0.1,0.2,0.2,0.3
				c-0.1,0.2,0,0.4,0.3,0.3c0,0,0.1,0,0.1-0.1c0,0,0,0,0.1,0L29.6,25l0,0l0,0h0h0v0c0,0-0.1,0-0.1,0c-0.1,0-0.1,0.1-0.1,0.2
				c-0.2-0.2-0.3-0.5-0.5-0.7c0,0-0.1-0.1-0.1-0.1c0.2,0.3,0.3,0.5,0.5,0.8c0,0,0.1,0.1,0.1,0.1c0,0.1,0.1,0.3,0.3,0.2
				c0,0,0,0.1,0,0.1c0,0-0.1,0-0.1,0c0.1,0.1,0.1,0.2,0.2,0.2c0,0,0,0,0,0l0,0.1v0c0,0-0.1,0-0.1,0l0.1,0.1c-0.1,0.1-0.1,0.3,0,0.4
				c0,0-0.1,0-0.1,0.1l0,0l0,0c0,0,0,0-0.1,0c-0.1,0.1-0.1,0.2-0.1,0.3c0,0-0.1,0.1-0.2,0.1c-0.2-0.3-0.4-0.6-0.6-0.8l0,0
				c0,0-0.1,0-0.1-0.1c0-0.1,0-0.1-0.1-0.2c-0.1,0-0.1,0-0.1-0.1v0c0,0,0,0.1,0,0.1c0.1,0.2,0.2,0.3,0.3,0.5h0
				c0.2,0.2,0.4,0.4,0.5,0.6l0,0c-0.2,0.2,0,0.5,0.2,0.3l0,0l0,0c0,0,0.1,0,0.1-0.1c0,0,0,0,0,0v0h0c0,0,0,0,0.1,0c0,0,0-0.1,0-0.1
				c0,0,0,0,0.1,0h0h0c0,0,0.1-0.1,0.1-0.1c0,0,0.1,0.1,0.1,0.1C29.8,27.2,29.8,27.3,29.8,27.4L29.8,27.4
				C29.7,27.3,29.8,27.4,29.8,27.4L29.8,27.4z M29.5,28.1L29.5,28.1C29.5,28,29.5,28,29.5,28.1L29.5,28.1C29.5,28,29.5,28,29.5,28.1
				C29.5,28,29.5,28,29.5,28.1L29.5,28.1L29.5,28.1z M29.6,28.1L29.6,28.1L29.6,28.1C29.6,28.1,29.6,28.1,29.6,28.1L29.6,28.1
				C29.6,28.1,29.6,28.1,29.6,28.1L29.6,28.1z M29.6,27.8c0,0.1,0,0.2,0,0.2l0,0h0c0.1,0,0.1,0,0.1,0.1l0,0c0-0.1,0-0.1-0.1-0.2
				C29.7,27.9,29.7,27.9,29.6,27.8L29.6,27.8L29.6,27.8z M14.9,27.2C15,27.2,15,27.2,14.9,27.2c0.1,0,0.1,0,0.2-0.1
				C15,27.2,15,27.3,14.9,27.2C14.9,27.3,14.9,27.3,14.9,27.2L14.9,27.2z M15,26.2c0.2-0.3,0.4-0.5,0.6-0.8c0,0,0.1-0.1,0.1-0.1
				c-0.2,0.3-0.3,0.6-0.5,0.8C15.1,26.1,15,26.2,15,26.2L15,26.2L15,26.2z M17.2,22.9L17.2,22.9C17.2,22.9,17.2,22.9,17.2,22.9
				C17.2,22.9,17.2,22.9,17.2,22.9L17.2,22.9L17.2,22.9z M16.5,22.6c0-0.1,0.1-0.1,0.1-0.2c0,0,0,0.1,0,0.1L16.5,22.6
				C16.5,22.5,16.5,22.6,16.5,22.6C16.5,22.6,16.5,22.6,16.5,22.6L16.5,22.6L16.5,22.6z M17.2,23.9L17.2,23.9
				C17.2,23.9,17.2,23.9,17.2,23.9L17.2,23.9L17.2,23.9z M16.8,23.6c0-0.1,0-0.1,0-0.2C16.8,23.5,16.9,23.5,16.8,23.6
				C16.9,23.5,16.9,23.6,16.8,23.6L16.8,23.6L16.8,23.6z M16.2,23.6L16.2,23.6c0.1-0.1,0.2-0.2,0.3-0.3c0,0,0-0.1,0-0.1
				c0,0,0.1-0.1,0.1-0.1c0,0,0-0.1,0-0.1c0,0,0-0.1,0.1-0.1c0,0.3-0.1,0.5-0.1,0.8c0,0,0,0,0,0.1c0,0.1,0,0.1-0.1,0.2v0l0,0l0,0
				c0-0.1,0-0.1,0-0.1c0-0.1,0.1-0.1,0.1-0.2c0.1-0.1-0.1-0.2-0.1-0.1C16.2,23.5,16.2,23.5,16.2,23.6L16.2,23.6L16.2,23.6z M17,22.8
				L17,22.8L17,22.8L17,22.8L17,22.8z M21.3,28.5c0.1,0,0.1,0,0.2,0c0.1,0,0.2-0.2,0.1-0.2c0,0-0.1,0-0.1-0.1l0,0l0,0l0,0l0,0l0,0
				l0,0l0,0l0,0l0,0l0,0l0,0l0,0l0,0l0,0l0,0l0,0l0,0l0,0l0,0l0,0l0,0l0,0l0,0l0,0l0,0l0,0l0,0l0,0l0,0l0,0l0,0l0,0l0,0l0,0l0,0l0,0
				l0,0l0,0l0,0l0,0l0,0l0,0l0,0l0,0l0,0l0,0l0,0l0,0l0,0l0,0l0,0l0,0l0,0l0,0l0,0l0,0l0,0l0,0l0,0l0,0l0,0l0,0l0,0l0,0l0,0l0,0l0,0
				L21.3,28.5L21.3,28.5L21.3,28.5L21.3,28.5L21.3,28.5L21.3,28.5L21.3,28.5L21.3,28.5L21.3,28.5L21.3,28.5z M22.5,27
				c0.1,0,0.2,0,0.3,0s0.1-0.2,0-0.2c0,0-0.1,0-0.1,0l0,0l0,0l0,0l0,0l0,0l0,0l0,0l0,0l0,0l0,0l0,0l0,0l0,0l0,0L22.5,27L22.5,27
				L22.5,27L22.5,27L22.5,27z M22,23.4c0.1,0,0.1-0.1,0-0.2c-0.2-0.1-0.4-0.2-0.5-0.3v0c0-0.1,0-0.1,0-0.2c0.1,0,0.2,0.1,0.2,0.1
				c0.1,0,0.1-0.1,0.1-0.1c0.1,0,0.2,0,0.3,0s0.1-0.1,0-0.2c-0.1,0-0.2-0.1-0.2-0.1c0.1,0,0.2-0.1,0.1-0.2c-0.1,0-0.2-0.1-0.3-0.2
				c0,0,0.1-0.1,0-0.1c0,0,0,0,0-0.1c0.1,0,0.1,0,0.2,0c0.1,0,0.1-0.2,0-0.2c-0.1,0-0.1,0-0.2-0.1c-0.1-0.1-0.2-0.2-0.2-0.2l0,0
				c0.1,0,0.2-0.1,0.1-0.2c-0.2-0.1-0.3-0.2-0.4-0.4c0,0,0,0-0.1-0.1l0,0c0.1,0.1,0.2,0.2,0.4,0.3c0.1,0,0.2-0.1,0.1-0.1
				c0-0.1-0.1-0.1-0.2-0.1c0.1,0,0.1-0.1,0.1-0.1c-0.2-0.4-0.4-0.7-0.6-1.1l0,0c0,0,0-0.1,0-0.1v0c0,0,0-0.1,0-0.1c0,0,0-0.1,0-0.1
				v0c0,0,0-0.1,0-0.1c0-0.1-0.1-0.1-0.1-0.1c0,0,0,0,0-0.1c0-0.1-0.1-0.2-0.2-0.1c-0.1,0.2-0.2,0.4-0.2,0.6c0,0,0,0.1,0,0.1l0,0v0
				c-0.1,0.1-0.2,0.1-0.3,0.2c-0.1,0-0.1,0.1,0,0.2c-0.1,0.1-0.3,0.2-0.4,0.2c-0.2,0-0.1,0.3,0.1,0.3c0.1,0,0.1,0,0.2,0
				c-0.2,0.2-0.5,0.4-0.7,0.5c-0.1,0.1,0,0.3,0.1,0.2s0.2-0.1,0.3-0.2h0c-0.1,0.1-0.1,0.1-0.2,0.2s0,0.2,0.1,0.1
				c-0.2,0.2-0.4,0.3-0.6,0.5c-0.1,0.1,0,0.3,0.1,0.2c0.1-0.1,0.2-0.1,0.3-0.2c0,0,0.1,0,0.1,0l0,0c-0.2,0.2-0.3,0.3-0.5,0.4
				c-0.1,0.1,0,0.3,0.1,0.2l0,0c0,0,0,0.1,0,0.1c-0.2,0.2-0.4,0.4-0.7,0.5c-0.1,0.1,0,0.3,0.1,0.2c0,0,0.1-0.1,0.1-0.1
				c0,0,0.1,0.1,0.1,0c0-0.1,0.1-0.1,0.1-0.2c0,0,0.1,0.1,0.2,0l0.1,0c0,0.1-0.1,0.1-0.1,0.2c-0.1,0.1-0.2,0.3-0.3,0.4
				c-0.2,0.2-0.5,0.3-0.7,0.4c-0.2,0.1-0.1,0.3,0.1,0.3c0.1,0,0.2-0.1,0.3-0.1c0,0.1,0,0.1,0.1,0.1c0,0,0,0,0.1,0
				c-0.1,0.1-0.1,0.2-0.2,0.3v0c-0.1,0-0.2,0.1-0.2,0.1c-0.2,0.1-0.1,0.3,0.1,0.2c0.1,0,0.2-0.1,0.3-0.1c-0.1,0.1-0.1,0.2-0.2,0.3
				c-0.1,0.1,0.1,0.2,0.2,0.2c-0.1,0.1-0.1,0.2-0.2,0.3l0,0l0,0l0,0c0.2-0.1,0.4-0.1,0.6-0.2c0.3-0.1,0.4-0.2,0.6-0.4l0-0.2
				c0-0.3,0.1-0.6,0.3-0.8c0.3-0.5,0.7-0.8,1.2-0.8c0.1,0,0.2,0,0.4,0.1h0l0,0l0,0l0,0l0,0l0,0l0,0l0,0l0,0l0,0l0,0l0,0l0,0l0,0l0,0
				l0,0l0,0l0,0l0,0l0,0l0,0l0,0l0,0l0,0l0,0l0,0l0,0l0,0l0,0l0,0l0,0l0,0l0,0l0,0l0,0l0,0l0,0l0,0l0,0l0,0l0,0l0,0l0,0l0,0l0,0l0,0
				l0,0l0,0l0,0l0,0l0,0l0,0l0,0l0,0l0,0l0,0l0,0l0,0l0,0l0,0l0,0l0,0l0,0l0,0L22,23.4L22,23.4L22,23.4L22,23.4L22,23.4L22,23.4
				L22,23.4L22,23.4L22,23.4z M18.4,25.5C18.4,25.5,18.4,25.5,18.4,25.5l0.1-0.2c-0.1-0.1-0.2-0.2-0.1-0.3v0h0
				c-0.3,0.1-0.4-0.3-0.1-0.4c0.1,0,0.1-0.1,0.2-0.1l0,0l0,0l0.1-0.2c0,0-0.1,0-0.1-0.1c-0.1,0-0.1,0-0.2,0.1
				c-0.2,0.1-0.3-0.1-0.3-0.2l0,0l0,0c0-0.1,0-0.2,0.2-0.2c0,0,0.1,0,0.1,0v-0.1c0,0,0,0,0,0c0,0,0,0.1,0,0.1c0.1,0,0.2-0.1,0.3-0.1
				c0-0.1,0-0.2,0-0.3c-0.1-0.1-0.2-0.3,0-0.4v-0.1l0,0c0.1-0.1,0.2-0.2,0.3-0.3c0,0,0,0-0.1,0c-0.1,0-0.1-0.1-0.2-0.1v0l0,0
				c0,0,0,0,0-0.1c0-0.1-0.1-0.3-0.2-0.4c0-0.1-0.1,0-0.1,0c0,0,0,0,0,0.1c0,0-0.1,0-0.1,0.1c0,0,0,0,0,0.1v0c0,0,0,0,0,0.1
				c0,0,0,0,0,0.1v0c0,0,0,0,0,0.1l0,0c-0.1,0.3-0.2,0.5-0.4,0.8c0,0,0.1,0,0.1,0c0,0-0.1,0.1-0.1,0.1c0,0,0,0.1,0.1,0.1
				c0.1,0,0.2-0.1,0.3-0.2l0,0l0,0c-0.1,0.1-0.2,0.2-0.3,0.3c-0.1,0,0,0.1,0,0.1h0c0,0.1-0.1,0.1-0.2,0.2c0,0,0,0,0,0
				c0,0,0-0.1-0.1-0.1c0,0-0.1,0-0.1-0.1c-0.1-0.1-0.1-0.1-0.2-0.2l0,0c0.1,0,0.1-0.1,0.1-0.2c-0.2-0.1-0.3-0.2-0.4-0.4
				c0,0,0,0-0.1-0.1l0,0c0.1,0.1,0.2,0.2,0.3,0.2c0.1,0,0.1,0,0.1-0.1c0,0-0.1-0.1-0.1-0.1c0.1,0,0.1-0.1,0.1-0.1
				c-0.2-0.3-0.4-0.7-0.5-1l0,0c0,0,0-0.1,0-0.1v0c0,0,0-0.1,0-0.1c0,0,0-0.1,0-0.1v0c0,0,0,0,0-0.1c0-0.1-0.1-0.1-0.1-0.1
				c0,0,0,0,0-0.1c0-0.1-0.1-0.2-0.2-0.1c-0.1,0.2-0.1,0.4-0.2,0.5c0,0,0,0.1,0,0.1l0,0v0c-0.1,0.1-0.2,0.1-0.3,0.1
				c-0.1,0-0.1,0.1,0,0.2c-0.1,0.1-0.2,0.1-0.4,0.2c-0.2,0-0.1,0.3,0.1,0.2c0.1,0,0.1,0,0.2,0c-0.2,0.2-0.4,0.4-0.7,0.5
				c-0.1,0.1,0,0.2,0.1,0.2c0.1,0,0.2-0.1,0.3-0.2h0c-0.1,0.1-0.1,0.1-0.2,0.2c0,0.1,0,0.1,0.1,0.1c-0.2,0.2-0.3,0.3-0.5,0.4
				c-0.1,0.1,0,0.3,0.1,0.2c0.1-0.1,0.2-0.1,0.3-0.2c0,0,0,0,0.1,0l0,0c-0.1,0.1-0.3,0.3-0.4,0.4c-0.1,0.1,0,0.2,0.1,0.2l0,0
				c0,0,0,0.1,0,0.1c-0.2,0.2-0.4,0.3-0.6,0.5c-0.1,0.1,0,0.3,0.1,0.2c0,0,0.1-0.1,0.1-0.1c0,0,0.1,0.1,0.1,0c0,0,0.1-0.1,0.1-0.1
				c0,0,0.1,0.1,0.2,0l0,0c0,0.1-0.1,0.1-0.1,0.2c-0.1,0.1-0.2,0.2-0.2,0.4c-0.2,0.1-0.4,0.3-0.7,0.3c-0.1,0.1-0.1,0.3,0.1,0.2
				c0.1,0,0.2-0.1,0.3-0.1c0,0.1,0,0.1,0.1,0.1c0,0,0,0,0.1,0c-0.1,0.1-0.1,0.2-0.2,0.2v0c-0.1,0-0.1,0.1-0.2,0.1
				c-0.1,0-0.1,0.3,0.1,0.2c0.1,0,0.2-0.1,0.3-0.1c-0.1,0.1-0.1,0.2-0.2,0.3c-0.1,0.1,0.1,0.2,0.1,0.2c-0.1,0.1-0.1,0.2-0.2,0.3
				c0,0.1,0,0.1,0,0.2c0,0,0,0-0.1,0c-0.2,0.1-0.1,0.3,0.1,0.3c0,0,0.1,0,0.1-0.1c0,0,0,0.1-0.1,0.1c-0.1,0.1-0.2,0.2-0.4,0.2
				c-0.1,0.1-0.1,0.2,0,0.2c-0.1,0.1-0.2,0.2-0.3,0.2c-0.1,0.1,0,0.2,0.1,0.2c0.2-0.1,0.4-0.3,0.5-0.4v0c0,0.1,0,0.1,0,0.1l0,0l0,0
				l0,0l0,0l0,0l0,0l0,0l0,0l0,0l0,0l0,0l0,0l0,0l0,0l0,0l0,0l0,0l0,0l0,0l0,0l0,0l0,0l0,0l0,0l0,0l0,0l0,0l0,0l0,0l0,0l0,0l0,0l0,0
				l0,0l0,0l0,0l0,0l0,0l0,0l0,0l0,0l0,0l0,0l0,0l0,0l0,0l0,0l0,0l0,0l0,0l0,0l0,0l0,0l0,0l0,0l0,0l0,0l0,0l0,0l0,0l0,0l0,0l0,0l0,0
				l0,0l0,0l0,0l0,0l0,0l0,0l0,0l0,0l0,0l0,0l0,0l0,0l0,0l0,0l0,0l0,0c0-0.1,0.1-0.1,0.1-0.1c0.2-0.2,0.4-0.4,0.6-0.6
				c0.4-0.4,0.8-0.7,1.3-0.9l0,0l0,0l0,0l0,0l0,0l0,0l0,0l0,0l0,0l0,0l0,0l0,0l0,0l0,0l0,0l0,0l0,0l0,0l0,0l0,0l0,0l0,0l0,0l0,0l0,0
				l0,0l0,0l0,0l0,0l0,0l0,0l0,0l0,0l0,0l0,0l0,0l0,0l0,0l0,0l0,0l0,0l0,0l0,0l0,0l0,0l0,0l0,0l0,0l0,0l0,0l0,0l0,0l0,0l0,0l0,0l0,0
				l0,0l0,0l0,0l0,0h0l0,0l0,0l0,0l0,0l0,0l0,0l0,0l0,0l0,0l0,0l0,0l0,0l0,0l0,0l0,0l0,0l0,0l0,0l0,0l0,0l0,0l0,0l0,0l0,0l0,0l0,0
				l0,0l0,0l0,0l0,0l0,0l0,0l0,0l0,0l0,0l0,0l0,0l0,0l0,0l0,0l0,0l0,0L18.4,25.5L18.4,25.5L18.4,25.5L18.4,25.5L18.4,25.5L18.4,25.5
				z M17.7,25.7C17.6,25.7,17.6,25.7,17.7,25.7C17.7,25.7,17.7,25.7,17.7,25.7C17.7,25.7,17.7,25.7,17.7,25.7L17.7,25.7z M17.6,25.5
				c0,0-0.1-0.1-0.1-0.1c0-0.1,0-0.1,0-0.2c0.1,0,0.1,0.1,0.2,0.1c0,0,0,0.1,0.1,0.1c0,0,0.1,0,0.1,0l0,0
				C17.7,25.4,17.7,25.4,17.6,25.5L17.6,25.5L17.6,25.5z M17.8,25.1C17.8,25.1,17.8,25.1,17.8,25.1C17.8,25.1,17.8,25,17.8,25.1
				C17.8,25.1,17.8,25.1,17.8,25.1L17.8,25.1z M17.5,25c-0.1,0-0.1-0.1-0.2-0.1v0c0-0.1,0-0.1,0-0.2c0.1,0,0.1,0.1,0.2,0.1
				c0.1,0,0.1,0,0.1-0.1l0,0l0,0c0,0,0.1,0,0.1,0v0v0C17.8,24.8,17.7,24.9,17.5,25L17.5,25z M17.7,24.3c-0.1,0-0.1-0.1-0.2-0.1
				c0,0,0-0.1,0-0.1s0,0,0-0.1c0,0,0.1,0,0.1,0c0,0,0,0.1,0,0.1c0,0,0.1,0,0.1,0l0,0C17.7,24.2,17.7,24.2,17.7,24.3
				C17.7,24.3,17.7,24.3,17.7,24.3L17.7,24.3z M18,23.3L18,23.3C18,23.3,18,23.3,18,23.3L18,23.3L18,23.3z M18.7,23.6
				C18.6,23.6,18.6,23.5,18.7,23.6c-0.1-0.1-0.1-0.1,0-0.1c0,0,0-0.1,0-0.1c0,0,0.1,0,0.2,0l0.1,0c0.1,0,0.1,0,0.2,0l0-0.1l-0.2,0.3
				C18.8,23.5,18.7,23.6,18.7,23.6L18.7,23.6z M18.1,23.2L18.1,23.2L18.1,23.2L18.1,23.2L18.1,23.2z M18.8,24.4
				c0.2-0.3,0.4-0.6,0.6-0.9c0,0,0.1-0.1,0.1-0.1c-0.2,0.3-0.4,0.6-0.6,0.9C18.9,24.3,18.9,24.3,18.8,24.4L18.8,24.4L18.8,24.4z
				 M21.2,20.8L21.2,20.8C21.3,20.8,21.3,20.8,21.2,20.8C21.3,20.8,21.3,20.8,21.2,20.8L21.2,20.8L21.2,20.8z M20.5,20.3
				c0-0.1,0.1-0.1,0.1-0.2C20.6,20.2,20.6,20.3,20.5,20.3L20.5,20.3C20.5,20.3,20.5,20.4,20.5,20.3C20.5,20.4,20.5,20.4,20.5,20.3
				L20.5,20.3L20.5,20.3z M21.3,21.8L21.3,21.8C21.3,21.8,21.3,21.9,21.3,21.8L21.3,21.8L21.3,21.8z M20.9,21.5c0-0.1,0-0.1,0-0.2
				c0,0,0,0,0,0.1C20.9,21.4,20.9,21.5,20.9,21.5L20.9,21.5L20.9,21.5z M20.1,21.4L20.1,21.4c0.1-0.1,0.2-0.3,0.3-0.4
				c0,0,0-0.1,0-0.1c0-0.1,0.1-0.1,0.1-0.2c0,0,0-0.1,0-0.1c0,0,0.1-0.1,0.1-0.1c0,0.3-0.1,0.6-0.1,0.8c0,0,0,0-0.1,0.1
				c0,0.1,0,0.1-0.1,0.2v0l0,0l0,0c0-0.1,0-0.1,0-0.1c0-0.1,0.1-0.1,0.1-0.2c0.1-0.1-0.1-0.2-0.2-0.1C20.2,21.3,20.2,21.4,20.1,21.4
				L20.1,21.4L20.1,21.4z M21.1,20.7L21.1,20.7L21.1,20.7L21.1,20.7L21.1,20.7z M23.5,26.5c0-0.1-0.1-0.2-0.1-0.2
				c0.1,0.1,0.2,0.2,0.3,0.2c0.1,0.1,0.1,0.1,0.2,0.1c0,0,0,0,0,0.1l0,0l0,0C23.7,26.7,23.6,26.6,23.5,26.5L23.5,26.5L23.5,26.5z
				 M22.9,26.7L22.9,26.7L22.9,26.7L22.9,26.7L22.9,26.7L22.9,26.7L22.9,26.7L22.9,26.7L22.9,26.7L22.9,26.7L22.9,26.7L22.9,26.7
				L22.9,26.7L22.9,26.7L22.9,26.7L22.9,26.7L22.9,26.7L22.9,26.7L22.9,26.7L22.9,26.7L22.9,26.7L22.9,26.7L22.9,26.7L22.9,26.7
				L22.9,26.7L22.9,26.7L22.9,26.7L22.9,26.7L22.9,26.7L22.9,26.7L22.9,26.7L22.9,26.7L22.9,26.7L22.9,26.7L22.9,26.7L22.9,26.7
				L22.9,26.7L22.9,26.7L22.9,26.7L22.9,26.7L22.9,26.7L22.9,26.7L22.9,26.7L22.9,26.7L22.9,26.7L22.9,26.7L22.9,26.7L22.9,26.7
				L22.9,26.7L22.9,26.7L22.9,26.7L22.9,26.7L22.9,26.7L22.9,26.7L22.9,26.7L22.9,26.7L22.9,26.7L22.9,26.7L22.9,26.7L22.9,26.7
				L22.9,26.7L22.9,26.7L22.9,26.7L22.9,26.7L22.9,26.7L22.9,26.7L22.9,26.7L22.9,26.7L22.9,26.7L22.9,26.7L22.9,26.7L22.9,26.7
				L22.9,26.7L22.9,26.7L22.9,26.7L22.9,26.7L22.9,26.7L22.9,26.7L22.9,26.7L22.9,26.7L22.9,26.7c0.1,0.1,0.2,0.3,0.3,0.5
				c0.1,0.1-0.1,0.1-0.1,0.1C23,27.2,23,27.2,23,27.1l0,0c0,0-0.1-0.1-0.1-0.2c0,0,0,0.1,0,0.1c0,0-0.1-0.1-0.1-0.1
				C22.9,26.7,22.9,26.7,22.9,26.7L22.9,26.7z M23.2,26.4L23.2,26.4L23.2,26.4L23.2,26.4L23.2,26.4L23.2,26.4L23.2,26.4L23.2,26.4
				L23.2,26.4L23.2,26.4L23.2,26.4L23.2,26.4L23.2,26.4L23.2,26.4L23.2,26.4L23.2,26.4L23.2,26.4L23.2,26.4L23.2,26.4L23.2,26.4
				L23.2,26.4L23.2,26.4L23.2,26.4L23.2,26.4L23.2,26.4L23.2,26.4L23.2,26.4L23.2,26.4L23.2,26.4L23.2,26.4L23.2,26.4L23.2,26.4
				L23.2,26.4L23.2,26.4L23.2,26.4L23.2,26.4L23.2,26.4L23.2,26.4L23.2,26.4L23.2,26.4L23.2,26.4L23.2,26.4L23.2,26.4L23.2,26.4
				L23.2,26.4L23.2,26.4L23.2,26.4L23.2,26.4L23.2,26.4L23.2,26.4L23.2,26.4L23.2,26.4L23.2,26.4L23.2,26.4L23.2,26.4L23.2,26.4
				L23.2,26.4L23.2,26.4L23.2,26.4L23.2,26.4L23.2,26.4L23.2,26.4L23.2,26.4L23.2,26.4L23.2,26.4L23.2,26.4L23.2,26.4L23.2,26.4
				L23.2,26.4L23.2,26.4L23.2,26.4L23.2,26.4L23.2,26.4L23.2,26.4L23.2,26.4L23.2,26.4L23.2,26.4L23.2,26.4L23.2,26.4L23.2,26.4
				L23.2,26.4L23.2,26.4L23.2,26.4L23.2,26.4L23.2,26.4L23.2,26.4L23.2,26.4L23.2,26.4L23.2,26.4L23.2,26.4L23.2,26.4L23.2,26.4
				L23.2,26.4L23.2,26.4L23.2,26.4L23.2,26.4L23.2,26.4L23.2,26.4L23.2,26.4L23.2,26.4L23.2,26.4L23.2,26.4L23.2,26.4L23.2,26.4
				L23.2,26.4L23.2,26.4L23.2,26.4L23.2,26.4L23.2,26.4L23.2,26.4L23.2,26.4L23.2,26.4L23.2,26.4L23.2,26.4L23.2,26.4L23.2,26.4
				L23.2,26.4L23.2,26.4L23.2,26.4L23.2,26.4L23.2,26.4L23.2,26.4L23.2,26.4L23.2,26.4L23.2,26.4L23.2,26.4L23.2,26.4L23.2,26.4
				L23.2,26.4L23.2,26.4L23.2,26.4L23.2,26.4L23.2,26.4L23.2,26.4L23.2,26.4L23.2,26.4L23.2,26.4L23.2,26.4L23.2,26.4L23.2,26.4
				L23.2,26.4L23.2,26.4L23.2,26.4L23.2,26.4L23.2,26.4L23.2,26.4L23.2,26.4L23.2,26.4L23.2,26.4L23.2,26.4L23.2,26.4L23.2,26.4
				C23.2,26.4,23.2,26.4,23.2,26.4c0.2,0.2,0.3,0.2,0.4,0.3l0,0l0,0c0,0,0,0,0-0.1C23.5,26.6,23.3,26.5,23.2,26.4L23.2,26.4
				L23.2,26.4L23.2,26.4L23.2,26.4L23.2,26.4L23.2,26.4L23.2,26.4L23.2,26.4L23.2,26.4L23.2,26.4L23.2,26.4L23.2,26.4L23.2,26.4
				L23.2,26.4L23.2,26.4L23.2,26.4L23.2,26.4L23.2,26.4L23.2,26.4L23.2,26.4L23.2,26.4L23.2,26.4L23.2,26.4L23.2,26.4L23.2,26.4
				L23.2,26.4L23.2,26.4L23.2,26.4L23.2,26.4L23.2,26.4L23.2,26.4L23.2,26.4L23.2,26.4L23.2,26.4L23.2,26.4L23.2,26.4L23.2,26.4
				L23.2,26.4L23.2,26.4L23.2,26.4L23.2,26.4L23.2,26.4L23.2,26.4L23.2,26.4L23.2,26.4L23.2,26.4L23.2,26.4L23.2,26.4L23.2,26.4
				L23.2,26.4L23.2,26.4L23.2,26.4L23.2,26.4L23.2,26.4L23.2,26.4L23.2,26.4L23.2,26.4L23.2,26.4L23.2,26.4L23.2,26.4L23.2,26.4
				L23.2,26.4L23.2,26.4L23.2,26.4L23.2,26.4L23.2,26.4L23.2,26.4L23.2,26.4L23.2,26.4L23.2,26.4L23.2,26.4L23.2,26.4L23.2,26.4
				L23.2,26.4L23.2,26.4L23.2,26.4L23.2,26.4L23.2,26.4L23.2,26.4c0.2,0.1,0.4,0.2,0.6,0.4l0,0l0,0c0,0,0-0.1-0.1-0.1
				c-0.2-0.2-0.4-0.4-0.5-0.6l0,0l0,0l0,0l0,0l0,0l0,0l0,0l0,0l0,0l0,0l0,0l0,0l0,0l0,0l0,0l0,0l0,0l0,0c0,0,0,0,0,0l0,0l0,0l0,0
				l0,0l0,0l0,0l0,0l0,0l0,0l0,0l0,0l0,0l0,0c0,0,0,0,0,0l0,0h0l0,0l0,0l0,0l0,0l0,0l0,0l0,0l0,0c0,0,0,0,0,0l0,0l0,0l0,0l0,0l0,0
				l0,0l0,0l0,0l0,0l0,0l0,0l0,0l0,0l0,0l0,0l0,0l0,0l0,0l0,0l0,0l0,0l0,0l0,0l0,0l0,0l0,0l0,0l0,0l0,0l0,0l0,0l0,0l0,0l0,0l0,0l0,0
				l0,0l0,0l0,0l0,0l0,0l0,0l0,0l0,0l0,0l0,0l0,0l0,0l0,0l0,0l0,0l0,0l0,0l0,0l0,0l0,0l0,0l0,0l0,0l0,0l0,0l0,0l0,0l0,0l0,0l0,0l0,0
				l0,0l0,0l0,0l0,0c-0.1,0-0.2,0.1-0.3,0.1v-0.1l0,0l0,0l0,0l0,0l0,0l0,0l0,0l0,0l0,0l0,0l0,0l0,0l0,0l0,0l0,0l0,0l0,0l0,0l0,0l0,0
				l0,0l0,0l0,0l0,0l0,0l0,0l0,0l0,0l0,0l0,0l0,0l0,0l0,0l0,0l0,0l0,0l0,0l0,0l0,0l0,0l0,0l0,0l0,0l0,0l0,0l0,0l0,0l0,0l0,0l0,0l0,0
				l0,0l0,0l0,0l0,0l0,0l0,0l0,0l0,0l0,0l0,0l0,0l0,0l0,0l0,0l0,0l0,0l0,0l0,0l0,0l0,0l0,0l0,0l0,0l0,0l0,0l0,0
				c0.1-0.1,0.1-0.2,0-0.3l0,0l0,0l0,0l0,0l0,0l0,0l0,0l0,0l0,0l0,0l0,0l0,0l0,0l0,0l0,0l0,0l0,0l0,0l0,0l0,0l0,0l0,0l0,0l0,0l0,0
				l0,0l0,0l0,0l0,0l0,0l0,0l0,0l0,0l0,0l0,0l0,0l0,0l0,0l0,0l0,0l0,0l0,0l0,0l0,0l0,0l0,0l0,0l0,0l0,0l0,0l0,0l0,0l0,0l0,0l0,0l0,0
				l0,0l0,0l0,0l0,0l0,0l0,0l0,0l0,0l0,0l0,0l0,0l0,0l0,0l0,0l0,0l0,0l0,0l0,0l0,0l0,0l0,0c0,0,0-0.1,0-0.1l0,0l0,0l0,0l0,0l0,0l0,0
				l0,0l0,0l0,0l0,0l0,0l0,0l0,0l0,0l0,0l0,0l0,0l0,0l0,0l0,0l0,0l0,0l0,0l0,0l0,0l0,0l0,0l0,0l0,0l0,0l0,0l0,0l0,0l0,0l0,0l0,0l0,0
				l0,0l0,0l0,0l0,0l0,0l0,0l0,0l0,0l0,0l0,0l0,0l0,0l0,0l0,0l0,0l0,0l0,0l0,0l0,0l0,0l0,0l0,0l0,0l0,0l0,0l0,0l0,0l0,0l0,0l0,0l0,0
				l0,0l0,0l0,0l0,0l0,0l0,0l0,0l0,0l0,0l0,0l0,0l0,0l0,0l0,0l0,0l0,0l0,0l0,0l0,0l0,0l0,0l0,0l0,0l0,0l0,0l0,0l0,0l0,0l0,0l0,0l0,0
				l0,0l0,0l0,0l0,0l0,0l0,0l0,0l0,0l0,0l0,0l0,0l0,0l0,0l0,0l0,0l0,0l0,0l0,0l0,0l0,0l0,0l0,0l0,0l0,0l0,0l0,0l0,0l0,0l0,0l0,0l0,0
				l0,0l0,0l0,0l0,0l0,0l0,0l0,0l0,0l0,0l0,0l0,0v0l0,0l0,0l0,0l0,0l0,0l0,0l0,0l0,0l0,0l0,0l0,0l0,0l0,0l0,0l0,0l0,0l0,0l0,0l0,0
				l0,0l0,0l0,0l0,0l0,0l0,0l0,0l0,0v0l0,0l0,0l0,0l0,0l0,0l0,0l0,0l0,0l0,0l0,0l0,0l0,0c0.1-0.1,0.1-0.3,0-0.3
				c-0.1-0.1-0.3-0.1-0.4-0.2l0,0c0.1,0.1,0.2,0,0.2-0.1c0,0,0.1,0,0.1,0c0.2,0,0.3-0.3,0.1-0.4l-0.1,0c0-0.1,0-0.2-0.1-0.2
				c0,0,0,0,0.1-0.1c-0.1,0-0.1-0.1-0.1-0.1c0-0.1,0.1-0.1,0.1-0.2h0c0,0-0.1,0-0.1,0.1c0-0.1,0-0.1-0.1-0.2
				c0.2-0.1,0.3-0.2,0.5-0.4c0,0-0.1,0-0.1,0c-0.1,0-0.2-0.2-0.1-0.2c0.1,0,0.3-0.1,0.4-0.2c-0.1-0.1-0.1-0.2,0-0.2s0.2-0.1,0.3-0.1
				v0l0,0c0,0,0,0,0-0.1c0.1-0.2,0.1-0.4,0.2-0.5c0-0.1,0.2,0,0.1,0.1c0,0,0,0,0,0.1c0,0,0.1,0,0.1,0.1c0,0,0,0.1,0,0.1v0
				c0,0,0,0.1,0,0.1c0,0,0,0,0,0.1v0c0,0,0,0,0,0.1l-0.7-2.2c0.1,0.4,0.3,0.7,0.5,1c0,0.1,0,0.1-0.1,0.1c0,0,0.1,0.1,0.1,0.1
				c0,0.1,0,0.1-0.1,0.1c-0.1-0.1-0.2-0.2-0.3-0.2l0,0c0,0,0,0,0,0.1c0.1,0.2,0.2,0.3,0.3,0.4c0.1,0,0,0.2-0.1,0.2l0,0
				c0.1,0.1,0.1,0.1,0.2,0.2c0,0,0.1,0,0.1,0.1c0.1,0,0.1,0.2,0,0.2c0,0-0.1,0-0.1,0c0,0,0,0,0,0.1c0,0,0,0.1,0,0.1
				c0.1,0,0.1,0.1,0.2,0.1c0.1,0,0,0.2,0,0.2c0.1,0,0.1,0.1,0.2,0.1s0.1,0.2,0,0.2c-0.1,0-0.1,0-0.2,0c0.1,0.1,0,0.2-0.1,0.1
				c-0.1,0-0.1-0.1-0.2-0.1c0,0.1,0,0.1,0,0.2v0c0.1,0.1,0.3,0.2,0.4,0.3c0.1,0,0,0.2-0.1,0.2l0,0c0,0,0,0-0.1,0
				c-0.1,0-0.2-0.1-0.3-0.1c0,0.1,0,0.1,0,0.2c0.1,0.1,0.1,0.1,0.2,0.1c0.1,0,0,0.2-0.1,0.2c0,0-0.1,0-0.1-0.1l0,0
				c0.1,0,0.2,0.1,0.3,0.1c0.1,0,0.1,0.1,0.1,0.1c0,0,0.1,0,0.1,0c0.1,0,0.1,0.2,0,0.2c-0.1,0-0.2,0-0.3,0c0.2,0.2,0.3,0.3,0.5,0.4
				c0.1,0.1,0,0.2-0.1,0.2c-0.2-0.1-0.4-0.2-0.5-0.3c0,0,0,0.1,0,0.1c0.1,0,0.2,0.1,0.3,0.1c0.1,0,0.1,0.1,0,0.1
				c0.1,0.1,0.2,0.1,0.3,0.2s0,0.2-0.1,0.2c-0.1,0-0.2,0-0.3-0.1l0,0c0.1,0,0.1,0.1,0,0.1c0,0,0,0,0,0.1l0,0v0c0,0,0,0.1,0,0.1
				c0.1,0.1,0.1,0.1,0.2,0.2c0,0,0,0.1,0,0.1c0,0,0,0.1,0.1,0.1c0,0,0.1,0.1,0.1,0.1c0,0,0,0.1,0,0.1c0,0,0,0.1,0.1,0.1v0.1h0
				c0.1,0,0.1,0.1,0,0.2c0,0,0.1,0.1,0,0.1c-0.1,0-0.1,0-0.2,0.1c0.1,0,0.1,0,0.2,0.1c0.1,0,0.1,0.2,0,0.2c-0.3,0-0.6-0.2-0.8-0.4
				c0,0-0.1,0-0.1,0c0,0-0.1,0-0.1,0c0,0,0.1,0.1,0.1,0.1c0,0.1-0.1,0.1-0.1,0.1c-0.1-0.1-0.2-0.3-0.3-0.4
				C23.3,26.6,23.3,26.5,23.2,26.4L23.2,26.4z M23,28.5L23,28.5c0,0,0-0.1,0-0.2h0C23,28.3,23,28.4,23,28.5C23,28.4,23,28.4,23,28.5
				L23,28.5L23,28.5z M23.4,21.6L23.4,21.6C23.5,21.6,23.5,21.7,23.4,21.6C23.5,21.6,23.5,21.6,23.4,21.6L23.4,21.6L23.4,21.6z
				 M22.8,28.6L22.8,28.6L22.8,28.6C22.8,28.6,22.8,28.6,22.8,28.6L22.8,28.6C22.8,28.6,22.8,28.6,22.8,28.6L22.8,28.6L22.8,28.6z
				 M22.8,28c0,0.1,0,0.3,0,0.4l0,0h0c-0.1,0-0.2,0.1-0.2,0.2l0,0c0-0.1,0.1-0.2,0.1-0.3C22.7,28.2,22.7,28.1,22.8,28L22.8,28z
				 M22.8,21.2L22.8,21.2C22.8,21.3,22.8,21.3,22.8,21.2C22.8,21.3,22.8,21.2,22.8,21.2L22.8,21.2c0.1-0.1,0.1-0.1,0.1-0.1
				C22.9,21.2,22.8,21.2,22.8,21.2L22.8,21.2z M23.5,22.6L23.5,22.6C23.5,22.7,23.5,22.6,23.5,22.6L23.5,22.6L23.5,22.6z M23.8,25.5
				L23.8,25.5L23.8,25.5L23.8,25.5L23.8,25.5L23.8,25.5z M23.1,22.3L23.1,22.3c0,0,0-0.1,0-0.1s0,0,0-0.1
				C23.1,22.2,23.1,22.3,23.1,22.3L23.1,22.3z M22.5,22.3L22.5,22.3c0,0,0.1-0.1,0.1-0.2c0.1-0.1,0.2,0,0.1,0.1
				c0,0.1-0.1,0.1-0.1,0.2c0,0,0.1,0.1,0,0.1l0,0l0,0v0c0-0.1,0-0.1,0.1-0.2c0,0,0,0,0-0.1c0-0.3,0-0.5,0.1-0.8c0,0,0,0.1-0.1,0.1
				c0,0,0,0.1,0,0.1c0,0.1,0,0.1-0.1,0.1c0,0,0.1,0.1,0,0.1C22.7,22,22.6,22.2,22.5,22.3L22.5,22.3L22.5,22.3z M23.3,21.6L23.3,21.6
				L23.3,21.6L23.3,21.6L23.3,21.6z M22.4,27.2C22.4,27.2,22.4,27.2,22.4,27.2C22.4,27.1,22.4,27.1,22.4,27.2L22.4,27.2L22.4,27.2
				L22.4,27.2L22.4,27.2L22.4,27.2L22.4,27.2L22.4,27.2z M22.5,27.1c0.1,0,0.2,0,0.3,0c0.1,0,0.1,0,0.2-0.1c0,0,0,0.1,0,0.1
				c0,0,0.1,0,0.1,0h0v0c0-0.2,0.3-0.1,0.2,0.1c-0.1,0.6-0.1,1,0.4,1.3c0.1,0.1,0,0.2,0,0.2c-0.1,0-0.2,0-0.3-0.1
				c0,0-0.1,0.1-0.1,0.1c0,0-0.1,0-0.1-0.1c0,0.1-0.1,0.1-0.2,0.2c0,0.1-0.1,0.1-0.1,0c0,0-0.1,0-0.1,0c0,0-0.1,0-0.1-0.1
				c-0.1,0.1-0.2,0.1-0.3,0.2c-0.1,0-0.1,0-0.1-0.1c0,0,0,0,0-0.1c-0.1,0.1-0.2,0-0.1-0.1c0.2-0.3,0.3-0.6,0.3-0.9
				C22.5,27.5,22.5,27.3,22.5,27.1L22.5,27.1z M26.3,25.4L26.3,25.4L26.3,25.4C26.3,25.4,26.4,25.4,26.3,25.4
				c0.1-0.1,0.2-0.1,0.3-0.2c-0.1,0-0.2-0.1-0.2-0.2c-0.1-0.1-0.2-0.2-0.2-0.3l0,0c0.1,0.1,0.2,0.2,0.3,0.3c0,0,0.1-0.1,0.1-0.1h0
				c0,0,0-0.1,0.1-0.1c-0.1-0.1-0.2-0.2-0.3-0.4h0c0,0,0.1,0.1,0.1,0.1c0.1,0.1,0.1,0.2,0.2,0.2c0-0.1,0-0.1,0.1-0.2h0
				c-0.2,0-0.3-0.2-0.1-0.3c0.1,0,0.2-0.1,0.2-0.1c-0.1,0-0.1,0-0.1-0.1c0,0-0.1,0-0.1,0c-0.2,0-0.3-0.3-0.1-0.4h0
				c0-0.1,0-0.2,0.1-0.2c0,0,0.1,0,0.1-0.1c-0.2,0-0.2-0.3,0-0.4c0,0,0.1,0,0.1-0.1l0.1,0c0,0-0.1,0-0.1-0.1l0,0c0,0,0.1,0,0.1,0
				c-0.1-0.1,0-0.2,0.1-0.3l0,0c-0.1,0-0.1-0.1-0.2-0.1c0-0.1,0-0.1,0-0.2c0,0,0.1,0,0.2,0.1c0,0,0,0,0,0l0,0c0-0.1,0-0.1,0-0.2
				l0-0.1c-0.1-0.1-0.2-0.1-0.3-0.2v0c0-0.1,0-0.2,0-0.2c0.1,0.1,0.2,0.1,0.3,0.2c0.1,0.1,0.2-0.1,0.1-0.1c0.1,0,0.1,0,0.2,0
				c0-0.1,0.1-0.1,0.1-0.2c-0.1,0-0.1-0.1-0.2-0.1c0.1,0,0.2-0.1,0.1-0.2c-0.1-0.1-0.2-0.1-0.3-0.2c0,0,0.1-0.1,0-0.1
				c0,0,0-0.1-0.1-0.1c0.1,0,0.1,0,0.2,0c0.1,0,0.1-0.2,0-0.2c-0.1,0-0.1-0.1-0.2-0.1c-0.1-0.1-0.2-0.2-0.3-0.3l0.1,0
				c0.1,0,0.2-0.1,0.1-0.2c-0.2-0.1-0.4-0.3-0.5-0.5c0,0,0-0.1-0.1-0.1l0,0c0.1,0.1,0.3,0.2,0.5,0.3c0.1,0,0.2-0.1,0.1-0.1
				c-0.1-0.1-0.1-0.1-0.2-0.2c0.1,0,0.2-0.1,0.1-0.2c-0.2-0.4-0.5-0.8-0.7-1.3l0-0.1c0,0,0-0.1,0-0.1v0c0,0,0-0.1,0-0.1
				c0,0,0-0.1,0-0.1v0c0,0,0-0.1,0-0.1c0-0.1-0.1-0.1-0.2-0.1c0,0,0-0.1,0-0.1c0-0.1-0.1-0.2-0.2-0.1c-0.1,0.2-0.2,0.5-0.3,0.7
				c0,0,0,0.1,0,0.1v0v0.1c-0.1,0.1-0.2,0.2-0.4,0.2c-0.1,0-0.1,0.2-0.1,0.2c-0.2,0.1-0.3,0.2-0.5,0.2c-0.2,0-0.1,0.4,0.1,0.3
				c0.1,0,0.1,0,0.2-0.1c-0.3,0.3-0.6,0.5-0.9,0.6c-0.2,0.1,0,0.3,0.1,0.2c0.1-0.1,0.2-0.1,0.4-0.2h0c-0.1,0.1-0.1,0.2-0.2,0.2
				c-0.1,0.1,0,0.2,0.1,0.2c-0.2,0.2-0.4,0.4-0.7,0.6c-0.2,0.1,0,0.4,0.2,0.3c0.1-0.1,0.2-0.2,0.3-0.2c0,0,0.1,0,0.1,0l0,0
				c-0.2,0.2-0.4,0.4-0.6,0.5c-0.1,0.1,0,0.3,0.2,0.2l0.1,0c0,0.1,0,0.1,0.1,0.1c-0.1,0.1-0.2,0.2-0.3,0.3v0l0,0.1
				c0.1,0.1,0,0.2-0.1,0.3l0,0c0,0,0,0,0,0L24,22c0,0,0.1,0.1,0.2,0l0.1,0c0,0.1-0.1,0.1-0.1,0.2c-0.1,0.1-0.1,0.1-0.2,0.2
				c0,0,0.1,0,0.1,0c0.2,0.1,0.1,0.4,0,0.4l0,0c0,0,0.1,0.1,0.1,0.1l0,0c0.1-0.1,0.2-0.2,0.3-0.4c0.1,0,0.1-0.1,0.1-0.2
				c-0.1,0.2-0.2,0.4-0.4,0.6c0,0,0,0.1,0,0.2l0,0c0.2,0.1,0.1,0.4-0.1,0.4c0,0-0.1,0-0.1,0c0,0.1-0.1,0.1-0.2,0.1
				c0.1,0.1,0.2,0.1,0.3,0.2c0.2,0.1,0.1,0.4-0.1,0.4h0c0.1,0.1,0.1,0.2,0.1,0.2c0.1,0,0.1,0.1,0.1,0.1h0c0.2,0.1,0.2,0.4,0,0.4l0,0
				c0.1,0.1,0.2,0.1,0.3,0.2c0.1,0,0.1,0.1,0.1,0.1l0.2-0.3l0,0c0.1,0,0.1,0,0.1-0.1c0-0.1,0.1-0.1,0.1-0.2c0.1,0,0.2,0,0.2-0.1v0
				c0,0,0,0.1,0,0.1c-0.2,0.2-0.3,0.5-0.4,0.7l0,0l-0.1,0.1c0.2,0.1,0,0.4-0.2,0.4h-0.1l0,0v0.1l0,0.1l0.2,0.2
				c0.1,0.1,0.1,0.1,0,0.2l0,0v0v0c0,0,0.1,0.1,0.1,0.1c0,0,0,0.1,0.1,0.1c0.1-0.2,0.2-0.4,0.4-0.5c-0.1,0.1-0.1,0.2-0.2,0.4
				c0,0.1,0.1,0.2,0.2,0.1s0.1-0.1,0.1-0.2v0l0,0c0,0.3,0,0.6,0,0.8c-0.1,0.4-0.3,0.8-0.5,1.2c-0.1,0.1,0.1,0.2,0.2,0.2
				c0,0,0,0,0,0.1c0,0.1,0,0.2,0.1,0.1c0.1-0.1,0.3-0.2,0.4-0.3c0,0,0.1,0.1,0.1,0.1c0.1,0,0.1,0,0.2,0c0,0.1,0.2,0.1,0.2,0
				c0.1,0,0.2-0.1,0.3-0.2c0,0,0.1,0.1,0.1,0.1c0.1,0,0.1,0,0.1-0.1c0.1,0,0.2,0.1,0.4,0.1c0.1,0,0.2-0.2,0.1-0.3
				c-0.4-0.2-0.5-0.4-0.6-0.7c-0.1,0-0.2,0-0.3,0c-0.2,0-0.3-0.3-0.1-0.4c0,0,0-0.1,0-0.2c0-0.1,0-0.2,0.1-0.2v0v0l0.1-0.1
				c0,0,0-0.1,0.1-0.1c0,0,0.1-0.1,0.1-0.1v0c0,0,0-0.1,0-0.1c-0.1,0-0.2,0-0.2,0.1v0l0,0c0,0-0.1,0-0.1,0c0-0.2,0-0.4,0.1-0.6
				c0,0.1,0.1,0.1,0.1,0.2l0,0c0.1,0.1,0.1,0.1,0.2,0.2c0,0,0-0.1,0.1-0.1l0.1-0.1c-0.4-0.2-0.6-0.5-0.7-0.8l0,0
				c0.1,0.2,0.2,0.4,0.4,0.5c0,0,0,0,0.1,0l0.1,0C26.3,25.6,26.2,25.5,26.3,25.4L26.3,25.4z M25.8,25.2L25.8,25.2L25.8,25.2
				C25.8,25.2,25.8,25.3,25.8,25.2L25.8,25.2L25.8,25.2z M25.6,25.8c0,0,0-0.1,0-0.1l0-0.1C25.7,25.7,25.7,25.7,25.6,25.8
				C25.7,25.8,25.6,25.8,25.6,25.8L25.6,25.8L25.6,25.8z M25.9,28.3L25.9,28.3c0-0.1,0-0.1,0-0.1c0,0,0-0.1,0-0.1h-0.1
				C25.8,28.1,25.8,28.2,25.9,28.3L25.9,28.3L25.9,28.3z M26.5,19.3L26.5,19.3C26.5,19.3,26.5,19.4,26.5,19.3
				C26.5,19.4,26.5,19.4,26.5,19.3L26.5,19.3L26.5,19.3z M25.6,25C25.6,24.9,25.6,24.9,25.6,25C25.7,24.9,25.7,24.9,25.6,25L25.6,25
				L25.6,25z M25.6,28.4L25.6,28.4L25.6,28.4C25.6,28.4,25.6,28.4,25.6,28.4L25.6,28.4C25.6,28.4,25.6,28.4,25.6,28.4L25.6,28.4
				L25.6,28.4z M25.5,27.7c0,0.2,0,0.4,0,0.6l0,0l0,0c-0.2,0-0.3,0.1-0.2,0.2l-0.1,0c0.1-0.1,0.1-0.3,0.2-0.4
				C25.4,27.9,25.4,27.8,25.5,27.7L25.5,27.7z M25.5,18.9c0.1-0.1,0.1-0.1,0.2-0.2c0,0,0,0.1,0,0.1L25.5,18.9
				C25.6,18.9,25.6,18.9,25.5,18.9C25.5,18.9,25.5,18.9,25.5,18.9L25.5,18.9L25.5,18.9z M26.5,20.6L26.5,20.6
				C26.5,20.7,26.5,20.6,26.5,20.6L26.5,20.6L26.5,20.6z M26,20.2c0-0.1,0-0.2,0-0.2c0,0,0,0.1,0,0.1C26,20.2,26,20.2,26,20.2
				L26,20.2L26,20.2z M25.1,20.2L25.1,20.2c0.1-0.2,0.2-0.3,0.3-0.5c0,0,0-0.1,0-0.1c0-0.1,0.1-0.1,0.1-0.2c0,0,0-0.1,0-0.1
				c0,0,0.1-0.1,0.1-0.1c0,0.3-0.1,0.7-0.1,1c0,0,0,0-0.1,0.1c0,0.1,0,0.1-0.1,0.2v0l0,0v0c0-0.1,0-0.1,0-0.2c0-0.1,0.1-0.1,0.1-0.2
				c0.1-0.1-0.1-0.2-0.2-0.1C25.2,20,25.2,20.1,25.1,20.2L25.1,20.2L25.1,20.2z M26.3,19.3L26.3,19.3L26.3,19.3L26.3,19.3L26.3,19.3
				z M25.9,24.9c0.1,0.1,0.1,0.2,0.2,0.4h0.1C26.1,25.1,26,25,25.9,24.9L25.9,24.9z M27.2,26.7c0-0.1,0.1-0.1,0.1-0.2
				c-0.1,0.1-0.2,0.2-0.3,0.2c-0.1,0-0.1,0.1-0.2,0.1c0,0,0,0,0,0.1l0,0l0,0C27,26.9,27.1,26.8,27.2,26.7L27.2,26.7L27.2,26.7z
				 M27.8,26.4L27.8,26.4L27.8,26.4C27.7,26.4,27.7,26.4,27.8,26.4L27.8,26.4L27.8,26.4z M27.9,26.8C27.9,26.8,27.9,26.7,27.9,26.8
				v-0.1C27.8,26.7,27.8,26.7,27.9,26.8C27.8,26.8,27.8,26.8,27.9,26.8L27.9,26.8L27.9,26.8z M27.7,28.5L27.7,28.5c0,0,0-0.1,0-0.2
				h0C27.7,28.4,27.7,28.4,27.7,28.5C27.7,28.5,27.7,28.5,27.7,28.5L27.7,28.5L27.7,28.5z M29,27.1L29,27.1L29,27.1L29,27.1L29,27.1
				z M29.3,26.2C29.3,26.2,29.3,26.2,29.3,26.2c-0.1,0-0.1,0-0.1,0C29.3,26.2,29.3,26.2,29.3,26.2C29.4,26.2,29.4,26.2,29.3,26.2
				L29.3,26.2z M27.3,22.2L27.3,22.2C27.2,22.2,27.2,22.3,27.3,22.2C27.2,22.3,27.3,22.3,27.3,22.2L27.3,22.2z M27.9,26.2
				C27.9,26.2,27.9,26.2,27.9,26.2C27.9,26.2,27.8,26.2,27.9,26.2L27.9,26.2L27.9,26.2z M27.9,28.6L27.9,28.6L27.9,28.6
				C27.9,28.6,27.9,28.6,27.9,28.6L27.9,28.6C27.9,28.6,27.9,28.6,27.9,28.6L27.9,28.6L27.9,28.6z M27.9,28.1c0,0.1,0,0.3,0,0.4l0,0
				h0c0.1,0,0.2,0.1,0.2,0.2l0,0c0-0.1-0.1-0.2-0.1-0.3C28,28.3,28,28.2,27.9,28.1L27.9,28.1L27.9,28.1z M27.9,21.9
				c0,0-0.1-0.1-0.1-0.1c0,0,0,0.1,0,0.1L27.9,21.9C27.9,21.9,27.9,21.9,27.9,21.9C27.9,21.9,27.9,21.9,27.9,21.9L27.9,21.9
				L27.9,21.9z M27.3,23.1L27.3,23.1L27.3,23.1L27.3,23.1L27.3,23.1z M27.5,26c-0.2,0.2-0.4,0.4-0.6,0.6c0,0,0,0,0,0.1l0,0l0,0
				c0.1-0.1,0.2-0.1,0.3-0.2C27.3,26.3,27.4,26.1,27.5,26L27.5,26L27.5,26z M26.9,25.8L26.9,25.8L26.9,25.8L26.9,25.8L26.9,25.8
				L26.9,25.8z M27.4,25.8C27.3,25.8,27.3,25.8,27.4,25.8c-0.3,0.3-0.4,0.4-0.6,0.6c0,0,0,0.1-0.1,0.1l0,0l0,0
				C26.9,26.3,27.2,26,27.4,25.8L27.4,25.8L27.4,25.8z M27.6,22.8c0-0.1,0-0.1,0-0.2C27.6,22.7,27.6,22.7,27.6,22.8
				C27.6,22.8,27.6,22.8,27.6,22.8L27.6,22.8L27.6,22.8z M28.2,22.8L28.2,22.8c-0.1-0.1-0.2-0.2-0.2-0.3c0,0,0-0.1,0-0.1
				c0,0,0-0.1-0.1-0.1c0,0,0-0.1,0-0.1c0,0,0-0.1-0.1-0.1c0,0.2,0,0.5,0.1,0.7c0,0,0,0,0,0.1c0,0.1,0,0.1,0.1,0.2v0l0,0l0,0
				c0,0,0-0.1,0-0.1c0,0-0.1-0.1-0.1-0.1C27.9,22.7,28,22.6,28.2,22.8C28.1,22.7,28.2,22.8,28.2,22.8L28.2,22.8L28.2,22.8z
				 M27.4,22.2L27.4,22.2L27.4,22.2L27.4,22.2L27.4,22.2z M27.7,26.1c-0.1,0.1-0.1,0.2-0.2,0.3h0C27.6,26.3,27.6,26.2,27.7,26.1
				L27.7,26.1L27.7,26.1z M29,22.8L29,22.8L29,22.8C29,22.8,29,22.8,29,22.8c0.2,0,0.3-0.1,0.4-0.2v0c0,0.1-0.1,0.3-0.2,0.4
				c0,0,0,0,0.1,0s0,0,0.1,0c0,0,0-0.1,0.1-0.1c0,0.1,0,0.2,0,0.3c0,0-0.1,0-0.1,0l0,0c0,0.1-0.1,0.1-0.1,0.1l0.1,0
				c0.1,0.1,0.1,0.3-0.1,0.3c0.1,0.1,0.2,0.2,0.3,0.3v-0.2c0,0.1,0.1,0.1,0.1,0.2v0c0,0,0,0.1,0,0.1s0,0,0,0.1
				c0.1,0,0.1-0.1,0.2-0.1c0,0,0-0.1-0.1-0.1c-0.2,0.1-0.4-0.2-0.2-0.4c0,0,0.1,0,0.1-0.1c0-0.1,0-0.3,0-0.4v0v0
				c0,0,0.1,0.1,0.1,0.1c0,0,0.1,0,0.1-0.1c0-0.1-0.1-0.1-0.1-0.2c0,0,0.1,0.1,0.1,0.2c0-0.1,0-0.1,0.1-0.2l0.1-0.1
				c-0.1,0-0.2-0.3-0.1-0.4c-0.1-0.1-0.1-0.2-0.2-0.3c0,0,0,0,0-0.1v0c0,0,0.1,0.1,0.1,0.1c0,0,0,0.1,0.1,0.1c0,0,0,0,0.1,0l0,0
				l0,0.1c0.1-0.1,0.2-0.2,0.3-0.3c0,0,0,0,0-0.1c-0.2,0.1-0.4-0.2-0.2-0.4c0.1-0.1,0.2-0.1,0.3-0.2c-0.1-0.2-0.2-0.4-0.3-0.5
				c0,0,0.1,0.1,0.1,0.1c0.1,0.1,0.2,0.3,0.3,0.4c0,0,0,0,0.1-0.1c-0.1-0.1-0.1-0.3-0.1-0.4c-0.1-0.1-0.1-0.1-0.2-0.2
				c0,0,0-0.1-0.1-0.1l0,0c0,0,0.1,0,0.1,0c0,0,0.1,0.1,0.1,0.1c0,0,0.1,0,0.1,0c0,0,0.1,0,0.1,0.1c0.1,0.1,0.2-0.1,0.1-0.1
				c-0.1-0.1-0.3-0.2-0.4-0.3c0,0,0,0,0-0.1l0,0c0.1,0.1,0.2-0.1,0.1-0.1c-0.1-0.1-0.2-0.2-0.3-0.3v0c0,0,0,0,0.1,0
				c0.1,0,0.1,0.1,0.2,0.1c0.1,0.1,0.2-0.1,0.1-0.1c-0.1-0.1-0.3-0.2-0.4-0.3c0,0,0.1,0,0.1-0.1c0,0-0.1-0.1-0.1-0.1h0
				c0.1,0,0.1,0.1,0.2,0.1c0.1,0,0.2-0.1,0.1-0.1c-0.2-0.1-0.3-0.2-0.5-0.4c0,0,0.1,0,0.1,0c0.1,0,0.2-0.1,0-0.2
				c-0.1,0-0.2-0.1-0.3-0.1c0,0,0-0.1,0-0.1c-0.1,0-0.1-0.1-0.2-0.1v0l0,0c0,0,0,0,0-0.1c0-0.1-0.1-0.3-0.1-0.4c0-0.1-0.1,0-0.1,0v0
				c0,0-0.1,0-0.1,0.1c0,0,0,0,0,0.1v0c0,0,0,0,0,0.1l0,0v0c0,0,0,0,0,0.1l0,0c-0.1,0.3-0.2,0.5-0.4,0.7c0,0,0,0.1,0.1,0.1
				c0,0-0.1,0.1-0.1,0.1c0,0,0,0.1,0.1,0.1c0.1,0,0.2-0.1,0.2-0.2l0,0l0,0c0,0.1-0.1,0.2-0.3,0.3c-0.1,0,0,0.1,0,0.1h0
				c0,0.1-0.1,0.1-0.1,0.1s-0.1,0-0.1,0c-0.1,0-0.1,0.1,0,0.1c0,0,0.1,0,0.1,0l0,0c0,0,0,0.1,0,0.1c-0.1,0-0.1,0.1-0.2,0.1
				c-0.1,0,0,0.1,0,0.1c0,0-0.1,0-0.1,0.1c-0.1,0-0.1,0.1,0,0.1c0.1,0,0.1,0,0.2,0c0,0,0,0.1,0.1,0.1c0.1,0,0.1-0.1,0.2-0.1
				c0,0,0,0.1,0,0.1l0,0c-0.1,0.1-0.2,0.2-0.3,0.2c-0.1,0,0,0.1,0,0.1l0,0c0,0,0,0,0.1,0c0.1,0,0.1,0,0.2-0.1c0,0,0,0.1,0,0.1
				c-0.1,0-0.1,0.1-0.2,0.1c-0.1,0,0,0.1,0.1,0.1c0,0,0.1,0,0.1,0l0,0c-0.1,0-0.1,0.1-0.2,0.1c0,0-0.1,0.1,0,0.1c0,0-0.1,0-0.1,0
				c-0.1,0-0.1,0.1,0,0.1c0.1,0,0.2,0,0.3,0c-0.1,0-0.1,0.1-0.2,0.1h0c0.1,0,0.1,0,0.1,0.1l0,0c0,0,0,0.1,0,0.1l0,0
				c0,0.1,0,0.2-0.1,0.2c0.1,0.1,0.2,0.1,0.3,0.2c0,0,0.1-0.1,0.1-0.1c0,0,0,0,0.1,0l0,0c0,0.1-0.1,0.1-0.1,0.2c0,0,0.1,0,0.1,0.1
				c0,0,0,0,0,0c0,0,0-0.1,0.1-0.1l0,0c0,0,0,0.1-0.1,0.1c0.1,0.1,0.1,0.2,0,0.3C29,22.7,29,22.7,29,22.8L29,22.8z M30,23.3L30,23.3
				C30,23.3,30,23.3,30,23.3L30,23.3L30,23.3L30,23.3z M29.6,24.3L29.6,24.3L29.6,24.3C29.7,24.3,29.7,24.2,29.6,24.3
				C29.6,24.3,29.6,24.3,29.6,24.3L29.6,24.3z M29.1,22.6c0,0-0.1,0.1-0.2,0c0,0,0,0,0,0.1l0,0C29,22.7,29,22.7,29.1,22.6L29.1,22.6
				z M29.4,22.6L29.4,22.6L29.4,22.6C29.4,22.6,29.3,22.6,29.4,22.6L29.4,22.6L29.4,22.6z M29.5,22.9C29.5,22.8,29.5,22.8,29.5,22.9
				L29.5,22.9C29.5,22.8,29.4,22.8,29.5,22.9C29.4,22.8,29.5,22.8,29.5,22.9L29.5,22.9L29.5,22.9z M29,19.3L29,19.3
				C29,19.4,29,19.4,29,19.3L29,19.3L29,19.3z M29.5,22.4L29.5,22.4C29.5,22.4,29.5,22.4,29.5,22.4L29.5,22.4L29.5,22.4z M29.5,19.1
				L29.5,19.1L29.5,19.1C29.5,19.1,29.5,19.1,29.5,19.1L29.5,19.1C29.4,19,29.4,19,29.5,19.1C29.5,19,29.5,19,29.5,19.1L29.5,19.1z
				 M29,20L29,20C29,20,29,20,29,20L29,20L29,20z M28.7,22.1L28.7,22.1L28.7,22.1L28.7,22.1L28.7,22.1L28.7,22.1z M29.3,19.8
				L29.3,19.8C29.2,19.8,29.2,19.7,29.3,19.8c0-0.1,0-0.1,0-0.1C29.3,19.7,29.3,19.8,29.3,19.8L29.3,19.8z M29.7,19.8L29.7,19.8
				C29.7,19.7,29.6,19.7,29.7,19.8c-0.1-0.2-0.2-0.1-0.2,0c0,0,0,0.1,0.1,0.1c0,0,0,0,0,0.1l0,0l0,0v0c0,0,0-0.1,0-0.1c0,0,0,0,0,0
				c0-0.2,0-0.4,0-0.5c0,0,0,0,0.1,0.1c0,0,0,0,0,0.1s0,0.1,0.1,0.1c0,0,0,0,0,0.1C29.6,19.6,29.6,19.7,29.7,19.8L29.7,19.8
				L29.7,19.8z M29.1,19.3L29.1,19.3L29.1,19.3L29.1,19.3L29.1,19.3z M29.3,22.4c0,0.1-0.1,0.1-0.2,0.2h0
				C29.2,22.5,29.3,22.4,29.3,22.4L29.3,22.4L29.3,22.4z M29.4,24.4C29.4,24.4,29.4,24.4,29.4,24.4C29.4,24.4,29.4,24.4,29.4,24.4
				L29.4,24.4C29.3,24.3,29.3,24.3,29.4,24.4C29.3,24.4,29.3,24.4,29.4,24.4C29.3,24.4,29.3,24.4,29.4,24.4L29.4,24.4z M32,26.5
				L32,26.5c0.1,0.1,0.1,0.1,0.2,0.2C32,26.8,32.1,27,32.3,27c0,0-0.1,0.1-0.1,0.1c-0.1-0.1-0.2-0.2-0.2-0.3
				c-0.2-0.2-0.3-0.3-0.4-0.6v0c0.1,0.3,0.2,0.5,0.4,0.8c0.1,0.1-0.1,0.1-0.1,0.1c-0.1-0.1-0.1-0.1-0.1-0.2l0,0c0,0-0.1-0.1-0.1-0.2
				c0,0.1-0.1,0.3-0.1,0.4c0,0,0.1,0,0.1,0h0v0c0-0.2,0.3-0.1,0.2,0.1c-0.1,0.6-0.1,1,0.4,1.3c0.1,0.1,0,0.2,0,0.2
				c-0.1,0-0.2,0-0.3-0.1c0,0-0.1,0.1-0.1,0.1c0,0-0.1,0-0.1-0.1c0,0.1-0.1,0.1-0.2,0.2c0,0.1-0.1,0.1-0.1,0c0,0-0.1,0-0.1,0
				c0,0-0.1,0-0.1-0.1c-0.1,0.1-0.2,0.1-0.3,0.2c-0.1,0-0.1,0-0.1-0.1c0,0,0,0,0-0.1c-0.1,0.1-0.2,0-0.1-0.1
				c0.2-0.3,0.3-0.6,0.3-0.9c0-0.2,0-0.5,0-0.7v0v0c0,0-0.1,0.1-0.1,0.1c-0.1,0.1-0.2,0-0.1-0.1s0.1-0.2,0.1-0.3
				c-0.1,0.1-0.2,0.3-0.3,0.5c0,0.1-0.2,0-0.1-0.1c0-0.1,0-0.1,0.1-0.2c-0.2,0.2-0.4,0.3-0.6,0.4c-0.1,0-0.1-0.1-0.1-0.2
				c0,0,0.1-0.1,0.1-0.1C30,27,30,26.9,30,26.8l0,0c0,0,0,0-0.1,0c-0.1,0.1-0.2,0-0.2-0.1v0c-0.2,0.2-0.3,0.3-0.5,0.4
				c-0.1,0.1-0.2-0.1-0.1-0.2c0.1-0.1,0.2-0.2,0.3-0.2c-0.1,0-0.1-0.2,0-0.2c0.1-0.1,0.2-0.2,0.3-0.2c0,0,0-0.1,0.1-0.1
				c0,0-0.1,0-0.1,0.1c-0.2,0.1-0.2-0.2-0.1-0.3c0,0,0,0,0.1,0c0,0-0.1-0.1,0-0.2c0-0.1,0.1-0.2,0.1-0.3c-0.1,0-0.2-0.1-0.1-0.2
				c0.1-0.1,0.1-0.2,0.2-0.3c-0.1,0-0.2,0.1-0.3,0.1c-0.1,0-0.2-0.2-0.1-0.2c0.1,0,0.1-0.1,0.2-0.1v0c0-0.1,0.1-0.2,0.1-0.2
				c0,0,0,0-0.1,0c-0.1,0-0.1-0.1-0.1-0.1c-0.1,0-0.2,0.1-0.2,0.1c-0.1,0.1-0.2-0.2-0.1-0.2c0.2-0.1,0.4-0.2,0.6-0.3
				c0.1-0.1,0.2-0.2,0.2-0.4c0-0.1,0.1-0.1,0.1-0.2l0,0c-0.1,0-0.1,0-0.1,0c0,0-0.1,0.1-0.1,0.1c0,0-0.1,0-0.1,0
				c0,0-0.1,0.1-0.1,0.1c-0.2,0.3-0.3,0.1-0.2,0.1c0.2-0.2,0.4-0.3,0.5-0.5c0,0,0-0.1,0-0.1l0,0C30,23.3,29.9,23.1,30,23
				c0.1-0.1,0.3-0.3,0.4-0.4l0,0c0,0,0,0-0.1,0c-0.1,0.1-0.2,0.1-0.2,0.2c-0.1,0.1-0.2-0.1-0.1-0.2c0.2-0.1,0.3-0.3,0.5-0.4
				c-0.1,0-0.1-0.1-0.1-0.1c0-0.1,0.1-0.1,0.1-0.2h0c-0.1,0.1-0.2,0.1-0.3,0.2c-0.1,0.1-0.2-0.1-0.1-0.2c0.2-0.1,0.4-0.3,0.6-0.5
				c0,0-0.1,0-0.1,0c-0.1,0-0.2-0.2-0.1-0.2c0.1,0,0.3-0.1,0.4-0.2c-0.1-0.1-0.1-0.2,0-0.2c0.1,0,0.2-0.1,0.3-0.1v0l0,0
				c0,0,0,0,0-0.1c0.1-0.2,0.1-0.4,0.2-0.5c0-0.1,0.2,0,0.1,0.1c0,0,0,0,0,0.1c0,0,0.1,0,0.1,0.1c0,0,0,0.1,0,0.1v0c0,0,0,0.1,0,0.1
				c0,0,0,0,0,0v0c0,0,0,0,0,0.1l0,0.1c0.1,0.4,0.3,0.7,0.5,1c0,0.1,0,0.1-0.1,0.1c0,0,0.1,0.1,0.1,0.1c0,0.1,0,0.1-0.1,0.1
				c-0.1-0.1-0.2-0.2-0.3-0.2l0,0c0,0,0,0,0,0.1c0.1,0.2,0.2,0.3,0.3,0.4c0.1,0,0,0.2-0.1,0.2l0,0c0.1,0.1,0.1,0.1,0.2,0.2
				c0,0,0.1,0,0.1,0.1c0.1,0,0.1,0.2,0,0.2c0,0-0.1,0-0.1,0c0,0,0,0,0,0.1c0,0,0,0.1,0,0.1c0.1,0,0.1,0.1,0.2,0.1c0.1,0,0,0.2,0,0.2
				c0.1,0,0.1,0.1,0.2,0.1c0.1,0,0.1,0.2,0,0.2c-0.1,0-0.1,0-0.2,0c0.1,0.1,0,0.2-0.1,0.1c-0.1,0-0.1-0.1-0.2-0.1c0,0.1,0,0.1,0,0.2
				v0c0.1,0.1,0.3,0.2,0.4,0.3c0.1,0,0,0.2-0.1,0.2l0,0c0,0,0,0-0.1,0c-0.1,0-0.2-0.1-0.3-0.1c0,0.1,0,0.1,0,0.2
				c0.1,0.1,0.1,0.1,0.2,0.1c0.1,0,0,0.2-0.1,0.2c0,0-0.1,0-0.1-0.1l0,0c0.1,0,0.2,0.1,0.3,0.1c0.1,0,0.1,0.1,0.1,0.1c0,0,0,0,0.1,0
				c0,0,0,0.1,0,0.1c0,0,0,0.1,0,0.1c-0.1,0-0.2,0-0.3,0c0.1,0.1,0.1,0.1,0.2,0.2c-0.1,0.1-0.1,0.2,0,0.3l0,0
				c-0.1,0-0.1-0.1-0.2-0.2c0,0,0,0.1,0,0.1c0.1,0,0.1,0.1,0.2,0.1l-0.1,0c-0.1,0-0.1,0.1-0.1,0.2l0,0l0,0l0,0
				c0,0.1,0.1,0.1,0.2,0.1l0,0l-0.1,0c-0.1,0.1-0.1,0.3,0,0.3c0,0,0,0.1,0,0.1c0,0,0,0,0,0c-0.2-0.1-0.3-0.3-0.5-0.5
				c0,0-0.1,0-0.1-0.1l0,0c0.2,0.2,0.3,0.4,0.5,0.6c-0.1,0-0.1,0.1-0.1,0.2c-0.2-0.2-0.4-0.3-0.5-0.5l0,0c0.1,0.1,0.2,0.3,0.3,0.4
				c0.1,0.1,0.2,0.1,0.3,0.2l0,0l-0.1,0c0,0-0.1,0.1-0.1,0.1l0,0c-0.1-0.1-0.2-0.2-0.3-0.2C31.9,26.4,31.9,26.4,32,26.5L32,26.5z
				 M31.4,26.2L31.4,26.2C31.5,26.2,31.4,26.2,31.4,26.2L31.4,26.2L31.4,26.2L31.4,26.2z M31.3,26.6L31.3,26.6
				C31.3,26.6,31.4,26.6,31.3,26.6c0-0.1,0-0.1,0-0.1V26.6C31.3,26.6,31.3,26.6,31.3,26.6L31.3,26.6z M31.5,28.5L31.5,28.5
				C31.5,28.5,31.5,28.4,31.5,28.5c0-0.1,0-0.2,0-0.2h0C31.5,28.4,31.5,28.5,31.5,28.5L31.5,28.5L31.5,28.5z M30.2,27L30.2,27
				L30.2,27L30.2,27L30.2,27z M30.6,25.9L30.6,25.9c-0.2,0.3-0.4,0.7-0.7,1c0.2-0.3,0.4-0.5,0.6-0.7l0,0c0.1-0.2,0.2-0.4,0.3-0.5
				c0,0,0-0.1,0-0.1v0c0,0.1-0.1,0.1-0.1,0.1C30.7,25.8,30.7,25.8,30.6,25.9C30.7,25.9,30.7,25.9,30.6,25.9L30.6,25.9z M29.9,26
				C29.9,26,29.8,26,29.9,26c0,0,0.1,0,0.1-0.1C30,25.9,29.9,25.9,29.9,26C29.9,25.9,29.9,26,29.9,26L29.9,26z M29.9,25L29.9,25
				c0.1,0,0.1-0.1,0.2-0.1c0.2-0.3,0.3-0.6,0.5-0.8c0,0-0.1,0.1-0.1,0.1C30.2,24.4,30.1,24.7,29.9,25L29.9,25z M31.9,21.7L31.9,21.7
				C32,21.7,32,21.7,31.9,21.7C32,21.7,31.9,21.7,31.9,21.7L31.9,21.7L31.9,21.7z M31.3,26L31.3,26C31.4,25.9,31.3,25.9,31.3,26
				C31.3,25.9,31.3,25.9,31.3,26L31.3,26z M31.3,28.6L31.3,28.6C31.3,28.6,31.3,28.6,31.3,28.6L31.3,28.6
				C31.3,28.6,31.3,28.6,31.3,28.6L31.3,28.6L31.3,28.6L31.3,28.6z M31.2,28.1c0,0.1-0.1,0.2-0.1,0.3c0,0.1-0.1,0.2-0.1,0.3l0,0
				c0-0.1,0-0.2,0.2-0.2h0l0,0C31.2,28.3,31.2,28.2,31.2,28.1L31.2,28.1z M31.3,21.3L31.3,21.3C31.3,21.3,31.3,21.3,31.3,21.3
				C31.3,21.3,31.3,21.3,31.3,21.3L31.3,21.3c0.1-0.1,0.1-0.1,0.1-0.1C31.3,21.2,31.3,21.2,31.3,21.3L31.3,21.3z M31.9,22.7
				L31.9,22.7C32,22.7,31.9,22.7,31.9,22.7L31.9,22.7L31.9,22.7z M31.6,22.4L31.6,22.4c0,0,0-0.1,0-0.1c0,0,0,0,0-0.1
				C31.6,22.2,31.6,22.3,31.6,22.4L31.6,22.4z M31,22.3L31,22.3c0,0,0.1-0.1,0.1-0.2c0.1-0.1,0.2,0,0.1,0.1c0,0.1-0.1,0.1-0.1,0.2
				c0,0,0.1,0.1,0,0.1l0,0l0,0v0c0-0.1,0-0.1,0.1-0.2c0,0,0,0,0-0.1c0-0.3,0-0.5,0.1-0.8c0,0,0,0.1-0.1,0.1c0,0,0,0.1,0,0.1
				c0,0.1,0,0.1-0.1,0.1c0,0,0.1,0.1,0,0.1C31.1,22.1,31.1,22.2,31,22.3L31,22.3L31,22.3z M31.8,21.6L31.8,21.6L31.8,21.6L31.8,21.6
				L31.8,21.6z M31.5,25.9c0,0.1,0.1,0.2,0.2,0.3h0C31.7,26.1,31.6,26,31.5,25.9L31.5,25.9z M34.7,26.9
				C34.7,26.9,34.7,26.8,34.7,26.9v-0.1C34.7,26.8,34.7,26.8,34.7,26.9C34.7,26.9,34.7,26.9,34.7,26.9L34.7,26.9z M34.5,28.4
				L34.5,28.4c0,0,0-0.1,0-0.2h0C34.5,28.3,34.5,28.3,34.5,28.4C34.5,28.4,34.5,28.4,34.5,28.4L34.5,28.4L34.5,28.4z M35.7,27.2
				L35.7,27.2L35.7,27.2L35.7,27.2L35.7,27.2z M35.3,26.3C35.3,26.3,35.3,26.3,35.3,26.3c-0.1-0.1-0.1-0.1-0.1-0.2
				c0,0-0.1,0-0.1-0.1v0c0,0,0,0.1,0,0.1c0.1,0.1,0.2,0.3,0.3,0.4h0c0.2,0.2,0.4,0.4,0.5,0.6C35.7,26.9,35.5,26.6,35.3,26.3
				L35.3,26.3L35.3,26.3z M36,26.3C36,26.3,36,26.3,36,26.3c-0.1,0-0.1,0-0.1,0C35.9,26.3,36,26.4,36,26.3C36,26.4,36,26.4,36,26.3
				L36,26.3z M36,25.5c-0.2-0.2-0.3-0.4-0.5-0.7c0,0-0.1-0.1-0.1-0.1c0.1,0.2,0.3,0.5,0.4,0.7C35.9,25.5,35.9,25.5,36,25.5L36,25.5
				L36,25.5z M34.2,22.8L34.2,22.8C34.1,22.8,34.1,22.8,34.2,22.8C34.1,22.8,34.2,22.8,34.2,22.8L34.2,22.8L34.2,22.8z M34.7,26.3
				C34.7,26.3,34.7,26.3,34.7,26.3C34.7,26.3,34.7,26.3,34.7,26.3L34.7,26.3L34.7,26.3z M34.7,28.5L34.7,28.5L34.7,28.5L34.7,28.5
				L34.7,28.5L34.7,28.5L34.7,28.5L34.7,28.5z M34.8,28c0,0.1,0,0.2,0,0.4l0,0h0c0.1,0,0.2,0.1,0.2,0.1l0,0c0-0.1-0.1-0.2-0.1-0.3
				C34.8,28.2,34.8,28.1,34.8,28L34.8,28L34.8,28z M34.8,22.5c0,0-0.1-0.1-0.1-0.1C34.7,22.4,34.7,22.5,34.8,22.5L34.8,22.5
				C34.7,22.5,34.7,22.5,34.8,22.5C34.7,22.6,34.7,22.6,34.8,22.5L34.8,22.5L34.8,22.5z M34.2,23.6L34.2,23.6L34.2,23.6L34.2,23.6
				L34.2,23.6z M34.5,23.4c0,0,0-0.1,0-0.1C34.5,23.3,34.5,23.3,34.5,23.4C34.4,23.3,34.4,23.4,34.5,23.4L34.5,23.4L34.5,23.4z
				 M35,23.3L35,23.3c-0.1-0.1-0.1-0.2-0.2-0.3c0,0,0-0.1,0-0.1c0,0,0-0.1-0.1-0.1c0,0,0,0,0-0.1c0,0,0,0-0.1-0.1
				c0,0.2,0,0.4,0.1,0.6l0,0c0,0,0,0.1,0,0.1v0l0,0l0,0c0,0,0-0.1,0-0.1c0,0-0.1-0.1-0.1-0.1c0-0.1,0.1-0.1,0.1-0.1
				C34.9,23.3,35,23.3,35,23.3L35,23.3L35,23.3z M34.3,22.8L34.3,22.8L34.3,22.8L34.3,22.8L34.3,22.8z M34.4,26.4
				C34.4,26.4,34.4,26.4,34.4,26.4L34.4,26.4L34.4,26.4L34.4,26.4z M33.1,27.2L33.1,27.2L33.1,27.2L33.1,27.2L33.1,27.2L33.1,27.2z
				 M33.2,27.4C33.2,27.4,33.2,27.4,33.2,27.4L33.2,27.4C33.2,27.3,33.2,27.3,33.2,27.4C33.2,27.4,33.2,27.4,33.2,27.4L33.2,27.4
				L33.2,27.4z M33.1,28.6L33.1,28.6c0,0,0-0.1,0-0.1h0C33.1,28.5,33.1,28.5,33.1,28.6C33.1,28.5,33.1,28.5,33.1,28.6L33.1,28.6
				L33.1,28.6z M34,27.6L34,27.6L34,27.6L34,27.6L34,27.6z M33.7,27C33.7,27,33.7,27,33.7,27c-0.1-0.1-0.1-0.1-0.1-0.1
				c0,0-0.1,0-0.1,0v0c0,0,0,0,0,0.1c0.1,0.1,0.1,0.2,0.2,0.3l0,0c0.1,0.1,0.3,0.3,0.4,0.4C34,27.4,33.8,27.2,33.7,27L33.7,27
				L33.7,27z M34.2,27L34.2,27C34.1,27,34.1,27,34.2,27C34.1,27,34.1,27.1,34.2,27C34.2,27.1,34.2,27.1,34.2,27L34.2,27z M34.2,26.4
				c-0.1-0.2-0.2-0.3-0.3-0.5c0,0,0,0-0.1-0.1C33.9,26,34,26.2,34.2,26.4C34.1,26.4,34.1,26.4,34.2,26.4L34.2,26.4L34.2,26.4z
				 M32.8,24.4L32.8,24.4C32.8,24.4,32.8,24.4,32.8,24.4C32.8,24.4,32.8,24.4,32.8,24.4L32.8,24.4z M33.2,27L33.2,27
				C33.2,27,33.2,27,33.2,27L33.2,27L33.2,27z M33.2,28.6L33.2,28.6L33.2,28.6L33.2,28.6L33.2,28.6C33.2,28.6,33.2,28.6,33.2,28.6
				L33.2,28.6L33.2,28.6z M33.3,28.3c0,0.1,0,0.2,0,0.3l0,0h0c0.1,0,0.1,0,0.1,0.1l0,0c0-0.1-0.1-0.1-0.1-0.2
				C33.3,28.4,33.3,28.4,33.3,28.3L33.3,28.3z M33.3,24.2C33.2,24.2,33.2,24.2,33.3,24.2C33.2,24.2,33.2,24.2,33.3,24.2L33.3,24.2
				C33.2,24.2,33.2,24.2,33.3,24.2L33.3,24.2L33.3,24.2L33.3,24.2z M32.8,25L32.8,25C32.8,25,32.8,25,32.8,25L32.8,25L32.8,25z
				 M33,26.9c-0.1,0.1-0.1,0.2-0.2,0.3c-0.1,0.1-0.1,0.1-0.2,0.2l0,0l0,0v0C32.7,27.2,32.8,27.1,33,26.9L33,26.9z M32.6,26.8
				L32.6,26.8L32.6,26.8L32.6,26.8L32.6,26.8L32.6,26.8z M32.9,26.8C32.9,26.8,32.9,26.8,32.9,26.8c-0.2,0.2-0.3,0.3-0.4,0.4
				c0,0,0,0.1,0,0.1h0l0,0C32.6,27.1,32.8,26.9,32.9,26.8L32.9,26.8L32.9,26.8z M33,24.8C33,24.8,33,24.8,33,24.8
				C33,24.7,33,24.8,33,24.8C33,24.8,33,24.8,33,24.8L33,24.8L33,24.8z M33.5,24.8L33.5,24.8c-0.1-0.1-0.1-0.1-0.2-0.2
				c0,0,0,0,0-0.1c0,0,0-0.1,0-0.1s0,0,0,0c0,0,0,0,0-0.1c0,0.2,0,0.3,0,0.5l0,0c0,0,0,0.1,0,0.1l0,0l0,0l0,0
				C33.3,24.9,33.4,24.9,33.5,24.8c-0.1,0-0.1,0-0.1,0C33.3,24.7,33.4,24.7,33.5,24.8C33.4,24.8,33.4,24.8,33.5,24.8L33.5,24.8
				L33.5,24.8z M32.9,24.4L32.9,24.4L32.9,24.4L32.9,24.4L32.9,24.4z M33.1,27c0,0.1-0.1,0.1-0.1,0.2h0C33,27.1,33.1,27.1,33.1,27
				L33.1,27z M32,27.8c0.1,0,0.1,0,0.1,0C32.1,27.7,32.1,27.7,32,27.8c0-0.1,0-0.1,0-0.2c0,0,0-0.1,0-0.1h0v0c0,0,0,0,0-0.1v0
				c0,0,0,0,0.1-0.1c0,0,0,0,0-0.1c0,0,0-0.1,0-0.1c0,0,0.1-0.1,0.1-0.1c0,0,0,0,0-0.1v0l0,0v0c0,0,0-0.1,0-0.1l0,0
				c-0.1,0-0.1,0-0.2,0c-0.1,0-0.1-0.1,0-0.1c0.1,0,0.1-0.1,0.2-0.1c0,0,0-0.1,0-0.1c0.1,0,0.1,0,0.2-0.1c0,0,0-0.1,0-0.1
				c-0.1,0.1-0.2,0.1-0.3,0.2c-0.1,0-0.1-0.1,0-0.1c0.1-0.1,0.2-0.2,0.4-0.3c-0.1,0-0.1,0-0.2,0c-0.1,0-0.1-0.1,0-0.1c0,0,0,0,0.1,0
				c0,0,0-0.1,0-0.1c0.1,0,0.1,0,0.2-0.1l0,0c0,0-0.1,0-0.1,0c-0.1,0-0.1-0.1,0-0.1s0.1-0.1,0.1-0.1c0,0,0-0.1,0-0.1
				c-0.1,0-0.1,0.1-0.2,0.1c0,0,0,0,0,0l0,0c-0.1,0-0.1-0.1,0-0.1c0.1-0.1,0.2-0.1,0.3-0.2l0,0c0,0,0-0.1,0-0.1c0,0-0.1,0.1-0.1,0.1
				c0,0-0.1,0,0-0.1c0,0-0.1,0-0.1,0c-0.1,0-0.1-0.1,0-0.1c0,0,0.1,0,0.1-0.1c0,0-0.1-0.1,0-0.1c0.1,0,0.1-0.1,0.1-0.1
				c0,0,0,0,0-0.1c0,0,0,0,0,0c0,0-0.1,0-0.1,0c-0.1,0-0.1-0.1,0-0.1c0,0,0.1,0,0.1,0c0,0,0.1-0.1,0.1-0.1h0c-0.1,0-0.1-0.1,0-0.1
				c0.1-0.1,0.2-0.1,0.2-0.2c0,0,0,0,0,0l0,0c-0.1,0-0.1,0.1-0.2,0.1c0,0-0.1,0-0.1-0.1c0,0,0.1-0.1,0.1-0.1c0,0-0.1,0-0.1-0.1
				c0.1-0.2,0.2-0.4,0.3-0.6l0,0c0,0,0,0,0,0l0,0c0,0,0,0,0,0c0,0,0,0,0-0.1l0,0v0c0,0,0-0.1,0.1-0.1v0c0-0.1,0.1-0.1,0.1,0
				c0.1,0.1,0.1,0.2,0.1,0.3c0,0,0,0,0,0l0,0v0c0,0,0.1,0.1,0.2,0.1c0.1,0,0.1,0.1,0,0.1c0.1,0,0.1,0.1,0.2,0.1c0.1,0,0.1,0.2,0,0.1
				c0,0-0.1,0-0.1,0c0.1,0.1,0.3,0.2,0.4,0.3c0.1,0,0,0.1-0.1,0.1s-0.1-0.1-0.2-0.1h0c0,0,0.1,0.1,0.1,0.1s0,0.1,0,0.1
				c0.1,0.1,0.2,0.2,0.3,0.3c0.1,0,0,0.2-0.1,0.1S34,25,33.9,25h0v0c0.1,0.1,0.2,0.2,0.3,0.2c0.1,0,0,0.1-0.1,0.1l0,0c0,0,0,0,0,0.1
				c0.1,0.1,0.2,0.2,0.4,0.3c0.1,0,0,0.2-0.1,0.1c0,0,0,0-0.1-0.1c0,0,0,0-0.1,0c0,0,0-0.1-0.1-0.1c0,0-0.1,0-0.1,0l0,0
				c0,0,0,0.1,0.1,0.1c0.1,0.1,0.1,0.1,0.1,0.2c0.1,0.1,0.3,0.2,0.4,0.2c0.1,0,0.1,0.2,0,0.1c-0.1,0-0.1,0-0.2-0.1c0,0,0,0.1,0,0.1
				h0c0,0,0.1,0.1,0.1,0.1v0c0,0,0.1,0,0.1,0.1c0.1,0,0,0.2,0,0.1c-0.1,0-0.1,0-0.2-0.1c0,0.1,0.1,0.1,0.1,0.2c0,0.1,0,0.1-0.1,0.1
				c0,0.1,0.1,0.1,0.1,0.2c0,0,0,0.1,0,0.1c0,0,0,0,0,0c0.1,0,0.1,0.2,0,0.2c0,0-0.1,0-0.1,0c0,0,0,0,0,0.1c0.1,0.1,0.1,0.1,0.2,0.1
				s0,0.1,0,0.1c0.1,0,0.1,0.1,0.2,0.1c0.1,0,0,0.1-0.1,0.1c-0.1-0.1-0.2-0.2-0.3-0.3l0,0c0,0.1-0.1,0.1-0.1,0.1c0,0,0,0,0,0l0,0
				c0,0,0,0.1,0,0.1c0,0,0.1,0,0.1,0.1c0.1,0,0,0.1,0,0.1c-0.1-0.1-0.3-0.1-0.4-0.2c0,0,0,0.1,0,0.1c0,0.1-0.1,0.1-0.1,0
				c-0.1-0.1-0.1-0.2-0.2-0.3c0,0.1,0.1,0.1,0.1,0.2c0,0.1-0.1,0.1-0.1,0.1c0,0,0-0.1-0.1-0.1l0,0l0,0c0,0.1,0,0.3,0,0.4
				c0,0.2,0.1,0.4,0.2,0.6c0,0.1,0,0.1-0.1,0.1v0c0,0,0,0.1-0.1,0.1c-0.1,0-0.1-0.1-0.2-0.1c0,0,0,0-0.1,0s-0.1,0-0.1,0
				c0,0-0.1,0-0.1,0c-0.1,0-0.1-0.1-0.1-0.1c0,0,0,0-0.1,0c0,0-0.1,0-0.1,0c0,0-0.1,0-0.2,0c-0.1,0-0.1-0.1,0-0.1
				c0.3-0.2,0.3-0.5,0.2-0.8c0-0.1,0.1-0.1,0.2,0v0h0c0,0,0,0,0.1,0c0-0.1,0-0.2,0-0.3c0,0,0,0.1-0.1,0.1l0,0c0,0-0.1,0.1-0.1,0.1
				c0,0-0.1,0-0.1-0.1c0.1-0.1,0.2-0.3,0.2-0.5v0c-0.1,0.1-0.2,0.2-0.3,0.3c-0.1,0.1-0.1,0.2-0.2,0.3c0,0-0.1,0-0.1,0s0-0.1,0.1-0.1
				c0,0,0,0-0.1,0s0,0-0.1,0C32.3,27.6,32.1,27.7,32,27.8C31.9,27.9,31.9,27.8,32,27.8z"/>
			
				<rect x="24.9" y="18.4" fill="#00000B" stroke="#1A1A18" stroke-width="0.5669" stroke-miterlimit="22.9256" width="0.1" height="0"/>
			<path fill="#00000B" d="M14.2,34.2c-1.5-3.9,1.2-6.2,1.6-6.5c0,0,0,0,0,0l0,0c0,0,0,0,0,0l0,0l0,0l0,0c0,0,0-0.1,0.1-0.1
				c0.3-0.3,0.7-0.8,1.9-1.5c1.2-0.7,1.6-0.5,2.3-1.1c0,0-0.2,0.6-0.2,1c0,0-0.4-0.1-0.8,0c-0.1-0.2-0.3-0.2-0.5-0.2
				c-0.1,0.1-0.2,0.2-0.2,0.3c-0.1,0-0.2,0.1-0.3,0.1c-0.8,0.4-1.4,0.9-1.7,1.6c0,0.4,0.1,0.9,0.6,1.4c0.4,0.4,0.7,0.6,1,0.7
				c0.1,0.1,0.2,0.2,0.2,0.2s-1.1-0.3-1.7-1.2c-0.1-0.2-0.2-0.3-0.3-0.5l0,0c0,0.3,0.2,0.7,0.4,1c0.3,0.4,0.7,0.5,0.9,0.7
				c0.1,0.1,0.2,0.2,0.2,0.2s-1.1-0.4-1.6-1.4c-0.1-0.1-0.1-0.2-0.1-0.4l0,0v0l0,0c0,0,0,0.1,0,0.1c0,0-0.1,0-0.1,0l0,0
				c0,0-0.1,0.1-0.1,0.1c0,0,0,0,0,0c0,0,0,0.1,0,0.1c0,0-0.1,0-0.1,0c0,0,0,0,0,0c0,0,0,0,0,0c0,0,0,0.1,0,0.1c0,0-0.1,0-0.1,0
				c-0.1,0.1-0.2,0.3-0.3,0.5c0,0,0,0.1,0,0.1c0,0,0.1,0,0.1,0.1c0.1,0.1,0.1,0.2,0,0.3c-0.1,0.1-0.2,0.1-0.3,0c0,0,0,0,0-0.1
				c0,0.1-0.1,0.2-0.1,0.3c0,0,0,0.1,0,0.1l0,0c-0.2,0.6-0.2,1.1-0.2,1.6c0.1,0,0.1,0,0.2,0c0.1,0.1,0.1,0.2,0,0.2
				c0,0.1-0.1,0.1-0.2,0c0,0.3,0.1,0.6,0.1,0.9c0,0,0,0,0,0c0,0,0,0.1,0,0.1c0,0,0,0,0,0c0,0.2,0.1,0.3,0.1,0.4c0,0.2,0,0.1,0,0.1
				c-0.1-0.2-0.1-0.3-0.2-0.5c0,0,0,0,0,0c0,0,0-0.1,0-0.1l0,0c0-0.1-0.1-0.2-0.1-0.3c-0.1,0-0.1,0-0.2,0c0,0.2,0.1,0.4,0.2,0.6
				c0.1,0,0.1,0,0.1,0.1c0.1,0.1,0.1,0.2,0,0.3l0,0c0,0.1,0,0.1,0.1,0.2c0.3,0.7,0.6,1.2,1,1.6c0-0.2,0-0.3,0-0.3l0.3,0.4
				c0,0,0.1,0.1,0.1,0.3c1.6,1.3,3.8,1.3,4.9,1.2c0,0,1.1-0.3,0.8-0.7l0,0c0,0,0,0,0,0c-0.1,0.1-0.1,0.1-0.2,0c0,0,0-0.1,0-0.1
				c-0.1,0-0.1,0-0.2,0c0,0,0,0.1,0,0.1c0,0-0.1,0-0.1,0c0,0,0-0.1,0-0.1c-0.2,0-0.3,0-0.5,0l0,0c0,0-0.1,0-0.1,0l0,0
				c-0.2,0-0.3-0.1-0.5-0.1c0,0,0,0,0,0c0,0-0.1,0-0.1,0c0,0,0,0,0-0.1c-0.5-0.2-1.1-0.5-1.6-1c-0.1-0.1,0-0.1,0.1-0.1
				c0,0,0.3,0.3,0.8,0.6c0,0,0,0,0,0c0,0,0.1,0,0.1,0s0,0.1,0,0.1c0.1,0,0.2,0.1,0.3,0.1c0,0,0,0,0-0.1s0.1,0,0.1,0s0,0.1,0,0.1
				c0.2,0.1,0.4,0.1,0.6,0.2c0,0,0-0.1,0-0.1c0,0,0.1,0,0.1,0c0,0,0,0.1,0,0.1c0.1,0,0.2,0,0.3,0.1c-0.1-0.1-0.1-0.1,0-0.2
				c-1.1-0.2-2.5-0.8-3-2.1c-0.7-1.7,1.3-3.6,1.6-3.9c0.1-0.1,0.1-0.2,0.2-0.2c-0.2,0.1-0.5,0.1-0.7,0.1c-0.4-0.1-1.2-0.8-1.2-0.8
				s0.7,0.5,1.1,0.6c0.3,0.1,0.7,0,0.8-0.1l0,0c0,0,0.1,0,0.1-0.1l0,0l0,0c0.9-0.5,1-0.6,1.1-0.9c0.7-1.7,1.7-2.2,2-2.5
				c0.1-0.1,0.1-0.2,0.2-0.3c-0.1,0-0.4,0.1-0.7,0.3c-0.8,0.5-1.3,0.9-1.5,1.1c-0.2,0.3-0.1,0.5-0.2,0.7c0,0.6-0.3,0.6-0.6,0.4
				c-0.3-0.3-0.2-1.3-0.1-1.8c0-0.2,0.1-0.1,0.1-0.1c-0.1,0.3-0.1,1.3,0,1.6c0.1,0.2,0.3,0.4,0.5,0.1c0.1-0.1,0-0.6,0-0.9
				c-0.1-0.7-0.4-2.8,0.4-3.6c1.2-1.1,1.4,1.4,1.4,2.2c0.2-0.1,0.5-0.2,0.8-0.3c0.6-0.2,0.4,0.2,0.3,0.3c-0.5,0.7-1.8,1.5-2.2,2.5
				c-0.4,1-1,1.3-1,1.3s-0.1,0.1-0.3,0.2c0.2,0.2,0.8,0.8,0.6,1.6c0,0-0.9,0-1-1.2c-0.8,0.8-2,2.1-1.6,3.5c0.2,0.7,0.6,1.1,1.1,1.4
				c0,0,0.1,0,0.6-0.2c0.5-0.2,1.5-0.5,1,0.3c-0.2,0.3-0.3,0.4-0.4,0.5c0.3,0.1,0.6,0.2,0.8,0.2c0.4-0.6,1.8-2.4,2.5-2.4
				c0.9,0,0.8,0.3,0.7,0.6c-0.1,0.3-1.2,1.9-0.8,2.5c0.4,0.6,1.6,2.1,1.1,2.3s-0.9,0.3-1.2,0c-0.3-0.3-1.7-1.3-2.2-1.6
				c-0.4,0-0.8,0.1-1.2,0.1l0,0c0,0,0.5,0.4,0.6,0.8v0c0,0,0.3,0.4-0.1,0.6c-0.8,0.3-1.4-0.5-1.4-0.5l0,0c-0.3-0.2-0.6-0.6-0.8-1
				c-0.6-0.1-1.2-0.3-1.8-0.7c0.1,0.4,0.2,0.7,0,0.6c-0.4-0.2-0.6-0.7-0.6-1C15,35.8,14.5,35.1,14.2,34.2L14.2,34.2z M20.3,38.6
				L20.3,38.6C20.3,38.6,20.3,38.6,20.3,38.6L20.3,38.6z M17.9,35.9c0.2-0.5-0.7-1.8-0.7-1.8L17,33.9C17,34.3,17.7,36.3,17.9,35.9
				L17.9,35.9z M14.6,32.9c0,0,0.1,0,0.1,0c0,0,0-0.1,0-0.1c0,0-0.1,0-0.1,0C14.6,32.8,14.6,32.8,14.6,32.9L14.6,32.9z M14.7,31.8
				c0,0,0,0.1,0,0.1c0,0,0.1,0,0.1,0c0,0,0-0.1,0-0.1C14.8,31.7,14.7,31.7,14.7,31.8L14.7,31.8z M14.5,31.4c0,0,0,0.1,0,0.1
				s0.1,0,0.1,0c0,0,0-0.1,0-0.1C14.6,31.3,14.6,31.3,14.5,31.4L14.5,31.4z M14.6,31c0.1,0.1,0.1,0.1,0.2,0c0.1-0.1,0-0.2,0-0.2
				c-0.1-0.1-0.1-0.1-0.2,0C14.6,30.8,14.6,30.9,14.6,31L14.6,31z M15,30.5c0,0,0.1,0,0.1,0c0,0,0-0.1,0-0.1c0,0-0.1,0-0.1,0
				C14.9,30.4,14.9,30.5,15,30.5L15,30.5z M15.2,29.7c0.1,0.1,0.1,0.1,0.2,0c0.1-0.1,0-0.2,0-0.2c-0.1-0.1-0.1-0.1-0.2,0
				C15.2,29.5,15.2,29.6,15.2,29.7L15.2,29.7z M15.6,29.2c0,0,0.1,0,0.1,0c0,0,0-0.1,0-0.1c0,0-0.1,0-0.1,0S15.6,29.2,15.6,29.2
				L15.6,29.2z M18.1,26.5c0.1,0.1,0.3,0.1,0.3,0.1s-0.2-0.1-0.2-0.3c0,0-0.5,0.2-0.9,0.5C17.3,26.8,18,26.4,18.1,26.5L18.1,26.5z
				 M18.7,26.2c-0.1,0-0.1,0-0.2-0.1c0,0,0-0.1,0-0.1c0,0-0.1,0-0.1,0s-0.2,0.1-0.1,0.3c0.1,0.3,0.4,0,0.4,0S18.8,26.1,18.7,26.2
				L18.7,26.2L18.7,26.2z M19,26.1c0,0,0.1,0.4-0.3,0.5C18.7,26.6,19.2,26.6,19,26.1L19,26.1z M17.6,31.6c0.6-0.2,0.8-1.2,0.8-1.2
				s-0.1,0-0.2,0c-0.7,0.1-1.4,1.1-1.4,1.1S17.1,31.8,17.6,31.6L17.6,31.6z M16.9,31.5L16.9,31.5c0,0,0.8,0.3,1.1-0.7
				C18.1,30.8,17.6,31.5,16.9,31.5L16.9,31.5z M21.3,23.4c0.8,0.1,0.9,2.3,0.9,2.3c0-0.2,0.1-2.4-0.9-2.5c-1,0-1.2,1.4-1.2,1.4
				C20.2,24.2,20.6,23.3,21.3,23.4L21.3,23.4z M14.2,31.7L14.2,31.7C14.3,31.7,14.3,31.7,14.2,31.7c0-0.1,0-0.3,0-0.4
				c0,0-0.1,0-0.1-0.1c0,0.1,0,0.3,0,0.4C14.1,31.7,14.2,31.7,14.2,31.7L14.2,31.7z M14.2,30.8L14.2,30.8c0,0,0.1,0,0.1,0.1
				c0-0.1,0.1-0.3,0.1-0.4c0,0,0,0-0.1-0.1l0,0C14.3,30.5,14.2,30.7,14.2,30.8L14.2,30.8z M14.8,29.5L14.8,29.5L14.8,29.5
				C14.9,29.4,14.9,29.4,14.8,29.5l0.1-0.1c0-0.1,0.1-0.1,0.1-0.1l0,0c0,0-0.1-0.1-0.1-0.1C14.9,29.2,14.8,29.4,14.8,29.5
				C14.7,29.4,14.8,29.5,14.8,29.5L14.8,29.5z M15.4,28.7L15.4,28.7L15.4,28.7c0,0-0.1-0.1-0.1-0.1c-0.1,0.1-0.1,0.2-0.2,0.3
				c0,0,0.1,0,0.1,0.1C15.3,28.8,15.3,28.8,15.4,28.7L15.4,28.7z M15.7,28.1L15.7,28.1c-0.1,0.1-0.1,0.1-0.2,0.2c0,0,0.1,0,0.1,0.1
				c0,0,0,0,0,0c0,0,0.1-0.1,0.1-0.1C15.7,28.3,15.7,28.2,15.7,28.1L15.7,28.1z M14.6,29.8L14.6,29.8L14.6,29.8
				C14.6,29.8,14.6,29.8,14.6,29.8c-0.2,0-0.2,0.1-0.3,0.3c0,0,0.1,0,0.1,0.1C14.6,30,14.6,29.9,14.6,29.8L14.6,29.8z M14.3,32.5
				L14.3,32.5c0-0.1,0-0.3,0-0.4c-0.1,0-0.1,0-0.2,0c0,0.1,0,0.2,0,0.4C14.2,32.4,14.3,32.5,14.3,32.5L14.3,32.5z M20.2,31.2
				L20.2,31.2c0-0.4-0.5-1-0.5-1l-0.1,0C20,30.6,20.2,31.2,20.2,31.2L20.2,31.2z M19.9,38.6L19.9,38.6c0,0-1-0.3-1.6-1
				C18.3,37.5,19.1,38.7,19.9,38.6L19.9,38.6z M20.9,36.4L20.9,36.4C20.9,36.4,20.9,36.4,20.9,36.4C20.9,36.3,20.9,36.3,20.9,36.4
				c0.1,0,0.1,0,0.1,0c0.1,0,0.2,0,0.3,0v0l0,0c-0.2-0.1-0.4-0.2-0.6-0.2c0,0,0,0,0,0c0,0,0,0.1,0,0.1l0,0
				C20.8,36.4,20.8,36.4,20.9,36.4L20.9,36.4z M18.9,35.4L18.9,35.4L18.9,35.4C18.9,35.4,18.9,35.4,18.9,35.4L18.9,35.4z M20.4,35
				L20.4,35c-0.2-0.1-1,0.2-1,0.2S20.1,35,20.4,35c0,0.2-0.1,0.5-0.1,0.5S20.5,35.1,20.4,35L20.4,35z M22.9,34L22.9,34
				c-0.6,0.4-1.8,2-1.8,2l0.2,0C21.6,35.5,22.7,34.3,22.9,34C23,34,22.9,34,22.9,34L22.9,34z M23.1,34.5L23.1,34.5
				c0.1-0.1,0-0.1,0-0.1c-0.6,0.4-1.5,1.7-1.5,1.7l0.2,0.1C21.8,36.2,22.5,34.9,23.1,34.5L23.1,34.5z M23,35.4L23,35.4l-1,0.9
				l0.1,0.1L23,35.4L23,35.4z M22.1,37L22.1,37c0,0,0.1,0.1,0,0.1l1.5,0.9L22.1,37L22.1,37z M23.6,38.7L23.6,38.7
				c0.1,0-1.7-1.4-1.7-1.4s0,0.1-0.2,0.1C21.8,37.3,23.5,38.7,23.6,38.7L23.6,38.7z M23.3,38.8L23.3,38.8c0,0-1.6-1.4-1.7-1.4
				s-0.1,0.1-0.2,0.1C21.5,37.5,23.1,38.7,23.3,38.8z"/>
		</g>
	</g>
</g>
</svg>
