<?xml version="1.0" encoding="utf-8"?>
<!-- Generator: Adobe Illustrator 22.0.0, SVG Export Plug-In . SVG Version: 6.00 Build 0)  -->
<svg version="1.1" xmlns="http://www.w3.org/2000/svg" xmlns:xlink="http://www.w3.org/1999/xlink" x="0px" y="0px"
	 viewBox="0 0 50 50" style="enable-background:new 0 0 50 50;" xml:space="preserve">
<style type="text/css">
	.attelier_main{fill-rule:evenodd;clip-rule:evenodd;fill:#BE9552;}
	.attelier_text{fill:#231F20;}
</style>
<g id="attelier">
	<g>
		<path class="attelier_main" d="M16.23237,17.66157v-0.07174c0.20034-0.08288,0.78412-0.37048,0.94576-0.49607
			c0.56371-0.43795-0.07428-0.57576-0.48384-0.57576c0.16894-0.25802,1.31235-0.62922,0.87049-1.08515
			c-0.24617-0.09576-2.40698,0.86405-2.93377,1.02361c0.92111-0.54542,1.84386-1.05765,2.75425-1.61728
			c0.24031-0.14774,1.14786-0.60052,1.04433-0.91772c-0.34805-0.10195-0.29778,0.161-0.55768,0.10106
			c-1.34858-0.38675-1.97307-0.32702-2.03979-1.65838l-1.43632-0.03075h-0.03904l-0.00027,0.03339
			c-0.23733,0.32531,0.16706,0.96193-0.88881,1.23502c-0.46124,0.11932-1.28002,0.15308-1.53115,0.63929
			c-0.09945,0.1898-0.10826,0.486,0.02044,0.64614c0.24679,0.38022,0.48823,0.80892,0.78837,1.14567
			c0.0639,0.07168,0.18627,0.25491,0.26408,0.24952c0.15055-0.59624-1.92311-1.8045,0.0536-2.19263
			c1.72797-0.33925,1.28347-0.84796,1.6604-1.38718h0.76987c0.68556,1.78084,1.00128,0.79398,2.27883,1.44615l0.02688,0.04388
			c-0.73042,0.43493-1.27964,0.75443-1.83989,1.04991c-0.30905,0.16298-3.01487,1.3581-3.02182,1.36776
			c0.2722,0,0.37144-0.04284,0.60306-0.13586c0.15795-0.06342,0.41251-0.1888,0.56717-0.2026
			c-0.16802,0.23548-0.69843,0.22521-0.76991,0.52309c0.01202,0.63176,1.43663-0.06134,1.84773-0.06151
			c-0.20319,0.14151-1.59382,0.47661-1.08474,0.92922c0.17106,0.15213,0.45699,0.07206,0.6536,0.05538
			c-0.10233,0.15452-0.29305,0.20774-0.4397,0.32997c-0.27826,0.23192-0.08983,0.3085-0.08384,0.59309
			c-0.16329,0.00346-0.43103,0.11-0.50035,0.27223c-0.10658,0.24946,0.08017,0.35829,0.1924,0.52778
			c-0.24825,0.05932-0.69569,0.1724-0.91183,0.28891c-0.41056,0.22137-0.15709,0.49128,0.01877,0.75727l-1.08293,0.30767
			c-0.2723,0.08021-0.3721,0.50007-0.01021,0.61539c0.54381,0.26709,2.83922-0.58395,3.52594-0.58463
			c-0.28558,0.12747-1.79314,0.73203-1.94009,0.86155c1.05049-0.16945,2.16975-0.67805,3.16511-1.06316l0.03637,0.9085
			c-0.35281,0.24805-0.11343-0.05702-0.5223,0.40083c-0.52333-1.04272-0.71354-0.2497-0.66621,0.44093
			c0.14455,2.10951,0.66357,5.61336,0.85638,7.09253c-0.61641,0.15415-0.83844-8.51597-1.32957-7.14876
			c-0.25394,1.56441-0.45323,3.06285-0.6607,4.63715c-0.22596-0.02736,0.37237-3.78163,0.07558-4.23715
			c-0.0589-0.16411-0.1899-0.18987-0.27716-0.01548l-0.6472,2.20801c-0.09281-0.15051,0.34134-1.56523,0.39524-2.12136
			c0.03209-0.33096-0.02675-0.54203-0.14007-0.78001l-0.40864,0.23182c-0.49264-0.75546-0.6771,0.18398-0.93227,0.82237
			c-0.18877,0.47209-0.53432,1.27642-0.88463,1.66995l0.36952-0.95385c0.08093-0.09096,0.20281-0.49179,0.24637-0.63083
			c0.20387-0.38987,0.61381-1.85718-0.24637-1.06149c-0.33432,0.23808-1.23882,2.15335-1.81691,2.3077
			c0.31751-0.4849,1.12834-1.30892,0.98546-1.9077c-0.65799,0.0001-1.62465,1.42985-2.556,1.44615
			c0.16326-0.22884,0.76847-0.48843,0.86224-0.83076l-1.1481,0.74816c-0.17041,0.11103-0.43031,0.23528-0.06058,0.3775
			c0.60056,0.23106,2.03712-0.83149,2.10174-0.84875c-0.39833,0.58377-1.65851,1.41464-1.86729,1.76615
			c-0.26915,0.45323,0.2759,0.87467,0.89988,0.62111c0.36709-0.14918,0.83779-0.45926,1.1008-0.75648l0.05141,0.01548
			c-0.59056,0.57439-1.66985,1.78382-0.61052,2.40993c0.41114,0.24295,0.6283-0.00541,0.98005-0.17925
			c0.03404,0.38196,0.25915,1.00573,0.7083,1.04618c0.18623,0.12908,0.49305,0.03312,0.6159-0.15384l0.1847-0.12322
			c0.37703,0.58049,0.73881,0.27997,0.89662-0.24254c0.22093-0.73152,0.98409-3.98132,0.94094-4.31119
			c0.35918,0.42364-0.93583,5.9346,0.06723,5.50658c0.5671-0.24199,0.61227-5.78118,0.90275-5.96813
			c-0.09038,0.93933-0.20028,8.09206,1.50934,7.73552c0.15291-0.03189,0.2949-0.13709,0.3899-0.35579
			c0.21161-0.48723-0.08781-1.32721-0.08743-1.84126c1.06878,0,1.10861-0.43042,1.10861-1.4154
			c0.47182-0.22137,0.97261-0.08459,0.64669-1.44615c0.4085,0.4661,1.26865,1.87246,1.90307,0.76302
			c0.2922-0.51086-0.00887-0.90693,0.06781-1.0707c0.44299-0.20058,1.34293-0.47946,0.61196-1.34666
			c-0.61984-0.73532-1.33971-1.31673-1.96694-2.06873c0.61689,0.51408,1.44015,1.61769,2.28506,1.72047
			c0.47973,0.05839,0.6671-0.41648,0.36504-0.79912c-0.18627-0.23593-0.66463-0.49936-0.80237-0.70597
			c0.22052,0.01962,0.62576,0.2449,0.78874-0.07627c0.10332-0.2036-0.19435-0.49275-0.35761-0.60069
			c-0.10812-0.16329-0.58066-0.51545-0.53884-0.70768c0.1713,0.08942,0.73895,0.24607,0.93916,0.15384
			c-0.03092-0.11411-0.73542-0.28343-0.9007-0.33039c-0.09627-0.02732-0.18517-0.0401-0.24928-0.0186
			c-0.07497,0.22445,0.14161,0.62741,0.30829,0.77978l0.38662,0.48689c-0.52145-0.00548-0.92943-0.67107-1.4542-0.67151
			c-0.14408,0.59754,0.56881,1.07084,0.53884,1.20002l-0.60045-0.46665l-0.23614-0.24107
			c-0.22435-0.25784-1.05994-1.44834-1.36988-1.297c-0.32066,0.12178-0.15685,0.24298-0.27233,0.49702
			c-0.18946-0.6359-0.70844-0.79881-0.70844,0.18459c-0.35179-0.39836-0.18476-0.64844-0.18476-1.04614l-0.45411-0.15237
			c0.45059-0.66299,0.12164-0.47103-0.25418-0.80148c0.03938-0.16237,0.16414-0.22425,0.1111-0.41483
			c-0.04326-0.15548-0.18935-0.1772-0.26771-0.29552C16.68669,18.04007,16.71361,17.73955,16.23237,17.66157L16.23237,17.66157z
			 M14.93896,33.71806h0.30795l-0.12281-6.15386C14.97416,27.77866,14.93896,32.62972,14.93896,33.71806L14.93896,33.71806z"/>
		<path class="attelier_text" d="M4.69437,32.94099v-2.93531c-0.07209-0.13589-0.22216-0.21627-0.45377-0.24226
			c-0.11463-0.00709-0.1725-0.03425-0.1725-0.08271c0-0.02363,0.01891-0.04253,0.05908-0.05908h0.09336
			c0.05079,0,0.16897,0.00236,0.35685,0.00709c0.18671,0.00473,0.31788,0.00709,0.39469,0.00709
			c0.02716-0.00237,0.05318-0.00473,0.07562-0.00593c0.02363-0.00117,0.04726-0.00117,0.07329-0.00117h0.03425
			c0.06028,0,0.10754,0.01062,0.14062,0.03072c0.03308,0.02127,0.06147,0.06264,0.0851,0.12524l1.27029,2.99323l1.30461-3.04165
			c0.02955-0.065,0.08154-0.10045,0.15599-0.10754h0.06853c0.08391,0,0.15243,0,0.20678,0.00117
			c0.05439,0.0012,0.11346,0.00356,0.17846,0.00593H8.6424c0.01065,0,0.02956-0.00237,0.05675-0.00593
			c0.02599-0.00353,0.05551-0.00589,0.08627-0.00825c0.03072-0.00236,0.05788-0.00472,0.07914-0.00592
			c0.02247-0.00116,0.05555-0.00116,0.09928-0.00116c0.1548,0,0.23161,0.02599,0.23161,0.07915
			c0,0.01894-0.02247,0.03428-0.06856,0.04729c-0.04606,0.01298-0.09688,0.02479-0.15243,0.03661
			c-0.05552,0.01065-0.10634,0.02483-0.15123,0.04137c-0.04494,0.01538-0.08391,0.04017-0.11582,0.07209
			c-0.09452,0.09925-0.14178,0.26706-0.14178,0.5022v2.64466c0,0.14534,0.01298,0.25524,0.03781,0.3285
			c0.02599,0.07445,0.05671,0.12052,0.09336,0.14062c0.03781,0.0201,0.09925,0.03664,0.18788,0.04962
			c0.08743,0.01418,0.1548,0.03308,0.20326,0.05555c0.02127,0.01181,0.03189,0.02955,0.03189,0.05199
			c0,0.04137-0.0248,0.06263-0.07326,0.06263h-0.0898c-0.04846,0-0.1099-0.00119-0.18555-0.00472
			c-0.07442-0.00357-0.14651-0.00709-0.21623-0.00946c-0.06973-0.00237-0.12288-0.00356-0.15952-0.00472
			c-0.03664-0.0012-0.08154-0.00237-0.13473-0.00237c-0.04606,0-0.08743,0.00116-0.12288,0.00237
			c-0.03545,0.00116-0.09219,0.00236-0.16781,0.00472c-0.07682,0.00237-0.15716,0.00589-0.24107,0.00946
			c-0.0839,0.00353-0.15479,0.00472-0.21271,0.00472H7.39454c-0.03664,0-0.05555-0.01418-0.05555-0.04137
			c0-0.01891,0.00945-0.03662,0.026-0.05436c0.01774-0.01654,0.03664-0.02599,0.05791-0.02599
			c0.14771-0.02246,0.25644-0.04963,0.32617-0.08271c0.07089-0.03191,0.12051-0.0839,0.14887-0.15363
			c0.02956-0.07089,0.04374-0.18079,0.04374-0.33086v-2.82189l-1.44639,3.38909c-0.02836,0.06736-0.05908,0.10044-0.09336,0.10044
			c-0.02363,0-0.0461-0.02363-0.06973-0.07209l-1.45348-3.45173v2.76634c0,0.00709,0,0.01302-0.0012,0.01891
			C4.87636,32.97291,4.87399,32.98,4.87163,32.98945c0,0.23042,0.04962,0.39114,0.1489,0.48093
			c0.07678,0.06027,0.15832,0.09808,0.24815,0.1111c0.08864,0.01418,0.14298,0.02719,0.16425,0.03781
			c0.01418,0.00709,0.02007,0.02483,0.02007,0.05199c0,0.01891-0.00709,0.03545-0.02007,0.04846
			C5.40458,33.73392,5.3502,33.741,5.26985,33.741c-0.05082,0-0.12288-0.00473-0.21507-0.01418
			c-0.09216-0.00945-0.14415-0.01418-0.15596-0.01418c-0.05082,0-0.13593,0.00473-0.25644,0.01418
			C4.52303,33.73627,4.43323,33.741,4.37649,33.741c-0.08391,0-0.1548-0.00709-0.21507-0.02127
			c-0.03189-0.00592-0.04843-0.02247-0.04843-0.04846c0-0.03897,0.01654-0.05788,0.04843-0.05788
			c0.02956-0.00949,0.07801-0.0213,0.14538-0.03548c0.06733-0.01298,0.12171-0.02952,0.16661-0.04842
			c0.0437-0.01774,0.08391-0.04966,0.12051-0.09336c0.04137-0.05791,0.06737-0.11699,0.07565-0.17962
			C4.67902,33.19387,4.68728,33.0887,4.69437,32.94099L4.69437,32.94099z"/>
		<path class="attelier_text" d="M12.0906,33.03791c0,0.00709,0,0.01298-0.0012,0.0189c-0.00117,0.00589-0.00353,0.01181-0.00589,0.01891
			c0,0.11343,0.00946,0.20325,0.02952,0.26822c0.0201,0.0662,0.04966,0.11346,0.09219,0.14182
			c0.04134,0.02956,0.10397,0.05318,0.18788,0.07089c0.08507,0.01891,0.16661,0.03781,0.24463,0.05555
			c0.02716,0,0.04134,0.0201,0.04134,0.05907c0,0.03665-0.01654,0.05555-0.04843,0.05555H12.503
			c-0.05319,0-0.12055-0.00119-0.20089-0.00472c-0.08154-0.00357-0.15716-0.00709-0.22925-0.00946
			c-0.07089-0.00237-0.12524-0.00356-0.16308-0.00472c-0.03661-0.0012-0.08034-0.00237-0.13117-0.00237
			c-0.05787,0-0.10633,0.00116-0.14534,0.00237c-0.03897,0.00116-0.09572,0.00236-0.16778,0.00472
			c-0.07329,0.00237-0.15011,0.00589-0.23045,0.00946c-0.08154,0.00353-0.14771,0.00472-0.20089,0.00472h-0.09336
			c-0.05552,0-0.08387-0.0189-0.08387-0.05555c0-0.01181,0.00825-0.02479,0.02479-0.04133
			c0.01538-0.01654,0.03545-0.02483,0.05908-0.02483c0.14298-0.01774,0.24935-0.04253,0.32024-0.07325
			c0.06973-0.03192,0.12055-0.08155,0.15127-0.15127c0.03192-0.06973,0.04726-0.17017,0.04726-0.30487v-0.95837l-1.05526-1.91434
			c-0.05082-0.10634-0.10281-0.19617-0.156-0.27178c-0.05315-0.07446-0.12288-0.12172-0.20795-0.13945
			c-0.02719-0.00236-0.05791-0.00473-0.09219-0.00709c-0.03308-0.00236-0.0638-0.00709-0.09099-0.01418
			c-0.02836-0.00709-0.04606-0.02127-0.05552-0.04134c-0.00236-0.00709-0.00473-0.01301-0.00709-0.01774
			s-0.00473-0.00829-0.00712-0.01065c0-0.0248,0.01537-0.0437,0.04493-0.05435c0.03072-0.01182,0.0626-0.01771,0.09689-0.01771
			c0.02836,0,0.06853,0.00117,0.12171,0.00473c0.05319,0.00353,0.10517,0.00709,0.15716,0.01062
			c0.05198,0.00356,0.09336,0.00592,0.12291,0.00592h0.17607c0.07681-0.00236,0.14534-0.00472,0.20678-0.00592
			c0.06147-0.00117,0.14182-0.00117,0.24343-0.00117c0.00709,0,0.02483-0.00236,0.05202-0.00593
			c0.02835-0.00353,0.05908-0.00589,0.09336-0.00826c0.03545-0.00236,0.06497-0.00472,0.0886-0.00592
			c0.02483-0.00117,0.05911-0.00117,0.10517-0.00117c0.14182,0,0.21154,0.01771,0.21154,0.05199v0.01418
			c0,0.04137-0.04726,0.06144-0.14182,0.06144c-0.21744,0.01181-0.32497,0.09455-0.32497,0.24935
			c0,0.04133,0.0189,0.1099,0.05791,0.20562c0.04017,0.09572,0.06263,0.15243,0.06973,0.16898l0.82481,1.58112
			c0.09692-0.15956,0.22925-0.37699,0.39706-0.6535c0.16897-0.27768,0.31788-0.53648,0.44905-0.77874
			c0.11815-0.20795,0.17726-0.37339,0.17726-0.49511c0-0.08035-0.01891-0.13946-0.05555-0.17607
			c-0.02719-0.02839-0.09099-0.05082-0.19144-0.06973c-0.10045-0.0189-0.156-0.04017-0.16661-0.06617
			c0-0.0012-0.00237-0.00472-0.00709-0.00949c-0.00472-0.00473-0.00709-0.00825-0.00709-0.01062
			c0-0.03428,0.04963-0.05199,0.14887-0.05199h0.14182c0.14654,0.00945,0.2647,0.01418,0.35216,0.01418
			c0.03661-0.00236,0.06969-0.00472,0.10041-0.00592c0.02956-0.00117,0.06856-0.00117,0.11699-0.00117
			c0.01894,0,0.04846-0.00236,0.08983-0.00592c0.04137-0.00353,0.08391-0.00709,0.12644-0.01062
			c0.04253-0.00356,0.07209-0.00473,0.08743-0.00473h0.03901c0.04137,0.00709,0.06144,0.0248,0.06144,0.05199
			c0,0.01654-0.01298,0.03192-0.03897,0.04846c-0.02719,0.01654-0.04966,0.02479-0.06736,0.02716
			c-0.08863,0.01418-0.16781,0.04726-0.24107,0.10045c-0.07209,0.05319-0.13473,0.11582-0.18791,0.18908
			c-0.05315,0.07209-0.10281,0.15244-0.14771,0.2387c-0.0449,0.08627-0.0898,0.17254-0.13589,0.25761
			c-0.17134,0.30959-0.48565,0.82008-0.94415,1.53386V33.03791L12.0906,33.03791z"/>
		<path class="attelier_text" d="M21.05963,33.64058c-0.01532-0.03308-0.06024-0.05438-0.13348-0.065
			c-0.07208-0.00946-0.13354-0.02246-0.18439-0.03784c-0.05078-0.01416-0.11224-0.06024-0.18195-0.1347
			c-0.07092-0.07562-0.13831-0.19495-0.20331-0.35803l-1.34589-3.39856c-0.0343-0.0827-0.078-0.12408-0.12885-0.12408
			c-0.03424,0-0.06616,0.03662-0.09686,0.11108l-1.36017,3.24848c-0.0744,0.19147-0.15955,0.35095-0.25641,0.47742
			c-0.09692,0.12762-0.22455,0.19971-0.38403,0.21857c-0.02722,0-0.05914,0.0083-0.0957,0.02368
			c-0.03546,0.01654-0.05322,0.03784-0.05322,0.06262c0,0.01178,0.01184,0.026,0.0343,0.04138
			c0.026,0.01416,0.08624,0.02124,0.18079,0.02124c0.04138,0,0.08862-0.00116,0.14178-0.0047
			c0.05316-0.0036,0.10162-0.00708,0.14539-0.00946c0.0437-0.00238,0.07562-0.00354,0.09448-0.00476
			c0.02014-0.00116,0.04376-0.00232,0.07092-0.00232c0.05554,0,0.14301,0.0047,0.26001,0.01416
			c0.11816,0.00946,0.20557,0.01416,0.26349,0.01416h0.07916c0.0213,0,0.039-0.00586,0.05438-0.0177
			c0.01416-0.01062,0.02246-0.02362,0.02246-0.03784c0-0.01892-0.01184-0.03546-0.03546-0.052
			c-0.039-0.0177-0.09338-0.0354-0.16193-0.05194c-0.0697-0.01654-0.12286-0.03668-0.15955-0.0603
			c-0.03656-0.02484-0.06732-0.06378-0.08978-0.11932c-0.01886-0.0603-0.02832-0.10284-0.02832-0.12885
			c0-0.09924,0.03186-0.21741,0.09332-0.35681l0.26001-0.6712h1.54797l0.28363,0.74445
			c0.06262,0.18201,0.09332,0.30249,0.09332,0.36041c0,0.14771-0.1217,0.23041-0.36395,0.24933
			c-0.02008,0-0.05078,0.0083-0.08978,0.02368c-0.039,0.01648-0.05908,0.0354-0.05908,0.05548v0.01416
			c0.02594,0.03668,0.09924,0.05554,0.22211,0.05554c0.03192,0,0.06738-0.00116,0.10406-0.0047
			c0.03656-0.00354,0.07086-0.00708,0.10156-0.00946c0.03192-0.00238,0.05322-0.00354,0.06384-0.0047
			c0.01178-0.00122,0.02362-0.00238,0.03546-0.00238c0.07324-0.0047,0.18903-0.00708,0.34619-0.00708
			c0.07568,0,0.19739,0.00238,0.36279,0.00708c0.16663,0.0047,0.29071,0.00708,0.37463,0.00708
			c0.1217,0,0.18317-0.01892,0.18317-0.05554C21.06677,33.65474,21.06439,33.64528,21.05963,33.64058z M17.93408,32.06062
			l0.73029-1.76422l0.6889,1.76422H17.93408z"/>
		<path class="attelier_text" d="M24.00799,33.03791c0,0.00945,0,0.0177-0.00117,0.02599c-0.0012,0.00826-0.00356,0.01654-0.00592,0.02599
			c0,0.11579,0.01182,0.20442,0.03664,0.26822c0.02363,0.06384,0.05788,0.10754,0.10045,0.13357
			c0.04254,0.02479,0.11935,0.04842,0.23041,0.07089c0.1099,0.02243,0.18908,0.03897,0.23518,0.04962
			c0.03188,0,0.04842,0.0201,0.04842,0.05907c0,0.02127-0.01182,0.03901-0.03425,0.05555
			c-0.01418,0.00473-0.06147,0.00709-0.14298,0.00709c-0.07802,0-0.19853-0.00473-0.36045-0.01418
			c-0.16188-0.00946-0.25051-0.01418-0.26349-0.01418h-0.16308c-0.07918,0-0.19024,0.00237-0.33323,0.00709
			c-0.14418,0.00473-0.27651,0.00946-0.39942,0.01418h-0.18788c-0.04137,0-0.06264-0.01418-0.06264-0.04137
			c0-0.01654,0.01065-0.03425,0.03192-0.05199c0.02007-0.0189,0.04134-0.02835,0.0626-0.02835
			c0.21154-0.02246,0.35925-0.06853,0.44079-0.13826c0.08154-0.06852,0.12288-0.20562,0.12288-0.40768v-3.09603
			c0-0.08038-0.02599-0.13117-0.07798-0.15363c-0.05199-0.02127-0.12644-0.03308-0.22569-0.03308h-0.04846
			c-0.0638-0.00236-0.12408-0.00356-0.18079-0.00473c-0.05675-0.0012-0.13356-0.00236-0.22925-0.00236
			c-0.15483,0-0.28716,0.00945-0.39942,0.02836c-0.1111,0.01771-0.20326,0.04963-0.27771,0.09336
			c-0.07325,0.04134-0.12644,0.09216-0.15832,0.15243c-0.03192,0.06028-0.05555,0.12644-0.06856,0.19853
			c-0.01418,0.07326-0.03308,0.15952-0.05552,0.25877c0,0.02247-0.01301,0.03428-0.03784,0.03428
			c-0.01181,0-0.02363-0.01181-0.03661-0.03664c-0.01302-0.02363-0.01891-0.04726-0.01891-0.06733v-0.68895
			c0-0.05319,0.01418-0.0898,0.0437-0.11106c0.02836-0.0201,0.07329-0.03072,0.13236-0.03072c0.05791,0,0.10634,0,0.14415,0.00116
			c0.03784,0.0012,0.08038,0.00356,0.12647,0.00592c0.18432,0.01182,0.41949,0.02007,0.70309,0.02599
			c0.2836,0.00589,0.61566,0.00945,0.99381,0.00945c0.75035,0,1.31522-0.01182,1.69334-0.03545
			c0.0461-0.00236,0.08747-0.00473,0.12527-0.00592c0.03665-0.00116,0.08507-0.00116,0.14535-0.00116
			c0.11226,0,0.16898,0.04726,0.16898,0.14178v0.68895c0,0.02716-0.00589,0.05199-0.01891,0.07205
			c-0.01298,0.02127-0.02479,0.03192-0.03664,0.03192c-0.02952,0-0.0449-0.02127-0.0449-0.06264
			c-0.01771-0.15007-0.0449-0.27178-0.07918-0.36514c-0.03545-0.09336-0.09805-0.16545-0.19141-0.21624
			c-0.14298-0.08038-0.40535-0.12171-0.78703-0.12171c-0.10161,0-0.17959,0.00117-0.23398,0.00236
			c-0.05435,0.00117-0.11342,0.00236-0.17843,0.00473c-0.08034,0-0.14182,0.01298-0.18315,0.03781
			c-0.04137,0.02599-0.06264,0.07562-0.06264,0.14891V33.03791L24.00799,33.03791z"/>
		<path class="attelier_text" d="M27.82013,32.6775c0,0.01654,0,0.03072-0.00117,0.04253c-0.0012,0.01062-0.00356,0.0248-0.00592,0.04134
			c0,0.23281,0.02955,0.41124,0.08627,0.53652c0.05791,0.12407,0.19144,0.20442,0.40179,0.2387
			c0.18079,0.02716,0.34151,0.04134,0.48566,0.04134c0.1938,0,0.36991-0.02363,0.52822-0.06969
			c0.15836-0.04609,0.28244-0.12407,0.37223-0.23517c0.06028-0.06853,0.10874-0.16898,0.14654-0.29898
			c0.03901-0.12997,0.07209-0.19617,0.09925-0.19617h0.02127c0.02955,0.00476,0.04493,0.09219,0.04493,0.26001
			c0,0.07442-0.0012,0.12997-0.00236,0.17014c-0.0012,0.03901-0.00237,0.08747-0.00473,0.14654s-0.00592,0.11106-0.00945,0.15716
			c-0.00237,0.04726-0.00473,0.07798-0.00473,0.09452c0,0.05082-0.01065,0.08274-0.03312,0.09808
			c-0.02127,0.01538-0.06024,0.02483-0.11579,0.02956c-0.10873,0-0.18908-0.00236-0.24226-0.00709
			c-0.4384-0.01418-0.88272-0.02127-1.33293-0.02127h-0.60977c-0.27059,0-0.47032,0.00237-0.60265,0.00709
			c-0.02483,0-0.07209,0.00473-0.14182,0.01418c-0.06973,0.00945-0.12172,0.01418-0.156,0.01418
			c-0.03425,0-0.06969-0.00473-0.10753-0.01418c-0.02243-0.01181-0.03424-0.02956-0.03424-0.05555
			c0-0.02715,0.01182-0.04726,0.03424-0.05907c0.04021-0.01538,0.09692-0.02836,0.17137-0.03781
			c0.07562-0.00945,0.12881-0.02011,0.16189-0.03072c0.09452-0.03781,0.1548-0.09572,0.18079-0.17727
			c0.02719-0.08034,0.04017-0.19024,0.04017-0.3285v-2.74154c0-0.13353-0.01534-0.24463-0.04726-0.33322
			c-0.03072-0.08863-0.09808-0.14654-0.20206-0.17137c-0.02955-0.00945-0.08154-0.01654-0.15599-0.02127
			c-0.07326-0.00473-0.12527-0.01298-0.15599-0.02716c-0.02243-0.01654-0.03425-0.02955-0.03425-0.04137
			c0-0.00945,0.00589-0.02127,0.01891-0.03664c0.01298-0.01534,0.02479-0.02243,0.03661-0.02243
			c0.0213-0.00236,0.04021-0.00356,0.05911-0.00473c0.01771-0.0012,0.0437-0.00236,0.07562-0.00236
			c0.05319,0,0.09452,0.00116,0.12291,0.00236c0.02952,0.00116,0.06616,0.00236,0.11106,0.00473
			c0.0449,0.00236,0.08863,0.00589,0.13116,0.00945c0.04254,0.00353,0.07682,0.00472,0.10281,0.00472
			c0.08507,0,0.15479,0,0.20914,0.00117c0.05439,0.0012,0.11226,0.00356,0.1749,0.00593c0.14062,0,0.31788-0.00236,0.53295-0.00709
			c0.21387-0.00472,0.46675-0.00945,0.75747-0.01418c0.06024-0.00236,0.11579-0.00356,0.16541-0.00473
			c0.04962-0.0012,0.11699-0.00236,0.20209-0.00236c0.09925,0,0.19733,0.00709,0.29185,0.02127
			c0.05555,0.01891,0.08627,0.05435,0.09336,0.10754v0.04133c0,0.0201-0.00117,0.05082-0.00473,0.091
			c-0.00352,0.04137-0.00825,0.08154-0.01298,0.12291c-0.00356,0.04254-0.00593,0.07325-0.00593,0.09336
			c0,0.02127,0.00473,0.06616,0.01538,0.13353c0.01061,0.06853,0.01534,0.12524,0.01534,0.17134
			c0,0.03664-0.00236,0.06027-0.00709,0.06973c-0.01654,0.03189-0.04017,0.04846-0.07209,0.04846
			c0,0-0.00353-0.0024-0.01062-0.00712c-0.00709-0.00472-0.01301-0.00709-0.01774-0.00709
			c-0.01654-0.00945-0.03308-0.05671-0.05198-0.14062c-0.01891-0.0839-0.03544-0.14887-0.04963-0.19377
			c-0.01538-0.04493-0.04017-0.08863-0.07445-0.13356c-0.1548-0.17959-0.45258-0.26942-0.89453-0.26942
			c-0.12644,0-0.27535,0.00473-0.44669,0.01418c-0.09689,0-0.16309,0.0201-0.19733,0.06147
			c-0.03428,0.04254-0.05202,0.10634-0.05202,0.19377c0.00236,0.00949,0.00472,0.01894,0.00592,0.02839
			c0,0.00945,0.00117,0.02127,0.00117,0.03781v1.40149c0.0461-0.00472,0.11346-0.00945,0.20209-0.01654
			c0.0898-0.00709,0.16425-0.01538,0.22689-0.02483c0.0626-0.00945,0.12407-0.02483,0.18315-0.04846
			c0.06027-0.02243,0.11579-0.05671,0.16661-0.10044c0.07209-0.0638,0.11935-0.12288,0.14182-0.17487
			c0.02363-0.05202,0.04133-0.11935,0.05555-0.20209c0.01418-0.08271,0.03072-0.14887,0.05198-0.19733
			c0.00709-0.01891,0.02243-0.02719,0.04843-0.02719c0.01658,0,0.03192,0.00592,0.04846,0.0201
			c0.01654,0.01418,0.02363,0.03072,0.02363,0.04846v0.09336c0,0.0626-0.00353,0.16541-0.01298,0.30839
			c-0.00945,0.14298-0.01418,0.24579-0.01418,0.30843v0.04137c0,0.0177,0.00473,0.11226,0.01418,0.2836
			c0.00945,0.17017,0.01298,0.29661,0.01298,0.37696c0,0.065-0.00117,0.10517-0.00589,0.12171
			c-0.00945,0.02719-0.02956,0.04137-0.05911,0.04137c-0.02363,0-0.03897-0.01774-0.04842-0.05199
			c-0.02363-0.07682-0.04254-0.14302-0.05908-0.20089c-0.01658-0.05791-0.03665-0.11226-0.06028-0.16308
			c-0.02483-0.05082-0.06027-0.09689-0.10637-0.13826c-0.12644-0.10401-0.34031-0.156-0.63929-0.156h-0.17017V32.6775
			L27.82013,32.6775z"/>
		<path class="attelier_text" d="M31.92652,32.83346c0,0.01418,0,0.02719-0.0012,0.03901c-0.00116,0.01062-0.00353,0.02363-0.00589,0.03781
			c0,0.3025,0.09452,0.49158,0.2836,0.5672c0.16661,0.06736,0.38404,0.10044,0.6511,0.10044
			c0.21508,0,0.41597-0.02127,0.60269-0.0626c0.25167-0.06384,0.43367-0.19264,0.54713-0.38408
			c0.02716-0.05079,0.05079-0.12408,0.07089-0.22096c0.02007-0.09689,0.04137-0.16545,0.0638-0.20442
			c0.01654-0.02363,0.03545-0.03545,0.05555-0.03545c0.01418,0,0.02716,0.01062,0.04018,0.02953
			c0.01301,0.0201,0.0189,0.04373,0.0189,0.07089v0.00709l-0.0177,0.82128c0,0.09929-0.03428,0.14891-0.10401,0.14891h-0.12051
			c-0.06736,0-0.17137-0.00472-0.31199-0.01418c-0.14062-0.00945-0.24459-0.01418-0.31195-0.01418
			c-0.58614-0.00946-1.0257-0.01418-1.31879-0.01418h-0.71018c-0.03308,0-0.07918,0.00237-0.13826,0.00589
			c-0.06027,0.00356-0.12055,0.00708-0.17842,0.01065c-0.05911,0.00353-0.10518,0.00472-0.13709,0.00472h-0.12764
			c-0.01418,0-0.03188-0.00472-0.05435-0.01537c-0.02243-0.01062-0.03309-0.02363-0.03309-0.04018
			c0-0.02007,0.01066-0.03781,0.03192-0.05199c0.01534-0.01181,0.05908-0.02246,0.1288-0.03308
			c0.07089-0.00945,0.13589-0.0201,0.19616-0.02956c0.10162-0.03425,0.16778-0.09572,0.19733-0.18315
			c0.02956-0.08743,0.0449-0.1997,0.0449-0.33559v-2.76874c0-0.19141-0.03308-0.31905-0.09809-0.38404
			c-0.06616-0.065-0.19969-0.10754-0.40059-0.12761c-0.02482-0.00473-0.04962-0.01538-0.07208-0.02956
			c-0.02363-0.01534-0.03545-0.02835-0.03545-0.04017c0-0.02247,0.02247-0.03781,0.06617-0.0449h0.12763
			c0.07918,0,0.14179,0,0.18788,0.00117c0.04609,0.0012,0.10517,0.00356,0.17843,0.00592
			c0.07209,0.00236,0.14654,0.00473,0.22099,0.00825c0.07562,0.00356,0.1347,0.00593,0.17843,0.00593
			c0.00945-0.00236,0.01773-0.00473,0.02482-0.00593c0.00709-0.00117,0.01534-0.00117,0.02363-0.00117
			c0.02836,0,0.09336-0.00236,0.19617-0.00592c0.10281-0.00353,0.16189-0.00589,0.17723-0.00709
			c0.01418-0.00117,0.07681-0.00117,0.18791-0.00117c0.15952,0,0.24223,0.00709,0.24932,0.02127
			c0.00473,0.00589,0.00709,0.0189,0.00709,0.03781c0,0.01538-0.01534,0.02956-0.04842,0.03901
			c-0.03192,0.01061-0.05438,0.01654-0.065,0.01654c-0.18082,0.01298-0.3049,0.05788-0.37223,0.13233
			c-0.06857,0.07565-0.10281,0.20209-0.10281,0.37932c0.00473,0,0.00709,0.00945,0.00709,0.02719V32.83346L31.92652,32.83346z"/>
		<path class="attelier_text" d="M36.31531,33.03791c0,0.00472,0,0.00945-0.00116,0.01418c-0.0012,0.00472-0.00356,0.01062-0.00592,0.0177
			c0,0.12171,0.01181,0.21627,0.03428,0.28124c0.02363,0.0662,0.05671,0.11226,0.10044,0.13945
			c0.0449,0.02599,0.12172,0.04962,0.23278,0.07209c0.1099,0.02243,0.18907,0.03897,0.23517,0.05082
			c0.01654,0,0.02952,0.00473,0.04017,0.01654c0.00945,0.01181,0.01538,0.02599,0.01538,0.04133
			c0,0.03072-0.01421,0.04846-0.04137,0.05555c-0.02127,0-0.04374,0.0012-0.06616,0.00237
			c-0.02367,0.0012-0.05082,0.00237-0.08391,0.00473c-0.09219,0-0.24107-0.00473-0.44788-0.01418
			c-0.20562-0.00946-0.31668-0.01418-0.33206-0.01418c-0.01654,0-0.1288,0.00472-0.33675,0.01418
			c-0.20798,0.00945-0.35809,0.01418-0.44788,0.01418c-0.03072-0.00236-0.05671-0.00353-0.08035-0.00473
			c-0.02246-0.00116-0.04374-0.00237-0.06264-0.00237c-0.03664-0.01774-0.05435-0.03192-0.05435-0.04137
			c0-0.01891,0.01534-0.03781,0.04606-0.05671c0.03075-0.02007,0.06264-0.02956,0.09572-0.02956
			c0.19381-0.01417,0.32853-0.06024,0.40651-0.13705c0.07682-0.07682,0.11583-0.20798,0.11583-0.39234v-2.77343
			c0-0.14298-0.01302-0.24935-0.04021-0.31905c-0.02599-0.07093-0.07205-0.12055-0.13825-0.14891
			c-0.06617-0.02955-0.17134-0.05319-0.31668-0.07089c-0.01891,0-0.04017-0.00829-0.0638-0.02483
			c-0.02483-0.01654-0.03664-0.03072-0.03664-0.0449c0-0.02363,0.0201-0.03781,0.05907-0.0449
			c0.02127-0.00236,0.04017-0.00473,0.05791-0.00593c0.01654-0.00116,0.04253-0.00116,0.07798-0.00116
			c0.07802,0,0.14062,0,0.18671,0.00116c0.0461,0.0012,0.10637,0.00356,0.17843,0.00593
			c0.07328,0.00236,0.14774,0.00473,0.22216,0.00825c0.07565,0.00356,0.13473,0.00592,0.17962,0.00592h0.04138
			c-0.00946,0,0.05907-0.00236,0.20442-0.00709c0.14654-0.00472,0.26233-0.00709,0.35096-0.00709
			c0.15716,0,0.24227,0.00709,0.25644,0.02127c0.00473,0.00589,0.00709,0.0189,0.00709,0.03781
			c0,0.01538-0.01654,0.02956-0.04845,0.03901c-0.03192,0.01061-0.05671,0.01654-0.07209,0.01654
			c-0.12051,0.00825-0.21507,0.03189-0.28476,0.07089c-0.06857,0.03781-0.11699,0.09336-0.14302,0.16545
			c-0.02716,0.07325-0.04017,0.1737-0.04017,0.30367V33.03791L36.31531,33.03791z"/>
		<path class="attelier_text" d="M38.9812,32.6775c0,0.01654,0,0.03072-0.00117,0.04253c-0.0012,0.01062-0.00357,0.0248-0.00592,0.04134
			c0,0.23281,0.02956,0.41124,0.08627,0.53652c0.05791,0.12407,0.19144,0.20442,0.40178,0.2387
			c0.18079,0.02716,0.34151,0.04134,0.48566,0.04134c0.19381,0,0.36991-0.02363,0.52823-0.06969
			c0.15836-0.04609,0.28243-0.12407,0.37222-0.23517c0.06028-0.06853,0.10874-0.16898,0.14655-0.29898
			c0.03901-0.12997,0.07209-0.19617,0.09925-0.19617h0.02127c0.02955,0.00476,0.04493,0.09219,0.04493,0.26001
			c0,0.07442-0.00119,0.12997-0.00236,0.17014c-0.0012,0.03901-0.00236,0.08747-0.00473,0.14654s-0.00593,0.11106-0.00945,0.15716
			c-0.00236,0.04726-0.00472,0.07798-0.00472,0.09452c0,0.05082-0.01065,0.08274-0.03312,0.09808
			c-0.02127,0.01538-0.06024,0.02483-0.11579,0.02956c-0.10874,0-0.18908-0.00236-0.24227-0.00709
			c-0.43839-0.01418-0.88271-0.02127-1.33292-0.02127h-0.60977c-0.27059,0-0.47031,0.00237-0.60265,0.00709
			c-0.02483,0-0.07209,0.00473-0.14182,0.01418c-0.06973,0.00945-0.12172,0.01418-0.15599,0.01418
			c-0.03424,0-0.0697-0.00473-0.10754-0.01418c-0.02243-0.01181-0.03424-0.02956-0.03424-0.05555
			c0-0.02715,0.01181-0.04726,0.03424-0.05907c0.0402-0.01538,0.09692-0.02836,0.17137-0.03781
			c0.07562-0.00945,0.12881-0.02011,0.16189-0.03072c0.09452-0.03781,0.15479-0.09572,0.18079-0.17727
			c0.02719-0.08034,0.04017-0.19024,0.04017-0.3285v-2.74154c0-0.13353-0.01534-0.24463-0.04726-0.33322
			c-0.03072-0.08863-0.09809-0.14654-0.20206-0.17137c-0.02956-0.00945-0.08154-0.01654-0.15599-0.02127
			c-0.07325-0.00473-0.12528-0.01298-0.15599-0.02716c-0.02243-0.01654-0.03425-0.02955-0.03425-0.04137
			c0-0.00945,0.00589-0.02127,0.0189-0.03664c0.01299-0.01534,0.0248-0.02243,0.03661-0.02243
			c0.0213-0.00236,0.0402-0.00356,0.05911-0.00473c0.0177-0.0012,0.0437-0.00236,0.07561-0.00236
			c0.05318,0,0.09452,0.00116,0.12291,0.00236c0.02951,0.00116,0.06616,0.00236,0.11106,0.00473
			c0.04489,0.00236,0.08862,0.00589,0.13116,0.00945c0.04253,0.00353,0.07681,0.00472,0.10281,0.00472
			c0.08507,0,0.15479,0,0.20914,0.00117c0.05439,0.0012,0.11227,0.00356,0.1749,0.00593c0.14062,0,0.31788-0.00236,0.53295-0.00709
			c0.21387-0.00472,0.46675-0.00945,0.75748-0.01418c0.06024-0.00236,0.11579-0.00356,0.16541-0.00473
			c0.04963-0.0012,0.11699-0.00236,0.2021-0.00236c0.09925,0,0.19733,0.00709,0.29185,0.02127
			c0.05555,0.01891,0.08627,0.05435,0.09336,0.10754v0.04133c0,0.0201-0.00117,0.05082-0.00472,0.091
			c-0.00353,0.04137-0.00826,0.08154-0.01299,0.12291c-0.00356,0.04254-0.00592,0.07325-0.00592,0.09336
			c0,0.02127,0.00473,0.06616,0.01538,0.13353c0.01062,0.06853,0.01534,0.12524,0.01534,0.17134
			c0,0.03664-0.00236,0.06027-0.00708,0.06973c-0.01654,0.03189-0.04018,0.04846-0.07209,0.04846
			c0,0-0.00353-0.0024-0.01062-0.00712c-0.00709-0.00472-0.01301-0.00709-0.01774-0.00709
			c-0.01654-0.00945-0.03308-0.05671-0.05198-0.14062c-0.01891-0.0839-0.03545-0.14887-0.04963-0.19377
			c-0.01538-0.04493-0.04017-0.08863-0.07445-0.13356c-0.1548-0.17959-0.45258-0.26942-0.89454-0.26942
			c-0.12643,0-0.27534,0.00473-0.44668,0.01418c-0.09689,0-0.16309,0.0201-0.19733,0.06147
			c-0.03429,0.04254-0.05202,0.10634-0.05202,0.19377c0.00236,0.00949,0.00473,0.01894,0.00592,0.02839
			c0,0.00945,0.00117,0.02127,0.00117,0.03781v1.40149c0.0461-0.00472,0.11346-0.00945,0.20209-0.01654
			c0.08979-0.00709,0.16425-0.01538,0.22689-0.02483c0.0626-0.00945,0.12408-0.02483,0.18315-0.04846
			c0.06028-0.02243,0.1158-0.05671,0.16661-0.10044c0.07209-0.0638,0.11935-0.12288,0.14182-0.17487
			c0.02363-0.05202,0.04134-0.11935,0.05555-0.20209c0.01418-0.08271,0.03072-0.14887,0.05198-0.19733
			c0.00709-0.01891,0.02243-0.02719,0.04842-0.02719c0.01658,0,0.03193,0.00592,0.04846,0.0201
			c0.01654,0.01418,0.02364,0.03072,0.02364,0.04846v0.09336c0,0.0626-0.00353,0.16541-0.01299,0.30839
			c-0.00945,0.14298-0.01418,0.24579-0.01418,0.30843v0.04137c0,0.0177,0.00473,0.11226,0.01418,0.2836
			c0.00945,0.17017,0.01299,0.29661,0.01299,0.37696c0,0.065-0.00117,0.10517-0.00589,0.12171
			c-0.00945,0.02719-0.02955,0.04137-0.05911,0.04137c-0.02363,0-0.03898-0.01774-0.04843-0.05199
			c-0.02363-0.07682-0.04253-0.14302-0.05907-0.20089c-0.01658-0.05791-0.03664-0.11226-0.06028-0.16308
			c-0.02483-0.05082-0.06028-0.09689-0.10637-0.13826c-0.12644-0.10401-0.34031-0.156-0.63929-0.156H38.9812V32.6775
			L38.9812,32.6775z"/>
		<path class="attelier_text" d="M45.8764,33.64289c-0.03662-0.02002-0.06622-0.03186-0.08624-0.03662
			c-0.19147-0.0697-0.34747-0.17609-0.46796-0.31903l-1.32709-1.55036c0.22571-0.039,0.41718-0.09338,0.57196-0.16077
			c0.15601-0.06848,0.28357-0.17365,0.38287-0.31665c0.11932-0.16193,0.17957-0.36041,0.17957-0.59558
			c0-0.18555-0.04486-0.36157-0.1347-0.53058c-0.12048-0.21625-0.29773-0.35687-0.53058-0.42188
			c-0.23395-0.065-0.51642-0.09686-0.84961-0.09686c-0.17963,0-0.41595,0.00586-0.70667,0.0177
			c-0.29187,0.01178-0.4715,0.0177-0.5412,0.0177c-0.05084-0.00232-0.09808-0.0047-0.14062-0.00592
			c-0.04254-0.00116-0.09808-0.00116-0.16425-0.00116h-0.0733c-0.04846,0-0.0874,0.00592-0.1181,0.0177
			c-0.0296,0.01068-0.04498,0.02246-0.04498,0.0343c0,0.03662,0.08154,0.06262,0.24231,0.07562
			c0.14062,0.00946,0.23633,0.05432,0.28595,0.13586c0.04962,0.08038,0.07446,0.19617,0.07446,0.34509v2.81714
			c0,0.12762-0.01538,0.22693-0.04492,0.30017c-0.02954,0.07208-0.08038,0.12524-0.15009,0.15948
			c-0.07092,0.03308-0.17255,0.05908-0.30725,0.078c-0.02478,0-0.04608,0.00714-0.06262,0.02246
			c-0.01538,0.01416-0.02362,0.02838-0.02362,0.04254c0,0.03662,0.02716,0.05554,0.08038,0.05554h0.1004
			c0.05316,0,0.11816-0.00116,0.19617-0.0047c0.07678-0.0036,0.15247-0.00708,0.22693-0.00946
			c0.0744-0.00238,0.12994-0.00354,0.16895-0.00476c0.03784-0.00116,0.08508-0.00232,0.14062-0.00232
			c0.05084,0,0.09454,0.00116,0.13354,0.00232c0.03778,0.00122,0.09216,0.00238,0.16425,0.00476s0.14886,0.00586,0.23041,0.00946
			c0.08276,0.00354,0.15009,0.0047,0.20325,0.0047h0.12531c0.03424,0,0.05194-0.01892,0.05194-0.05554
			c0-0.039-0.01416-0.05908-0.04486-0.05908c-0.10162-0.02008-0.18793-0.039-0.26117-0.0567
			c-0.07324-0.01776-0.12885-0.04016-0.16779-0.06738c-0.04016-0.02832-0.06976-0.07446-0.091-0.13824
			c-0.02008-0.065-0.0307-0.15601-0.0307-0.27417c0.00232-0.00708,0.0047-0.013,0.00586-0.01886
			c0.00122-0.00592,0.00122-0.01184,0.00122-0.01892v-1.06946c0-0.08978,0.03778-0.13593,0.11462-0.13593
			c0.04602,0,0.10046,0.0166,0.16425,0.04846c0.06378,0.03308,0.10754,0.06616,0.13354,0.10046l1.31519,1.65204
			c0.05084,0.06262,0.13708,0.09332,0.25647,0.09332h0.38519c0.12292,0,0.21271,0.00238,0.27063,0.00708
			c0.0047,0,0.02124,0.00238,0.04846,0.00708c0.02838,0.00476,0.0484,0.00714,0.06262,0.00714
			c0.0437,0,0.07324-0.00714,0.08624-0.0213c0.01416-0.013,0.02124-0.02246,0.02124-0.02716
			C45.93188,33.68074,45.91302,33.66182,45.8764,33.64289z M43.39954,31.69074c-0.01416,0-0.04138,0.00238-0.08032,0.00714
			c-0.039,0.0047-0.06622,0.00708-0.08276,0.00708c-0.1087,0-0.16302-0.05908-0.16302-0.17609v-1.55865
			c0-0.15247,0.09216-0.22809,0.27765-0.22809h0.08984c0.33679,0.01422,0.58844,0.0993,0.75269,0.25763
			c0.16547,0.15833,0.24823,0.40649,0.24823,0.74329c0,0.23517-0.04022,0.41949-0.11938,0.55188
			c-0.08032,0.13232-0.19733,0.22925-0.35211,0.28949C43.81549,31.6435,43.62524,31.68012,43.39954,31.69074z"/>
	</g>
</g>
<g id="Layer_2">
</g>
</svg>
