<?xml version="1.0" encoding="utf-8"?>
<!DOCTYPE svg PUBLIC "-//W3C//DTD SVG 1.1//EN" "http://www.w3.org/Graphics/SVG/1.1/DTD/svg11.dtd">
<svg version="1.1" id="Layer_1" xmlns="http://www.w3.org/2000/svg" xmlns:xlink="http://www.w3.org/1999/xlink" x="0px" y="0px"
	 viewBox="0 0 50 50" enable-background="new 0 0 50 50" xml:space="preserve">
<g>
	<path fill="#00000B" d="M21.8,20.7h0.4h0.1v0.1v0.8v0.1v7.8c0,0.4,0.1,0.8,0.2,1.1c0.1,0.3,0.4,0.7,0.6,0.9s0.6,0.5,0.9,0.6
		c0.3,0.1,0.7,0.2,1.1,0.2c0.4,0,0.8-0.1,1.1-0.2c0.4-0.1,0.7-0.4,0.9-0.6s0.5-0.6,0.6-0.9c0.1-0.3,0.2-0.7,0.2-1.1v-7.8v-0.1v-0.8
		v-0.1H28h0.4h0.4H29v0.1v0.4v0.5v7.8c0,0.5-0.1,1-0.3,1.5s-0.5,0.9-0.8,1.2c-0.4,0.4-0.8,0.7-1.2,0.8s-0.9,0.3-1.5,0.3
		s-1-0.1-1.5-0.3s-0.9-0.5-1.2-0.8c-0.4-0.4-0.7-0.8-0.8-1.2s-0.3-0.9-0.3-1.5v-7.8l0,0v-1l0,0h0.1L21.8,20.7L21.8,20.7z M30,20.7
		h5.7v0.2c0,0.5-0.4,0.8-0.8,0.8H30V20.7L30,20.7z M20.2,20.7h-5.7v0.2c0,0.5,0.4,0.8,0.8,0.8h4.9C20.2,21.7,20.2,20.7,20.2,20.7z"
		/>
	<path fill="#00000B" d="M24,18.6h0.5h0.1v0.1v0.9v3.3v6.8c0,0.1,0,0.1,0,0.2c0,0.1,0.1,0.1,0.1,0.2c0,0,0.1,0.1,0.2,0.1
		c0.1,0,0.1,0,0.2,0l0,0c0.1,0,0.1,0,0.2,0s0.1-0.1,0.2-0.1c0.1-0.1,0.1-0.2,0.1-0.4v-6.8v-3.3v-0.9v-0.1h0.1h0.5h0.4h0.1h0.1h2.2v1
		h-2.2v10c0,0.2,0,0.4-0.1,0.6c-0.1,0.2-0.2,0.4-0.4,0.5c-0.2,0.2-0.3,0.3-0.5,0.4c-0.2,0.1-0.4,0.1-0.6,0.1l0,0
		c-0.2,0-0.4,0-0.6-0.1c-0.2-0.1-0.4-0.2-0.5-0.4c-0.2-0.2-0.3-0.3-0.4-0.5c-0.1-0.2-0.1-0.4-0.1-0.6v-10h-2.2v-1h2.2h0.1h0.1H24z"
		/>
	<path fill="#00000B" d="M23.5,18.6H12.1v0.2c0,0.5,0.4,0.8,0.8,0.8h10.5C23.5,19.6,23.5,18.6,23.5,18.6z"/>
	<path fill="#00000B" d="M20.2,22.8h-3V23c0,0.5,0.4,0.8,0.8,0.8h2.2V22.8z"/>
	<path fill="#00000B" d="M30,22.8h3V23c0,0.5-0.4,0.8-0.8,0.8H30C30,23.8,30,22.8,30,22.8z"/>
	<path fill="#00000B" d="M38.1,18.6H26.7v1h10.5c0.5,0,0.8-0.4,0.8-0.8C38.1,18.8,38.1,18.6,38.1,18.6z"/>
</g>
</svg>
