<?xml version="1.0" encoding="utf-8"?>

<svg version="1.1" id="massive_builder_logo" xmlns="http://www.w3.org/2000/svg" xmlns:xlink="http://www.w3.org/1999/xlink"
	 x="0px" y="0px" viewBox="0 0 50 50" style="enable-background:new 0 0 50 50;" xml:space="preserve">
<style type="text/css">
	.massive_builder0{fill:#1D548A;}
	.massive_builder1{fill:#1D548B;}
	.massive_builder2{fill-rule:evenodd;clip-rule:evenodd;fill:url(#svg_massive_builder1);}
	.massive_builder3{fill-rule:evenodd;clip-rule:evenodd;fill:url(#svg_massive_builder2);}
	.massive_builder4{fill-rule:evenodd;clip-rule:evenodd;fill:#68A127;}
	.massive_builder5{fill-rule:evenodd;clip-rule:evenodd;fill:url(#svg_massive_builder3);}
	.massive_builder6{fill-rule:evenodd;clip-rule:evenodd;fill:url(#svg_massive_builder4);}
	.massive_builder7{fill-rule:evenodd;clip-rule:evenodd;fill:#113B65;}
</style>
<g>
	<path class="massive_builder0" d="M6.71199,42.74147H6.5087v-1.34976H5.94605v1.34976H5.74169v-1.50945h0.9703V42.74147z"/>
	<path class="massive_builder0" d="M7.20119,42.14428v0.59719H6.99682v-1.50945h0.48116c0.13687,0,0.24423,0.0419,0.32209,0.12571
		c0.07781,0.08381,0.11671,0.19389,0.11671,0.33047c0,0.13715-0.0389,0.24757-0.11671,0.33093
		c-0.07786,0.08347-0.18523,0.12514-0.32209,0.12514H7.20119z M7.20119,41.98471h0.27679c0.07713,0,0.13551-0.02797,0.17509-0.08381
		c0.03964-0.05583,0.0594-0.12605,0.0594-0.21065c0-0.08596-0.01959-0.1572-0.05889-0.21371
		c-0.03924-0.05663-0.09779-0.08483-0.1756-0.08483H7.20119V41.98471z"/>
	<path class="massive_builder0" d="M9.06931,42.19514c0,0.17905-0.04496,0.31847-0.13489,0.41836
		c-0.08992,0.09978-0.21037,0.14972-0.36134,0.14972c-0.14899,0-0.26745-0.04995-0.35533-0.14972
		c-0.08794-0.09989-0.13183-0.2393-0.13183-0.41836V41.7804c0-0.17826,0.04411-0.3179,0.13234-0.41881
		c0.08823-0.10091,0.20652-0.15131,0.35483-0.15131c0.15029,0,0.27056,0.0504,0.36083,0.15131
		c0.09021,0.10091,0.1354,0.24055,0.1354,0.41881V42.19514z M8.86596,41.77734c0-0.13126-0.02548-0.23104-0.0765-0.29911
		c-0.05102-0.06807-0.12316-0.10215-0.21637-0.10215c-0.09196,0-0.16241,0.03409-0.21139,0.10215
		c-0.04898,0.06807-0.0735,0.16784-0.0735,0.29911v0.41779c0,0.13273,0.02469,0.2333,0.07401,0.30171
		s0.1196,0.10261,0.21088,0.10261c0.09389,0,0.1662-0.03409,0.21688-0.10216s0.07599-0.16875,0.07599-0.30216V41.77734z"/>
	<path class="massive_builder0" d="M10.06476,41.23203h0.20431v1.50945h-0.20431v-1.10094l-0.00606-0.00215l-0.5546,1.1031H9.29978v-1.50945
		h0.20431v1.09992l0.00606,0.00215L10.06476,41.23203z"/>
	<path class="massive_builder0" d="M10.94349,41.89241c0.07849,0,0.13653-0.02265,0.17413-0.06818
		c0.03754-0.04541,0.05634-0.10873,0.05634-0.18993c0-0.07769-0.02061-0.14123-0.06189-0.19049
		c-0.04128-0.04927-0.10182-0.07384-0.18166-0.07384c-0.06444,0-0.11829,0.02435-0.16156,0.07305
		c-0.04326,0.04881-0.06495,0.11156-0.06495,0.18811h-0.19627l-0.00198-0.00623c-0.0034-0.12299,0.03641-0.22288,0.11926-0.29956
		c0.0829-0.07667,0.18472-0.11506,0.3055-0.11506c0.13823,0,0.2474,0.03692,0.32764,0.11087
		c0.08013,0.07396,0.12028,0.17939,0.12028,0.3162c0,0.07124-0.01829,0.13602-0.05487,0.19446
		c-0.03658,0.05833-0.08675,0.10374-0.15046,0.13625c0.07243,0.02842,0.12798,0.07282,0.16654,0.1333
		c0.03862,0.06048,0.05787,0.13489,0.05787,0.22334c0,0.1376-0.04309,0.24508-0.12934,0.32243
		c-0.08624,0.07747-0.19876,0.11609-0.33767,0.11609c-0.12146,0-0.22634-0.03692-0.31456-0.11088
		c-0.08822-0.07395-0.13069-0.18177-0.1273-0.32345l0.00198-0.00623h0.19627c0,0.08018,0.02265,0.147,0.06795,0.20057
		c0.0453,0.05357,0.10385,0.08041,0.17566,0.08041c0.08183,0,0.1461-0.02525,0.19276-0.07577
		c0.0466-0.0504,0.06993-0.11744,0.06993-0.20114c0-0.09389-0.02095-0.1632-0.06291-0.20782
		c-0.04196-0.04451-0.10419-0.06682-0.1867-0.06682h-0.14593v-0.15969H10.94349z"/>
	<path class="massive_builder0" d="M11.62387,42.74147v-1.50945h0.40868c0.13823,0,0.2461,0.03386,0.32357,0.10159
		c0.07752,0.06773,0.11626,0.16932,0.11626,0.30476c0,0.07192-0.01761,0.13534-0.05283,0.19027s-0.08403,0.09525-0.14644,0.12073
		c0.07916,0.01801,0.14009,0.0607,0.18268,0.12809c0.04264,0.06739,0.06393,0.14632,0.06393,0.23693
		c0,0.13885-0.03811,0.24485-0.11427,0.31768c-0.07616,0.07294-0.18132,0.10941-0.31553,0.10941H11.62387z M11.82823,41.88618
		h0.22441c0.0671,0,0.11982-0.02095,0.15805-0.06297c0.03822-0.04202,0.05736-0.1025,0.05736-0.18166
		c0-0.08324-0.01999-0.14576-0.05985-0.18744c-0.03998-0.04156-0.09853-0.0624-0.17566-0.0624h-0.20431V41.88618z M11.82823,42.0376
		v0.54418h0.26167c0.07248,0,0.12832-0.02288,0.16762-0.06886c0.03924-0.04598,0.05884-0.11178,0.05884-0.19752
		c0-0.08505-0.01676-0.15255-0.05028-0.20272c-0.03358-0.05006-0.08522-0.07508-0.15504-0.07508H11.82823z"/>
	<path class="massive_builder0" d="M13.68628,42.19514c0,0.17905-0.04496,0.31847-0.13488,0.41836
		c-0.08992,0.09978-0.21037,0.14972-0.36134,0.14972c-0.14899,0-0.26745-0.04995-0.35533-0.14972
		c-0.08794-0.09989-0.13183-0.2393-0.13183-0.41836V41.7804c0-0.17826,0.04411-0.3179,0.13234-0.41881
		c0.08822-0.10091,0.20652-0.15131,0.35482-0.15131c0.15029,0,0.27056,0.0504,0.36083,0.15131
		c0.09021,0.10091,0.1354,0.24055,0.1354,0.41881V42.19514z M13.48293,41.77734c0-0.13126-0.02548-0.23104-0.0765-0.29911
		s-0.12316-0.10215-0.21637-0.10215c-0.09196,0-0.16241,0.03409-0.21139,0.10215s-0.0735,0.16784-0.0735,0.29911v0.41779
		c0,0.13273,0.02469,0.2333,0.07401,0.30171s0.1196,0.10261,0.21088,0.10261c0.09389,0,0.1662-0.03409,0.21688-0.10216
		s0.07599-0.16875,0.07599-0.30216V41.77734z"/>
	<path class="massive_builder0" d="M15.00483,43.10955h-0.18517v-0.36807h-0.8284v0.36909h-0.18319l-0.02112-0.52878h0.09864
		c0.04292-0.04904,0.08234-0.1342,0.11824-0.2555c0.0359-0.12129,0.05651-0.29084,0.06189-0.50851l0.0312-0.58575h0.77205v1.34976
		h0.15499L15.00483,43.10955z M14.27106,41.81641c-0.006,0.17453-0.02463,0.32583-0.05583,0.45381
		c-0.0312,0.12809-0.07095,0.23195-0.11926,0.31156h0.56967v-1.19007h-0.3734L14.27106,41.81641z"/>
	<path class="massive_builder0" d="M16.05362,42.28325l0.00306,0.00623c-0.00068,0.15063-0.03964,0.26728-0.11676,0.34984
		c-0.07718,0.08268-0.18625,0.1239-0.32713,0.1239c-0.14361,0-0.25833-0.04972-0.34424-0.14927
		c-0.0859-0.09955-0.12883-0.2384-0.12883-0.41677v-0.41881c0-0.17826,0.04241-0.31757,0.1273-0.41779
		c0.08488-0.10023,0.19814-0.15029,0.3397-0.15029c0.14361,0,0.25397,0.04043,0.33115,0.12129
		c0.07718,0.08086,0.11677,0.19899,0.1188,0.35448l-0.00306,0.00623h-0.19321c-0.00204-0.11053-0.02316-0.19196-0.06342-0.24417
		c-0.04026-0.0521-0.10368-0.07814-0.19027-0.07814c-0.08386,0-0.14893,0.03488-0.19525,0.10487
		c-0.04632,0.06988-0.06942,0.16954-0.06942,0.29899v0.42266c0,0.1316,0.02361,0.23228,0.07095,0.30216
		c0.04728,0.06999,0.11388,0.10498,0.19978,0.10498c0.08454,0,0.14644-0.02548,0.18568-0.07622
		c0.0393-0.05085,0.05957-0.13217,0.06093-0.24417H16.05362z"/>
	<path class="massive_builder0" d="M17.09737,41.39171h-0.3764v1.34976H16.5166v-1.34976h-0.37442v-0.15969h0.95518V41.39171z"/>
	<path class="massive_builder0" d="M17.27354,42.74147v-1.50945h0.40868c0.13823,0,0.2461,0.03386,0.32357,0.10159
		c0.07752,0.06773,0.11625,0.16932,0.11625,0.30476c0,0.07192-0.01761,0.13534-0.05283,0.19027
		c-0.03522,0.05493-0.08403,0.09525-0.14644,0.12073c0.07916,0.01801,0.14009,0.0607,0.18268,0.12809
		c0.04264,0.06739,0.06393,0.14632,0.06393,0.23693c0,0.13885-0.03811,0.24485-0.11427,0.31768
		c-0.07616,0.07294-0.18132,0.10941-0.31553,0.10941H17.27354z M17.4779,41.88618h0.22441c0.0671,0,0.11982-0.02095,0.15804-0.06297
		c0.03822-0.04202,0.05736-0.1025,0.05736-0.18166c0-0.08324-0.01999-0.14576-0.05985-0.18744
		c-0.03998-0.04156-0.09853-0.0624-0.17566-0.0624H17.4779V41.88618z M17.4779,42.0376v0.54418h0.26167
		c0.07248,0,0.12832-0.02288,0.16762-0.06886c0.03924-0.04598,0.05883-0.11178,0.05883-0.19752
		c0-0.08505-0.01676-0.15255-0.05028-0.20272c-0.03358-0.05006-0.08522-0.07508-0.15504-0.07508H17.4779z"/>
	<path class="massive_builder0" d="M19.336,42.19514c0,0.17905-0.04496,0.31847-0.13489,0.41836
		c-0.08992,0.09978-0.21037,0.14972-0.36134,0.14972c-0.14898,0-0.26745-0.04995-0.35533-0.14972
		c-0.08794-0.09989-0.13183-0.2393-0.13183-0.41836V41.7804c0-0.17826,0.04411-0.3179,0.13234-0.41881
		s0.20652-0.15131,0.35482-0.15131c0.15029,0,0.27056,0.0504,0.36083,0.15131c0.09021,0.10091,0.1354,0.24055,0.1354,0.41881
		V42.19514z M19.13266,41.77734c0-0.13126-0.02548-0.23104-0.0765-0.29911s-0.12316-0.10215-0.21637-0.10215
		c-0.09196,0-0.16241,0.03409-0.21139,0.10215c-0.04898,0.06807-0.0735,0.16784-0.0735,0.29911v0.41779
		c0,0.13273,0.02469,0.2333,0.07401,0.30171s0.1196,0.10261,0.21088,0.10261c0.09389,0,0.1662-0.03409,0.21688-0.10216
		c0.05068-0.06807,0.07599-0.16875,0.07599-0.30216V41.77734z"/>
	<path class="massive_builder0" d="M20.68571,42.35992h-0.467l-0.10669,0.38155h-0.20737l0.45092-1.50945h0.19729l0.4469,1.50945h-0.20737
		L20.68571,42.35992z M20.26599,42.1931h0.37346l-0.18319-0.65936H20.4502L20.26599,42.1931z"/>
	<path class="massive_builder0" d="M21.16381,42.74147v-1.50945h0.40868c0.13823,0,0.2461,0.03386,0.32357,0.10159
		c0.07752,0.06773,0.11626,0.16932,0.11626,0.30476c0,0.07192-0.01761,0.13534-0.05283,0.19027
		c-0.03522,0.05493-0.08403,0.09525-0.14644,0.12073c0.07916,0.01801,0.14009,0.0607,0.18268,0.12809
		c0.04264,0.06739,0.06393,0.14632,0.06393,0.23693c0,0.13885-0.03811,0.24485-0.11427,0.31768
		c-0.07616,0.07294-0.18132,0.10941-0.31553,0.10941H21.16381z M21.36817,41.88618h0.22441
		c0.0671,0,0.11982-0.02095,0.15804-0.06297c0.03822-0.04202,0.05736-0.1025,0.05736-0.18166
		c0-0.08324-0.01999-0.14576-0.05985-0.18744c-0.03998-0.04156-0.09853-0.0624-0.17566-0.0624h-0.20431V41.88618z M21.36817,42.0376
		v0.54418h0.26167c0.07248,0,0.12832-0.02288,0.16762-0.06886c0.03924-0.04598,0.05884-0.11178,0.05884-0.19752
		c0-0.08505-0.01676-0.15255-0.05029-0.20272c-0.03358-0.05006-0.08522-0.07508-0.15504-0.07508H21.36817z"/>
	<path class="massive_builder0" d="M23.11444,41.39171h-0.3764v1.34976h-0.20437v-1.34976h-0.37442v-0.15969h0.95518V41.39171z"/>
	<path class="massive_builder0" d="M24.1955,42.19514c0,0.17905-0.04496,0.31847-0.13489,0.41836
		c-0.08992,0.09978-0.21037,0.14972-0.36134,0.14972c-0.14898,0-0.26745-0.04995-0.35533-0.14972
		c-0.08794-0.09989-0.13183-0.2393-0.13183-0.41836V41.7804c0-0.17826,0.04411-0.3179,0.13234-0.41881
		s0.20652-0.15131,0.35482-0.15131c0.15029,0,0.27057,0.0504,0.36083,0.15131c0.09021,0.10091,0.1354,0.24055,0.1354,0.41881
		V42.19514z M23.99215,41.77734c0-0.13126-0.02548-0.23104-0.0765-0.29911c-0.05102-0.06807-0.12316-0.10215-0.21637-0.10215
		c-0.09196,0-0.16241,0.03409-0.21139,0.10215s-0.0735,0.16784-0.0735,0.29911v0.41779c0,0.13273,0.02469,0.2333,0.07401,0.30171
		s0.1196,0.10261,0.21088,0.10261c0.09389,0,0.1662-0.03409,0.21688-0.10216c0.05068-0.06807,0.07599-0.16875,0.07599-0.30216
		V41.77734z"/>
	<path class="massive_builder0" d="M24.77423,42.06455h-0.13987v0.67692h-0.20437v-1.50945h0.20437v0.66344h0.12175l0.38755-0.66344h0.24355
		l-0.461,0.71633l0.49622,0.79312h-0.24961L24.77423,42.06455z"/>
	<path class="massive_builder0" d="M26.53272,41.23203v1.50945h-0.20335v-1.34976h-0.40664l-0.00204,0.53161
		c-0.00062,0.28789-0.03233,0.49628-0.09508,0.62505s-0.16326,0.1931-0.30148,0.1931h-0.05131v-0.15969h0.0342
		c0.07848-0.00136,0.13302-0.04949,0.16354-0.14462c0.03052-0.09502,0.04615-0.26592,0.04683-0.51259l0.00198-0.69255H26.53272z"/>
	<path class="massive_builder0" d="M27.50195,42.35992h-0.467l-0.10668,0.38155h-0.20737l0.45092-1.50945h0.19729l0.44684,1.50945h-0.20731
		L27.50195,42.35992z M27.08223,42.1931h0.37345l-0.18319-0.65936h-0.00606L27.08223,42.1931z"/>
	<path class="massive_builder0" d="M27.98005,42.74147v-1.50945h0.40862c0.13828,0,0.2461,0.03386,0.32368,0.10159
		c0.07747,0.06773,0.1162,0.16932,0.1162,0.30476c0,0.07192-0.01755,0.13534-0.05278,0.19027
		c-0.03522,0.05493-0.08403,0.09525-0.14644,0.12073c0.07916,0.01801,0.13998,0.0607,0.18268,0.12809
		c0.04258,0.06739,0.06388,0.14632,0.06388,0.23693c0,0.13885-0.03805,0.24485-0.11427,0.31768
		c-0.07611,0.07294-0.18132,0.10941-0.31553,0.10941H27.98005z M28.18436,41.88618h0.22447
		c0.06716,0,0.11982-0.02095,0.15799-0.06297c0.03828-0.04202,0.05742-0.1025,0.05742-0.18166
		c0-0.08324-0.01993-0.14576-0.05991-0.18744c-0.03987-0.04156-0.09842-0.0624-0.17566-0.0624h-0.20431V41.88618z M28.18436,42.0376
		v0.54418h0.26173c0.07248,0,0.12832-0.02288,0.16762-0.06886c0.03919-0.04598,0.05889-0.11178,0.05889-0.19752
		c0-0.08505-0.01676-0.15255-0.0504-0.20272c-0.03352-0.05006-0.08517-0.07508-0.15493-0.07508H28.18436z"/>
	<path class="massive_builder0" d="M30.07876,42.74147h-0.2034v-0.66661h-0.56163v0.66661h-0.20431v-1.50945h0.20431v0.68315h0.56163v-0.68315
		h0.2034V42.74147z"/>
	<path class="massive_builder0" d="M31.29658,42.19514c0,0.17905-0.04496,0.31847-0.13489,0.41836
		c-0.08992,0.09978-0.21042,0.14972-0.36139,0.14972c-0.14893,0-0.26739-0.04995-0.35528-0.14972
		c-0.08788-0.09989-0.13183-0.2393-0.13183-0.41836V41.7804c0-0.17826,0.04406-0.3179,0.13228-0.41881
		s0.20658-0.15131,0.35482-0.15131c0.15029,0,0.27057,0.0504,0.36083,0.15131s0.13545,0.24055,0.13545,0.41881V42.19514z
		 M31.09328,41.77734c0-0.13126-0.02559-0.23104-0.07656-0.29911s-0.12311-0.10215-0.21643-0.10215
		c-0.09196,0-0.16241,0.03409-0.21133,0.10215c-0.04904,0.06807-0.0735,0.16784-0.0735,0.29911v0.41779
		c0,0.13273,0.02469,0.2333,0.07395,0.30171c0.04938,0.06841,0.1196,0.10261,0.21088,0.10261c0.094,0,0.16626-0.03409,0.217-0.10216
		c0.05062-0.06807,0.07599-0.16875,0.07599-0.30216V41.77734z"/>
	<path class="massive_builder0" d="M32.31518,41.39171h-0.57975v1.34976h-0.20431v-1.50945h0.78406V41.39171z"/>
	<path class="massive_builder0" d="M33.38317,42.19514c0,0.17905-0.04496,0.31847-0.13489,0.41836
		c-0.08992,0.09978-0.21043,0.14972-0.36139,0.14972c-0.14893,0-0.26739-0.04995-0.35528-0.14972
		c-0.08788-0.09989-0.13183-0.2393-0.13183-0.41836V41.7804c0-0.17826,0.04406-0.3179,0.13228-0.41881
		s0.20657-0.15131,0.35482-0.15131c0.15029,0,0.27057,0.0504,0.36083,0.15131s0.13545,0.24055,0.13545,0.41881V42.19514z
		 M33.17987,41.77734c0-0.13126-0.0256-0.23104-0.07656-0.29911c-0.05096-0.06807-0.1231-0.10215-0.21643-0.10215
		c-0.09196,0-0.16241,0.03409-0.21133,0.10215c-0.04904,0.06807-0.0735,0.16784-0.0735,0.29911v0.41779
		c0,0.13273,0.02469,0.2333,0.07396,0.30171c0.04938,0.06841,0.11959,0.10261,0.21088,0.10261
		c0.094,0,0.16626-0.03409,0.217-0.10216c0.05062-0.06807,0.07599-0.16875,0.07599-0.30216V41.77734z"/>
	<path class="massive_builder0" d="M34.8506,41.39171h-0.57975v1.34976h-0.20431v-1.50945h0.78406V41.39171z"/>
	<path class="massive_builder0" d="M35.52412,42.35992h-0.46706l-0.10668,0.38155H34.743l0.45098-1.50945h0.19717l0.4469,1.50945H35.6308
		L35.52412,42.35992z M35.1044,42.1931h0.3734l-0.18324-0.65936h-0.006L35.1044,42.1931z"/>
	<path class="massive_builder0" d="M36.39266,41.89241c0.0786,0,0.13659-0.02265,0.17418-0.06818c0.0376-0.04541,0.0564-0.10873,0.0564-0.18993
		c0-0.07769-0.02073-0.14123-0.06195-0.19049c-0.04122-0.04927-0.10181-0.07384-0.18166-0.07384
		c-0.06444,0-0.11824,0.02435-0.16161,0.07305c-0.04327,0.04881-0.0649,0.11156-0.0649,0.18811h-0.19627l-0.00204-0.00623
		c-0.00328-0.12299,0.03647-0.22288,0.11937-0.29956c0.08279-0.07667,0.1846-0.11506,0.30545-0.11506
		c0.13817,0,0.24746,0.03692,0.32764,0.11087c0.08018,0.07396,0.12028,0.17939,0.12028,0.3162
		c0,0.07124-0.01835,0.13602-0.05493,0.19446c-0.03658,0.05833-0.08664,0.10374-0.1504,0.13625
		c0.07248,0.02842,0.12798,0.07282,0.1666,0.1333c0.03851,0.06048,0.05787,0.13489,0.05787,0.22334
		c0,0.1376-0.04315,0.24508-0.12933,0.32243c-0.0863,0.07747-0.19888,0.11609-0.33772,0.11609
		c-0.12152,0-0.22628-0.03692-0.31451-0.11088c-0.08834-0.07395-0.1307-0.18177-0.12741-0.32345l0.00204-0.00623h0.19627
		c0,0.08018,0.02265,0.147,0.06795,0.20057c0.0453,0.05357,0.10386,0.08041,0.17566,0.08041
		c0.08188,0,0.1461-0.02525,0.19276-0.07577c0.04666-0.0504,0.06999-0.11744,0.06999-0.20114
		c0-0.09389-0.02106-0.1632-0.06297-0.20782c-0.0419-0.04451-0.10419-0.06682-0.18676-0.06682h-0.14587v-0.15969H36.39266z"/>
	<path class="massive_builder0" d="M38.00619,42.19514c0,0.17905-0.04496,0.31847-0.13489,0.41836
		c-0.08992,0.09978-0.21043,0.14972-0.36139,0.14972c-0.14893,0-0.26739-0.04995-0.35528-0.14972
		c-0.08788-0.09989-0.13183-0.2393-0.13183-0.41836V41.7804c0-0.17826,0.04406-0.3179,0.13228-0.41881
		s0.20657-0.15131,0.35482-0.15131c0.15029,0,0.27057,0.0504,0.36083,0.15131s0.13545,0.24055,0.13545,0.41881V42.19514z
		 M37.8029,41.77734c0-0.13126-0.0256-0.23104-0.07656-0.29911s-0.1231-0.10215-0.21643-0.10215
		c-0.09196,0-0.16241,0.03409-0.21133,0.10215c-0.04904,0.06807-0.0735,0.16784-0.0735,0.29911v0.41779
		c0,0.13273,0.02469,0.2333,0.07395,0.30171c0.04938,0.06841,0.1196,0.10261,0.21088,0.10261c0.094,0,0.16626-0.03409,0.217-0.10216
		c0.05062-0.06807,0.07599-0.16875,0.07599-0.30216V41.77734z"/>
	<path class="massive_builder0" d="M39.01664,41.39171h-0.57975v0.45607h0.25765c0.13828,0,0.24667,0.04032,0.32515,0.12084
		c0.07848,0.08052,0.11778,0.18777,0.11778,0.32187c0,0.13613-0.03941,0.24542-0.11824,0.32764
		c-0.07894,0.08223-0.1871,0.12334-0.3247,0.12334h-0.46196v-1.50945h0.78406V41.39171z M38.43689,42.00747v0.57431h0.25765
		c0.0786,0,0.13794-0.02763,0.17815-0.08302c0.04032-0.05538,0.06048-0.12571,0.06048-0.21088
		c0-0.08098-0.02016-0.14802-0.06048-0.20091c-0.04021-0.05301-0.09955-0.07951-0.17815-0.07951H38.43689z"/>
	<path class="massive_builder0" d="M40.10071,42.03964H39.5572v0.54214h0.63015v0.15969h-0.83446v-1.50945h0.82834v0.15969H39.5572v0.48824
		h0.54351V42.03964z"/>
	<path class="massive_builder0" d="M41.24616,41.39171H40.8697v1.34976h-0.20431v-1.34976h-0.37442v-0.15969h0.95518V41.39171z"/>
	<path class="massive_builder0" d="M42.32728,42.19514c0,0.17905-0.04496,0.31847-0.13488,0.41836
		c-0.08992,0.09978-0.21043,0.14972-0.36139,0.14972c-0.14893,0-0.2674-0.04995-0.35528-0.14972
		c-0.08789-0.09989-0.13183-0.2393-0.13183-0.41836V41.7804c0-0.17826,0.04406-0.3179,0.13228-0.41881
		c0.08822-0.10091,0.20657-0.15131,0.35482-0.15131c0.15029,0,0.27056,0.0504,0.36082,0.15131s0.13545,0.24055,0.13545,0.41881
		V42.19514z M42.12399,41.77734c0-0.13126-0.0256-0.23104-0.07656-0.29911s-0.12311-0.10215-0.21643-0.10215
		c-0.09196,0-0.16241,0.03409-0.21133,0.10215c-0.04904,0.06807-0.0735,0.16784-0.0735,0.29911v0.41779
		c0,0.13273,0.02469,0.2333,0.07396,0.30171c0.04938,0.06841,0.11959,0.10261,0.21088,0.10261
		c0.094,0,0.16626-0.03409,0.21699-0.10216c0.05062-0.06807,0.076-0.16875,0.076-0.30216V41.77734z"/>
	<path class="massive_builder0" d="M43.53106,42.74147h-0.20341v-0.66661h-0.56162v0.66661h-0.20431v-1.50945h0.20431v0.68315h0.56162v-0.68315
		h0.20341V42.74147z"/>
	<path class="massive_builder1" d="M44.48227,42.35992h-0.46706l-0.10669,0.38155h-0.20737l0.45098-1.50945h0.19717l0.4469,1.50945h-0.20725
		L44.48227,42.35992z M44.06255,42.1931h0.3734l-0.18324-0.65936h-0.006L44.06255,42.1931z"/>
</g>
<g>
	<path class="massive_builder0" d="M11.47188,39.13343H9.81107v-4.85146l-0.83043,4.85146H8.29811l-0.80767-4.85146l-0.02276,4.85146H5.80681
		v-7.87941h2.12725l0.64843,3.61325h0.15924l0.60291-3.61325h2.12725V39.13343z"/>
	<path class="massive_builder0" d="M17.14879,39.13343h-1.7291l-0.17062-1.46335h-1.31958l-0.14791,1.46335h-1.72905l1.11481-7.87941h2.68463
		L17.14879,39.13343z M15.05569,36.1843l-0.37538-3.4445h-0.19338l-0.40953,3.4445H15.05569z"/>
	<path class="massive_builder0" d="M22.18881,37.98526L20.983,39.13343h-2.04763l-1.20581-1.14817v-5.58308l1.20581-1.14817H20.983
		l1.20581,1.14817v1.86847H20.528V32.7398h-1.13758v4.90774H20.528v-1.87979h1.66081V37.98526z"/>
	<path class="massive_builder0" d="M27.84324,37.98526l-1.20593,1.14817h-2.04763l-1.20581-1.14817v-5.58308l1.20581-1.14817h2.04763
		l1.20593,1.14817v1.86847h-1.66092V32.7398h-1.13758v4.90774h1.13758v-1.87979h1.66092V37.98526z"/>
	<path class="massive_builder0" d="M33.47467,39.13343h-1.66087v-4.06355l-1.33096,4.06355h-1.44467v-7.87941h1.66076v4.06355l1.33096-4.06355
		h1.44478V39.13343z"/>
	<path class="massive_builder0" d="M39.15175,37.98526l-1.20581,1.14817h-3.25344v-7.87941h3.19648l1.11487,1.01306v2.07119l-0.8759,0.78791
		l1.02382,0.81044V37.98526z M37.49088,34.43951V32.7398h-1.13763v1.69971H37.49088z M37.49088,37.64754V35.9254h-1.13763v1.72214
		H37.49088z"/>
	<path class="massive_builder1" d="M45.23824,37.98787l-1.20581,1.14557H40.8928V32.7398h-0.97829v-1.48578h2.63916v2.98288h1.47876
		l1.20581,1.14557V37.98787z M43.57749,37.64754v-1.92475h-1.02382v1.92475H43.57749z"/>
</g>
<linearGradient id="svg_massive_builder1" gradientUnits="userSpaceOnUse" x1="22.08275" y1="22.66697" x2="36.82293" y2="22.66697">
	<stop  offset="0" style="stop-color:#A6CE39"/>
	<stop  offset="1" style="stop-color:#65A53C"/>
</linearGradient>
<polygon class="massive_builder2" points="33.3871,18.13551 25.51937,25.28928 27.61914,27.19843 33.3871,21.95382 "/>
<linearGradient id="svg_massive_builder2" gradientUnits="userSpaceOnUse" x1="27.71705" y1="24.13903" x2="35.46613" y2="26.36105">
	<stop  offset="0" style="stop-color:#A6CE39"/>
	<stop  offset="0.22777" style="stop-color:#A1CB39"/>
	<stop  offset="0.49969" style="stop-color:#92C23A"/>
	<stop  offset="0.79306" style="stop-color:#7AB33B"/>
	<stop  offset="1" style="stop-color:#65A53C"/>
</linearGradient>
<path class="massive_builder3" d="M33.3871,23.01081l-4.60528,4.18762l0,0h4.17017c0.23909,0,0.43512-0.18782,0.43512-0.4173V23.01081z"/>
<path class="massive_builder4" d="M17.65186,23.01081l4.6053,4.18762l0,0h-4.17015c-0.23912,0-0.43515-0.18782-0.43515-0.4173V23.01081z"/>
<polygon class="massive_builder4" points="17.65186,18.13551 27.61914,27.19843 23.41985,27.19843 17.65186,21.95382 "/>
<linearGradient id="svg_massive_builder3" gradientUnits="userSpaceOnUse" x1="26.80419" y1="22.58227" x2="33.54932" y2="11.7878">
	<stop  offset="0" style="stop-color:#003461"/>
	<stop  offset="0.09891" style="stop-color:#083D6C"/>
	<stop  offset="1" style="stop-color:#4A8AC9"/>
</linearGradient>
<polygon class="massive_builder5" points="33.3871,12.85687 25.51937,20.01064 27.61914,21.91979 33.3871,16.67518 "/>
<linearGradient id="svg_massive_builder4" gradientUnits="userSpaceOnUse" x1="27.63253" y1="20.38278" x2="31.89224" y2="3.298">
	<stop  offset="0" style="stop-color:#003461"/>
	<stop  offset="1" style="stop-color:#4A8AC9"/>
</linearGradient>
<polygon class="massive_builder6" points="33.41061,7.5 25.54288,14.65377 27.64263,16.56292 33.41061,11.31831 "/>
<polygon class="massive_builder7" points="21.62099,11.08773 27.64263,16.56272 25.54288,18.47184 21.62099,14.90584 "/>
<polygon class="massive_builder7" points="19.62478,14.65087 27.61914,21.9196 25.51937,23.82872 19.62478,18.46915 "/>
</svg>
