<?xml version="1.0" encoding="utf-8"?>
<svg version="1.1" id="massive_builder" xmlns="http://www.w3.org/2000/svg" xmlns:xlink="http://www.w3.org/1999/xlink" x="0px" y="0px"
	 viewBox="0 0 50 50" enable-background="new 0 0 50 50" xml:space="preserve">
<text transform="matrix(0.9709 0 0 1 5.77002 40.45898)"><tspan x="0" y="0" fill="#1D548A" font-family="'RobotoCondensed-Regular'" font-size="2.07605px">П</tspan><tspan x="1.26383" y="0" fill="#1D548A" font-family="'RobotoCondensed-Regular'" font-size="2.07605px">РОИЗВОДСТВО АВТОКЛАВНОГО ГАЗОБЕТОН</tspan><tspan x="38.74215" y="0" fill="#1D548B" font-family="'RobotoCondensed-Regular'" font-size="2.07605px">A</tspan></text>
<text transform="matrix(1.0106 0 0 1 5.50537 36.93164)"><tspan x="0" y="0" fill="#1D548A" font-family="'MachineCTT'" font-size="11.00653px">М</tspan><tspan x="6.65939" y="0" fill="#1D548A" font-family="'MachineCTT'" font-size="11.00653px">АССИВ</tspan><tspan x="33.41871" y="0" fill="#1D548B" font-family="'MachineCTT'" font-size="11.00653px">Ъ</tspan></text>
<linearGradient id="mass_1" gradientUnits="userSpaceOnUse" x1="21.88797" y1="20.83038" x2="36.30104" y2="20.83038">
	<stop  offset="0" style="stop-color:#A6CE39"/>
	<stop  offset="1" style="stop-color:#65A53C"/>
</linearGradient>
<polygon fill-rule="evenodd" clip-rule="evenodd" fill="url(#mass_1)" points="32.94145,16.39949 25.24833,23.39449 
	27.3015,25.26128 32.94145,20.13306 "/>
<linearGradient id="mass_2" gradientUnits="userSpaceOnUse" x1="27.39723" y1="22.26978" x2="34.97434" y2="24.44248">
	<stop  offset="0" style="stop-color:#A6CE39"/>
	<stop  offset="0.22777" style="stop-color:#A1CB39"/>
	<stop  offset="0.49969" style="stop-color:#92C23A"/>
	<stop  offset="0.79306" style="stop-color:#7AB33B"/>
	<stop  offset="1" style="stop-color:#65A53C"/>
</linearGradient>
<path fill-rule="evenodd" clip-rule="evenodd" fill="url(#mass_2)" d="M32.94145,21.16659l-4.50308,4.09469l0,0h4.07762
	c0.23378,0,0.42546-0.18365,0.42546-0.40804V21.16659z"/>
<path fill-rule="evenodd" clip-rule="evenodd" fill="#68A127" d="M17.55541,21.16659l4.5031,4.09469l0,0h-4.07761
	c-0.23382,0-0.42549-0.18365-0.42549-0.40804V21.16659z"/>
<polygon fill-rule="evenodd" clip-rule="evenodd" fill="#68A127" points="17.55541,16.39949 27.3015,25.26128 23.1954,25.26128 
	17.55541,20.13306 "/>
<linearGradient id="mass_3" gradientUnits="userSpaceOnUse" x1="26.50463" y1="20.74756" x2="33.10008" y2="10.19264">
	<stop  offset="0" style="stop-color:#003461"/>
	<stop  offset="0.09891" style="stop-color:#083D6C"/>
	<stop  offset="1" style="stop-color:#4A8AC9"/>
</linearGradient>
<polygon fill-rule="evenodd" clip-rule="evenodd" fill="url(#mass_3)" points="32.94145,11.23799 25.24833,18.233 
	27.3015,20.09978 32.94145,14.97156 "/>
<linearGradient id="mass_4" gradientUnits="userSpaceOnUse" x1="27.31459" y1="18.59688" x2="31.47977" y2="1.89125">
	<stop  offset="0" style="stop-color:#003461"/>
	<stop  offset="1" style="stop-color:#4A8AC9"/>
</linearGradient>
<polygon fill-rule="evenodd" clip-rule="evenodd" fill="url(#mass_4)" points="32.96444,6 25.27132,12.99501 27.32447,14.86179 
	32.96444,9.73357 "/>
<polygon fill-rule="evenodd" clip-rule="evenodd" fill="#113B65" points="21.43646,9.50811 27.32447,14.8616 25.27132,16.72835 
	21.43646,13.24149 "/>
<polygon fill-rule="evenodd" clip-rule="evenodd" fill="#113B65" points="19.48456,12.99217 27.3015,20.09959 25.24833,21.96634 
	19.48456,16.72572 "/>
</svg>
