<?xml version="1.0" encoding="utf-8"?>
<!DOCTYPE svg PUBLIC "-//W3C//DTD SVG 1.1//EN" "http://www.w3.org/Graphics/SVG/1.1/DTD/svg11.dtd">
<svg version="1.1" id="Layer_1" xmlns="http://www.w3.org/2000/svg" xmlns:xlink="http://www.w3.org/1999/xlink" x="0px" y="0px"
	 viewBox="0 0 50 50" enable-background="new 0 0 50 50" xml:space="preserve">
<g>
	<g>
		<path fill="#00000B" d="M11.3,21.2L11.3,21.2c-0.2,0.8-0.1,1.5,0.4,2.2c0.5,0.8,1.3,1.6,2.3,2.4c0.4,0.3,0.8,0.6,1.3,0.9
			c0.1,0.1,0.2,0.1,0.3,0.2c-0.1-0.4-0.1-0.9-0.2-1.3l0,0c-0.3-0.2-0.5-0.4-0.8-0.5c-0.8-0.6-1.5-1.2-1.9-1.8
			c-0.4-0.6-0.6-1.1-0.4-1.6l0,0v0l0,0c0.2-0.5,0.7-0.9,1.4-1.2c0.1,0,0.1,0,0.2-0.1l0,0v0l0,0l0,0l0,0l0,0v0l0,0v0l0,0l0,0l0,0l0,0
			l0,0l0,0v0l0,0v0l0,0l0,0l0,0l0,0v0l0,0v0l0,0l0,0l0,0l0,0l0,0l0,0v0l0,0v0l0,0l0,0l0,0l0,0v0l0,0v0l0,0l0,0l0,0l0,0l0,0l0,0v0
			l0,0v0l0,0l0,0l0,0l0,0v0l0,0v0l0,0l0,0l0,0l0,0l0,0l0,0v0l0,0l0,0l0,0l0,0l0,0l0,0v0l0,0v0l0,0l0,0l0,0l0,0l0,0l0,0v0l0,0l0,0
			l0,0l0,0l0,0l0,0l0,0l0,0v0l0,0l0,0l0,0l0,0l0,0l0,0v0l0,0v0l0,0l0,0l0,0l0,0l0,0v0l0,0l0,0l0,0l0,0l0,0l0,0v0l0,0l0,0
			c-0.4,0.1-0.8,0.2-1,0.4C12.1,19.9,11.5,20.4,11.3,21.2L11.3,21.2L11.3,21.2z M15.1,19.9L15.1,19.9L15.1,19.9L15.1,19.9L15.1,19.9
			L15.1,19.9L15.1,19.9L15.1,19.9L15.1,19.9L15.1,19.9L15.1,19.9L15.1,19.9L15.1,19.9L15.1,19.9L15.1,19.9L15.1,19.9L15.1,19.9
			L15.1,19.9L15.1,19.9L15.1,19.9L15.1,19.9L15.1,19.9L15.1,19.9L15.1,19.9L15.1,19.9L15.1,19.9L15.1,19.9L15.1,19.9L15.1,19.9
			L15.1,19.9L15.1,19.9L15.1,19.9L15.1,19.9L15.1,19.9L15.1,19.9L15.1,19.9L15.1,19.9L15.1,19.9L15.1,19.9L15.1,19.9L15.1,19.9
			L15.1,19.9L15.1,19.9L15.1,19.9L15.1,19.9c0.2-0.1,0.3-0.2,0.4-0.4c0-0.1,0.1-0.1,0.1-0.2c0.5-0.1,1.2,0.1,1.6,0.2h0.1
			c-0.1,0.2-0.3,0.4-0.4,0.6c-0.1,0-0.2,0-0.3,0C16.1,19.7,15.6,19.8,15.1,19.9z"/>
		<path fill="#00000B" d="M17.1,35.4c0.4,0,0.8-0.1,1.2-0.2c0.6-0.1,1.2-0.4,1.9-0.6c0.4-0.2,0.9-0.4,1.3-0.7c0.1,0,0.2-0.1,0.2-0.1
			c-0.4-0.2-0.8-0.3-1.2-0.5c-0.3,0.1-0.5,0.2-0.8,0.4l0,0c-0.5,0.2-1,0.4-1.4,0.5c-0.4,0.1-0.7,0.2-1,0.2c0,0.2,0,0.3,0,0.5
			C17.2,35,17.2,35.2,17.1,35.4L17.1,35.4z M15.2,32.4c0-0.4,0.1-0.8,0.3-1.3c0.2-0.6,0.5-1.2,0.8-1.8l0.1-0.2
			c-0.2-0.4-0.4-0.8-0.5-1.2c-0.2,0.3-0.4,0.6-0.5,0.9c-0.4,0.8-0.7,1.6-0.9,2.3c-0.2,0.6-0.2,1.1-0.2,1.6c0,0,0.1,0,0.1,0
			c0.1-0.1,0.3-0.1,0.5-0.2l0,0c0.1,0,0.2-0.1,0.4-0.1C15.1,32.4,15.2,32.4,15.2,32.4L15.2,32.4z M33.9,22L33.9,22
			c0.2-0.4,0.4-0.8,0.6-1.1c0.7-1.3,1-2.5,1.1-3.5c0.1-0.9-0.1-1.7-0.6-2.3l0,0L34.9,15c-0.5-0.5-1.2-0.7-2.1-0.7
			c-0.9,0-2,0.3-3.2,0.8c-0.5,0.2-0.9,0.4-1.4,0.7c-0.1,0.1-0.2,0.1-0.3,0.2c0.4,0.1,0.8,0.3,1.2,0.5l0.1,0c0.3-0.2,0.6-0.3,0.8-0.4
			l0,0c0.9-0.4,1.8-0.7,2.5-0.7c1.5-0.1,2.3,0.6,2,2.3c-0.1,0.8-0.5,1.8-1,2.8c-0.1,0.1-0.1,0.2-0.2,0.4
			C33.6,21.2,33.7,21.6,33.9,22L33.9,22z M23.7,18.9L23.7,18.9c-0.5,0.4-0.9,0.8-1.4,1.2c-0.2,0.2-0.4,0.3-0.5,0.5
			c-0.2,0.2-0.3,0.3-0.5,0.5c-0.7,0.6-1.3,1.3-1.9,1.9c-0.3,0.4-0.4,0.4-0.7,0.8l0,0l0,0l0,0c0,0.1-0.1,0.5-0.1,0.9v0
			c0.1,0.1,0.3,0.2,0.4,0.3c0.2-0.3,0.5-0.6,0.7-0.8c0.7-0.8,1.5-1.7,2.3-2.5c0.2-0.2,0.3-0.3,0.5-0.5c0.2-0.2,0.3-0.3,0.5-0.4
			c0.6-0.6,1.2-1.1,1.9-1.6c0.2-0.2,0.4-0.3,0.6-0.4c-0.2,0-0.4,0-0.6,0C24.4,18.8,24.1,18.8,23.7,18.9z"/>
		<path fill="#00000B" d="M22.7,19.2c0.2,0,0.3,0.1,0.5,0.1c0.5,0.1,1.1,0.2,1.7,0.4c0.2,0.1,0.5,0.1,0.7,0.2
			c0.2,0.1,0.4,0.1,0.6,0.2c0.9,0.3,1.7,0.5,2.5,0.8c0.3,0.1,0.6,0.2,0.9,0.4c0.3,0.4,0.6,0.9,0.8,1.4c-1.4-0.6-3.2-1.1-4.6-1.6
			c-0.2-0.1-0.4-0.1-0.7-0.2c-0.2-0.1-0.4-0.1-0.6-0.2c-0.8-0.2-1.6-0.4-2.4-0.5c-0.4-0.1-0.7-0.1-1-0.2
			C21.7,19.7,22.2,19.4,22.7,19.2z"/>
		<path fill="#00000B" d="M14.8,35.3c0.2,0.1,0.5,0.2,0.7,0.1c0.2-0.1,0.5-0.2,0.6-0.5c0.1-0.2,0.2-0.5,0.1-0.7
			c-0.1-0.2-0.2-0.5-0.5-0.6c-0.2-0.1-0.5-0.2-0.7-0.1s-0.5,0.2-0.6,0.5c-0.1,0.2-0.2,0.5-0.1,0.7C14.4,35,14.5,35.2,14.8,35.3
			L14.8,35.3z M15.7,36.3c-0.5,0.1-1,0.1-1.4-0.2c-0.5-0.3-0.8-0.7-0.9-1.1c-0.1-0.5-0.1-1,0.2-1.4c0.3-0.5,0.7-0.8,1.1-0.9
			c0.5-0.1,1-0.1,1.4,0.2c0.5,0.3,0.8,0.7,0.9,1.1c0.1,0.5,0.1,1-0.2,1.4C16.6,35.9,16.2,36.2,15.7,36.3z"/>
		<path fill="#00000B" d="M20.1,21c-0.4,0.5-0.7,1-0.9,1.6c0.2,1,0.4,2.2,0.7,3.3l0,0c0.5,0.3,0.9,0.7,1.4,1
			c-0.1-0.3-0.2-0.6-0.3-0.9C20.6,24.2,20.3,22.5,20.1,21L20.1,21z M21.1,29.6c0.5,0.4,1,0.7,1.5,0.9c-0.2-0.5-0.4-1-0.6-1.5
			c-0.5-0.3-1-0.7-1.5-1C20.7,28.6,20.9,29.1,21.1,29.6z"/>
		<path fill="#00000B" d="M21.4,11.2c0.5-0.1,1-0.1,1.5,0.1c-0.3,0.2-0.6,0.5-0.8,0.9c-0.2,0-0.3,0-0.5,0c-1,0.3-1.6,1.9-1.8,4.2
			c0,0.1,0,0.2,0,0.4h0l0,0h0h0l-0.1,0h0l0,0l-0.1,0h0h0l0,0.1h0h0h0h0l0,0h0l0,0h0h0h0h0l-0.1,0h0h0l0.2,0.1h0h0l-0.1,0.1h0h0h0h0
			h0l-0.1,0.1h0l0.1,0.1l0,0h0h0l-0.1,0.1h0c0-0.4,0-0.8,0-1.2C19,13.6,19.9,11.6,21.4,11.2L21.4,11.2z M20.1,21.1
			c0.2,1.5,0.5,3.1,0.9,4.8c0.1,0.3,0.2,0.7,0.3,0.9c-0.5-0.3-0.9-0.7-1.4-1l0,0c-0.3-1.1-0.5-2.2-0.7-3.3l0,0l0,0v0v0v0l0,0l0,0
			l0-0.1v0v0l0,0l0,0v0v0v0l0,0v0v0v0l0,0l0,0v0v0v0v0l0,0v0v0v0l0,0l0,0l0,0v0v0v0l0-0.1l0,0l0,0l0,0v0v0v0l0,0l0,0v0v0v0l0-0.1
			l0,0l0,0v0v0v0l0,0v0l0,0l0,0l0,0l0,0L20.1,21.1L20.1,21.1L20.1,21.1z M22,29c0.2,0.6,0.4,1,0.6,1.6c-0.6-0.2-1-0.5-1.5-0.8
			c-0.2-0.6-0.4-1.1-0.6-1.8C21,28.4,21.5,28.7,22,29L22,29z M24.7,34.4c0,0.1,0.1,0.1,0.1,0.2c1.3,2,2.6,3,3.6,2.7
			c0.8-0.2,1.4-1.3,1.6-3.1c0.3,0,0.6,0,0.9-0.1c0.1,0,0.1,0,0.2,0c-0.3,2.3-1.1,3.9-2.5,4.2c-1.5,0.4-3.2-0.8-4.8-3.2
			c-0.2-0.3-0.4-0.6-0.6-0.9h0l0,0l0,0l0,0l0,0l0,0l0,0l0,0l0,0l0,0l0,0l0,0l0.1,0l0,0l0,0l0,0l0,0l0,0h0h0l0,0l0,0l0,0l0,0l0,0l0,0
			c0.1,0,0.1,0,0.2,0l0,0l0,0l0,0l0,0l0,0l0,0l0,0h0h0h0l0,0l0,0l0,0l0,0l0,0l0,0h0.1l0,0l0,0l0,0l0,0l0,0l0,0l0,0l0,0l0,0l0,0l0,0
			l0,0h0h0h0h0h0.1h0h0h0h0h0l0,0h0.1h0h0h0L24.7,34.4L24.7,34.4L24.7,34.4L24.7,34.4z M26,14c0.1,0.1,0.2,0.3,0.3,0.4
			c0.3,0.4,0.6,0.8,0.8,1.3l-0.1,0h0l-0.1,0h0l-0.1,0h0h-0.1h0h0l-0.1,0h0h0h0h0h0h0h-0.1l0,0l0,0h0h0h0h0h0l-0.1,0h0h0h0h0h0l0,0
			h-0.1h0h0h0h0h0h0c-0.1-0.2-0.2-0.3-0.3-0.5L25,14.9C25.5,14.7,25.8,14.4,26,14z"/>
		<path fill="#00000B" d="M23.6,14c0.3,0.1,0.5,0.2,0.8,0.1c0.3-0.1,0.5-0.2,0.6-0.5c0.1-0.3,0.2-0.5,0.1-0.8
			c-0.1-0.3-0.2-0.5-0.5-0.6c-0.3-0.1-0.5-0.2-0.8-0.1s-0.5,0.2-0.6,0.5c-0.1,0.3-0.2,0.5-0.1,0.8S23.3,13.8,23.6,14L23.6,14z
			 M24.6,15c-0.5,0.1-1,0.1-1.5-0.2c-0.5-0.3-0.8-0.7-0.9-1.2c-0.1-0.5-0.1-1,0.2-1.5c0.3-0.5,0.7-0.8,1.2-0.9
			c0.5-0.1,1-0.1,1.5,0.2c0.5,0.3,0.8,0.7,0.9,1.2c0.1,0.5,0.1,1-0.2,1.5C25.5,14.5,25,14.8,24.6,15z"/>
		<path fill="#00000B" d="M23.6,14c0.3,0.1,0.5,0.2,0.8,0.1c0.3-0.1,0.5-0.2,0.6-0.5c0.1-0.3,0.2-0.5,0.1-0.8
			c-0.1-0.3-0.2-0.5-0.5-0.6c-0.3-0.1-0.5-0.2-0.8-0.1s-0.5,0.2-0.6,0.5c-0.1,0.3-0.2,0.5-0.1,0.8S23.3,13.8,23.6,14L23.6,14z
			 M24.6,15c-0.5,0.1-1,0.1-1.5-0.2c-0.5-0.3-0.8-0.7-0.9-1.2c-0.1-0.5-0.1-1,0.2-1.5c0.3-0.5,0.7-0.8,1.2-0.9
			c0.5-0.1,1-0.1,1.5,0.2c0.5,0.3,0.8,0.7,0.9,1.2c0.1,0.5,0.1,1-0.2,1.5C25.5,14.5,25,14.8,24.6,15z"/>
		<path fill="#00000B" d="M38.5,28.4L38.5,28.4c-0.2,0.8-0.7,1.3-1.5,1.7c-0.3,0.1-0.5,0.3-0.8,0.4c-0.2-0.3-0.4-0.6-0.6-0.9
			c0.3-0.1,0.5-0.2,0.7-0.2c0.6-0.3,0.9-0.6,1.1-0.9c0.1,0,0.1,0,0.2,0c0.4,0,0.7-0.1,0.9-0.3C38.6,28.2,38.5,28.3,38.5,28.4
			L38.5,28.4L38.5,28.4z M36.5,25.9c-0.5-0.5-1.1-1-1.8-1.5c-0.1-0.1-0.2-0.2-0.4-0.2c0-0.5-0.1-0.9-0.2-1.3l0.1,0
			c0.4,0.2,0.7,0.5,1,0.7c0.8,0.6,1.6,1.2,2.1,1.8C37,25.4,36.7,25.6,36.5,25.9L36.5,25.9z M33,31c-0.2,0-0.5,0-0.8,0h-0.2
			c0.3-0.3,0.6-0.7,0.8-1c0.1,0,0.2,0,0.3,0C33.2,30.3,33.1,30.7,33,31z"/>
		<path fill="#00000B" d="M33.4,29.2c0.3,1.2,0.1,2.1-0.5,2.3c-0.2,0.1-0.9,0.2-1.2,0.2c1,0.2,2.2,0.4,2.1-0.8
			C33.9,30.4,33.7,29.8,33.4,29.2z"/>
		<path fill="#00000B" d="M37.3,27.4c0.2,0.1,0.3,0.1,0.5,0.1s0.3-0.2,0.4-0.3c0.1-0.2,0.1-0.3,0.1-0.5c0-0.2-0.2-0.3-0.3-0.4
			c-0.2-0.1-0.3-0.1-0.5-0.1s-0.3,0.2-0.4,0.3C37,26.7,37,26.9,37,27.1C37,27.2,37.1,27.3,37.3,27.4L37.3,27.4z M37.9,28.1
			c-0.3,0.1-0.6,0-0.9-0.1c-0.3-0.2-0.5-0.4-0.6-0.8c-0.1-0.3,0-0.6,0.1-0.9c0.2-0.3,0.4-0.5,0.8-0.6c0.3-0.1,0.6,0,0.9,0.1
			c0.3,0.2,0.5,0.4,0.6,0.8c0.1,0.3,0,0.6-0.1,0.9C38.5,27.8,38.2,28,37.9,28.1z"/>
		<g>
			<path fill="#00000B" d="M14.6,19c0.1,0,0.2,0.1,0.3,0c0.1,0,0.2-0.1,0.2-0.2c0-0.1,0.1-0.2,0-0.3c0-0.1-0.1-0.2-0.2-0.2
				c-0.1,0-0.2-0.1-0.3,0c-0.1,0-0.2,0.1-0.2,0.2c0,0.1-0.1,0.2,0,0.3C14.5,18.9,14.6,19,14.6,19L14.6,19z M15,19.4
				c-0.2,0-0.4,0-0.5-0.1c-0.2-0.1-0.3-0.3-0.3-0.4c0-0.2,0-0.4,0.1-0.5c0.1-0.2,0.3-0.3,0.4-0.3c0.2,0,0.4,0,0.5,0.1
				s0.3,0.3,0.3,0.4c0,0.2,0,0.4-0.1,0.5C15.3,19.2,15.2,19.4,15,19.4z"/>
			<path fill="#00000B" d="M24.8,16c4.9,0,8.9,4,8.9,8.9c0,2.9-1.4,5.5-3.6,7.2c1.8,0.7,3.4,1,4.2,0.5c0.8-0.5,0.8-2.1-0.2-4.5
				c3.1,4.3,3.4,5.3,2.8,6.1c-1.9,2.6-17.6-6.6-20.8-10.6c-0.8-0.9-1.5-2.2-1.7-3.2c-0.1-0.4-0.1-0.7,0-1c0,0,0,0,0.1,0
				c0.1,0.1,0.2,0.1,0.3,0.1c0,0.2,0,0.5,0,0.8c0.1,0.4,0.2,0.7,0.4,1.1c0.3,0.6,0.6,1.1,1,1.6C17,19,20.6,16,24.8,16L24.8,16z
				 M15.6,18.4c0,0,0,0.1,0.1,0.1c0,0,0,0,0,0.1c0.6-0.1,1.3,0.1,2,0.2C17.1,18.6,16.3,18.3,15.6,18.4L15.6,18.4z M27.6,31
				c2.3-1,3.9-3.4,3.9-6.1c0-3.7-3-6.7-6.7-6.7s-6.7,3-6.7,6.7V25C20.1,26.6,24,29.2,27.6,31L27.6,31z M17.1,23.2
				c0.1,0,0.1,0.1,0.2,0.1c0.7-3.5,3.8-6.2,7.5-6.2c4.2,0,7.7,3.5,7.7,7.7c0,2.6-1.3,4.9-3.3,6.3c0.1,0,0.1,0.1,0.2,0.1
				c2.1-1.5,3.3-3.8,3.3-6.5c0-4.4-3.5-7.9-7.9-7.9C21.1,17,17.9,19.7,17.1,23.2L17.1,23.2z M25.2,32.8c-0.1-0.1-0.2-0.1-0.4-0.2
				c-3.6,0-6.7-2.5-7.5-6c-0.1-0.1-0.2-0.2-0.3-0.3c0.7,3.7,3.9,6.5,7.8,6.5C25,32.8,25.1,32.8,25.2,32.8L25.2,32.8z M28,33.2
				c-0.1-0.1-0.2-0.1-0.3-0.2c-0.9-0.5-1.8-0.9-2.7-1.5c-0.1,0-0.2,0-0.3,0c-3.3,0-6-2.3-6.6-5.5c-1-0.9-1.8-1.8-2.2-2.4
				c-0.1,0.4-0.1,0.8-0.1,1.2c0,4.9,4,8.9,8.9,8.9C26,33.8,27,33.6,28,33.2z"/>
		</g>
	</g>
</g>
</svg>
