<?xml version="1.0" encoding="utf-8"?>
<!DOCTYPE svg PUBLIC "-//W3C//DTD SVG 1.1//EN" "http://www.w3.org/Graphics/SVG/1.1/DTD/svg11.dtd">
<svg version="1.1" id="Layer_1" xmlns="http://www.w3.org/2000/svg" xmlns:xlink="http://www.w3.org/1999/xlink" x="0px" y="0px"
	 viewBox="0 0 50 50" enable-background="new 0 0 50 50" xml:space="preserve">
<g>
	<path fill="#00000B" d="M42.6,22.2c0.8-0.5,1.6-1,2.3-1.6L32.4,21c0,0.1,0,0.2,0,0.3L42.6,22.2L42.6,22.2z M7,22.2
		c-0.8-0.5-1.6-1-2.3-1.6L17.3,21c0,0.1,0,0.2,0,0.3L7,22.2L7,22.2z M19.7,26.8c-0.8-0.1-1.6-0.3-2.3-0.4l1.4-1.1
		c0.3,0.5,0.7,0.9,1.1,1.2L19.7,26.8L19.7,26.8z M16.3,26.1l2.1-1.3c-0.3-0.4-0.5-0.9-0.7-1.3L13,25.1
		C14.1,25.5,15.1,25.8,16.3,26.1L16.3,26.1z M11.7,24.6l5.9-1.8c-0.1-0.2-0.1-0.5-0.2-0.7c0-0.1-0.1-0.2-0.1-0.4l-9.1,1.1
		C9.4,23.5,10.5,24.1,11.7,24.6L11.7,24.6z M29.9,26.8c0.8-0.1,1.6-0.3,2.3-0.4l-1.4-1.1c-0.3,0.5-0.7,0.9-1.1,1.2L29.9,26.8
		L29.9,26.8z M33.3,26.1l-2.1-1.3c0.3-0.4,0.5-0.9,0.7-1.3l4.8,1.7C35.6,25.5,34.5,25.8,33.3,26.1L33.3,26.1z M37.9,24.6L32,22.8
		c0.1-0.2,0.1-0.5,0.2-0.7c0-0.1,0.1-0.2,0.1-0.4l9.1,1.1C40.2,23.5,39.1,24.1,37.9,24.6z"/>
	<path fill="#00000B" d="M27,26.2c0.1,0,0.1-0.1,0.2-0.1c0.3-0.1,0.7-0.2,0.9-0.4c0.4-0.2,0.7-0.4,1-0.7c0.2-0.2,0.4-0.4,0.6-0.6
		c0.2-0.2,0.4-0.5,0.5-0.7l0,0l0,0c0.3-0.7,0.5-1.7,0.6-2.4c0.1-0.8,0-1.7-0.2-2.4c6.2-0.4,12.4-0.9,18.5-1.3
		c-0.8,0.9-1.7,1.7-2.6,2.5l-14.7,0.5V21c0,3.9-3.2,7.1-7.1,7.1s-7.1-3.2-7.1-7.1v-0.3L3,20.1c-0.9-0.8-1.8-1.6-2.6-2.5
		c6.1,0.4,12.2,0.9,18.2,1.3c0,0.2-0.1,0.4-0.1,0.6c-0.2,1.1-0.1,2.3,0.2,3.5c0.1,0.5,0.5,1.7,1.2,1.7c0.2,0,0.4,0,0.6-0.1
		c0.7,0.8,1.6,1.5,2.6,1.8c0,0,0.1,0.1,0.1,0.1c0.3,0.2,0.6,0.3,0.9,0.3h1.7c0.3,0,0.5-0.1,0.7-0.2C26.7,26.5,26.8,26.4,27,26.2z"/>
	<path fill="#00000B" d="M24.6,14.7c-1.5,0-2.7,0.4-3.6,1v1.1c0,0,0,0,0.1-0.1c0.1-0.4,0.3-0.7,0.7-0.8c0.3-0.1,0.8-0.2,1.2-0.2
		c0.5-0.1,1-0.2,1.6-0.2h0c1.3,0,2.5,0.4,3.4,1.1c1.1,0.9,1.4,1.8,1.4,3.2h-0.2c-0.4,0-0.7,0.1-0.9,0.3c-0.2,0.2-0.4,0.4-0.4,0.7
		v2.6c0,0.3,0.1,0.5,0.4,0.7c0,0,0.1,0.1,0.1,0.1c-0.2,0.2-0.4,0.4-0.7,0.5c-0.4,0.2-0.8,0.4-1.2,0.6l-0.1,0l-0.1-0.1
		c-0.1-0.1-0.2-0.2-0.4-0.2s-0.3-0.1-0.4-0.1h-1.7c-0.3,0-0.6,0.1-0.8,0.3c-0.2,0.1-0.3,0.3-0.3,0.6v0c0,0.2,0.1,0.4,0.3,0.6
		c0.2,0.2,0.5,0.3,0.8,0.3h1.7c0.2,0,0.4-0.1,0.6-0.1c0.2-0.1,0.3-0.2,0.4-0.4l0-0.1l0.1,0c0.4-0.1,0.8-0.3,1.1-0.5
		c0.4-0.2,0.7-0.4,1-0.6c0.2-0.2,0.4-0.4,0.6-0.6c0.2-0.1,0.3-0.3,0.5-0.6l0,0l0,0C31.1,21.5,31.2,14.7,24.6,14.7L24.6,14.7
		L24.6,14.7z M19.6,17.3c-1.7,2.9-0.6,7.1,0.3,7.1c0.2,0,0.3,0,0.5-0.1c-0.2-0.2-0.3-0.5-0.5-0.7l0-0.1v-0.1c0-0.3,0.1-0.5,0.2-0.8
		c-0.3-0.4-0.3-0.9-0.3-1.3c-0.1-0.1-0.2-0.3-0.2-0.4L19.6,17.3L19.6,17.3z"/>
	<path fill="#00000B" d="M28.2,19.4c-0.1-0.3-0.2-0.5-0.2-0.6c0-0.1-0.1-0.1-0.2-0.2c-0.7-0.2-5.4-0.1-6,0c-0.5,0-0.6,0.2-0.4,0.2
		l3.2,0l0.2,1.9h-3.3c0,0,0.2,0.4,0.3,0.4c0.1,0,4.3,0,6,0v1.9c0,0-0.1,0-0.1,0l0,0c-0.3,0-0.5,0.2-0.5,0.5s0.2,0.5,0.5,0.5
		c0.1,0,0.1,0,0.2,0c0.1,0.1,0.1,0.3,0.3,0.4c-0.1,0.1-0.2,0.2-0.4,0.3c-0.3,0.2-0.6,0.4-0.9,0.5l0.1-2c0-0.1-0.1-0.3-0.3-0.3
		l-2-0.4l-2.1,0.3c-0.1,0-0.3,0.1-0.3,0.2l0.1,2.9c-0.9-0.5-1.8-1.2-2.3-2.2c0-0.2,0.1-0.6,0.2-0.8c-0.3-0.3-0.3-0.8-0.3-1.4v-0.1
		c-0.1,0-0.2-0.1-0.2-0.2v-6.3c0-0.1,0.1-0.2,0.2-0.2h0.2c0-0.7,0-1.3,0-1.9h0.2c0,0.7,0,1.3,0,1.9h0.2c0.1,0,0.2,0.1,0.2,0.2v6.2
		c0,0,0,0.1,0,0.1c0,0.1-0.1,0.1-0.2,0.1l0,0v0.1c0,0.5,0,0.9,0.2,1.1c0.1-0.1,0.2-0.2,0.4-0.2c0.1,0,0.1-0.3,0.1-0.8V21
		c0-0.9,0-2.2,0.1-3.3c0.1-0.5,0.1-1.4,0.7-1.6c0.4-0.1,1.7-0.3,3-0.3c0.4,0,0.8,0,1.1,0c0.7,0.2,1.3,0.5,1.8,0.9
		c0.1,0.1,0.1,0.1,0.2,0.2c0,0.2,0.1,0.3,0.1,0.5C28.3,18.2,28.2,19,28.2,19.4L28.2,19.4z M28.5,19.7v-2.3c0.5,0.6,0.7,1.2,0.7,2.1
		C29,19.5,28.7,19.6,28.5,19.7L28.5,19.7z M28.5,15.5v-0.8c0-0.1,0.1-0.2,0.2-0.2h0.1c0-0.7,0-1.3,0-1.9H29c0,0.7,0,1.3,0,1.9h0.1
		c0.1,0,0.2,0.1,0.2,0.2v1.7C29.2,16,28.8,15.7,28.5,15.5L28.5,15.5z M26.5,24.7c0.1,0,0.2,0.1,0.3,0.2c0,0,0.1,0,0.1,0l0-1.9
		c0-0.2,0-0.3-0.2-0.3l-2-0.4v2.4h0.5l0.1-1.6l0.1,1.6h0.5l0.1-1.8l0.1,1.8c0.2,0,0.3,0,0.5,0.1l0.1-2L26.5,24.7L26.5,24.7z
		 M22.9,22.6l-0.1,2.8c0-0.1,0.1-0.3,0.2-0.4L22.9,22.6L22.9,22.6z M23.5,22.8l-0.1,2c0.1,0,0.1,0,0.2-0.1L23.5,22.8L23.5,22.8z
		 M24,23L24,24.6c0,0,0.1,0,0.1,0L24,23L24,23z M24.9,18.8L24.9,18.8l0.2,1.9h0.6l-0.2-1.9H24.9L24.9,18.8z M26.6,18.8L26.6,18.8
		l0.2,1.9h0.9l-0.2-1.9L26.6,18.8L26.6,18.8z M24.7,18.1L24.7,18.1c-1.5,0-2.7,0.1-2.7,0.1c0,0.1,1.2,0.1,2.7,0.1
		c1.5,0,2.7-0.1,2.7-0.1C27.4,18.2,26.2,18.1,24.7,18.1L24.7,18.1z M21.6,22.9L21.6,22.9c-0.3,0-0.5,0.2-0.5,0.5s0.2,0.5,0.5,0.5
		s0.5-0.2,0.5-0.5C22,23.1,21.8,22.9,21.6,22.9z"/>
	<rect x="25.6" y="24.8" fill="#00000B" width="0.1" height="0"/>
	<g>
		<path fill="#00000B" d="M9.1,27.3L9,27.2c-0.3-0.4-0.4-0.6-0.3-0.8c0.1-0.2,0.4-0.3,0.6-0.1c0.2,0.1,0.3,0.3,0.4,0.6l0.9-0.2
			c-0.1-0.6-0.4-0.9-0.8-1.2C9,25,8.2,25.2,7.8,25.9c-0.4,0.7-0.2,1.3,0.3,1.9L8.3,28c0.3,0.4,0.5,0.7,0.3,0.9
			c-0.1,0.3-0.5,0.3-0.8,0.1c-0.4-0.2-0.5-0.5-0.6-0.9l-0.9,0.1c0.1,0.6,0.4,1.1,1.1,1.5c0.8,0.5,1.7,0.4,2.1-0.4
			C9.9,28.6,9.7,28.1,9.1,27.3L9.1,27.3z M14.7,27.5L11,26.2l-0.3,0.9l1.4,0.5l-1.4,3.8l0.9,0.3l1.4-3.8l1.4,0.5L14.7,27.5
			L14.7,27.5z M17.7,28.3l0.9,5.3l-0.9-0.2l-0.1-0.5c-0.4,0.2-0.9,0.2-1.4,0.1s-0.9-0.4-1.2-0.7l-0.2,0.4l-0.9-0.2l3-4.4L17.7,28.3
			L17.7,28.3z M16.4,32.1c0.4,0.1,0.8,0,1-0.1l-0.3-1.9L17,29.3l-1.5,2.2C15.7,31.8,16,32,16.4,32.1L16.4,32.1z M22.3,32.7
			c0.4-0.4,0.6-0.9,0.7-1.5c0.1-1.2-0.8-2.3-2.1-2.5l-0.3,0l-0.3,0l-0.7-0.1l-0.4,5l1,0.1l0-0.4l0.3,0c0.4,0,0.7,0,1-0.2l0.3,0.7
			l0,0l1,0.1L22.3,32.7L22.3,32.7z M20.2,32.4l0.2-2.8l0.3,0c0.8,0.1,1.3,0.8,1.3,1.5c-0.1,0.8-0.8,1.3-1.5,1.3L20.2,32.4z"/>
		<path fill="#00000B" d="M29.9,33.7l0.2-1l0.5,0.9l1-0.2l1.2-5.2l-1,0.2L31.4,30L31,32.1l-1.1-2L29,28.8l-1,0.2l1.4,2.4l-0.2,1
			l-1.1-2L27.2,29l-1,0.2l2.6,4.6L29.9,33.7L29.9,33.7z M35.3,27.4l-0.9,0.3L34,33l0.9-0.3l0-0.4c0.5,0.1,0.9,0.1,1.4,0
			c0.5-0.2,0.9-0.4,1.2-0.8l0.3,0.3l0.9-0.3L35.3,27.4L35.3,27.4z M36.1,31.4c-0.4,0.1-0.7,0.1-1,0l0.2-2.7l0.5,0.6l1.2,1.4
			C36.8,31.1,36.5,31.3,36.1,31.4L36.1,31.4z M40.4,25.1l0.9-0.4l0.2,4.6l0.4,0.7L41,30.4l-0.4-0.7l-3.6-2.9l0.9-0.5l2.6,2.1
			L40.4,25.1z"/>
	</g>
	<path fill="#00000B" d="M19.5,37.3l0.2-1.9l0.5,0.1c0.2,0,0.3,0.1,0.4,0.2c0.1,0.1,0.1,0.2,0.1,0.4c0,0.1,0,0.2-0.1,0.2
		c-0.1,0.1-0.1,0.1-0.2,0.1c0.1,0,0.2,0.1,0.2,0.2c0,0.1,0.1,0.2,0.1,0.3c0,0.2-0.1,0.3-0.2,0.4c-0.1,0.1-0.3,0.1-0.4,0.1L19.5,37.3
		L19.5,37.3z M19.9,36.5l-0.1,0.7l0.3,0c0.1,0,0.2,0,0.2-0.1s0.1-0.1,0.1-0.2s0-0.2,0-0.3c0-0.1-0.1-0.1-0.2-0.1L19.9,36.5
		L19.9,36.5z M19.9,36.3l0.3,0c0.1,0,0.2,0,0.2-0.1c0.1,0,0.1-0.1,0.1-0.2s0-0.2-0.1-0.3c0-0.1-0.1-0.1-0.2-0.1l-0.3,0L19.9,36.3
		L19.9,36.3z M22.1,36.6l-0.7-0.1l-0.1,0.7l0.8,0.1l0,0.2L21,37.4l0.2-1.9l1.1,0.1l0,0.2l-0.8,0l-0.1,0.6l0.7,0.1V36.6L22.1,36.6z
		 M23.3,37.1c0-0.1,0-0.2-0.1-0.2c0-0.1-0.1-0.1-0.3-0.2c-0.2-0.1-0.3-0.1-0.4-0.2c-0.1-0.1-0.1-0.2-0.1-0.4c0-0.2,0.1-0.3,0.2-0.4
		c0.1-0.1,0.3-0.1,0.4-0.1c0.2,0,0.3,0.1,0.4,0.2c0.1,0.1,0.2,0.3,0.1,0.4l0,0h-0.3c0-0.1,0-0.2-0.1-0.3c-0.1-0.1-0.1-0.1-0.2-0.1
		c-0.1,0-0.2,0-0.2,0.1c-0.1,0.1-0.1,0.1-0.1,0.2c0,0.1,0,0.2,0.1,0.2c0.1,0.1,0.2,0.1,0.3,0.2c0.2,0.1,0.3,0.1,0.4,0.2
		s0.1,0.2,0.1,0.4c0,0.2-0.1,0.3-0.2,0.4c-0.1,0.1-0.3,0.1-0.4,0.1c-0.2,0-0.3-0.1-0.4-0.2c-0.1-0.1-0.2-0.3-0.2-0.4l0,0h0.3
		c0,0.1,0,0.2,0.1,0.3c0.1,0.1,0.2,0.1,0.3,0.1c0.1,0,0.2,0,0.2-0.1C23.2,37.3,23.3,37.2,23.3,37.1L23.3,37.1z M24.9,35.9h-0.5
		l0,1.7h-0.3l0-1.7h-0.5v-0.2l1.2,0V35.9L24.9,35.9z M26.9,37L26.9,37l0.2-1.4h0.3l-0.3,1.9h-0.3l-0.4-1.3l0,0l-0.3,1.4h-0.3
		l-0.5-1.9h0.3l0.3,1.4l0,0l0.3-1.4h0.2L26.9,37L26.9,37z M28.6,37L28,37.1l-0.1,0.5l-0.3,0l0.4-2l0.3,0l0.8,1.9l-0.3,0L28.6,37
		L28.6,37z M28,36.8l0.5,0L28.2,36l0,0L28,36.8L28,36.8z M29.6,36.4l-0.5-0.9l-0.3,0l0.7,1.1l0.1,0.7l0.3,0l-0.1-0.7l0.4-1.3h-0.3
		L29.6,36.4L29.6,36.4z"/>
</g>
</svg>
