<?xml version="1.0" encoding="utf-8"?>
<svg version="1.1" id="arseal_logo_hp" xmlns="http://www.w3.org/2000/svg" xmlns:xlink="http://www.w3.org/1999/xlink" x="0px" y="0px"
	 viewBox="0 0 50 50" enable-background="new 0 0 50 50" xml:space="preserve">
<path fill-rule="evenodd" clip-rule="evenodd" fill="#FFFFFF" d="M15.86123,23.93266c0.45798,0,0.92499-0.00539,1.40275-0.01619
	c0.47781-0.01078,0.93954-0.00349,1.38295,0.02158c0.44334,0.02507,0.85823,0.07934,1.24407,0.16227
	c0.38588,0.0829,0.71218,0.21462,0.97909,0.39483c0.27407,0.19474,0.4724,0.47787,0.59504,0.8493
	c0.12258,0.37142,0.13696,0.77352,0.04319,1.20618c-0.07929,0.36791-0.23254,0.67619-0.45974,0.92501
	c-0.22713,0.24887-0.485,0.45259-0.7735,0.61128c0.38947,0.4832,0.77715,0.96635,1.16299,1.44959l0.47202,0.59185
	c-0.9347-0.1375-1.85197-0.33948-2.74642-0.60239c-0.256-0.33011-0.50936-0.65116-0.76022-0.96309h-0.6707
	c-0.00539,0.15843-0.00944,0.31811-0.01228,0.47905c-0.12019-0.04534-0.24008-0.09153-0.35917-0.13921
	c0.00044-0.23374,0.00525-0.46606,0.01443-0.69686h0.31378c-0.00724-0.09917-0.00539-0.19109,0.00539-0.27589
	c0.0108-0.08473,0.01263-0.16227,0.00539-0.23254c0.05048,0.05588,0.10456,0.10821,0.16229,0.15331
	c0.05772,0.04684,0.10462,0.10816,0.14066,0.1857c0.05772,0.01437,0.09378,0.03241,0.10821,0.05223
	c0.00724,0.02167,0.01437,0.0433,0.02161,0.06496c0.00719,0.01982,0.01443,0.03784,0.02167,0.05223h0.42188
	c-0.00724-0.01978-0.027-0.05223-0.05947-0.09553c-0.03255-0.0451-0.04154-0.0451-0.02706-0.0018
	c-0.09378-0.08653-0.17492-0.18396-0.24343-0.29211c-0.0685-0.10819-0.14964-0.20552-0.24342-0.29204
	c-0.10095-0.00724-0.21117-0.00884-0.3281-0.0055c-0.11705,0.00344-0.22366-0.00174-0.31922-0.01619
	c-0.02343,0.08654-0.03426,0.17846-0.03426,0.27589c0,0.09731,0,0.19648,0,0.29745c0,0.10101-0.00373,0.19852-0.01078,0.2921
	c-0.00699,0.09363-0.02167,0.17672-0.04325,0.24887c0.01443,0.07211,0.02522,0.14427,0.03246,0.21637l0.00403,0.04599
	c-0.49379-0.19909-0.97873-0.41739-1.45378-0.65417v-4.24924C15.85035,23.95428,15.854,23.9399,15.86123,23.93266L15.86123,23.93266
	z M43.6821,29.91765h-0.17721c-0.0077,0.02368-0.01703,0.04725-0.02842,0.07095c-0.02308-0.01968-0.03581-0.04298-0.03815-0.07095
	h-0.06995c0.00109,0.1112,0.01198,0.22555,0.03234,0.3432c-0.00713,0.02167-0.01976,0.03969-0.03778,0.05408
	c-0.01807,0.01443-0.01984,0.03969-0.00539,0.07574c0.0577,0.02156,0.12811,0.02855,0.21096,0.02156
	c0.08269-0.00699,0.16409-0.00349,0.24337,0.01089c0.02161,0.01443,0.03046,0.00879,0.02702-0.01628
	c-0.00335-0.02501,0.00183-0.03421,0.01628-0.027c0.03604-0.0072,0.06336-0.00525,0.08113,0.00539
	c0.01788,0.01059,0.0451,0.01622,0.08114,0.01622c0.02158,0.00729,0.03246,0.0018,0.03246-0.01622
	c0-0.01804,0.00713-0.03061,0.02161-0.03786c0.05767-0.00713,0.10486-0.00343,0.14066,0.01078
	c0.0359,0.01423,0.0793,0.01804,0.12979,0.01089c-0.00721-0.01443-0.01984-0.02167-0.03786-0.02167
	s-0.03067-0.00713-0.03785-0.02167c0.00719-0.01439,0.02158-0.02158,0.04324-0.02158s0.02526-0.01448,0.01089-0.04328
	c0.12972-0.01444,0.24541-0.01064,0.34614,0.01078c0.10076,0.02142,0.20911,0.02526,0.32456,0.01089
	c-0.00724-0.01443-0.00515-0.02547,0.00539-0.03246c0.01064-0.00698,0.01981-0.01089,0.02705-0.01089
	c0.00726,0,0.0129-0.00194,0.01624-0.00539c0.00338-0.00335-0.00185-0.00898-0.01624-0.01622
	c0.00726-0.02158,0.01644-0.02681,0.02702-0.01617c0.01053,0.01059,0.02346,0.01617,0.03785,0.01617
	c0.02167-0.02885,0.04693-0.04325,0.07575-0.04325c0.0288,0,0.05797,0.00555,0.08652,0.01619
	c0.02877,0.01062,0.05957,0.02172,0.09193,0.0325c0.03236,0.01078,0.06311,0.00904,0.09202-0.00544
	c-0.01437-0.02885-0.04719-0.03944-0.09741-0.03245c-0.05029,0.00698-0.0829,0-0.09732-0.02168
	c0.03609-0.01437,0.07574-0.02156,0.11899-0.02156c0.0433,0,0.08653,0,0.12983,0c0.04324,0.00719,0.08293,0.01982,0.11899,0.03784
	c0.03606,0.01804,0.07215,0.02882,0.10821,0.03606c-0.00724,0.04333-0.03091,0.05392-0.07035,0.03246
	c-0.03946-0.02144-0.07391-0.01804-0.10271,0.01087c0.16583,0.01439,0.33915,0.00875,0.51919-0.01628
	c0.18006-0.0251,0.35343-0.02706,0.51931-0.00539c0.00724,0.04325,0.01263,0.09014,0.01627,0.14427
	c0.00359,0.05406-0.00539,0.09731-0.02707,0.13337c0,0.00724,0.00735,0.00879,0.02168,0.00539
	c0.01413-0.00335,0.02156,0.00185,0.02156,0.01628c-0.01442,0-0.02341,0.01078-0.02705,0.03067
	c-0.00354,0.02156,0.00185,0.02156,0.01627,0c0.00724,0,0.01078,0.0018,0.01078,0.00539c0,0.00365,0.0036,0.00539,0.01089,0.00539
	c0.00715,0.05049-0.00549,0.0739-0.03794,0.07035c-0.03241-0.00354-0.05947-0.01263-0.08114-0.02707
	c-0.00715,0.02887-0.0108,0.05228-0.0108,0.07391c0,0.02167-0.00724,0.03969-0.02167,0.05413
	c-0.03606,0.00724-0.06866,0.00698-0.09732,0c-0.02861-0.0071-0.06132-0.0108-0.09736-0.0108
	c-0.01443,0-0.02167,0.00354-0.02167,0.0108c0,0.00724,0.00724,0.00724,0.02167,0c0.03604,0.00724,0.06496,0.01272,0.08652,0.01622
	c0.02158,0.00354,0.0433,0.00904,0.06496,0.01617c0.02158,0,0.03241,0.00729,0.03241,0.02531
	c0,0.01804,0.00719,0.03056,0.02167,0.0378h0.49768v-0.77889H43.6821V29.91765L43.6821,29.91765z M46.5056,30.35815
	c0.02167,0,0.03255,0.00724,0.03255,0.02168C46.51649,30.37984,46.5056,30.37263,46.5056,30.35815L46.5056,30.35815z
	 M45.28314,30.26085c-0.01443-0.00724-0.03445-0.0071-0.05947,0c-0.02507,0.00699-0.03786,0.00365-0.03786-0.0108
	c0.01437,0,0.03261-0.0021,0.05408-0.00548C45.26132,30.24122,45.27599,30.2464,45.28314,30.26085L45.28314,30.26085z
	 M28.74024,23.93266c0.8583,0.0064,1.7165,0.00724,2.57479,0c0.85828-0.00729,1.71285-0.00365,2.56389,0.01078v1.48216h-3.29961
	v1.11425c0.49768,0.01443,1.00451,0.01777,1.52,0.01078c0.51547-0.00699,1.02962-0.00713,1.54168,0
	c0.01439,0.23079,0.01954,0.47441,0.01619,0.73033c-0.0034,0.2557-0.00541,0.50667-0.00541,0.75183h-3.06157
	c-0.01437,0.2596-0.01788,0.5286-0.01089,0.80597c0.00699,0.27748,0.00729,0.5535,0,0.82763
	c0.53922,0.02163,1.08929,0.02678,1.64988,0.01619c0.5605-0.01064,1.11062-0.00541,1.64973,0.01622v1.47133h-5.14947v-7.20507
	C28.72946,23.94344,28.73396,23.93266,28.74024,23.93266L28.74024,23.93266z M29.43261,24.3113
	c0.06491,0,0.10456-0.00724,0.11899-0.02163C29.49398,24.28967,29.45429,24.29691,29.43261,24.3113L29.43261,24.3113z
	 M30.67673,24.28967c-0.07934-0.01443-0.11339-0.01418-0.1028,0C30.58457,24.3039,30.61903,24.30406,30.67673,24.28967
	L30.67673,24.28967z M31.08784,24.28967c-0.02161,0-0.05043-0.0018-0.08653-0.00539
	c-0.03606-0.00365-0.06132,0.00174-0.07576,0.01619c0.03611,0,0.06676,0.00188,0.09193,0.00544
	C31.04271,24.30945,31.06623,24.30406,31.08784,24.28967L31.08784,24.28967z M31.72613,24.28967
	c-0.02891,0-0.05966-0.00204-0.09192-0.00539c-0.03225-0.00349-0.05593,0.00174-0.07035,0.01619
	c0.02167,0.01448,0.04899,0.01783,0.08113,0.01083C31.67724,24.30431,31.70451,24.29691,31.72613,24.28967L31.72613,24.28967z
	 M31.99662,24.32208c0.06486,0,0.12988,0.00185,0.19474,0.00539c0.06486,0.00354,0.11535-0.00898,0.15138-0.0378
	c-0.0577,0-0.12109-0.00379-0.18929-0.01078C32.08511,24.27184,32.03267,24.28602,31.99662,24.32208L31.99662,24.32208z
	 M33.14332,24.5673c-0.01437-0.02158-0.01976-0.02158-0.01622,0c0.00359,0.01987,0.01263,0.03067,0.02702,0.03067
	c0,0.01443-0.0074,0.01962-0.02158,0.01628c-0.01434-0.0034-0.02161-0.00185-0.02161,0.00539
	c0.02161,0.03604,0.03065,0.07928,0.027,0.13336c-0.00359,0.05408-0.00898,0.10102-0.01622,0.14425
	c-0.16593,0.02168-0.33925,0.01973-0.51929-0.00539c-0.18011-0.02501-0.35343-0.03065-0.51926-0.01628
	c0.02882,0.02891,0.06327,0.0323,0.10271,0.01089c0.03944-0.02147,0.06311-0.01089,0.07035,0.03246
	c-0.03606,0.00724-0.0721,0.01802-0.10816,0.03604c-0.03609,0.01804-0.0758,0.03067-0.11899,0.03786c-0.04333,0-0.08653,0-0.12988,0
	c-0.04319,0-0.08288-0.00719-0.11894-0.02158c0.01437-0.02167,0.04698-0.02866,0.09732-0.02167
	c0.05018,0.00699,0.08298-0.00365,0.09736-0.03245c-0.02885-0.01448-0.05961-0.01624-0.09197-0.00544
	c-0.03236,0.01078-0.06322,0.02186-0.09193,0.0325c-0.02855,0.01064-0.05771,0.01617-0.08652,0.01617
	c-0.02885,0-0.05413-0.01443-0.0758-0.04323c-0.01438,0-0.02727,0.00558-0.0378,0.01617
	c-0.01064,0.01064-0.01982,0.00539-0.02706-0.01617c0.01443-0.00724,0.01962-0.01289,0.01628-0.01624
	c-0.0034-0.00349-0.00904-0.00539-0.01628-0.00539c-0.00724,0-0.01644-0.00389-0.02707-0.01089
	c-0.01053-0.00699-0.01263-0.01802-0.00539-0.03245c-0.1154-0.01439-0.2238-0.01053-0.32456,0.01089
	c-0.10067,0.02142-0.21637,0.02515-0.34614,0.01078c0.01443-0.02882,0.0108-0.0433-0.01089-0.0433
	c-0.02161,0-0.03604-0.00719-0.04319-0.02156c0.00715-0.01453,0.01978-0.02168,0.0378-0.02168s0.0307-0.00724,0.03786-0.02167
	c-0.05049-0.00713-0.09387-0.00335-0.12977,0.01089c-0.03581,0.01423-0.083,0.01793-0.14062,0.01078
	c-0.01448-0.00724-0.02167-0.01982-0.02167-0.03784s-0.01089-0.02352-0.03246-0.01628c-0.03604,0-0.06326,0.00569-0.08114,0.01628
	c-0.01777,0.01064-0.04504,0.01258-0.08113,0.00539c-0.01439,0.00719-0.01962-0.00199-0.01622-0.02706
	c0.00344-0.02503-0.00541-0.03067-0.02707-0.01624c-0.07928,0.01439-0.16068,0.01788-0.24337,0.01083
	c-0.08279-0.00698-0.15323,0-0.21096,0.02158c-0.01443,0.03609-0.01263,0.06137,0.00539,0.0758
	c0.01802,0.01438,0.03065,0.03241,0.03786,0.05408c-0.02158,0.12443-0.03246,0.24522-0.03246,0.36242
	c0.03606-0.01443,0.05408,0.00539,0.05408,0.06132c0,0.05587,0.00724,0.09921,0.02167,0.12803
	c0.01443-0.05234,0.01423-0.10486,0-0.1569c-0.01418-0.05207-0.00365-0.09197,0.03246-0.12264
	c0.04328,0.09019,0.05922,0.18052,0.04869,0.27229c-0.01064,0.09172-0.01983,0.1839-0.02707,0.27772
	c-0.00724,0.08652,0,0.17481,0.02167,0.26498c0.02168,0.09014,0.02882,0.17857,0.02168,0.26511
	c-0.00724,0.06486-0.02183,0.12996-0.04335,0.19468c-0.02137,0.06472-0.03241,0.12623-0.03241,0.18385
	c0,0.07215,0.01439,0.14076,0.04319,0.20562c0.02882,0.06486,0.04335,0.12982,0.04335,0.19474
	c0.07928-0.01443,0.15704-0.02915,0.23254-0.04333c0.0755-0.01423,0.15329-0.02882,0.23263-0.04319
	c0.03611,0.01437,0.06872,0.01413,0.09732,0c0.02866-0.01423,0.04694-0.01802,0.05413-0.01089
	c-0.01443-0.01443-0.04684-0.01982-0.09732-0.01619c-0.05048,0.00365-0.10305,0.0092-0.15688,0.01619
	c-0.05394,0.00699-0.10476,0.01288-0.15146,0.01628c-0.04668,0.00345-0.07395-0.00539-0.08113-0.02706v-1.8283h3.29961v-0.77891
	h-0.49768c-0.01448,0.00724-0.02161,0.01978-0.02161,0.0378c0,0.01804-0.01089,0.02528-0.03247,0.02528
	c-0.02167,0.00719-0.04338,0.01268-0.06496,0.01617c-0.02156,0.00354-0.05047,0.00904-0.08652,0.01628
	c-0.01443-0.00724-0.02167-0.00724-0.02167,0c0,0.00724,0.00724,0.01078,0.02167,0.01078c0.03606,0,0.06875-0.00368,0.09741-0.01078
	c0.02863-0.00699,0.06128-0.00724,0.09732,0c0.01439,0.01443,0.02163,0.03246,0.02163,0.05413
	c0,0.02161,0.00363,0.04504,0.01078,0.07384c0.02167-0.01437,0.04873-0.02346,0.08119-0.027
	c0.03241-0.00356,0.04504,0.01987,0.03789,0.07035c-0.00724,0-0.01087,0.00174-0.01087,0.00539
	C33.15412,24.5655,33.15056,24.5673,33.14332,24.5673L33.14332,24.5673z M29.85455,24.67911
	c0.05767-0.01439,0.12808-0.01439,0.21098,0c0.08293,0.01443,0.14964,0.01078,0.20013-0.01078
	c0.03604,0,0.05408-0.00361,0.05408-0.01089c-0.03606-0.00715-0.07775-0.00699-0.12438,0
	c-0.04675,0.00698-0.09553,0.01089-0.14612,0.01089c-0.03604,0.00719-0.08307,0.00513-0.1406-0.0055
	c-0.05737-0.01059-0.07929,0.00904-0.06486,0.05956C29.84377,24.70077,29.84736,24.68634,29.85455,24.67911L29.85455,24.67911z
	 M33.04591,24.77652c0.02167,0,0.03255-0.00724,0.03255-0.02167C33.05679,24.75485,33.04591,24.76204,33.04591,24.77652
	L33.04591,24.77652z M29.89784,25.03613c-0.01443-0.02168-0.01962-0.05073-0.01628-0.08654
	c0.00338-0.0359-0.00176-0.06497-0.01619-0.08653c-0.03604,0.02156-0.04143,0.05771-0.01622,0.10819
	C29.87433,25.02168,29.8906,25.04326,29.89784,25.03613L29.89784,25.03613z M31.82345,24.87384
	c-0.01437,0.00724-0.03445,0.00708-0.05947,0c-0.02501-0.00699-0.03785-0.00365-0.03785,0.01078
	c0.01444,0,0.0326,0.0021,0.05413,0.0055C31.80162,24.89347,31.81631,24.88821,31.82345,24.87384L31.82345,24.87384z
	 M29.08649,25.31375v-0.08653c0.01443-0.01439,0.02156-0.04145,0.02156-0.08115c0-0.03969-0.01078-0.06312-0.03245-0.07025
	c0.00724,0.03606,0.00699,0.0777,0,0.12438C29.06861,25.24679,29.07201,25.28494,29.08649,25.31375L29.08649,25.31375z
	 M29.85455,25.17673c0-0.01437,0-0.03241,0-0.05408c0-0.02167-0.00354-0.02167-0.01078,0c0,0.01443,0,0.03245,0,0.05408
	C29.84377,25.1984,29.84736,25.1984,29.85455,25.17673L29.85455,25.17673z M29.08649,25.81502
	c0-0.02161,0.00539-0.04513,0.01617-0.07035c0.01078-0.02517,0.00539-0.0451-0.01617-0.05947
	c-0.00724,0.01437-0.01279,0.0363-0.01628,0.06496C29.06687,25.77882,29.07201,25.80065,29.08649,25.81502L29.08649,25.81502z
	 M32.10473,26.90766c-0.01439,0.00724-0.03616,0.00699-0.06488,0c-0.02856-0.00699-0.04682-0.00354-0.05412,0.01089
	c0.01443,0.01437,0.03809,0.02542,0.07035,0.03241C32.08829,26.95793,32.10473,26.9437,32.10473,26.90766L32.10473,26.90766z
	 M33.1217,26.91854c0.01437,0.07929,0.02161,0.16942,0.02161,0.27038c0,0.10102,0.0108,0.18755,0.03247,0.2597
	c0.01437-0.02167,0.02341-0.04143,0.02706-0.0595c0.00359-0.01804,0.01263-0.03067,0.02702-0.03791
	c-0.02882-0.03606-0.0341-0.08494-0.01624-0.14599c0.01779-0.06112,0.03426-0.11001,0.04869-0.14607
	c-0.00713,0.02882-0.00365,0.06491,0.01089,0.10821c-0.00724,0.08652-0.00534,0.13361,0.00539,0.1406
	c0.01053,0.00699,0.01263-0.02885,0.00539-0.10816c0-0.05047,0.00176-0.1028,0.00541-0.15693
	c0.00359-0.05408-0.0018-0.09917-0.01619-0.13521c-0.00724,0.01448-0.0343,0.01443-0.08113,0
	c-0.04689-0.01443-0.07755-0.01078-0.09202,0.01089H33.1217L33.1217,26.91854z M33.25153,27.61091
	c-0.07939-0.02167-0.16069-0.01962-0.24342,0.00539c-0.08269,0.02501-0.15329,0.01263-0.21101-0.03784
	c-0.04319,0.02156-0.09208,0.03035-0.14601,0.02695c-0.05381-0.00335-0.1065-0.00918-0.15683-0.01617
	c-0.05029-0.0071-0.09762-0.00884-0.14071-0.00539c-0.04305,0.00338-0.07566,0.02706-0.09732,0.0703
	c0.16592,0,0.33191,0.00564,0.49768,0.01622c0.16562,0.01064,0.34258,0.01263,0.53008,0.00539
	c0-0.03604,0.00201-0.07768,0.00541-0.12433c0.00344-0.04668-0.0018-0.08119-0.01619-0.10282
	c-0.01453,0.01439-0.01788,0.04169-0.01089,0.08115C33.2693,27.56926,33.26596,27.59648,33.25153,27.61091L33.25153,27.61091z
	 M32.0507,27.58924c-0.0145,0.00724-0.02887,0.00904-0.0433,0.00539c-0.01437-0.00359-0.02167,0.00185-0.02167,0.01628
	c0.01443-0.00724,0.02915-0.00884,0.04333-0.0055C32.0433,27.60881,32.0507,27.60367,32.0507,27.58924L32.0507,27.58924z
	 M30.25485,27.67577c0.02882,0,0.06852,0,0.11899,0c0.05043,0,0.10116,0.00196,0.15151,0.00539
	c0.05027,0.0034,0.09731,0.00541,0.1406,0.00541c0.04325,0,0.07569-0.00715,0.09732-0.02158
	c-0.09378,0-0.18047-0.00569-0.2596-0.01622c-0.07915-0.01064-0.16593-0.01268-0.2597-0.00539
	c-0.01439,0-0.02158,0.00713-0.02158,0.02161C30.23683,27.67941,30.24761,27.683,30.25485,27.67577L30.25485,27.67577z
	 M30.2224,27.93538c0-0.01439,0.0018-0.0378,0.00539-0.07027c0.00365-0.03245-0.00185-0.04145-0.01628-0.02706
	c0,0.01443-0.00174,0.03969-0.00539,0.07574C30.20253,27.94989,30.20792,27.95704,30.2224,27.93538L30.2224,27.93538z
	 M29.08649,28.70354c0.03604-0.08654,0.04668-0.18776,0.03245-0.30295c-0.01418-0.1152-0.02891-0.22355-0.04333-0.32456
	c0.00724,0.10101,0.00699,0.20753,0,0.31917C29.06861,28.50674,29.07201,28.6097,29.08649,28.70354L29.08649,28.70354z
	 M30.2224,28.55209c0.00719-0.00724,0.00879-0.01642,0.00539-0.027c-0.00344-0.01064-0.00898-0.00904-0.01628,0.00539
	c0,0.01437,0.00204,0.02542,0.00539,0.03241C30.22031,28.56997,30.2224,28.56651,30.2224,28.55209L30.2224,28.55209z
	 M30.08404,28.70354c0-0.00724,0.00204-0.01469,0.00539-0.02167c0.0034-0.00691,0.0092-0.00321,0.01619,0.01087
	c0.02131,0.04305,0.01628,0.09014-0.01619,0.14062c-0.03239,0.05049-0.0343,0.10456-0.00539,0.16227
	c0-0.04328,0.01078-0.06495,0.03246-0.06495c-0.00724,0.1371-0.01298,0.28706-0.01628,0.44894
	c-0.00329,0.16194-0.009,0.30839-0.01619,0.43816c0,0.02167,0.07854,0.0436,0.06801,0.06497
	c-0.01053,0.02131,0.0018,0.0396,0.03786,0.05411c0.03604,0.00715,0.05052-0.00548,0.04328-0.03794
	c-0.00724-0.03245-0.01078-0.05588-0.01078-0.07025c0.01443-0.20922,0.01443-0.41484,0-0.61673
	c-0.01437-0.20187-0.01448-0.39298,0-0.57332c-0.02167,0.01443-0.0325,0.00719-0.0325-0.02163
	c0-0.02885-0.00721-0.05412-0.02158-0.07575c-0.00724,0.01439-0.01263,0.04145-0.01628,0.08114
	C30.14846,28.66204,30.06956,28.68911,30.08404,28.70354L30.08404,28.70354z M32.48342,30.03419
	c-0.03606,0.00724-0.07595,0.00874-0.11899,0.00539c-0.04305-0.00349-0.07212,0.00185-0.08654,0.01624
	c0.03606-0.00724,0.07405-0.00874,0.1136-0.00541C32.43089,30.05382,32.46173,30.04858,32.48342,30.03419L32.48342,30.03419z
	 M33.41382,30.03419c-0.0145,0.05772-0.01962,0.10655-0.01629,0.14601c0.00351,0.03944,0.00541,0.08838,0.00541,0.1461
	c0-0.00724-0.00361-0.01089-0.0108-0.01089c-0.01437,0-0.02161,0.00729-0.02161,0.02167c0,0.01443,0.00359,0.02891,0.01078,0.04335
	c0.00715,0.01437,0.00724,0.02516,0,0.03239c-0.00719,0.02158-0.01617,0.03971-0.02697,0.05413
	c-0.01078,0.01437-0.01992,0.03606-0.02706,0.06486c0,0.03606,0.00713,0.09019,0.02158,0.16229
	c0,0.02167,0.00389,0.04703,0.01089,0.07574c0.00697,0.02855,0.02156,0.05049,0.04319,0.06491h0.06495
	c-0.00724-0.10821-0.00539-0.21276,0.00541-0.31373c0.01078-0.10097,0.01268-0.20198,0.00539-0.30295
	c0-0.02885,0.00204-0.06511,0.00539-0.10816c0.00349-0.04309-0.01263-0.06851-0.04869-0.07574H33.41382L33.41382,30.03419z
	 M37.09201,23.92186h1.89316c0.45444,1.21881,0.90892,2.42714,1.36311,3.62408c0.45419,1.19709,0.91236,2.40172,1.37395,3.61338
	c-0.32456,0.01439-0.65292,0.01783-0.98448,0.0108c-0.3316-0.00699-0.66351-0.00724-0.9952,0
	c-0.07939-0.25246-0.16419-0.50128-0.25431-0.7465c-0.09019-0.24517-0.17487-0.49404-0.2542-0.74646h-2.45575
	c-0.10102,0.23803-0.19294,0.48331-0.27587,0.73566c-0.0829,0.25237-0.17127,0.50484-0.26511,0.7573h-1.90394
	c0.46159-1.20444,0.91608-2.40551,1.36308-3.60252c0.44693-1.19704,0.90512-2.39811,1.3739-3.60255
	C37.07034,23.95068,37.07758,23.93625,37.09201,23.92186L37.09201,23.92186z M39.13726,25.09748
	c-0.01437-0.03609-0.35042-0.69071-0.35757-0.73755c-0.00719-0.04684-0.03245-0.07391-0.07574-0.08105
	c0.01437,0.03606-0.13747,0.0725-0.11983,0.1081C38.60174,24.42259,39.11564,25.06863,39.13726,25.09748L39.13726,25.09748z
	 M36.72336,25.92187c0.01448-0.03604,0.11175,0.01173,0.12218-0.0239c0.01034-0.03565,0.07465-0.3439,0.10356-0.3727
	c-0.01442,0-0.1059,0.077-0.1059,0.0626c0-0.01443-0.00729-0.01802-0.02167-0.01089c-0.00719,0.0433-0.02367,0.08325-0.04864,0.1191
	C36.74788,25.73188,36.70178,25.87859,36.72336,25.92187L36.72336,25.92187z M37.27597,28.25999
	c0.23793-0.00724,0.48135-0.00724,0.73017,0c0.24887,0.00724,0.48864,0.00359,0.71942-0.0108
	c-0.12983-0.33899-0.25075-0.68363-0.3624-1.0332c-0.11156-0.34963-0.23619-0.69053-0.37325-1.02228
	c-0.1154,0.35338-0.23455,0.69802-0.35697,1.03311C37.51055,27.56203,37.39131,27.90656,37.27597,28.25999L37.27597,28.25999z
	 M40.41325,28.7684c0-0.01443-0.00724-0.02882-0.02169-0.04325c0,0.01443-0.08034,0.02912-0.07344,0.04325
	C40.3251,28.78263,40.41325,28.78288,40.41325,28.7684L40.41325,28.7684z M40.46733,28.98251
	c0-0.01443-0.00724-0.11311-0.02163-0.12748c0,0.01437-0.08039,0.02915-0.07349,0.04319
	C40.37915,28.91241,40.46733,28.99694,40.46733,28.98251L40.46733,28.98251z M40.57552,29.12543
	c-0.00724-0.01444-0.01642-0.02732-0.027-0.03786c-0.01064-0.01059-0.02352-0.02341-0.03796-0.0378
	c-0.00713,0.02158-0.08424,0.04319-0.06261,0.06486C40.46962,29.13631,40.56828,29.13985,40.57552,29.12543L40.57552,29.12543z
	 M40.84591,29.83946c-0.03606-0.08652-0.07395-0.18396-0.11355-0.29206c-0.0396-0.1081-0.07754-0.20198-0.1136-0.28137
	c-0.00719-0.01437-0.01078-0.02882-0.01078-0.04319c0-0.01443-0.08614-0.02167-0.08968-0.02167
	c-0.00359,0-0.00544,0.00724-0.00544,0.02167c0.01448,0.10092-0.04066,0.20946,0.00234,0.32456
	C40.5581,29.66239,40.78105,29.76017,40.84591,29.83946L40.84591,29.83946z M36.89727,29.30936
	c0.22356,0.02163,0.46698,0.03241,0.73022,0.03241c0.26319,0,0.84731-0.00724,1.0781-0.02161
	c-0.01439-0.00719-0.02528-0.01443-0.03241-0.02158c-0.00729-0.00724-0.01807-0.01448-0.03246-0.02167
	c-0.12259,0.02167-0.60214-0.05182-0.76441-0.05182c-0.16229,0-0.30469-0.08424-0.42727-0.08424
	c0.01437-0.01444,0.03239-0.02168,0.05408-0.02168c0.02167,0,0.03604-0.01078,0.04323-0.03245
	c-0.10095-0.05043-0.20941-0.05912-0.3245-0.02702C37.10674,29.09187,36.99825,29.2877,36.89727,29.30936L36.89727,29.30936z
	 M36.33928,29.03493c-0.06486,0.12983-0.11779,0.51845-0.1569,0.65847c-0.039,0.14006-0.09916,0.26863-0.17846,0.38408
	c0,0.05762-0.00934,0.10846-0.02706,0.15139c-0.01777,0.043,0.05362,0.09384,0.04643,0.15156
	c-0.03606,0-0.05797,0.01103-0.06496,0.03239c-0.00689,0.02133,0.07166,0.04874,0.06812,0.08115
	c-0.00356,0.03245-0.09153,0.06491-0.09518,0.09731c-0.00359,0.03246,0.06445,0.05588,0.0356,0.07036
	c-0.04325,0.0072-0.09028,0.00514-0.14066-0.00544c-0.05024-0.01062-0.09368-0.00904-0.12977,0.00544
	c0.04323,0.02158,0.08487,0.02857,0.12438,0.02158c0.03944-0.00699,0.08478-0.00349,0.13527,0.01089
	c-0.01445,0.07928-0.05797,0.11339-0.12988,0.1028c-0.07196-0.01062-0.14416-0.00904-0.21631,0.00541
	c0.03611-0.01444,0.03405-0.02732-0.00544-0.03796c-0.03935-0.01059-0.06666-0.00898-0.08113,0.0055
	c0.02885,0-0.03372,0.01078-0.01933,0.03246c-0.11545,0-0.15015,0-0.27274,0c-0.12264,0-0.23444-0.01444-0.3354-0.04335
	c0-0.01438,0.00904-0.03065,0.02706-0.04869c0.01802-0.01802,0.01263-0.03419-0.01627-0.04864
	c-0.00714,0.03611-0.01978,0.06491-0.0378,0.08654c-0.01802,0.02167-0.11129,0.13478-0.11129,0.17081h1.24182
	c0.0793-0.25246,0.16254-0.58766,0.24882-0.83612c0.08619-0.24846,0.17671-0.49953,0.27039-0.75189
	c0.04333-0.00724,0.09018-0.00713,0.14066,0c0.05048,0.00719,0.09378,0.00354,0.12982-0.01083
	c-0.03604-0.01443-0.08288-0.10407-0.1406-0.10048C36.59074,29.22333,36.37537,29.04933,36.33928,29.03493L36.33928,29.03493z
	 M41.21383,30.83477c-0.02893-0.07939-0.05614-0.15533-0.08115-0.2272c-0.02501-0.07194-0.05232-0.14425-0.08114-0.21635
	c0.01438,0.03606,0.02368,0.07765,0.02706,0.12433c0.00345,0.0467,0.0074,0.09218,0.0108,0.13527
	c0.00343,0.04305,0.01437,0.08298,0.03239,0.11904C41.13982,30.80591,41.17052,30.82747,41.21383,30.83477L41.21383,30.83477z
	 M35.2096,30.69411c0.01443-0.01437,0.02915-0.12958,0.04328-0.17617c0.01418-0.04668,0.01444-0.06676,0-0.05961
	c-0.00724,0.00729-0.09866,0.10596-0.1059,0.12757c-0.00724,0.02167-0.01274,0.04335-0.01622,0.06491
	c-0.00354,0.02158,0.0771,0.03791,0.07346,0.04869S35.20245,30.70854,35.2096,30.69411L35.2096,30.69411z M42.18745,23.94344h1.8283
	c0.01443,0.94477,0.01982,1.89874,0.01628,2.8615c-0.00354,0.96276-0.00185,1.92386,0.00539,2.88308h3.26716v1.48211h-5.13879
	v-7.19418C42.16578,23.95428,42.17302,23.94344,42.18745,23.94344L42.18745,23.94344z M43.17876,24.36543h0.07576
	c0.01443,0.02156,0.02377,0.04893,0.02706,0.08114c0.0033,0.03211,0.01263,0.05582,0.02706,0.07025
	c0.01439-0.02167,0.01619-0.05049,0.00541-0.08653c-0.0108-0.03606-0.0018-0.05408,0.02705-0.05408
	c0.01437,0.0721,0.01943,0.15359,0.01617,0.24343c-0.00324,0.08982-0.00903,0.17127-0.01617,0.24342
	c0.04319,0.06486,0.05188,0.13736,0.027,0.2163c-0.02491,0.07906-0.03789,0.15864-0.03789,0.23803
	c0,0.05773,0.00759,0.11929,0.02166,0.18396c0.01404,0.06451,0.02528,0.13336,0.03241,0.20552
	c0.00724,0.17307,0.08932,0.35743,0.0789,0.55171c-0.0104,0.19435-0.00541,0.36067,0.01622,0.49768
	c-0.02163,0.01439-0.03067,0.03965-0.02702,0.07575c0.00359,0.03606,0.19195,0.05408,0.22799,0.05408v-2.58561
	c-0.0721-0.01444-0.37209-0.00685-0.39342,0.02161C43.26566,24.35065,43.22925,24.36543,43.17876,24.36543L43.17876,24.36543z
	 M43.57449,27.41617c-0.03606,0.03606-0.05003,0.10136-0.04324,0.19474c0.00675,0.09327,0.10231,0.50288,0.1167,0.55336
	c0.01443-0.1154,0.02346-0.58042,0.02706-0.72104c0.00365-0.14066-0.00898-0.2615-0.03789-0.36242
	c-0.02158,0.05764-0.10772,0.1136-0.08968,0.16768C43.56545,27.30257,43.57449,27.35845,43.57449,27.41617L43.57449,27.41617z
	 M42.56614,30.67473c-0.00719-0.00714-0.01653-0.00689-0.02706,0c-0.01064,0.00699-0.01628,0.09866-0.01628,0.1059
	c-0.00715,0.01444,0.00025,0.01603,0.02167,0.00539C42.5659,30.77549,42.57329,30.68187,42.56614,30.67473L42.56614,30.67473z
	 M43.13951,30.8131c0.02158-0.02167,0.21536-0.02697,0.24418-0.01619c0.02885,0.0108,0.05772,0.01619,0.08652,0.01619
	c-0.02156,0.01437-0.05618,0.1037-0.10271,0.10051c-0.04649-0.00329-0.2569-0.00185-0.29294,0.00539
	c-0.02169-0.01443-0.01984-0.1059,0.00539-0.1059C43.10522,30.8131,43.12503,30.8131,43.13951,30.8131L43.13951,30.8131z
	 M42.54448,30.83477c0.02167,0.01437,0.07425,0.09842,0.15688,0.08423c0.06297-0.01067,0.15331-0.06681,0.19585-0.09267
	c0.02248,0.01249,0.06056,0.01867,0.11409,0.01867c-0.01369-0.01363-0.05024-0.02087-0.1093-0.02156
	c0.01053-0.00639,0.01739-0.01034,0.01888-0.01034c-0.02892-0.01443-0.16569-0.01053-0.24119,0.01089
	C42.60419,30.84525,42.5589,30.84914,42.54448,30.83477L42.54448,30.83477z M28.00684,24.43029v1.63354
	c-0.04325-0.00724-0.09917-0.00539-0.16768,0.00539c-0.0685,0.0108-0.13162,0.00904-0.18924-0.00539
	c-0.05059-0.01437-0.10641-0.04689-0.16768-0.09736c-0.06127-0.05049-0.12084-0.09373-0.17857-0.12979
	c-0.16592-0.10101-0.34808-0.19474-0.54635-0.28126c-0.19824-0.08654-0.41649-0.15149-0.65447-0.19474
	c-0.12258-0.02163-0.25266-0.0363-0.38942-0.0433c-0.13687-0.00699-0.27235-0.00539-0.40571,0.00539
	c-0.13342,0.0108-0.2597,0.03067-0.37869,0.05947c-0.11899,0.02882-0.22179,0.06851-0.30834,0.1191
	c-0.10092,0.05049-0.19134,0.13002-0.27038,0.23793c-0.07909,0.10796-0.08663,0.24522-0.02163,0.41114
	c0.04319,0.1226,0.1499,0.21661,0.31908,0.28123c0.16927,0.06472,0.34797,0.11545,0.53557,0.15151
	c0.26684,0.05767,0.53209,0.112,0.79508,0.16222c0.26299,0.05029,0.5139,0.1155,0.75189,0.19479
	c0.23793,0.0793,0.45829,0.17876,0.65992,0.29745c0.20173,0.11885,0.37505,0.26874,0.5193,0.44896
	c0.29565,0.36065,0.41475,0.8186,0.35702,1.37399c-0.02167,0.25242-0.07964,0.47806-0.17307,0.67611
	c-0.09352,0.19808-0.21276,0.37688-0.35703,0.53557c-0.27407,0.28128-0.6295,0.50142-1.06567,0.65986
	c-0.43606,0.15838-0.9249,0.23804-1.46586,0.23804c-0.54811,0.00724-1.05858-0.04175-1.5308-0.14606
	c-0.47212-0.1043-0.91418-0.24702-1.32526-0.42738V28.909c0.05771,0.01453,0.11744,0.01429,0.17855,0
	c0.06102-0.01413,0.12109-0.01413,0.17846,0c0.05748,0.01429,0.12109,0.05084,0.18935,0.10821
	c0.06826,0.05748,0.13521,0.10821,0.20013,0.15149c0.15151,0.09384,0.31758,0.18415,0.49765,0.2705
	c0.18004,0.08628,0.37328,0.16053,0.57876,0.22179c0.20552,0.06121,0.42379,0.10271,0.65456,0.12433
	c0.23079,0.02168,0.47237,0.01444,0.72483-0.02161c0.16588-0.02882,0.3263-0.074,0.48135-0.13527
	c0.15505-0.06127,0.25785-0.16768,0.30834-0.31908c0.03606-0.10095,0.04694-0.19118,0.0325-0.27048
	c-0.01437-0.07929-0.04339-0.14964-0.08658-0.21091c-0.04325-0.06127-0.09937-0.11205-0.16773-0.15151
	c-0.06821-0.03944-0.13875-0.07025-0.21085-0.09192c-0.09384-0.03606-0.19299-0.06312-0.29756-0.08115
	c-0.10456-0.01802-0.20737-0.03784-0.30828-0.0595c-0.31737-0.06496-0.62231-0.13183-0.91418-0.20009
	c-0.2919-0.06835-0.559-0.15688-0.80058-0.26509c-0.24158-0.10821-0.45643-0.25086-0.64368-0.42727
	c-0.1873-0.17647-0.33171-0.40575-0.43277-0.68703c-0.07929-0.22359-0.12098-0.44015-0.12438-0.64912
	c-0.00335-0.20888,0.02008-0.40591,0.0703-0.58961c0.05029-0.18366,0.12468-0.35363,0.22176-0.50841
	c0.09716-0.1548,0.20761-0.28702,0.33-0.39488c0.24492-0.2161,0.55195-0.3987,0.91951-0.5463
	c0.36766-0.14765,0.7862-0.22905,1.25501-0.24343c0.57693-0.02887,1.08899,0.00898,1.53619,0.11355
	C27.16666,24.15081,27.59584,24.27889,28.00684,24.43029L28.00684,24.43029z M26.04877,24.30047
	c-0.00724-0.0072-0.02367-0.01284-0.04869-0.01619c-0.02496-0.00338-0.03784,0.00174-0.03784,0.01619
	c0.01443,0,0.02905,0.00384,0.04323,0.01083C26.01962,24.31824,26.03439,24.31495,26.04877,24.30047L26.04877,24.30047z
	 M24.57749,24.37621c0.05773-0.01443,0.11744-0.02373,0.17846-0.02707c0.06107-0.00338,0.11006-0.01982,0.14601-0.04867
	c-0.05762,0.00724-0.11735,0.01288-0.17846,0.01622C24.66249,24.32009,24.61355,24.3401,24.57749,24.37621L24.57749,24.37621z
	 M24.20969,24.44107c0.01439,0.01448,0.03432,0.01628,0.05947,0.0055c0.02522-0.01078,0.0451-0.02352,0.05952-0.03794
	C24.27095,24.40862,24.23127,24.41949,24.20969,24.44107L24.20969,24.44107z M23.63626,24.70077
	c0.03611,0,0.05977-0.00928,0.0703-0.02706c0.01059-0.01777,0.03432-0.01989,0.07035-0.00539l0.08654-0.08665
	C23.78416,24.60336,23.70841,24.64305,23.63626,24.70077L23.63626,24.70077z M27.29289,24.61425
	c-0.00724,0.01437-0.01263,0.03054-0.01628,0.04858c-0.00359,0.01807-0.01263,0.0343-0.027,0.04872
	c0.01437,0.00724,0.03629,0.01654,0.06486,0.02702c0.02866,0.01064,0.05052,0.00539,0.06496-0.01619
	c-0.01444,0-0.01962-0.01108-0.01629-0.0325c0.0034-0.02131,0.00185-0.0396-0.00539-0.05408
	c0.01444-0.01443,0.02732-0.01418,0.03786,0c0.01064,0.01423,0.01628,0.01448,0.01628,0
	c-0.01443-0.02156-0.03995-0.03985-0.07575-0.05413c-0.03585-0.01413-0.07215-0.01078-0.10821,0.01089
	C27.25685,24.59256,27.27847,24.59977,27.29289,24.61425L27.29289,24.61425z M27.50921,24.63581
	c0.00724-0.02156,0.0016-0.03035-0.01619-0.02706c-0.01777,0.0034-0.03065-0.00174-0.03784-0.01619
	C27.44794,24.62138,27.46596,24.63581,27.50921,24.63581L27.50921,24.63581z M27.48763,25.39314
	c-0.09377-0.01443-0.16077-0.05433-0.20023-0.11904c-0.03934-0.06465-0.10631-0.1046-0.20013-0.11899
	c-0.03606,0.02163-0.07774,0.02318-0.12433,0.00541c-0.0467-0.01779-0.07754-0.0451-0.09202-0.08115
	c0.01448,0.00724,0.02551,0.01289,0.0325,0.01624c0.00694,0.00338,0.01443-0.00541,0.02156-0.02702
	c-0.01437-0.01443-0.03424-0.01982-0.05947-0.01628c-0.02521,0.00354-0.03784-0.00904-0.03784-0.03786
	c0.04325-0.01437,0.08318-0.00874,0.11899,0.01628c0.03579,0.02498,0.06496,0.01983,0.08652-0.01628
	c-0.0288-0.02161-0.06151-0.0363-0.09732-0.04319c-0.0358-0.00699-0.07575-0.01453-0.11899-0.02167
	c-0.01448-0.01443-0.01622-0.02711-0.00544-0.03789c0.0108-0.0108,0.00185-0.01619-0.02706-0.01619
	c-0.02156,0-0.04169-0.00389-0.05947-0.01089c-0.01783-0.00689-0.03426-0.01078-0.04874-0.01078
	c0.00724,0.03606-0.01802,0.0396-0.07564,0.01078c-0.05762-0.0288-0.09741-0.03245-0.1191-0.01078
	c0.03611,0.02167,0.08843,0.03969,0.1569,0.05408c0.0685,0.01443,0.09921,0.03969,0.09197,0.07574
	c-0.1442-0.01437-0.28871-0.05258-0.43272-0.11355c-0.144-0.06112-0.2885-0.08478-0.43277-0.07036
	c-0.11535,0.00724-0.23104-0.00569-0.34612-0.03785c-0.1152-0.0322-0.23804-0.04143-0.36791-0.02706
	c-0.05762,0.03606-0.12639,0.0669-0.20548,0.09193c-0.07904,0.02501-0.16232,0.04508-0.24887,0.0595
	c-0.01437,0.01439-0.01053,0.02552,0.0108,0.03241c0.02142,0.00699,0.01453,0.01453-0.02158,0.02167
	c-0.09377,0.01444-0.17517,0.0363-0.24343,0.06488c-0.06826,0.02866-0.13546,0.06162-0.20012,0.09741
	c-0.06472,0.03579-0.13007,0.07414-0.19468,0.1136c-0.06472,0.03944-0.13712,0.07035-0.21642,0.09192
	c0,0.15151,0.00206,0.3014,0.00539,0.44905c0.0034,0.14751,0.02168,0.28302,0.05413,0.40561
	c0.03241,0.12259,0.08314,0.22391,0.1514,0.30295c0.06837,0.07909,0.16412,0.12982,0.28676,0.15149
	c-0.12264-0.05773-0.22179-0.16412-0.29754-0.31917c-0.07576-0.15503-0.10636-0.30469-0.09193-0.44894
	c0.01437-0.17307,0.07414-0.31762,0.17846-0.43277c0.10432-0.1151,0.24008-0.20941,0.40571-0.28128
	c0.16557-0.07189,0.34987-0.12082,0.55174-0.14605c0.20189-0.02517,0.40751-0.03424,0.61662-0.027
	c0.42553,0.02161,0.79899,0.0994,1.11969,0.23254c0.32068,0.13321,0.60045,0.27952,0.83848,0.43816v-0.95198
	c-0.03606,0-0.05957-0.00724-0.07035-0.02167c-0.01078-0.01439-0.02707-0.02528-0.04874-0.03246
	c-0.01437,0.05772-0.01968,0.10821-0.01617,0.15145c0.00354,0.04325,0.0018,0.09377-0.00544,0.15149c0,0.02882,0,0.06126,0,0.09732
	c0,0.03604-0.01798,0.05773-0.05403,0.06497c0-0.00724-0.0021-0.0129-0.0055-0.01628
	c-0.00324-0.00335-0.00539,0.0018-0.00539,0.01628c0.03609,0.01443,0.05022,0.05977,0.04333,0.13516
	C27.48063,25.32253,27.48039,25.37147,27.48763,25.39314L27.48763,25.39314z M27.41188,24.80898
	c0-0.02168,0.00564-0.03995,0.01622-0.05413c0.01053-0.01413,0.0018-0.02526-0.027-0.03246
	C27.38657,24.74396,27.39022,24.77287,27.41188,24.80898L27.41188,24.80898z M24.32868,26.70212
	c0.02882,0.00724,0.05609,0.02008,0.08115,0.03786c0.02491,0.01777,0.05223,0.01987,0.08114,0.00539
	c-0.03611,0-0.06162-0.00928-0.07575-0.02695c-0.01418-0.01779-0.03611-0.03431-0.06491-0.04869
	c0,0.00713-0.0037,0.01263-0.01083,0.01617C24.33227,26.6894,24.32868,26.69488,24.32868,26.70212L24.32868,26.70212z
	 M24.75056,26.82111c-0.04333-0.00713-0.05772-0.00354-0.04333,0.01089C24.72166,26.84639,24.73614,26.8428,24.75056,26.82111
	L24.75056,26.82111z M24.67482,27.96793c0.05773,0.01437,0.11904,0.03056,0.18396,0.04858
	c0.06486,0.01807,0.12258,0.02346,0.17307,0.01628c0.01437,0,0.03065-0.00724,0.04869-0.02167
	c0.01802-0.01439,0.01263-0.01804-0.01629-0.0108c-0.01437,0-0.05073-0.01288-0.10814-0.03789
	c-0.05742-0.02493-0.10097-0.03056-0.12979-0.01617c-0.03604-0.05049-0.07599-0.0737-0.11908-0.07037
	c-0.04295,0.0034-0.09008,0.00185-0.14062-0.00539c-0.0288,0-0.05972-0.00564-0.09192-0.01628
	c-0.03222-0.01053-0.06311-0.01976-0.09193-0.027c-0.09377-0.03601-0.1842-0.06692-0.27048-0.09193
	c-0.08628-0.02496-0.16948-0.05228-0.24881-0.08113c-0.00724-0.01443-0.00514-0.02547,0.00539-0.03246
	c0.01059-0.00699,0.00539-0.01078-0.01617-0.01078c-0.07941-0.03606-0.16414-0.06681-0.25422-0.09202
	c-0.09007-0.02517-0.15688-0.07027-0.20023-0.13518c0.01444-0.01448,0.02528-0.01437,0.03246,0
	c0.00713,0.01444,0.01448,0.01444,0.02167,0c-0.05049-0.03604-0.10661-0.06336-0.16772-0.08113
	c-0.06097-0.01777-0.10631-0.05593-0.13523-0.11365c0-0.01443,0.00196-0.02341,0.0055-0.02695
	c0.00354-0.00356,0.00539-0.01263,0.00539-0.02707c-0.02167-0.03604-0.04693-0.06312-0.07574-0.08114
	c-0.02885-0.01802-0.05049-0.04869-0.06491-0.09202c-0.02161-0.00715-0.03454-0.00514-0.03789,0.00539
	c-0.0034,0.01064-0.01263,0.00904-0.02707-0.00539c-0.01437-0.05762-0.04319-0.09732-0.08653-0.11894
	c0.05773,0.16586,0.1479,0.31013,0.27048,0.43277c0.12259,0.12258,0.265,0.22713,0.42727,0.31367
	c0.16229,0.08653,0.339,0.16053,0.53009,0.22179C24.28714,27.8723,24.48008,27.92458,24.67482,27.96793L24.67482,27.96793z
	 M25.08592,26.91854c-0.02882,0.00714-0.05612,0.00335-0.08115-0.01089c-0.02496-0.01413-0.04508-0.01443-0.05947,0
	c0.02163,0,0.04529,0.00749,0.07035,0.02167C25.04058,26.94345,25.06424,26.94016,25.08592,26.91854L25.08592,26.91854z
	 M25.89728,27.09161c-0.0793-0.02168-0.1805-0.04708-0.30294-0.07574c-0.12234-0.02857-0.22355-0.04325-0.30279-0.04325
	c0.08652,0.03604,0.18031,0.06127,0.28121,0.07564C25.67372,27.06269,25.78193,27.07717,25.89728,27.09161L25.89728,27.09161z
	 M26.31925,28.21675c-0.04328-0.05772-0.1049-0.10307-0.18394-0.13521c-0.07911-0.03231-0.16793-0.05438-0.26511-0.06502
	c-0.09706-0.01048-0.20013-0.01439-0.30828-0.01078c-0.10819,0.00363-0.20916,0.01268-0.30293,0.02706
	c0.03604,0.02882,0.08138,0.0358,0.13527,0.02167c0.05382-0.01423,0.08838,0,0.10275,0.04325
	c-0.04328,0.00724-0.09012,0.00359-0.1406-0.01078c0.01437,0.0288,0.03421,0.04143,0.05947,0.0378
	c0.02531-0.00361,0.04874-0.00176,0.07036,0.00539c0.16583,0.03604,0.33,0.07759,0.49219,0.12447
	c0.16218,0.04684,0.29391,0.10277,0.39491,0.16768c-0.02891-0.07215-0.07934-0.12449-0.15149-0.15688
	c-0.0721-0.03246-0.1406-0.06667-0.20551-0.10271c0.05767-0.02167,0.11024-0.01429,0.15683,0.02156
	C26.21985,28.22004,26.26867,28.23117,26.31925,28.21675L26.31925,28.21675z M27.85543,29.00643
	c-0.01443,0.03604-0.02905,0.07414-0.04333,0.1136c-0.01413,0.03944-0.00354,0.06671,0.03255,0.08113
	c-0.00724-0.05772,0.01083-0.12623,0.05408-0.20553c0.04325-0.07929,0.04684-0.15149,0.01078-0.21635
	c0,0.03606-0.00564,0.07414-0.01628,0.11355C27.8827,28.93227,27.86983,28.97038,27.85543,29.00643L27.85543,29.00643z
	 M27.58495,29.79612c0.00724-0.01439,0.01437-0.03056,0.02167-0.04858c0.00724-0.01804,0.01439-0.03432,0.02163-0.04874
	c-0.03606-0.00724-0.05048,0.00735-0.0433,0.04333c0.00713,0.03595-0.00719,0.04684-0.04325,0.03241
	c-0.00724-0.02161-0.00185-0.03965,0.01619-0.05408c0.01802-0.01443,0.01987-0.02891,0.00539-0.0433
	c-0.01439,0.02887-0.03432,0.05593-0.05947,0.08115c-0.02522,0.02515-0.02343,0.05233,0.00539,0.08113
	c-0.03601,0.02882-0.0703,0.05588-0.10271,0.08113c-0.03246,0.02528-0.05952,0.05588-0.08114,0.09193
	c0.01437,0,0.02542-0.00743,0.03239-0.02167c0.00699-0.01413,0.01804-0.00715,0.03246,0.02167
	c-0.03606,0.05049-0.07574,0.07574-0.11899,0.07574c-0.07934,0.10097-0.17881,0.18056-0.2975,0.23804
	c-0.11874,0.05737-0.23618,0.11899-0.35158,0.18385c0.00721,0.02891-0.02161,0.04335-0.08658,0.04335l0.0325-0.03246
	c-0.06495,0.00713-0.13007,0.02732-0.19474,0.05947c-0.0647,0.0322-0.12982,0.05588-0.19468,0.0703
	c-0.01453,0.00724-0.03971,0.01083-0.0758,0.01083c-0.0721,0-0.13521,0.00904-0.18929,0.02707
	c-0.05413,0.01802-0.11725,0.0306-0.18935,0.03784c-0.10097,0.01439-0.20551,0.01439-0.31373,0
	c-0.10816-0.01443-0.22361-0.01802-0.34624-0.01078c-0.0288-0.02891-0.06851-0.04154-0.11894-0.03794
	c-0.05049,0.00365-0.10095,0.0019-0.15144-0.00539c-0.07934,0-0.1569-0.009-0.23264-0.02702
	c-0.07575-0.01802-0.15329-0.02341-0.23254-0.01617c-0.07939,0-0.15329,0.01437-0.22179,0.04319
	c-0.0685,0.02885-0.14251,0.03969-0.22176,0.03245c0.02161,0.01443,0.05607,0.01603,0.10277,0.00539
	c0.04659-0.01053,0.07754,0.00185,0.09192,0.03791c-0.01438,0.01443-0.02915,0.01053-0.04328-0.01083
	c-0.01418-0.02133-0.02158-0.01444-0.02158,0.02161c0.02882-0.00714,0.05788-0.0015,0.08654,0.01628
	c0.02855,0.01777,0.05408,0.01619,0.07564-0.00539c-0.01437-0.01448-0.0325-0.01802-0.05408-0.01089
	c-0.02156,0.00719-0.03245-0.00359-0.03245-0.03241c0.04333-0.01443,0.07599-0.00877,0.09741,0.01624
	c0.02142,0.02496,0.05049,0.04508,0.08652,0.05952c0.05049,0.01437,0.10097,0.01617,0.15146,0.00539
	c0.05043-0.0108,0.10456-0.00904,0.16229,0.00539c0.02885,0,0.05433,0.00564,0.07574,0.01628
	c0.02137,0.01048,0.04684,0.01617,0.07574,0.01617c0.12259,0.01439,0.24697,0.02163,0.3732,0.02163s0.25056-0.00724,0.37325-0.02163
	c0.33175-0.01443,0.64209-0.07055,0.93035-0.16772c0.28827-0.09708,0.52645-0.21816,0.71405-0.36242
	c-0.03606-0.00713-0.0412-0.01828-0.01629-0.03241c0.02503-0.01418,0.03431-0.03245,0.02707-0.05413
	c0.0721-0.02161,0.13911-0.05972,0.20012-0.11353c0.06107-0.05388,0.10641-0.10647,0.13521-0.1569
	c0.00724-0.01443,0.00904-0.0343,0.0055-0.05952c-0.00354-0.02517,0.01254-0.04145,0.04858-0.04869
	c0.00729,0.02163,0.00365,0.04155-0.01078,0.05957c-0.01437,0.01802-0.01083,0.03056,0.01078,0.03786
	c0.02891-0.02887,0.05073-0.06336,0.06502-0.10282c0.01413-0.03944,0.04684-0.06311,0.09732-0.0703
	c0.03604-0.05043,0.06132-0.10456,0.07574-0.16229c0.01437-0.05771,0.03965-0.11179,0.07575-0.16227
	c-0.02891-0.02882-0.0358-0.06157-0.02167-0.09743c0.01418-0.03569,0.01802-0.06486,0.01078-0.08652
	c-0.02882,0.03609-0.05049,0.08113-0.06486,0.13527c-0.01443,0.05408-0.02732,0.10666-0.03796,0.1569
	c-0.01053,0.05022-0.02695,0.09731-0.04858,0.1406C27.6607,29.74213,27.62825,29.77454,27.58495,29.79612L27.58495,29.79612z
	 M27.18468,30.29381c0.0072-0.02158,0.02732-0.03986,0.05952-0.05413c0.03217-0.01413,0.04145-0.03241,0.02702-0.05397
	c-0.01437,0.02156-0.03631,0.04168-0.06486,0.05947C27.17771,30.26294,27.17031,30.27936,27.18468,30.29381L27.18468,30.29381z
	 M22.69508,30.30464c0.08653,0.02885,0.17871,0.06701,0.27587,0.11358c0.09708,0.04659,0.19294,0.08115,0.28667,0.10282
	c0.03606,0.00713,0.0796,0.01467,0.12982,0.02158c0.05024,0.00698,0.07215,0,0.06491-0.02158
	c0.01439-0.02167-0.0003-0.03456-0.04325-0.03789c-0.04304-0.0034-0.07575-0.00905-0.09741-0.01619
	c-0.01438-0.01453-0.02882-0.02716-0.04325-0.03794c-0.01437-0.0108-0.02885-0.02343-0.04328-0.0378
	c-0.05772-0.00729-0.10661-0.02191-0.14601-0.04335c-0.03944-0.02131-0.07754-0.04323-0.1136-0.06486
	c-0.03604-0.02167-0.07425-0.04175-0.1136-0.05952c-0.03944-0.01777-0.09202-0.027-0.15688-0.027V30.30464L22.69508,30.30464z
	 M23.85268,30.70489c0.00713-0.0288-0.01089-0.04325-0.05413-0.04325c-0.0433,0-0.0721,0.0072-0.08654,0.02158
	c0.02158,0.00729,0.04534,0.00879,0.07032,0.0055C23.80734,30.68537,23.831,30.69052,23.85268,30.70489L23.85268,30.70489z
	 M16.24706,24.77652c0.01443-0.00724,0.01628-0.02352,0.01078-0.04872c-0.00713-0.02528-0.00354-0.04145,0.00904-0.04869
	c0.01448,0.01443,0.01987,0.03969,0.01987,0.07574s0.01804,0.05762,0.05049,0.06491c-0.00724-0.05772-0.00523-0.112,0.00539-0.16232
	c0.01069-0.05029,0.009-0.09732-0.00539-0.14062c-0.01443,0.01443-0.02341,0.01443-0.02706,0
	c-0.00364-0.01443-0.00539-0.03245-0.00539-0.05408c0-0.02167,0-0.04325,0-0.06491c0-0.02161-0.00364-0.03239-0.01089-0.03239
	c-0.02882,0.0288-0.03225,0.06326-0.0108,0.1027c0.02152,0.03951,0.01444,0.07035-0.02161,0.09199
	c-0.03609-0.01439-0.05033-0.05062-0.04325-0.10816c0.00699-0.05757,0.00359-0.10462-0.01089-0.14066
	c0.10108-0.01439,0.16229,0.00719,0.18396,0.06491v-0.08654h-0.18396c0.00724,0.07925,0.0071,0.16784,0,0.26505
	C16.20036,24.65189,16.21285,24.72594,16.24706,24.77652L16.24706,24.77652z M16.20736,25.64195
	c0.02168-0.00724,0.03246-0.02341,0.03246-0.04869c0-0.02526,0.00359-0.04508,0.01089-0.0595
	c0.00713-0.07936,0.00174-0.15151-0.01628-0.21637c-0.01804-0.06486-0.02343-0.12988-0.01619-0.19473
	c0.00715-0.03606,0.01978-0.07036,0.03786-0.10282c0.01802-0.03239,0.01976-0.0666,0.00539-0.1027
	c-0.01443,0-0.02362-0.00566-0.02706-0.01624c-0.0034-0.01062-0.01619-0.01628-0.03786-0.01628L16.20736,25.64195L16.20736,25.64195
	z M19.32311,26.96173c0.12258-0.09368,0.21277-0.23085,0.27039-0.4111c0.05762-0.1802,0.0721-0.36416,0.0433-0.55165
	c-0.02163-0.18755-0.09757-0.32477-0.22715-0.4111c-0.12968-0.08638-0.28692-0.14444-0.47062-0.17307
	c-0.18374-0.02875-0.38403-0.04154-0.60043-0.03794c-0.21637,0.00365-0.42188,0.00539-0.61662,0.00539v1.78511
	c0.15138-0.00724,0.30293-0.00895,0.45433-0.00539c0.1514,0.00354,0.2977,0.00159,0.43816-0.0055
	c0.14046-0.00699,0.27244-0.02537,0.39486-0.05408C19.13172,27.07373,19.23659,27.0267,19.32311,26.96173L19.32311,26.96173z
	 M16.20736,26.19371c0-0.00724,0-0.02167,0-0.0433c0-0.02167-0.00354-0.02167-0.01078,0c-0.00724,0.02882-0.00724,0.04684,0,0.05408
	S16.20736,26.20809,16.20736,26.19371L16.20736,26.19371z M16.21824,26.58315c-0.01443-0.0433-0.01608-0.10117-0.00539-0.17312
	c0.01064-0.07196,0.00539-0.1154-0.01628-0.12977c0.01443,0.05047,0.01614,0.11189,0.00539,0.18385
	C16.19138,26.53605,16.19658,26.57589,16.21824,26.58315L16.21824,26.58315z M17.28921,27.13489
	c0.01448,0.03601,0.02366,0.0722,0.02706,0.1081c0.00345,0.0359,0.01622,0.06137,0.03791,0.07576v-0.3786
	c0-0.05772,0.00194-0.11733,0.00539-0.17851c0.00344-0.06111-0.01987-0.10634-0.07036-0.13527
	c0.01448,0.02892,0.01971,0.06518,0.01628,0.10821c-0.00351,0.04314-0.0018,0.0829,0.00539,0.11899
	c0,0.03606,0.00555,0.07231,0.01622,0.10816c0.01064,0.0359-0.00185,0.06137-0.03789,0.07575
	c0.00724-0.07934,0.00185-0.15325-0.01619-0.22176c-0.01802-0.06851-0.02341-0.14599-0.01628-0.23257
	c-0.01438-0.00726-0.02896-0.01464-0.04319-0.02163c-0.01432-0.00708-0.02891-0.01802-0.04333-0.03245
	c0.01443,0.10095,0.03446,0.20391,0.05952,0.30834C17.25481,26.94176,17.27478,27.04113,17.28921,27.13489L17.28921,27.13489z
	 M21.03237,26.76705c0.02887-0.01444,0.05062-0.04705,0.06496-0.09732c0.01423-0.05034,0.01802-0.09019,0.01078-0.1191
	c-0.01443,0.03606-0.02901,0.07057-0.04333,0.10282C21.05055,26.6857,21.03961,26.72381,21.03237,26.76705L21.03237,26.76705z
	 M20.16688,27.75151c0.11545-0.06495,0.2219-0.1406,0.31922-0.22713c0.09732-0.08654,0.1857-0.16953,0.265-0.24881
	c-0.00721-0.03611,0.00199-0.06333,0.027-0.08115c0.02512-0.01788,0.0307-0.0343,0.01628-0.04872
	c-0.01437,0.01443-0.02341,0.03245-0.02706,0.05411c-0.00359,0.02163-0.02343,0.02882-0.05947,0.02163
	c0-0.01448,0.01094-0.02721,0.03245-0.03791c0.02147-0.01062,0.02163-0.02341,0-0.03784
	c-0.01443,0.0288-0.03245,0.04872-0.05411,0.05952c-0.02163,0.01078-0.02528,0.03424-0.01085,0.07035
	c-0.0288,0.02156-0.06851,0.04143-0.11899,0.05947c-0.05047,0.01802-0.07215,0.04508-0.06486,0.08113
	c0.00715-0.01448,0.01818-0.02367,0.03241-0.02706c0.01423-0.00345,0.02167,0.00539,0.02167,0.02706
	c-0.02167,0.01443-0.04524,0.02901-0.07036,0.04325c-0.02501,0.01423-0.05947,0.02161-0.1028,0.02161
	c-0.01439,0.01443-0.01804,0.02167-0.0108,0.02167s0.0108,0.0108,0.0108,0.03246c-0.10092,0.05049-0.20393,0.10835-0.3083,0.17307
	c-0.10441,0.06481-0.19653,0.12623-0.27587,0.18395c-0.00719,0.00714-0.01823,0.01277-0.03245,0.01617
	c-0.01423,0.00345-0.01444,0.01263,0,0.02702c0.06495-0.01439,0.13176-0.03976,0.20013-0.07566
	C20.02432,27.82382,20.09478,27.78762,20.16688,27.75151L20.16688,27.75151z M16.23982,27.48103
	c-0.01443-0.0288-0.01443-0.06317,0-0.10277c0.01437-0.03958,0.00359-0.0595-0.03246-0.0595
	c0.00724,0.02891,0.00884,0.05966,0.0055,0.09192C16.20942,27.44303,16.21824,27.46666,16.23982,27.48103L16.23982,27.48103z
	 M16.21824,27.75151c-0.00724-0.01437-0.00883-0.02905-0.00539-0.04328C16.2162,27.694,16.211,27.683,16.19658,27.67577
	c0.00724,0.01443,0.00724,0.03246,0,0.05413C16.18933,27.75151,16.19658,27.75871,16.21824,27.75151L16.21824,27.75151z
	 M20.39408,28.85503c-0.04325-0.03606-0.08309-0.08318-0.11899-0.14071c-0.0359-0.05748-0.0721-0.09373-0.10821-0.1081
	c0.04335,0.02882,0.0777,0.07765,0.10282,0.14601C20.29471,28.82058,20.33646,28.85503,20.39408,28.85503L20.39408,28.85503z
	 M20.58882,29.10385c-0.02167-0.01448-0.04339-0.04169-0.06491-0.08113c-0.02147-0.03955-0.03971-0.05598-0.05408-0.04869
	c0.01437,0.02161,0.03246,0.05043,0.05408,0.08653C20.54557,29.09661,20.56715,29.11098,20.58882,29.10385L20.58882,29.10385z
	 M20.67534,29.15787c-0.01443-0.01443-0.02901-0.0326-0.04323-0.05403c-0.01423-0.02147-0.02528-0.02167-0.03246,0
	c0.01443,0.02158,0.03076,0.03974,0.04864,0.05403c0.01788,0.01434,0.0343,0.03252,0.04869,0.05408
	c0.00729,0.00724,0.00719,0.01448,0,0.02167c-0.00715,0.00715-0.01078,0.01439-0.01078,0.02163
	c0.00719,0.01443,0.01628,0.01982,0.02706,0.01628c0.01078-0.00354,0.01982,0.0018,0.02706,0.01617
	c0,0.01443-0.00368,0.02528-0.01089,0.03246c-0.00714,0.00714-0.00354,0.01438,0.01089,0.02161
	c0.08654,0.07215,0.16229,0.16234,0.22715,0.27048c0.06491,0.10821,0.1479,0.18036,0.24882,0.21642
	c-0.08653-0.10108-0.17871-0.21297-0.27582-0.33536C20.84318,29.37079,20.7547,29.2589,20.67534,29.15787z"/>
<path fill-rule="evenodd" clip-rule="evenodd" fill="#FFFFFF" d="M7.65892,30.63594
	c1.73552-0.28152,2.90714-0.61109,4.49126-1.60185c-1.16933-0.48759-2.44582-1.11235-3.96002-1.91232
	C7.85969,28.36086,7.71479,29.44609,7.65892,30.63594L7.65892,30.63594z M14.6111,29.90333
	c-2.12053,1.04109-4.48277,1.665-6.9803,1.76332l-0.00555,0.00025c-0.22944,0.009-0.45999,0.01358-0.69161,0.01358
	c-1.44272,0-2.84418-0.17561-4.18488-0.50601c0.07714-3.94015,1.38943-7.76356,3.5626-10.71558l0.0044,0.008
	c3.19948,5.46284,8.78302,9.3596,15.32357,10.26139c-2.51192-0.04444-4.59941-0.19814-7.02798-0.82485L14.6111,29.90333z"/>
</svg>
