<?xml version="1.0" encoding="utf-8"?>
<!DOCTYPE svg PUBLIC "-//W3C//DTD SVG 1.1//EN" "http://www.w3.org/Graphics/SVG/1.1/DTD/svg11.dtd">
<svg version="1.1" id="Layer_1" xmlns="http://www.w3.org/2000/svg" xmlns:xlink="http://www.w3.org/1999/xlink" x="0px" y="0px"
	 viewBox="0 0 50 50" enable-background="new 0 0 50 50" xml:space="preserve">
<g>
	<g>
		<path fill="#00000B" d="M18.6,36L18.6,36c0,0.1,0.1,0.2,0.1,0.3c0,0.1,0,0.1,0.1,0.2c0,0,0.1-0.4,0.3-0.5c0,0,0,0.1,0,0.1
			c0.1-0.1,0.1-0.2,0.2-0.2c0.1,0.1-0.1,0.3-0.2,0.3c0,0.1,0.1,0.3,0.1,0.4c0,0,0,0,0,0l0.1,0.2c0,0.1,0.1,0.2,0.1,0.2
			c0,0,0.3-0.7,0.3-0.8l0-0.1c0,0,0,0,0.1,0.1c0,0,0,0.1,0.1,0.1l0-0.1c0.1-0.4,0.2-0.8,0.1-1.1c0,0.1,0,0.2-0.1,0.3
			c-0.1-0.1,0-0.1,0-0.2l0.1-0.1c0-0.1,0-0.2-0.1-0.3c0,0,0-0.1,0-0.1c0-0.1,0-0.1-0.1-0.1c-0.5,0.1-0.5,0-0.9,0v0l0,0v0.1
			c0,0.1,0,0.1,0,0.2c0,0.1,0,0.2-0.1,0.3c0,0.1,0,0.1-0.1,0.2c-0.1,0.3-0.2,0.4-0.2,0.4c0,0-0.2,0.2-0.2,0.2c0.1,0,0.2,0,0.3,0
			L18.6,36L18.6,36z M19.3,35.6c0-0.1,0-0.1,0-0.2C19.4,35.4,19.3,35.6,19.3,35.6L19.3,35.6z M19.6,35.7c0.1,0.1,0.1,0.1,0.1,0.2
			C19.6,35.9,19.6,35.8,19.6,35.7C19.5,35.8,19.5,35.8,19.6,35.7z"/>
		<path fill="#00000B" d="M19.3,29c0.1,0,0,0.2,0.1,0.6c0.1,0.2,0.2,0.4,0.2,0.6V30c0,0,0-0.1-0.1-0.1c0,0,0.1,0,0.1,0l0-0.3
			c0-0.2,0-0.3,0-0.5c0-0.1-0.1-0.3-0.1-0.8c0-0.1,0-0.2,0-0.3l-0.1,0l0,0l0,0c0-0.1-0.1-0.1-0.2-0.2c0,0,0,0,0-0.1c0,0,0,0,0,0v0h0
			c0,0-0.1,0-0.1,0c0,0,0-0.1,0-0.1c0,0-0.1-0.1-0.2,0c0,0,0.1-0.1,0.1-0.1c0.1,0,0.1,0,0.2,0.1c0,0,0,0,0.1,0c0,0-0.1-0.1-0.1-0.1
			c0-0.1-0.1-0.1-0.1-0.2c0,0,0-0.1-0.1-0.1c-0.1,0.1-0.2,0.1-0.3,0c0,0,0.1,0,0.1,0c0,0,0-0.1,0-0.1l0,0c0,0-0.1-0.1-0.1-0.1
			c0,0,0-0.1-0.1-0.1c0,0,0,0-0.1,0l0,0l0,0h0l0,0.1l0-0.1c0,0.1,0,0.1,0,0.1l0,0.1c-0.1,0-0.1,0.2,0,0.5c0,0,0.1,0,0.1-0.1
			c0.1,0.1,0,0.1,0,0.2c0.1,0,0,0.1,0.1,0.1c0,0-0.1,0.2-0.1,0.1c0-0.1,0-0.1,0-0.2h0c0,0.1,0,0.3,0,0.4c0,0,0,0,0,0
			c0,0,0,0.1,0,0.1c0,0.1,0,0.3,0,0.4c-0.1,0.7,0.3,1.1,0.6,1.8c0.1,0.2,0.1,0.3,0.1,0.5c0.1,0.2,0.1,0.3,0.2,0.5
			c0.1,0.1,0.2,0.3,0.3,0.4c0,0,0.2-0.3,0.1-0.4l0,0l0-0.1c0,0,0,0,0-0.1c0-0.2,0-0.3,0-0.4c0-0.7-0.4-1.1-0.5-1.7
			C19.2,29.2,19.2,29,19.3,29L19.3,29z M18.8,28.3C18.8,28.3,18.8,28.3,18.8,28.3c0,0.1,0,0.1-0.1,0.2
			C18.7,28.4,18.7,28.3,18.8,28.3L18.8,28.3z M18.8,28c0,0.1-0.2,0.1-0.2,0.1c0.1-0.1,0.1-0.2,0.1-0.2c0.1,0,0.1,0,0.2,0l0,0l0,0
			c0,0,0,0,0.1,0C19,28,18.8,28.1,18.8,28L18.8,28z M19.4,30.2c0,0,0-0.1,0.1-0.2C19.5,30.1,19.4,30.2,19.4,30.2
			C19.4,30.3,19.5,30.2,19.4,30.2L19.4,30.2z M19.3,31c-0.1-0.1-0.1-0.2-0.2-0.3c0.1-0.1,0-0.1,0-0.1c0.1-0.1,0.1-0.2,0.2-0.1
			c0,0-0.1,0.1-0.1,0.1c0.1,0,0.1,0,0.2,0c0-0.1,0-0.1,0-0.2c0.1,0.1,0.1,0.3,0.1,0.4c-0.1,0-0.1-0.1-0.1-0.1c0,0-0.1,0-0.1,0.1
			C19.3,30.9,19.4,30.9,19.3,31C19.4,31,19.4,31,19.3,31L19.3,31z M19.1,30C19.1,29.9,19.1,29.9,19.1,30c0.1-0.1,0.1-0.1,0.2-0.1
			C19.2,29.9,19.2,29.9,19.1,30L19.1,30c0.1,0,0.1,0.1,0.1,0.1C19.1,30.1,19.1,30,19.1,30C19.1,30,19.1,30,19.1,30L19.1,30z
			 M19.2,30.4c-0.1,0-0.1-0.1-0.1-0.1c0,0,0.1,0,0.1,0C19.3,30.2,19.2,30.3,19.2,30.4C19.3,30.3,19.3,30.3,19.2,30.4z"/>
		<path fill="#00000B" d="M18.9,31.3C18.9,31.3,18.9,31.3,18.9,31.3C18.9,31.3,18.9,31.3,18.9,31.3L18.9,31.3z M19,31.4
			C19,31.4,19.1,31.4,19,31.4c0.1,0.1,0.1,0.2,0,0.2C19.1,31.5,19,31.5,19,31.4L19,31.4z M18.5,30.4C18.5,30.4,18.4,30.3,18.5,30.4
			C18.5,30.3,18.5,30.4,18.5,30.4C18.5,30.4,18.5,30.4,18.5,30.4L18.5,30.4z M19.6,32.4L19.6,32.4L19.6,32.4L19.6,32.4L19.6,32.4
			L19.6,32.4z M19.6,32.4L19.6,32.4L19.6,32.4L19.6,32.4z M19.8,33.1L19.8,33.1C19.9,33.1,19.9,33,19.8,33.1c0-0.1,0-0.2,0-0.2
			c-0.1-0.7-0.5-1-0.7-1.5C19.1,31.1,19,31,19,30.8c-0.1-0.4-0.2-0.6-0.4-1c-0.1-0.1-0.1-0.3-0.2-0.5c0,0.1-0.1,0.2-0.1,0.3
			c-0.1,0.1,0,1.3,0.1,1.5c0.1,0.4,0.3,0.8,0.5,1.1c0,0.1,0.1,0.1,0.1,0.2c0,0,0.1,0.2,0.1,0.2c0.1,0.2,0.1,0.4,0.2,0.6
			c0.1,0.1,0.3,0.3,0.4,0.3C19.8,33.5,19.9,33.2,19.8,33.1L19.8,33.1z"/>
		<path fill="#00000B" d="M19.3,33.6C19.4,33.6,19.3,33.6,19.3,33.6L19.3,33.6l0.3,0c-0.1-0.1-0.2-0.1-0.4-0.3
			c-0.2-0.2-0.1-0.3-0.2-0.5c0-0.1-0.5-0.9-0.5-0.9c-0.1,0.1-0.1,0.3-0.1,0.4c0,0.1,0,0.3,0,0.4c0,0.2,0.1,0.3,0.1,0.5
			c0,0.1,0.1,0.2,0.1,0.3c0.1,0.1,0.1,0.2,0.2,0.2C18.9,33.6,19.2,33.7,19.3,33.6z"/>
		<path fill="#00000B" d="M19.7,33.7c0.1,0,0.1,0.1,0.1,0.2c0,0,0,0,0,0c0,0,0,0,0,0c0,0,0,0.1,0,0.1c0,0,0,0,0,0c0,0,0,0,0,0
			c0,0.2-0.1,0.3-0.2,0.4c-0.2,0.1-0.7,0-0.9,0c-0.1,0-0.2-0.1-0.2-0.2c0-0.2-0.1-0.5,0-0.6C18.9,33.8,19.4,33.7,19.7,33.7
			L19.7,33.7z M19.3,34C19.3,34,19.3,34,19.3,34c-0.1,0.1,0,0.2,0,0.2c0,0,0,0,0.1,0C19.3,34.1,19.4,34.1,19.3,34L19.3,34z M19.5,34
			c-0.1,0.1-0.1,0.2-0.1,0.2c0.1,0,0,0,0.1,0C19.5,34.1,19.6,34,19.5,34L19.5,34z M18.6,33.7c0,0.1,0.1,0.2,0.1,0.1c0,0,0,0,0,0
			C18.8,33.7,18.7,33.7,18.6,33.7z"/>
	</g>
	<path fill="#00000B" d="M31.6,16.8c0-0.2-0.1-0.3-0.2-0.4l-0.1-0.1c-0.3,0.1-0.6,0.2-0.8,0.4C30.9,16.7,31.3,16.8,31.6,16.8
		L31.6,16.8z M28.9,15.9c0.1-0.1,0.1-0.1,0.1-0.2C29.1,15.9,29,16,28.9,15.9C29,16,29,16,28.9,15.9C29,15.9,28.9,15.9,28.9,15.9
		L28.9,15.9z M30.3,16.6c-0.5-0.1-0.9-0.1-1.2-0.1c-0.7,0-1.3,0.1-1.9,0.3c0-0.5,0.2-0.7,0.6-0.9c0,0.3-0.2,0.3-0.2,0.6
		c0.6-0.5,1.7-1.2,2.5-0.8l-1.2,0.8c0.2,0,0.8-0.3,1.1-0.5c0.2-0.1,0.4-0.2,0.7-0.2c0.3,0,0.4,0.1,0.6,0.3c-0.2,0.1-0.4,0.2-0.6,0.4
		C30.4,16.5,30.3,16.6,30.3,16.6z"/>
	<g>
		<path fill="#00000B" d="M31.4,40.1C31.4,40.1,31.4,40,31.4,40.1C31.4,40,31.4,40,31.4,40.1C31.4,40,31.4,40,31.4,40.1L31.4,40.1z
			 M31.3,39.9C31.4,39.9,31.4,39.9,31.3,39.9l0.1-0.1c0.1-0.2,0.1-0.4,0.1-0.6c0.1,0,0.3,0.1,0.4,0c-0.1-0.1-0.1-0.2-0.2-0.2l0,0
			c0,0-0.1,0-0.1,0c0,0,0.1-0.1,0.1-0.1c-0.5-0.8-0.2-0.8-0.5-1.4c-0.5,0.1-0.5,0.1-1.1,0.1c-0.1,0-0.5,1.2-0.1,2
			c0-0.1,0.1-0.2,0.2-0.2c0.1,0.2,0.4,1,0.5,1.1c0,0,0.1-0.1,0.1-0.2c0,0-0.1-0.1-0.1-0.1c0,0,0.1-0.1,0-0.1c0,0,0.1-0.1,0.1-0.1
			c0,0-0.1-0.1-0.1-0.1c0,0-0.1,0-0.1,0c0,0,0,0,0-0.1c0,0,0,0,0-0.1c0.1-0.1,0.1,0.1,0.3,0c0,0,0,0.1-0.1,0.2c0-0.1,0,0.1,0.1,0
			c0,0,0,0,0-0.1c0,0,0,0,0,0c0-0.1,0-0.2,0.1-0.3l0,0c0,0-0.1,0-0.1,0.1c-0.1,0-0.1,0-0.2,0c0-0.1,0.1,0,0.1,0c0,0,0,0,0.1,0l0,0
			l0,0c0,0,0,0,0.1-0.1c0-0.2,0.1-0.3,0.1-0.4C31.2,39.5,31.3,39.8,31.3,39.9L31.3,39.9z M30.9,40.2C30.9,40.3,30.9,40.3,30.9,40.2
			L30.9,40.2C30.9,40.3,30.9,40.2,30.9,40.2z"/>
		<path fill="#00000B" d="M30.1,32.6L30.1,32.6L30.1,32.6L30.1,32.6L30.1,32.6z M30.4,29.9c0.1-0.3,0.1-0.6,0.1-0.6
			c0-0.1,0.1-0.2,0.2-0.2c0.1-0.1,0.1-0.2,0.2-0.2c0.1-0.1,0.1-0.2,0.1-0.2c0.4-0.7,0.6,1.2,0.6,2.1c-0.1,0.1-0.2,0.3-0.3,0.3
			c-0.3,0-0.7-0.6-0.8-0.8C30.5,30.1,30.4,30,30.4,29.9L30.4,29.9z M30.8,33.5c0,0.1,0,0.2-0.1,0.2c-0.1,0.2-0.1,0.4-0.2,0.6
			c-0.1,0.1-0.2,0.3-0.3,0.4c-0.2-0.2-0.3-0.9-0.3-1.1c0-0.4,0.1-0.7,0.2-0.9c0.1,0.1,0.1,0.2,0.2,0.3
			C30.5,33.2,30.7,33.4,30.8,33.5z"/>
		<path fill="#00000B" d="M30,35.7c0.1-0.8,0.6-1.3,0.8-1.8c0.1-0.1,0.1-0.2,0.1-0.3c0.2,0.2,0.5,0.4,0.7,0.5
			c-0.1,0.4-0.4,0.7-0.6,1c0,0.1-0.1,0.1-0.1,0.2c0,0-0.1,0.2-0.1,0.2c-0.1,0.3-0.1,0.5-0.3,0.7c-0.1,0.1-0.3,0.3-0.5,0.3
			C30,36.4,30,35.9,30,35.7L30,35.7z M31.1,34c-0.1,0-0.1,0.1-0.1,0.2C31.1,34.1,31.1,34.1,31.1,34z"/>
		<path fill="#00000B" d="M30.6,36.7C30.6,36.7,30.6,36.7,30.6,36.7L30.6,36.7l-0.4,0c0.1-0.1,0.2-0.1,0.4-0.4
			c0.2-0.3,0.1-0.4,0.3-0.6c0.1-0.1,0.6-1,0.7-1.1c0.1,0.1,0.2,0.4,0.2,0.5c0,0.1,0,0.4,0,0.5c0,0.2-0.1,0.4-0.1,0.6
			c0,0.1-0.1,0.2-0.1,0.2c0,0-0.1-0.1-0.1-0.1c0,0.1,0.1,0.1,0.1,0.1h0c0,0,0,0.1,0,0.1v0c0,0,0,0-0.1,0l0,0c0,0.1-0.1,0.1-0.2,0.1
			C31.1,36.7,30.7,36.7,30.6,36.7z"/>
		<path fill="#00000B" d="M30.1,36.7c-0.2,0.1-0.3,0.8,0.1,1c0.3,0.1,0.8,0.1,1.1,0c0.1,0,0.2-0.1,0.2-0.3c0.1-0.2,0.1-0.6-0.1-0.7
			C31.1,36.8,30.5,36.8,30.1,36.7z"/>
	</g>
	<path fill="#00000B" d="M26.4,42.6c0-0.2-0.1-1.2-0.4-1.3c-0.1,0.4-0.4,1.5-0.6,1.8c-0.1-0.1-0.5-1.2-0.6-1.4l-0.1-0.2
		c0,0,0-0.1-0.2,0.1c-0.1,0.1-0.1,0.1-0.1,0.2l0-0.1c-0.3-0.8,0-1.7,0.3-2.5c0-0.1,0.1-0.1,0.1-0.2c0.1-0.2,0.1-0.2,0.1-0.2
		c0,0,0.1,0,0.1,0.1c0,0,0,0,0.1,0C25,39,25,39.1,24.9,39.3c-0.2,0.5-0.3,0.9,0,1c-0.1-0.3,0-0.6,0.1-0.9c0-0.2,0.1-0.4,0.2-0.6
		c0.1,0,0.1,0,0.2,0c0,0,0,0.1,0,0.1c0,0.3,0.1,0.7,0,1c0,0-0.1,0-0.1,0c0,0.1,0,0.1,0.1,0.1c0,0.3,0,0.6-0.1,0.8l0,0
		c-0.1,0.1,0,0.1,0,0.2c0,0-0.1,0-0.1,0.1c0,0,0,0.1,0,0.1c0.1,0,0.2-0.2,0.2-0.3c0.2-0.1,0.2-0.6,0.2-1c0-0.3-0.1-0.7-0.1-1
		c0,0,0-0.1,0-0.1h0c0,0,0,0.1,0,0.1c0-0.1,0.1-0.1,0.1-0.1l0,0c0.2,0,0.4,0,0.5-0.1c0,0,0.1,0,0.1,0l0,0.1c0,0,0,0,0,0l0,0.2
		c0.1,0.5,0.8,1.7,1.1,2.2c-0.2,0-0.4,0-0.5-0.1C26.6,41.5,26.6,42.3,26.4,42.6L26.4,42.6z M25.7,39.2
		C25.7,39.2,25.7,39.3,25.7,39.2c0,0.1-0.1,0.1,0,0.2c0.1,0,0.1,0,0.2-0.1C25.8,39.3,25.8,39.3,25.7,39.2
		C25.7,39.3,25.7,39.2,25.7,39.2L25.7,39.2z M25,40.4c0.1,0.1,0.2-0.1,0.2-0.2c0,0-0.1-0.1-0.1-0.1C25,40.2,25.1,40.3,25,40.4
		L25,40.4z M25.1,39c-0.1,0.1,0.2,0.2,0.2,0.1C25.2,39.1,25.2,39.1,25.1,39L25.1,39z M26.1,40C26.1,40.1,26.2,40,26.1,40
		c0.1,0,0.1,0,0.1-0.1c0,0,0,0,0.1,0c0,0,0,0.1,0,0.1c0,0,0.1,0,0.1,0c0-0.1,0-0.2-0.1-0.3C26.1,39.9,26.2,39.9,26.1,40L26.1,40z
		 M25.2,40.8C25.1,40.8,25.1,40.8,25.2,40.8c-0.2,0.1-0.2,0-0.3-0.1c0,0,0,0.1,0,0c0,0,0,0.1,0,0.1c0.1,0,0.3-0.1,0.3,0.1
		c0,0,0,0,0.1,0C25.1,41,25.1,40.9,25.2,40.8L25.2,40.8z M25.4,42.3L25.4,42.3c0,0.1,0.1,0.2,0.1,0.2C25.5,42.5,25.5,42.4,25.4,42.3
		z"/>
	<path fill="#00000B" d="M23.9,16.8c-0.2-0.4-0.8-0.8-1.2-0.9c0,0,0,0,0,0.1c0,0-0.1-0.1-0.1-0.1c-0.1,0-0.2-0.1-0.3-0.1
		c0,0.1,0.1,0.2,0.1,0.3c0-0.1,0-0.1,0.1-0.1c0,0.1,0,0.2,0,0.3l0,0h0c0,0,0,0.1,0,0.1c-0.1,0,0-0.1,0-0.1c-0.4-0.2-0.6-0.3-1.7-0.3
		c0.1,0.1,0.2,0.1,0.3,0.2l0,0c0,0,0,0,0.1,0c0,0,0,0,0,0c0.2,0.1,0.4,0.1,0.6,0.2l0,0c0,0.1,0.1,0,0.1,0c0,0,0.1,0.1,0.1,0.1l0,0
		c0.1,0.1,0.2,0.2,0.3,0.3c0.1,0,0.3,0,0.4,0c0-0.1,0.1-0.1,0.2,0c0,0,0,0-0.1,0.1c0,0,0.1,0,0.1,0v0c0,0,0.1,0,0.1,0c0,0,0,0,0,0.1
		c0.1,0,0.2,0,0.4,0.1c0,0,0.1,0,0.1,0c0-0.1,0-0.1,0.1-0.2c0,0,0.1,0,0.1,0.1c-0.1,0-0.1,0.1-0.1,0.1
		C23.6,16.8,23.8,16.8,23.9,16.8L23.9,16.8z M22.4,16.1C22.4,16.1,22.4,16.1,22.4,16.1L22.4,16.1C22.4,16.1,22.4,16.1,22.4,16.1
		L22.4,16.1z M23.1,16.4c0,0.1,0.1,0.1,0.1,0.2c0,0-0.1,0-0.1,0C23.1,16.5,23,16.5,23.1,16.4L23.1,16.4z M22.2,16.5
		C22.1,16.5,22.1,16.5,22.2,16.5c-0.1,0-0.2-0.1-0.2,0l0,0c-0.1,0-0.2,0-0.3,0c0,0,0-0.1-0.1-0.1l0,0v0c-0.3,0-0.7,0-1.1,0.1
		c-0.1,0-0.2,0-0.3-0.1c-0.1,0-0.6,0-0.6-0.1c0,0,0,0,0,0c0.4-0.4,0.6-0.5,1.3-0.5c0.1,0,0.2,0,0.3,0c0,0,0,0,0,0.1
		c0.1,0,0.1,0,0-0.1c0.2,0,0.4,0.1,0.5,0.2C21.9,16.4,22,16.5,22.2,16.5z"/>
	<path fill="#00000B" d="M32.5,22.2l0.2,0.5c0.1,0.3,0.1,0.6,0.2,0.8c0,0,0,0-0.1,0c0,0,0,0,0,0.1c0,0,0.1,0,0.1,0
		c0,0.2,0,0.3,0.1,0.5c0,0,0,0.1,0,0.1c-0.1,0,0,0.1,0,0.1h0c0,0,0,0.1,0,0.1l0,0l0,0l0,0h0l0,0l0,0l0,0l0,0l0,0l0,0l0,0l0,0l0,0
		l0,0l0,0l0,0l0,0l0,0l0,0l0,0l0,0l0,0l0,0l0,0l0,0l0,0l0,0h0l0,0c0,0,0,0,0,0l0,0h0l0,0h0l0,0h0l0,0c0,0,0,0,0,0l0,0c0,0,0,0,0,0
		l0,0c-0.1,0-0.1,0-0.2-0.1c-0.1,0-0.2-0.1-0.3-0.2l0,0l0,0l0,0l0,0l0,0l0,0l0,0l0,0l0,0l0,0l0,0l0,0l0,0l0,0l0,0l0,0l0,0l0,0l0,0
		l0,0l0,0l0,0l0,0l0,0l0,0l0,0l0,0l0,0l0,0l0,0l0,0l0,0l0,0l0,0l0,0l0,0l0,0l0,0l0,0l0,0l0,0l0,0l0,0l0,0l0,0l0,0l0,0l0,0l0,0l0,0
		l0,0l0,0l0,0l0,0l0,0l0,0l0,0l0,0l0,0l0,0l0,0l0,0l0,0l0,0l0,0l0,0l0,0l0,0l0,0l0,0l0,0l0,0l0,0l0,0l0,0l0,0l0,0l0,0l0,0l0,0l0,0
		l0,0l0,0l0,0l0,0l0,0l0,0l0,0l0,0l0,0l0,0l0,0l0,0l0,0l0,0l0,0l0,0l0,0l0,0l0,0l0,0l0,0l0,0l0,0l0,0l0,0l0,0l0,0l0,0l0,0l0,0l0,0
		l0,0l0,0l0,0l0,0l0,0l0,0l0,0l0,0l0,0l0,0l0,0l0,0l0,0l0,0l0,0l0,0l0,0l0,0l0,0l0,0l0,0l0,0l0,0l0,0l0,0l0,0l0,0l0,0l0,0l0,0l0,0
		l0,0l0,0l0,0l0,0l0,0l0,0l0,0l0,0l0,0l0,0l0,0l0,0l0,0l0,0l0,0l0,0l0,0l0,0l0,0l0,0l0,0l0,0l0,0l0,0l0,0l0,0l0,0l0,0l0,0
		c0.1,0,0.2,0,0.1-0.1c0,0,0,0-0.1,0c0.3-0.8,0.6-1.5,0.8-2l0,0l0,0c0,0,0-0.1,0-0.1l0,0c0,0,0-0.1,0-0.1l0.2-1.9
		c-0.1-0.6-0.1-1.7-0.1-2.6c0,0,0,0,0.1,0c0,0.1,0.1,0.1,0.1,0.1l0,0c0,0,0,0,0,0l0,0c0,0-0.1,0-0.2,0c-0.9-1.1-0.9-1.6-0.9-1.9
		c0-1.5-0.3-2-1.9-2.1c0.9-0.8-4.4,1.2-4.9,0.5c0.1-0.1,1.5-1.9,2.6-2.6c0.4-0.3,0.1,0,0.5-0.4c-0.1,0-0.1,0-0.2,0.1
		c0,0,0-0.1,0-0.1c0,0,0.1,0,0.1,0c0-0.1-0.1,0-0.2-0.1c0,0,0,0.1-0.1,0.1c0,0,0,0.1,0,0.1c-0.6,0.2-1.2,0.7-1.7,1.2
		c-0.1,0-0.1-0.1-0.1-0.1c-0.1,0,0,0.1-0.1,0.1h0c-0.1-0.1,0-0.1,0-0.2c0-0.1-0.1,0-0.1,0c0,0,0,0.1,0,0c0,0.1,0,0.1,0.1,0.1
		c0,0,0,0.1-0.1,0.1c0.1,0,0,0.1,0.1,0.1c0.1-0.1,0.1,0,0.2,0c-0.6,0.6-1.2,1.3-1.5,1.7c0,0,0,0,0-0.1l0,0c0-0.1-0.1-0.1-0.1,0
		c0,0,0,0,0,0c0,0,0,0,0,0c0,0,0.1,0,0.1,0l0,0c0,0-0.1,0.1-0.1,0.1l0,0l0,0l0,0c-0.2,0-0.4-0.1-0.5-0.2c0-0.1,0-0.1,0-0.2
		c0,0-0.1,0.1-0.1,0.1c-0.1-0.1-0.1-0.2-0.2-0.2c0,0,0,0,0-0.1l0,0c-0.1-0.2-0.1-0.4-0.1-0.5c0,0,0-0.1,0.1-0.1
		c-0.1,0-0.1-0.1-0.1-0.1c0,0,0,0,0,0c0.1-0.3,0.2-0.7,0.4-0.9c0.1-0.2,0.2-0.3,0.3-0.4l0,0c0,0,0,0,0-0.1c0,0,0.1-0.1,0.1-0.1
		c0,0,0,0,0-0.1l0,0l0,0c0,0,0,0,0,0.1c0.1,0.1,0.2-0.1,0.2-0.2c0.1-0.1,0.3-0.2,0.4-0.4l0,0l0,0c0.2-0.1,0.4-0.3,0.6-0.5
		c-0.5,0.1-0.8,0.3-1.2,0.6c0,0-0.1,0-0.2,0c0,0,0,0.1,0,0.1C24.5,11,24.2,11.5,24,12l0,0c0,0-0.1,0.1-0.1,0.1c0,0,0.1,0,0.1,0
		c0,0.1,0,0.1,0,0.2h0c-0.1,0.1,0,0.1-0.1,0.2c0,0,0.1,0,0.1,0.1c0,0,0,0.1,0,0.1c0,0-0.1,0-0.2,0c0,0-0.1,0.1,0,0.1
		c0,0-0.1,0-0.1,0c0,0,0,0.1,0,0.1c0.1-0.1,0.1,0,0.1-0.1c0,0,0,0,0.1,0.1c0.1,0,0-0.1,0.1-0.1c0.1,0,0,0,0.1,0.1l0,0
		c0,0.1,0,0.2,0,0.3c0,0-0.1,0.1-0.1,0.1l0,0c0,0,0,0,0,0c0,0.1,0,0.1,0.1,0.1c0,0,0,0,0-0.1l0,0v0c0,0-0.1,0.1-0.1,0.1
		c0,0,0.1,0,0.1,0c0,0.1,0.1,0.2,0.1,0.3c-0.1,0-0.1,0-0.2,0.1l0,0c-0.1,0,0-0.1,0-0.2c-0.1,0,0,0.1,0,0.1c-0.1,0-0.2-0.1-0.3-0.1
		c0.1,0,0.1-0.1,0.2-0.1c0-0.1,0-0.1,0-0.2c0,0-0.1,0-0.1,0c0-0.1,0-0.1-0.1-0.1v0c0,0,0,0,0,0c0,0,0,0,0-0.1
		c-0.1,0.1,0,0.1-0.1,0.1c0.1,0,0.1,0.1,0.1,0.1c0,0-0.1,0-0.1,0c-0.1-0.2-0.2-0.4-0.2-0.6c0-0.1,0-0.2,0-0.3l0,0c0,0,0,0.1,0,0.1
		c0-0.1,0.1-0.2,0.2-0.1c0.1,0,0.1,0.1,0,0.1c0,0,0.1,0.1,0.1,0c-0.1-0.1,0-0.2,0-0.3c0,0,0.1,0,0.1,0c0-0.1,0-0.1,0-0.2
		c0,0-0.1,0-0.1,0c0,0,0-0.1,0-0.1c-0.1,0,0,0.1-0.1,0.1c0,0,0,0,0,0c0,0,0,0.1,0,0.1c-0.1,0.1-0.1,0.1-0.2,0.1l0,0
		c0-0.4,0.1-0.5,0.2-0.8c0.1,0,0.2,0,0.2-0.1c0,0-0.1,0-0.1,0c0,0,0-0.1,0.1-0.2c-0.1,0-0.1,0.1-0.2,0.2c0,0,0,0,0-0.1
		c0,0,0,0.1,0,0.1c-0.2,0.2-0.4,0.6-0.4,0.9c0,0.1,0,0.1,0,0.2c0,0,0,0-0.1,0c0,0,0,0,0.1,0c0,0,0,0.1,0,0.1c0,0.1-0.1,0.2-0.2,0.2
		c0.1,0,0.1,0.1,0.2,0.1c0,0,0-0.1,0.1-0.1c0,0,0,0.1,0,0.1c0,0,0,0-0.1,0c0,0,0.1,0.1,0,0.1c0,0,0,0,0.1,0c0,0,0,0,0,0.1
		c0,0-0.1,0-0.1,0c-0.1,0.1,0.2,0.3,0,0.3c-0.1,0-0.1-0.1-0.1-0.1c-0.1,0,0,0.1,0,0.1c0,0.1-0.1,0-0.1,0c-0.1-0.1-0.2-0.1-0.3-0.1
		c-0.1,0-0.2-0.1-0.2-0.1c0.1,0,0.1-0.1,0.2-0.1c0-0.1-0.1,0-0.1-0.1c0-0.1,0.1,0,0.1-0.1c0-0.1,0-0.1,0-0.2c-0.1,0-0.2,0.1-0.2,0.1
		c-0.1,0.1-0.1,0.1-0.1,0.2c-0.4-0.3-0.6-0.6-0.8-1c0.1,0,0.2-0.1,0.3-0.2c0-0.1,0-0.1-0.1-0.1c-0.1,0.1-0.1,0-0.1,0.1
		c0,0,0.2,0,0.1,0.1c0,0-0.1,0-0.1,0c0,0,0,0-0.1,0c0-0.1-0.1-0.2-0.1-0.4c0,0,0.1,0,0.1-0.1c0,0-0.1,0-0.1-0.1
		c-0.1-0.2-0.1-0.4-0.1-0.5c0,0.1,0,0.2,0,0.3c0,0-0.1,0-0.1-0.1c-0.1,0.1-0.1,0-0.2,0.1c0.1,0.1,0.2,0.2,0.2,0.3c0,0.1,0,0.2,0,0.4
		c0,0,0,0,0,0l0,0c0,0.1,0,0.1,0,0.2c0,0,0,0.1,0,0.1c0,0,0,0,0,0.1c0.1,0,0,0,0.1,0.1c0,0,0,0,0,0c0.1,0.1,0.1,0.1,0.2,0.2
		c0,0.1-0.1,0.1-0.1,0.2c0,0,0.1-0.1,0.1-0.1c0,0,0,0,0.1,0.1l0,0c0,0,0,0,0,0.1c0,0,0,0,0,0c-0.1,0-0.1,0.1,0,0.1l0,0v0
		c-0.1,0-0.2,0.1-0.3,0.1c0,0,0,0.1,0,0.1c0,0,0.1,0,0.1,0c-1,0.1-0.8,0.2-1.7-0.1c-0.5-0.2-0.6,0.1-0.6,0.7c0,0.6,0,1.1,0,1.5
		c0,0,0,0-0.1,0c0,0.1,0,0.1,0,0.2c0,0,0,0,0.1,0V16c0,0,0,0,0,0c0,0.1-0.1,0.2,0,0.3c0,0.5-0.1,1-0.2,1.7c-0.1,0.9,0.1,1.3,0,2
		c-0.1,0.5-0.1,0.6-0.1,1.1c0,0.1,0,0.2,0,0.2c0.3,0.4,0.7,1.3,1.2,2.3l0,0l0,0l0,0l0,0l0,0l0,0l0,0l0,0l0,0l0,0l0,0l0,0l0,0l0,0
		l0,0l0,0l0,0l0,0l0,0l0,0l0,0l0,0l0,0l0,0l0,0l0,0l0,0l0,0l0,0l0,0l0,0l0,0l0,0l0,0l0,0l0,0l0,0l0,0l0,0l0,0l0,0l0,0l0,0l0,0l0,0
		l0,0l0,0l0,0l0,0l0,0l0,0l0,0l0,0l0,0l0,0l0,0l0,0l0,0l0,0l0,0l0,0l0,0l0,0l0,0l0,0l0,0l0,0l0,0l0,0l0,0l0,0l0,0l0,0l0,0l0,0
		c-0.3,0.3-0.6,0.6-0.9,0.7h0l0,0h0l0,0l0,0l0,0h0l0,0c0,0,0,0-0.1,0l0,0c0,0,0,0-0.1,0l0,0h0l0,0h0l0,0h0l0,0h0l0,0l0,0h0l0,0h0
		l0,0c0,0,0,0-0.1,0l0,0h0l0,0h0l0,0h0l0,0h0l0,0l0,0h0l0,0l0,0l0,0l0,0l0,0h0l0,0l0,0l0,0l0,0h0c0.2-1.2,0.3-2.5,0.3-3.4
		c0,0,0.1,0,0.1,0c0,0,0.1-0.1,0-0.1c-0.1,0-0.1,0-0.2,0.1c0,0,0,0,0,0c0,0,0-0.1,0-0.1c0-0.3,0.2-0.9,0.1-1.1c-0.2-1-0.4-1-0.4-1.6
		h0c0-0.1,0.1-0.1,0-0.2c0,0-0.1,0.1-0.1,0.1c0-0.1,0-0.3,0-0.5c0-0.2,0-0.3,0-0.5c0.1,0,0.1-0.1,0-0.2c0-0.1,0-0.2,0-0.3l0,0
		c0.3-2,0-1.4-0.1-2.6c0-1.2,0.3-1.1,0-2l0,0c0-0.2-0.1-0.3-0.1-0.5c0-0.1,0-0.2,0-0.3c0,0,0,0,0,0c-0.2-0.1-0.2-0.3-0.2-0.6v-0.2
		c0,0,0.1,0,0.1-0.1c0,0-0.1,0-0.1,0v-0.1l0,0c0-0.5,0.2-0.9,0.4-1.2c0.1,0.1,0.2,0,0.2-0.1c0,0-0.1,0-0.1,0
		c0.1-0.1,0.1-0.2,0.2-0.3c0.1,0,0.2,0,0.2-0.1c0,0,0,0-0.1-0.1c0.4-0.3,0.8-0.5,1.4-0.7c0,0,0,0,0,0l0,0l0.1,0.1l0,0
		c0.1,0,0.2,0,0.3-0.1c0,0,0-0.1,0-0.1c0.3-0.1,0.5-0.1,0.8-0.2l0,0c0,0,0.1,0,0.1,0c0.7-0.1,1.4-0.2,2.2-0.4v0
		c-0.4,0.2-1.2,0.4-1.9,0.7c-0.1,0-0.2,0-0.2-0.1l-0.1,0.1c0.1,0,0,0.1,0.1,0.1c-0.4,0.1-0.7,0.3-1,0.4c-0.5,0.3-0.9,0.6-1.2,1
		c-0.1,0-0.1,0.1-0.1,0.2c-0.1,0.1-0.1,0.2-0.2,0.3c-0.1,0-0.2,0-0.3,0.1c0,0,0,0.1,0,0.1c0,0,0.1,0,0.1,0c0-0.1,0.1-0.1,0.2-0.2
		c-0.2,0.3-0.4,0.7-0.5,1.1v0c-0.1,0-0.2,0.1-0.1,0.2c0,0,0.1,0,0.1-0.1c-0.1,0.6,0,1.2,0.5,1.8c-0.1-0.5-0.2-0.9-0.2-1.2
		c0.1,0,0.2-0.1,0.1-0.2c0,0-0.1,0-0.1,0c0-0.4,0-0.8,0.3-1.2c0.2-0.3,0.3-0.5,0.5-0.7l0,0c0,0,0.1-0.1,0.2-0.2
		C21,8,22.8,7.5,24.4,7.2c0,0,0,0.1,0,0.1c0.1,0,0.1-0.1,0.1-0.2h0.1l0,0l0,0c-0.1,0.1,0.1,0.2,0.2,0.1c0,0-0.1-0.1-0.1-0.1
		c0,0,0,0,0,0c0.3,0,0.7-0.1,0.9-0.1c-0.1,0.1-0.1,0.1-0.2,0.2c0,0,0,0-0.1,0c0,0,0,0,0,0.1c-0.3,0.2-0.6,0.4-0.8,0.6
		c-0.1,0-0.1-0.1-0.1-0.2l0,0c0,0,0-0.1,0-0.1l0,0c0,0,0-0.1,0-0.1c0,0,0-0.1,0-0.1c0,0-0.1,0.1-0.1,0.1l0,0c0,0,0,0,0,0.1
		c0,0,0,0,0,0c0.1,0.1,0.1,0.1,0,0.2l0,0c-0.1,0.1-0.1,0.1-0.1,0.1c0,0,0,0,0.1,0c0,0,0,0.1,0,0.1c0.1,0,0-0.2,0.2-0.2
		c0,0.1,0,0.1,0.1,0.2c-0.9,0.6-1.8,1-2.7,1.9c0.4-0.1,1.3-0.8,2.4-1.6c0,0,0.1,0,0.1-0.1c0.3-0.2,0.6-0.4,0.9-0.5c0,0,0,0.1,0,0.1
		l0,0c0,0,0,0,0,0l0,0c0,0,0,0.1,0,0.1c0,0,0.1,0,0.1,0c0-0.1,0-0.2,0-0.3v0h0c0.1-0.1,0.2-0.1,0.3-0.2c0,0.1,0,0.2-0.1,0.3
		c0,0,0.1,0,0.1,0c0-0.1,0.1-0.2,0.1-0.3c1.2-0.7,2.4-1,3.1-0.5c-0.1,0.1-0.6,0.3-1.2,0.5c0,0,0-0.1,0-0.1c-0.1,0,0,0.1-0.1,0.2
		c-0.7,0.3-1.5,0.7-2.1,1l0,0l0,0c-0.1,0-0.1,0-0.1,0.1c0,0,0.1,0,0.1,0c0,0.1-0.1,0.2,0.1,0.3c0.1-0.1,0.1-0.2,0-0.3
		c0.5-0.3,1.5-0.7,2.1-0.9c0.6-0.2,1.9-0.9,2.2,0c-1.1,0.1-2.1,0.4-3.1,0.8v0c-0.1-0.1-0.1,0-0.1,0c-0.2,0.1-0.3,0.2-0.5,0.2
		c-0.4,0.2-0.8,0.4-1.3,0.7c0,0,0,0,0,0c0,0,0,0,0,0c-0.1,0.1-0.2,0.1-0.3,0.2c-0.1,0-0.1,0-0.2,0c-0.1,0.1,0,0.1,0.1,0.1
		c-0.5,0.3-0.8,0.6-1.1,0.9c0.8-0.4,2.1-1.2,3.4-1.8c0,0,0,0,0,0.1c0,0,0-0.1,0-0.1c1-0.5,2.1-0.8,2.7-0.8c0.7,0,1.6,0.4,1.7,1.3
		c-0.7,0.3-0.3,0-0.9,0.5c0.6-0.2,1.1-0.5,1.8-0.2c0.5,0.3,1,0.6,1.1,1.1c-1.8,0-2,0-3.5,0.8c-1,0.6-1.5,1-2.4,1.7l0,0
		c0.6-0.2,2.5-1.7,4-2.2c2.3-0.8,3.3,0.7,2,2.4c0,0,0.1,0,0.2,0c0.1,0,0.1,0,0.2,0c-0.4,0.7,0.3,0.2-0.1,2.8l0,0c0,0,0,0,0,0.1
		c0,0-0.1-0.1-0.1-0.1c0,0.1,0,0.1-0.1,0.2c0.1,0,0.1,0,0.2,0c0,0,0,0.1,0,0.1c-0.2,0.9-0.6,1.8-0.6,2.9c0,0.6,0,0.9,0,1.4
		C32.6,21.4,32.6,21.8,32.5,22.2L32.5,22.2z M23.3,13.7C23.3,13.8,23.2,13.8,23.3,13.7c0,0.1,0,0.1,0.1,0.1c0,0,0,0,0,0
		C23.3,13.8,23.3,13.8,23.3,13.7L23.3,13.7z M23.2,13.9C23.2,13.9,23.2,13.9,23.2,13.9L23.2,13.9C23.2,13.9,23.2,13.9,23.2,13.9
		L23.2,13.9z M21.7,13.5L21.7,13.5c-0.1,0-0.2,0.1-0.2,0.2c0.1,0,0.2,0,0.3,0C21.8,13.6,21.7,13.5,21.7,13.5L21.7,13.5z M19,16
		C19,16,19,16.1,19,16L19,16L19,16L19,16z M20.5,7.7L20.5,7.7L20.5,7.7L20.5,7.7L20.5,7.7z M25.7,10.6
		C25.6,10.6,25.6,10.7,25.7,10.6c-0.1,0.1-0.1,0.2-0.1,0.2l0,0c0,0,0,0,0.1,0c0,0,0,0,0,0c0,0,0.1,0,0.1,0c0,0,0,0,0.1-0.1
		c0,0-0.1,0-0.1,0l0,0c0,0,0,0,0-0.1l0,0V10.6C25.7,10.6,25.7,10.6,25.7,10.6L25.7,10.6z M26,11.4C26.1,11.4,26.1,11.4,26,11.4
		c0.1-0.1,0-0.2,0-0.2C25.9,11.3,25.9,11.4,26,11.4L26,11.4z M27.9,10.9c-0.1,0-0.2-0.1-0.3,0C27.7,10.9,27.8,11,27.9,10.9
		c-0.1,0.1-0.1,0.1,0,0.2C27.9,11,28,11.1,27.9,10.9C28,11,28,10.9,27.9,10.9L27.9,10.9z M25.5,10.1C25.4,10.1,25.5,10.1,25.5,10.1
		c0.1,0.1,0.2,0,0.2,0.1C25.7,10,25.5,10.1,25.5,10.1L25.5,10.1z M28.2,10.6c0,0.1,0,0.2,0,0.2C28.2,10.7,28.3,10.7,28.2,10.6
		C28.2,10.6,28.2,10.6,28.2,10.6L28.2,10.6z M26,10.7L26,10.7c0-0.1-0.1-0.1-0.1-0.1C25.9,10.7,25.9,10.8,26,10.7
		c-0.1,0.1,0,0.2,0,0.2s0.1,0,0.1,0C26,10.8,26,10.8,26,10.7L26,10.7z M26.1,9.7c0.1,0,0.2-0.2,0.1-0.2C26.1,9.6,26.2,9.7,26.1,9.7
		L26.1,9.7z M27,11.2C26.9,11.2,26.9,11.2,27,11.2c-0.1,0-0.1,0.1-0.1,0.1c0.1,0.1,0.1,0.1,0.1,0.2c0.1,0,0.1,0,0.2-0.1
		C27.1,11.4,27,11.3,27,11.2c0,0.1,0,0.1,0,0.1C26.9,11.3,27,11.2,27,11.2L27,11.2z M32.8,15.7C32.7,15.7,32.6,15.6,32.8,15.7
		c-0.1,0.2-0.1,0.1-0.2,0.1c0,0,0,0,0,0C32.7,15.9,32.8,15.8,32.8,15.7L32.8,15.7z M25.2,9c-0.1,0-0.1,0.1-0.1,0.1
		c-0.1-0.1,0,0,0-0.1C25,9,25,9,25,9c0,0.1,0,0.2,0.1,0.2C25.1,9.2,25,9.1,25.2,9L25.2,9z M26,9.7C26,9.7,25.9,9.7,26,9.7
		c0,0.1,0,0.1-0.1,0.1c0.1,0.1,0.2,0.1,0.2-0.1C26.1,9.7,26,9.8,26,9.7L26,9.7z M26,11.1C26.1,11.1,26.1,10.9,26,11.1
		C26.1,11,26,11,26,11.1L26,11.1C25.9,11,25.9,11.1,26,11.1C25.9,11.1,26,11.1,26,11.1L26,11.1L26,11.1z M24.1,11.6
		c0,0.1-0.1,0.2-0.2,0.2c0.1,0.1,0.1,0,0.2,0C24.1,11.7,24.1,11.6,24.1,11.6L24.1,11.6z M23.5,11.2C23.5,11.2,23.5,11.2,23.5,11.2
		c-0.1,0.1-0.1,0.1-0.1,0.1C23.5,11.3,23.5,11.3,23.5,11.2C23.6,11.3,23.6,11.2,23.5,11.2L23.5,11.2z M23.2,11.2
		c0-0.1-0.1-0.1-0.2,0c0.1,0,0.1,0.1,0.2,0.2c0.1-0.1,0.1-0.1,0.1-0.2C23.3,11.2,23.2,11.2,23.2,11.2L23.2,11.2z M23.1,10.8
		C23,10.9,23,11,22.9,11C23,11.1,23.3,11,23.1,10.8L23.1,10.8z M23.6,11.8c0,0.1-0.1,0.2,0,0.3c0.1,0,0-0.1,0.1-0.2
		C23.7,11.8,23.6,11.8,23.6,11.8L23.6,11.8z M32.4,16.5C32.4,16.5,32.4,16.5,32.4,16.5c0-0.1-0.1-0.2-0.1-0.2
		C32.3,16.4,32.3,16.4,32.4,16.5L32.4,16.5z M20.9,11.3c0.1,0.1,0,0.2,0,0.3c0.1,0,0.1-0.2,0.1-0.2c0.1-0.1,0.2-0.1,0.3-0.2
		c0,0-0.1,0-0.1-0.1c-0.1,0.1-0.1,0.1-0.2,0c0,0.1-0.1,0.1-0.2,0.2C20.8,11.3,20.8,11.3,20.9,11.3L20.9,11.3z M29.4,33
		c0,0.1-0.1,0.2-0.1,0.2C29.3,33.1,29.3,33.1,29.4,33C29.3,33,29.4,33,29.4,33L29.4,33z M19.2,23.5c0-0.1-0.1-0.2-0.2-0.2
		c0,0.1,0,0.1,0,0.2c0,0,0,0,0,0C19,23.5,19.1,23.5,19.2,23.5L19.2,23.5z M18.7,22.7c-0.1,0-0.1,0-0.2,0
		C18.5,22.8,18.6,22.8,18.7,22.7L18.7,22.7z M28.3,32.3C28.3,32.3,28.3,32.3,28.3,32.3c0.1,0.1,0.1,0.2,0.2,0.2
		c-0.1,0.1-0.2,0.1-0.2,0.1c0,0.1,0,0.1,0,0.2c-0.1,0,0-0.1-0.2-0.2c0.1,0,0.1-0.1,0.1-0.2C28.2,32.3,28.2,32.3,28.3,32.3L28.3,32.3
		z M19,23.9C19,23.9,18.9,23.9,19,23.9c0-0.1,0.1-0.2,0-0.2c-0.1,0-0.2,0.1-0.3,0.1C18.8,23.9,18.9,23.9,19,23.9L19,23.9z M25,10.2
		C25,10.1,25,10.1,25,10.2c-0.1,0-0.1,0-0.2,0.1c0,0,0,0.1,0,0.1C24.9,10.3,25,10.2,25,10.2L25,10.2z M24,9.3c0,0.1,0,0.1,0,0.2
		c0.1,0,0.1,0,0.1,0C24.1,9.4,24.1,9.4,24,9.3C24.1,9.3,24.1,9.3,24,9.3L24,9.3z M26,12c0-0.1,0-0.1,0.1-0.2c-0.1,0,0-0.1-0.1-0.1
		c-0.1,0-0.1,0.2-0.1,0.3C25.9,12.1,26,12,26,12L26,12z M24.4,9.5c-0.1,0-0.2,0-0.3,0c-0.1,0.2,0.1,0.1,0.2,0.2
		C24.4,9.6,24.4,9.6,24.4,9.5L24.4,9.5z M26.1,11.4c0,0-0.1,0-0.2,0.1c0,0,0,0,0,0c0,0,0,0.1,0,0.1c0,0,0,0,0,0l0,0
		c0,0,0.1-0.1,0.1-0.1c0,0,0,0,0,0C26.1,11.6,26.1,11.5,26.1,11.4C26,11.5,26,11.4,26.1,11.4L26.1,11.4z M23.9,7.6
		C23.9,7.7,23.9,7.7,23.9,7.6c0,0.1,0,0.1,0,0.2h0c0,0,0,0,0,0c0,0,0.1,0,0.1,0C24.1,7.7,24,7.6,23.9,7.6L23.9,7.6z M25.8,7.6
		C25.8,7.5,25.7,7.5,25.8,7.6c-0.2-0.1-0.3,0.1-0.1,0.1C25.7,7.6,25.7,7.6,25.8,7.6L25.8,7.6z M29.1,11.3c0-0.1,0.1-0.1,0-0.2
		c0,0.1-0.1,0.2-0.2,0.1C28.8,11.3,29,11.2,29.1,11.3L29.1,11.3z M18.5,10.3c0-0.1-0.1,0-0.2,0c0.1,0,0.1,0.1,0,0.2
		c0.1,0,0.1,0.1,0.2,0c-0.1,0-0.1-0.1-0.2-0.1C18.5,10.4,18.5,10.3,18.5,10.3L18.5,10.3z M20.2,10.5c0,0-0.1,0.1-0.1,0.1
		c0.1,0,0.1,0,0.1,0.1C20.2,10.6,20.2,10.6,20.2,10.5C20.2,10.6,20.3,10.5,20.2,10.5L20.2,10.5z M20.8,10.9c-0.1,0.1,0,0.2,0.1,0.2
		C20.9,11,20.9,10.9,20.8,10.9L20.8,10.9z M20.5,10.6c0,0.1,0,0.1,0,0.2c0,0,0,0,0.1,0c0,0.1-0.1,0.1,0,0.2c0.1-0.1,0.1-0.1,0.1-0.1
		c0-0.1-0.1-0.2,0-0.3C20.5,10.5,20.5,10.6,20.5,10.6L20.5,10.6z M24,11.4c-0.1,0-0.1,0-0.2,0c0,0,0,0,0,0.1
		C23.9,11.5,23.9,11.5,24,11.4L24,11.4z M20.3,10.2c-0.1,0-0.1,0-0.2,0C20.2,10.3,20.3,10.3,20.3,10.2L20.3,10.2z M20,9.9
		c-0.1,0-0.1-0.1-0.2,0C19.9,9.8,19.9,9.9,20,9.9L20,9.9z M22.3,10.3c0-0.1-0.1-0.2-0.1-0.1C22.2,10.3,22.2,10.3,22.3,10.3
		L22.3,10.3z M22.7,10.4c-0.2,0.1-0.2-0.1-0.3-0.2c0,0.1,0,0.1,0,0.2c0,0,0.1,0,0.1,0c0,0.1,0.1,0.1,0.2,0.2
		C22.7,10.5,22.7,10.5,22.7,10.4L22.7,10.4z M22.6,10.7C22.6,10.7,22.6,10.8,22.6,10.7c-0.1,0.1-0.2,0.1-0.2,0.1l-0.1,0.1
		C22.4,11,22.6,10.9,22.6,10.7c0,0.1,0.1,0.2,0.1,0.2C22.7,10.8,22.7,10.7,22.6,10.7L22.6,10.7z M22.6,11.4c0,0,0.1,0,0.1,0
		c0.1,0,0,0.1,0,0.1c0.1-0.1,0.2-0.1,0.2-0.2c-0.1-0.1-0.1,0-0.2,0c-0.1,0,0-0.1-0.1-0.1C22.6,11.3,22.6,11.4,22.6,11.4L22.6,11.4z
		 M23.5,7.8c0.1,0.1,0.3-0.1,0.1-0.2C23.6,7.7,23.6,7.8,23.5,7.8L23.5,7.8z M25,8.7c-0.1,0-0.1,0-0.2,0.1C24.9,8.9,25.1,8.9,25,8.7
		L25,8.7L25,8.7z M32.8,14.1c0,0.1,0,0.2-0.1,0.2c0.1,0,0,0.1,0.1,0.1c0,0,0.1-0.1,0.1-0.1C33,14.4,32.9,14.3,32.8,14.1L32.8,14.1z
		 M27.6,10.2c-0.1,0-0.2,0.2-0.1,0.3c0.1,0,0.1-0.1,0.2-0.2C27.6,10.3,27.6,10.2,27.6,10.2L27.6,10.2z M26.6,9.3
		C26.7,9.3,26.7,9.4,26.6,9.3c0-0.1-0.1-0.1,0-0.2c-0.1,0-0.1,0.1-0.2,0c-0.1,0.1-0.1,0.1,0,0.2C26.5,9.4,26.6,9.3,26.6,9.3
		C26.6,9.2,26.6,9.3,26.6,9.3L26.6,9.3z M21.9,12.8c0.1,0,0.3,0.1,0.2-0.1C22,12.7,21.9,12.6,21.9,12.8
		C21.9,12.7,21.9,12.8,21.9,12.8L21.9,12.8z M19.3,11.1c0,0,0-0.1-0.1-0.1C19.1,11,19.2,11.2,19.3,11.1L19.3,11.1z M22.2,13.2
		C22.1,13,22,12.9,21.9,13c0,0.1,0,0.1-0.1,0.2c0.1,0,0.2-0.1,0.2-0.1c0,0,0,0.1,0,0.1c-0.1,0.1-0.1,0.1-0.2,0.1
		c0.1,0.1,0.1,0,0.2,0C22.1,13.3,22.3,13.3,22.2,13.2C22.2,13.2,22.2,13.2,22.2,13.2L22.2,13.2z M24.6,29.3c0.1-0.1,0-0.1,0-0.2
		C24.7,29.1,24.8,29.3,24.6,29.3L24.6,29.3z M23.9,28.4C23.9,28.4,23.9,28.4,23.9,28.4c-0.1-0.1-0.2,0-0.3,0
		C23.7,28.3,23.9,28.3,23.9,28.4L23.9,28.4z M23.2,27.9c0.1,0,0.2,0,0.3,0.1L23.4,28C23.3,28,23.2,28,23.2,27.9L23.2,27.9z
		 M26.2,30.4c0.1,0,0.1,0.1,0.1,0.1c-0.1,0-0.1,0.1-0.2,0.2C26.2,30.6,26.1,30.5,26.2,30.4L26.2,30.4z M28.7,33
		c-0.1,0.1-0.1,0.3-0.2,0.4C28.5,33.3,28.5,32.9,28.7,33L28.7,33z M21.4,27.9c0,0.1,0,0.1,0,0.2C21.3,28,21.4,28,21.4,27.9
		C21.3,27.9,21.3,27.9,21.4,27.9L21.4,27.9z M18.7,27.4c0,0,0-0.1,0-0.1c0.1,0,0.1,0,0.1-0.1c0.1,0.2-0.1,0.4-0.3,0.2
		C18.6,27.3,18.7,27.4,18.7,27.4L18.7,27.4z M18.8,27.8C18.8,27.7,18.9,27.7,18.8,27.8c0.1-0.1,0.2-0.1,0.2,0c0.1,0,0.2,0,0.2,0
		c0,0-0.1,0-0.1,0.1v0h0c0,0-0.1,0-0.1,0c0,0,0-0.1,0-0.1C18.9,27.8,18.9,27.7,18.8,27.8L18.8,27.8z M23.4,11.5c0,0.1,0.2,0,0.3,0.1
		c0,0,0,0,0,0C23.5,11.4,23.5,11.4,23.4,11.5L23.4,11.5z M32.3,20.2c0,0.1,0.1-0.1,0.1,0c0,0,0-0.1,0-0.1L32.3,20.2L32.3,20.2z
		 M24.3,12.6c0.1,0.1-0.1,0.3,0,0.4C24.4,12.8,24.3,12.7,24.3,12.6C24.3,12.5,24.3,12.6,24.3,12.6L24.3,12.6z M24.5,13.1
		c-0.1,0.1-0.1,0-0.2,0.1c0,0.1,0.1,0.1,0.1,0.1c0.1-0.2,0.2,0,0.3-0.1c0,0,0-0.1-0.1-0.1C24.7,13.2,24.6,13.2,24.5,13.1L24.5,13.1z
		 M24.5,13.4c0,0.1-0.1,0-0.1,0.1c0.1,0,0.1,0.1,0.2,0.1C24.5,13.5,24.5,13.4,24.5,13.4L24.5,13.4z M32.7,24.1
		C32.7,24.1,32.8,24.1,32.7,24.1C32.8,24,32.7,24,32.7,24.1c0.1-0.1,0.1-0.1,0.2-0.1c0,0,0-0.1,0.1-0.1c-0.1,0-0.1-0.1-0.2-0.1
		C32.8,23.9,32.7,24,32.7,24.1L32.7,24.1z M32.4,23.8L32.4,23.8c0,0,0.1-0.1,0-0.2c0,0-0.1,0-0.1,0.1C32.3,23.8,32.3,23.8,32.4,23.8
		L32.4,23.8z M32.5,22.9c0,0,0.1-0.1,0.1-0.1c0,0,0,0-0.1,0c-0.1,0-0.1,0.1-0.2,0.1c0-0.1-0.1-0.1-0.2-0.2c0,0,0,0.1-0.1,0.1
		c0.1,0.1,0.1,0.1,0.2,0C32.3,22.9,32.4,22.9,32.5,22.9L32.5,22.9z M32.6,23.3c0.1,0,0.3,0.1,0.2,0c0,0-0.1,0-0.1,0.1
		C32.6,23.3,32.6,23.3,32.6,23.3L32.6,23.3z M32.6,22.6c0-0.1-0.1-0.1-0.2-0.1c0,0.1,0.1,0.1,0,0.1C32.5,22.7,32.5,22.6,32.6,22.6
		L32.6,22.6z M24.4,12.9C24.5,12.9,24.5,12.9,24.4,12.9c0.1-0.1,0.1-0.2,0.1-0.2C24.4,12.8,24.5,12.8,24.4,12.9L24.4,12.9L24.4,12.9
		z M32.3,21.3c0.1,0.1,0.2,0.1,0.2-0.1C32.4,21.2,32.4,21.2,32.3,21.3L32.3,21.3z M25,13.4C25,13.3,25,13.3,25,13.4
		c-0.1-0.1-0.1-0.1-0.2-0.1C24.8,13.4,24.9,13.4,25,13.4L25,13.4L25,13.4z M18.9,16c-0.1,0-0.2,0-0.3,0C18.7,16.1,18.8,16.1,18.9,16
		C18.9,16.1,18.9,16.1,18.9,16L18.9,16z M25.2,28.5L25.2,28.5c-0.1,0,0,0.1-0.1,0.1l0,0C25.1,28.6,25.2,28.6,25.2,28.5L25.2,28.5
		L25.2,28.5z M28.8,31.7C28.8,31.7,28.8,31.8,28.8,31.7c-0.1,0-0.1,0.1-0.2,0C28.6,31.7,28.8,31.7,28.8,31.7L28.8,31.7z M29.5,32.4
		C29.4,32.4,29.5,32.4,29.5,32.4c0,0-0.2-0.1-0.2-0.1C29.4,32.2,29.4,32.3,29.5,32.4L29.5,32.4z M27.1,30.5c0.1-0.1,0.2,0,0.2,0.1
		C27.2,30.5,27.2,30.6,27.1,30.5L27.1,30.5z M28.3,31.8c0.1,0.1,0,0.1,0,0.2c0-0.1-0.1-0.1-0.1-0.1C28.2,31.8,28.2,31.8,28.3,31.8
		L28.3,31.8z M24,8.6c-0.1,0-0.2,0.1-0.3,0c0,0,0,0,0,0.1l0,0C23.8,8.6,23.9,8.6,24,8.6C24,8.6,24,8.6,24,8.6L24,8.6z M24.1,9.2
		C24,9.1,24,9,24,8.9C23.9,9,24,9,23.9,9.1C24,9.2,24,9.2,24.1,9.2L24.1,9.2L24.1,9.2z M23.8,8.9c-0.4-0.4-0.5,0.7,0,0.4
		c-0.1-0.1-0.1-0.2-0.2-0.3C23.7,9,23.8,9,23.8,8.9L23.8,8.9z M25.5,12.1c0-0.1-0.1-0.2-0.2-0.2C25.3,11.9,25.4,12.1,25.5,12.1
		L25.5,12.1z M24.6,10.4c-0.1,0-0.1,0.1-0.2-0.1c0,0-0.1,0-0.1,0.1C24.4,10.5,24.4,10.5,24.6,10.4C24.5,10.5,24.6,10.5,24.6,10.4
		L24.6,10.4z M25.5,11.1c-0.1,0.1,0,0.2,0,0.2l0.1-0.1C25.5,11.2,25.5,11.1,25.5,11.1L25.5,11.1z M25.2,11.1
		c-0.1,0.1-0.1,0.1-0.1,0.2c0,0,0.1,0,0.1,0c0,0,0,0,0,0c0,0,0.1,0.1,0.1,0.2c0,0,0,0,0.1,0c0,0,0-0.1,0-0.1c0,0,0,0,0,0
		C25.3,11.2,25.3,11.2,25.2,11.1L25.2,11.1L25.2,11.1C25.3,11.1,25.3,11.1,25.2,11.1L25.2,11.1z M26.8,13.2c0.1,0.1,0.2-0.1,0.4-0.2
		c-0.1,0,0-0.1-0.1-0.1c0,0.1-0.1,0.1-0.1,0.2C26.9,13.1,26.8,13.1,26.8,13.2L26.8,13.2z M18.2,9.6c0,0,0,0.1,0,0.2c0,0,0.1,0,0.1,0
		C18.2,9.7,18.2,9.6,18.2,9.6L18.2,9.6z M18.8,9.3c0.1,0.1,0.2-0.1,0.1-0.2C18.9,9.2,18.9,9.3,18.8,9.3L18.8,9.3z M20.1,11.3
		c-0.1,0-0.1,0-0.1,0.1c0.1,0,0.1,0.1,0.2,0.2C20.2,11.4,20.1,11.4,20.1,11.3L20.1,11.3z M21,8.6c-0.1,0.1-0.2,0-0.2,0.1
		C20.8,8.8,20.9,8.6,21,8.6c0.1,0,0.1-0.1,0-0.1C21,8.5,21,8.4,21,8.6C20.9,8.5,21,8.5,21,8.6L21,8.6z M20.3,8.1
		c-0.1,0-0.2,0-0.2,0.1C20.2,8.2,20.3,8.1,20.3,8.1L20.3,8.1z M24.9,11.7c0.1,0,0-0.1,0-0.1c0,0.1-0.1,0.1-0.2,0.1c0,0,0,0,0,0.1
		C24.8,11.8,24.8,11.6,24.9,11.7L24.9,11.7z M21.4,10.4C21.5,10.3,21.4,10.3,21.4,10.4c0-0.1-0.2-0.2-0.2-0.1l0,0
		C21.3,10.3,21.4,10.2,21.4,10.4L21.4,10.4z M22.7,11.8C22.7,11.8,22.7,11.8,22.7,11.8c-0.1-0.1-0.2-0.1-0.2-0.1c0,0,0-0.1,0.1-0.1
		c0-0.1-0.1-0.1-0.1-0.1c0,0.1-0.1,0.1-0.2,0.2c0.1,0.1,0.2,0.1,0.3,0.1c0,0.1,0,0.2-0.2,0.2c0,0.1,0.1,0,0.1,0
		c0,0.1-0.2,0.1-0.1,0.2c0,0,0-0.1,0.1-0.1c0,0.2-0.2,0.1-0.3,0.2c0,0.1,0.1,0.1,0.2,0.1c0,0.1-0.1,0.1,0,0.2c0.1,0,0.1-0.1,0.1-0.2
		c0,0,0.1,0,0.1,0c0.1,0,0,0.1,0.1,0.1c0.1-0.1,0.2-0.2,0.3-0.3c0,0,0,0,0,0c0-0.1-0.1,0-0.1,0c-0.1,0.1-0.1,0.1-0.2,0.1
		c0,0,0-0.1,0-0.1c0,0,0.1,0,0.1-0.1c-0.1,0,0-0.1-0.1-0.2c0,0,0.1-0.1,0.1-0.1c0,0-0.1,0-0.1-0.1C22.5,11.8,22.6,11.9,22.7,11.8
		L22.7,11.8z M20.8,9.2c0,0.1,0,0.2-0.1,0.3c0,0,0.1,0,0.2,0C20.9,9.4,20.9,9.2,20.8,9.2L20.8,9.2z M22,11.2
		c0.2,0.1,0.4-0.3,0.1-0.2c-0.1,0.1,0,0.1,0,0.2C22.1,11.2,22.1,11.2,22,11.2L22,11.2z M21.3,9.3c-0.1-0.1-0.1,0.1-0.2,0.2
		C21.1,9.5,21.2,9.4,21.3,9.3L21.3,9.3z M18.7,9.3c0.1,0,0.2,0,0.1-0.1C18.8,9.1,18.7,9.1,18.7,9.3C18.7,9.2,18.7,9.2,18.7,9.3
		L18.7,9.3z M19,9.5c-0.1-0.1-0.2,0.1-0.3,0.2c0,0,0.1,0,0.1,0c0,0,0-0.1,0-0.1C18.9,9.6,18.9,9.5,19,9.5C19,9.5,18.9,9.5,19,9.5
		L19,9.5z M21.2,8.5c0.1,0,0.1,0,0.2,0c0-0.1-0.1-0.1-0.1-0.2C21.2,8.4,21.2,8.4,21.2,8.5L21.2,8.5z M22.2,9.2
		c-0.1,0-0.1,0.1-0.3,0.1C22,9.4,22.2,9.3,22.2,9.2L22.2,9.2z M32.9,12.4c0.1-0.1,0.2-0.2,0.1-0.3c0,0-0.1,0.1-0.1,0.1
		C32.9,12.3,32.8,12.3,32.9,12.4L32.9,12.4z M23,11.9C23,11.9,23,11.9,23,11.9c-0.1,0-0.3,0.1-0.2,0.2C22.9,12,23,12,23,11.9
		L23,11.9z M20,9.5c0,0,0.1,0,0.1,0.1C20.1,9.5,20.1,9.4,20,9.5C20,9.5,20,9.5,20,9.5L20,9.5z M20.5,10.1c0-0.1,0-0.1,0-0.2
		c0,0-0.1,0-0.1,0C20.5,10,20.5,10.1,20.5,10.1L20.5,10.1z M22.9,12.7c-0.1,0-0.2,0-0.3-0.1c0,0,0,0.1-0.1,0.2c-0.1,0-0.2,0-0.2,0
		c0.1,0,0.1,0.1,0.1,0.2c0.1-0.1,0.2-0.1,0.3,0C22.8,12.9,22.8,12.8,22.9,12.7C22.9,12.7,22.9,12.7,22.9,12.7L22.9,12.7z M22,12.2
		c0-0.1-0.1,0-0.1-0.1c0-0.1,0.2-0.1,0.2-0.2c-0.2-0.1-0.4,0.1-0.6-0.1c0,0,0,0,0,0.1c-0.1,0-0.1-0.1-0.2,0c0.2,0.1,0.4,0.2,0.6,0.3
		c-0.1,0.1-0.1,0-0.2,0.1C21.8,12.2,22,12.2,22,12.2L22,12.2z M24.6,9.2c-0.1-0.2-0.2-0.4-0.4-0.1c0,0.1,0.2,0.1,0.2,0.3
		C24.5,9.3,24.5,9.3,24.6,9.2L24.6,9.2z M25.8,11.4C25.8,11.4,25.7,11.4,25.8,11.4c-0.1,0-0.2,0-0.3,0.1
		C25.6,11.5,25.7,11.4,25.8,11.4L25.8,11.4z M19.8,9.4c-0.1-0.1-0.2,0.1-0.2,0.2l0.1,0.1c0,0,0.1-0.1,0.1,0c0.1-0.1-0.1-0.1-0.1-0.1
		C19.7,9.5,19.7,9.5,19.8,9.4L19.8,9.4z M22.3,10.7c-0.1,0-0.1,0.1-0.2,0.1c0,0,0,0.1,0,0.1C22.3,10.9,22.3,10.8,22.3,10.7
		C22.3,10.7,22.2,10.8,22.3,10.7L22.3,10.7z M24.1,9.7c-0.1-0.1-0.2,0-0.1,0.1C24,9.7,24,9.8,24.1,9.7L24.1,9.7z M22.3,10
		c-0.1,0-0.1,0.1-0.1,0.1c0.1,0,0.1,0,0.2,0.1c0,0,0-0.1,0.1-0.1C22.4,10,22.3,10,22.3,10L22.3,10z M20.5,11.9
		c-0.1-0.1-0.1-0.1-0.2,0c0.1,0,0.1,0.1,0.1,0.1S20.4,11.9,20.5,11.9L20.5,11.9z M20.4,11.4c0,0-0.2,0.1-0.1,0.1
		C20.3,11.5,20.3,11.5,20.4,11.4C20.4,11.5,20.3,11.5,20.4,11.4L20.4,11.4z M18.1,10.3C18.1,10.4,18.1,10.4,18.1,10.3
		c0,0.2,0,0.3,0,0.4c0.1-0.1,0.1-0.2,0-0.3C18.2,10.4,18.2,10.3,18.1,10.3C18.1,10.3,18.1,10.3,18.1,10.3L18.1,10.3z M32.1,12.3
		c-0.1,0-0.1,0-0.1-0.1c0,0.1-0.1,0.1,0,0.2C32,12.4,32.1,12.3,32.1,12.3L32.1,12.3z M32.6,11.6c0,0.1,0.1,0.1,0,0.2
		C32.6,11.8,32.6,11.6,32.6,11.6C32.6,11.6,32.6,11.6,32.6,11.6L32.6,11.6z M29.3,8.4c0,0.1,0,0.1,0,0.1c0-0.1,0-0.1,0.1-0.1
		c0,0,0,0.1,0.1,0.1c0,0,0.1-0.1,0.1-0.1C29.4,8.3,29.3,8.4,29.3,8.4L29.3,8.4z M29.5,8.2c0,0.1-0.1,0-0.2,0
		C29.3,8.3,29.4,8.3,29.5,8.2C29.5,8.2,29.5,8.2,29.5,8.2L29.5,8.2z M29.6,8.2C29.6,8.3,29.6,8.3,29.6,8.2c-0.1,0.1-0.1,0-0.1,0.1
		c-0.1,0.1,0.1,0.2,0.1,0.2c0.1-0.1,0.2-0.1,0.2-0.2C29.7,8.3,29.7,8.3,29.6,8.2L29.6,8.2z M30.6,9c0-0.1-0.1-0.1-0.2,0
		C30.5,9,30.5,9,30.6,9C30.6,9,30.6,9,30.6,9L30.6,9z M32.6,11.9c0,0.1,0.1,0.1,0.1,0.1C32.7,12.1,32.7,12,32.6,11.9
		C32.6,12,32.6,11.9,32.6,11.9L32.6,11.9z M21.7,27.5c0.1,0,0.1,0,0.1-0.1c0.1,0.1,0.1,0,0.2,0.1C22,27.7,21.7,27.7,21.7,27.5
		L21.7,27.5z M25.2,30.3c-0.1,0.1-0.1,0.1-0.1,0.1c0.1,0.1,0.1,0.2,0.1,0.2c-0.1-0.1-0.1,0.1-0.2,0.1c-0.1-0.1-0.1-0.2-0.1-0.2
		c0,0-0.1,0-0.1,0c0,0,0-0.1-0.1-0.1c0,0,0-0.1,0.1-0.1c0.1,0,0.1,0.1,0.2,0.2C25,30.3,25,30.4,25.2,30.3
		C25.1,30.3,25.1,30.3,25.2,30.3c-0.1,0-0.2,0-0.2,0C25,30.1,25.1,30.3,25.2,30.3C25.2,30.2,25.2,30.3,25.2,30.3L25.2,30.3z
		 M22.2,28.8C22.2,28.7,22.1,28.7,22.2,28.8c0.1,0-0.1,0.1-0.2,0.1c0,0,0-0.1,0-0.1C22.1,28.7,22.1,28.8,22.2,28.8L22.2,28.8z
		 M19.4,27.7c0.1,0,0.2-0.1,0.1-0.1c0,0.1-0.1-0.1-0.1-0.1c0,0-0.1,0.1-0.1,0.1C19.2,27.6,19.3,27.7,19.4,27.7
		C19.4,27.7,19.4,27.7,19.4,27.7c-0.1,0-0.1,0.1-0.2,0.2C19.3,27.8,19.4,27.8,19.4,27.7L19.4,27.7z M19.5,27.5c0,0,0-0.1-0.1-0.1
		c0-0.1,0,0,0.1-0.1c-0.1-0.1,0-0.2-0.1-0.2c0.1,0,0.1,0,0.2,0.1c0,0.1,0.1,0.1,0.1,0.1C19.6,27.3,19.6,27.4,19.5,27.5L19.5,27.5z
		 M20.6,29C20.6,29.1,20.7,29.1,20.6,29c-0.1,0-0.2,0.1-0.3,0.1c0,0,0.1-0.1,0-0.2c0,0,0,0,0,0.1c0,0,0-0.1-0.1-0.1
		c0.1-0.1,0.2-0.1,0.3-0.1C20.6,28.9,20.5,28.9,20.6,29C20.6,29,20.6,29,20.6,29L20.6,29z M23,29.9c-0.2,0-0.1,0.2-0.2,0.3
		c-0.1,0,0-0.1,0-0.1C22.8,30,22.8,29.9,23,29.9L23,29.9z M22.1,31.1c0-0.1,0-0.3,0.1-0.2C22.2,31,22.2,31.1,22.1,31.1L22.1,31.1z
		 M30.6,28.3c0-0.1-0.1,0-0.1-0.1C30.5,28.3,30.7,28.2,30.6,28.3L30.6,28.3z M29.1,33.6c0-0.1,0.2-0.1,0.1-0.2
		c0.1-0.1,0.1,0,0.2-0.1c0,0,0,0.1,0,0.1c0,0,0,0,0,0c0,0-0.1,0.1-0.1,0C29.3,33.5,29.3,33.6,29.1,33.6
		C29.2,33.6,29.2,33.6,29.1,33.6L29.1,33.6z M27.7,31.9C27.6,32,27.6,31.9,27.7,31.9c-0.1-0.1-0.1-0.1-0.1-0.2c0,0,0.1,0,0.1,0
		C27.6,31.8,27.6,31.9,27.7,31.9L27.7,31.9z M22.2,27.2c-0.1,0-0.1,0.1-0.2,0.1c0,0,0-0.1,0-0.1c0-0.1-0.1,0-0.1-0.1
		c0.1,0,0.1,0,0.2-0.1C22.1,27.1,22.2,27.1,22.2,27.2C22.2,27.2,22.2,27.2,22.2,27.2L22.2,27.2z M21.8,27.1
		C21.8,27.1,21.8,27.1,21.8,27.1C21.7,27,21.7,27,21.6,27c0,0.1,0.1,0.1,0.1,0.2c-0.1,0-0.2,0-0.3,0.1c0,0,0.1,0,0.1,0
		c0,0,0,0.1,0,0.1c0-0.1,0-0.1,0.1-0.2c0.1,0,0.2,0,0.3-0.1C21.8,27.3,21.8,27.2,21.8,27.1L21.8,27.1z M23.3,27.8
		C23.3,27.8,23.2,27.7,23.3,27.8c-0.1-0.1-0.1-0.2-0.1-0.2c0,0-0.1,0-0.1,0c0,0,0-0.1,0-0.1c-0.1,0-0.2,0-0.4,0c0,0-0.1,0.1,0,0.1
		c0,0-0.1,0-0.1,0c0,0-0.1,0-0.1,0.1c0-0.1,0.1-0.1,0-0.1c-0.1,0-0.1,0.1-0.2,0v0c0,0,0.2,0,0.2,0.1c-0.1,0.1-0.1,0-0.2,0.1
		c0.1,0.1,0,0.2,0.2,0.2c0,0.1-0.1,0.2-0.2,0.2c0,0.1,0,0.1,0,0.2c0.1,0.1,0.2-0.1,0.3-0.1l0.1,0.1c0.1-0.1,0.1-0.2,0.1-0.3
		c0.1,0,0,0.2,0.1,0.2c0,0,0,0,0.1,0c0,0-0.1,0-0.1,0.1c0,0.1,0,0.2,0.2,0.2c0,0,0-0.1,0-0.1c0,0-0.1,0-0.1,0c0,0,0.1,0,0.1-0.1
		c-0.1-0.1,0-0.3,0-0.4C23.2,27.8,23.2,27.9,23.3,27.8L23.3,27.8z M22.7,27.5c0.1-0.1,0.3,0.1,0.2,0.2
		C22.7,27.7,22.6,27.6,22.7,27.5L22.7,27.5L22.7,27.5z M22.7,27.2c0.1,0,0.1,0.1,0.2,0.1C22.8,27.4,22.7,27.3,22.7,27.2L22.7,27.2z
		 M20.6,8.9c-0.1,0.1-0.2,0-0.2,0c0,0,0,0.1-0.1,0.1C20.5,8.9,20.5,9,20.6,8.9C20.6,9,20.6,9,20.6,8.9C20.6,8.9,20.6,8.9,20.6,8.9
		c0.1,0,0-0.1,0.1-0.2c-0.1,0-0.1-0.1-0.2,0c0,0,0.1,0,0.1,0C20.5,8.8,20.5,8.9,20.6,8.9L20.6,8.9z M23.7,10.6
		c-0.1,0-0.1-0.1-0.1-0.2c0,0-0.1,0-0.1,0.1c0,0,0.1,0,0.1,0c0,0,0,0,0,0.1c0,0,0.1,0,0,0.1C23.6,10.6,23.7,10.6,23.7,10.6
		L23.7,10.6z M18.7,16.3c0,0,0-0.1,0-0.1L18.7,16.3c-0.1-0.1-0.1-0.2-0.1-0.1C18.6,16.3,18.6,16.3,18.7,16.3
		C18.7,16.4,18.6,16.4,18.7,16.3C18.7,16.4,18.7,16.4,18.7,16.3C18.7,16.4,18.7,16.4,18.7,16.3C18.7,16.4,18.7,16.4,18.7,16.3
		L18.7,16.3z M18.4,16.8c0.1-0.1,0.1-0.1,0-0.2c-0.1,0.1-0.1,0.1-0.2,0.1c0,0,0,0,0,0.1C18.2,16.8,18.3,16.8,18.4,16.8
		C18.4,16.7,18.3,16.8,18.4,16.8L18.4,16.8z M22.2,8L22.2,8c-0.1,0.1-0.1,0.1-0.1,0.1C22.2,8.2,22.2,8.2,22.2,8
		C22.3,8,22.3,8.1,22.2,8L22.2,8z M23.3,8.5c0,0.2-0.2,0.1-0.3,0.2C23.1,8.9,23.3,8.7,23.3,8.5C23.3,8.5,23.3,8.5,23.3,8.5L23.3,8.5
		z M19.5,8.5c0-0.1-0.1-0.1,0-0.1c-0.1,0.1-0.2-0.1-0.4,0C19.2,8.4,19.4,8.5,19.5,8.5L19.5,8.5z M18.1,11.1c0,0.1,0.1,0.1-0.1,0.2
		c0,0,0,0,0.1,0C18.2,11.2,18.1,11.2,18.1,11.1L18.1,11.1C18.1,11.1,18.1,11.1,18.1,11.1L18.1,11.1z M18.6,16.5c0-0.1,0-0.2,0-0.2
		C18.5,16.3,18.5,16.4,18.6,16.5L18.6,16.5L18.6,16.5z M19.4,23.7L19.4,23.7c0-0.1,0-0.1,0-0.2C19.3,23.6,19.3,23.6,19.4,23.7
		L19.4,23.7z M23.7,27.7c-0.1,0-0.2-0.1-0.3-0.1c0-0.1-0.1-0.1-0.2,0v0c0,0,0.1,0,0.1,0.1c0,0.1,0,0,0,0.1
		C23.5,27.9,23.6,27.9,23.7,27.7L23.7,27.7z M23.5,27.8C23.5,27.7,23.6,27.7,23.5,27.8C23.6,27.8,23.5,27.8,23.5,27.8L23.5,27.8
		L23.5,27.8z M26.1,28.9c0-0.1-0.1-0.1-0.2-0.1c0,0,0,0,0,0c0-0.1,0,0,0.1,0c0,0-0.1-0.1,0-0.1c0.1,0,0.1,0.1,0.1,0.1
		C26.1,28.7,26.2,28.7,26.1,28.9C26.2,28.8,26.2,28.8,26.1,28.9L26.1,28.9z M25.5,31.9c0,0.1,0.1,0.1,0.1,0.2
		c-0.1-0.1-0.2-0.1-0.3,0c0,0.1,0,0.1-0.1,0.2c-0.1-0.1-0.2-0.1-0.2-0.2c0.1,0,0.1-0.1,0.2-0.2C25.3,32,25.4,31.9,25.5,31.9
		L25.5,31.9z M23.6,28.8C23.6,28.8,23.6,28.8,23.6,28.8C23.6,28.8,23.6,28.8,23.6,28.8C23.6,28.8,23.7,28.8,23.6,28.8
		c0,0.1,0,0.2,0,0.2C23.6,28.9,23.6,28.8,23.6,28.8C23.6,28.8,23.6,28.8,23.6,28.8C23.6,28.8,23.6,28.7,23.6,28.8L23.6,28.8z
		 M28.9,33.5c0.1-0.1,0.1-0.1,0.2-0.1C29,33.5,28.9,33.6,28.9,33.5L28.9,33.5z M21.6,27.9c0,0,0.1,0,0.1,0
		C21.7,28,21.6,28,21.6,27.9C21.6,27.9,21.6,27.9,21.6,27.9L21.6,27.9z M22.3,28.4C22.4,28.5,22.3,28.5,22.3,28.4c0,0.1,0,0.2,0,0.2
		c0.1-0.1,0.1,0,0.1,0.1c0.1,0,0.1-0.1,0.2,0c0.1-0.2-0.3-0.2-0.2-0.4c0,0,0.1,0,0.1-0.1C22.5,28.3,22.4,28.4,22.3,28.4L22.3,28.4z
		 M22.4,28.6C22.3,28.6,22.4,28.5,22.4,28.6C22.5,28.6,22.4,28.6,22.4,28.6L22.4,28.6L22.4,28.6z M22.8,29.1C22.9,29,22.9,29,23,29
		c-0.1,0-0.2-0.1-0.3-0.2c0-0.1,0.1-0.1,0.2-0.2c0.1,0.1,0.2,0,0.2-0.1c-0.1,0-0.1,0-0.2,0c0,0-0.1-0.1-0.1-0.1c0.1,0,0.2,0,0.2,0
		c0.1,0.1,0.1,0.1,0.1,0.1c-0.1,0.1-0.1,0.1-0.2,0.2c0,0.1,0.1,0.1,0.1,0.2c0,0,0,0.1,0,0.1C23,29.2,22.9,29.1,22.8,29.1L22.8,29.1z
		 M22.4,29.2L22.4,29.2c-0.1-0.1,0.1-0.2,0.2-0.3C22.6,29,22.4,29.1,22.4,29.2L22.4,29.2z M23.5,32.9c-0.1-0.1,0-0.1,0-0.2
		c0,0-0.1,0-0.1,0c0,0,0,0-0.1,0c0,0,0,0,0,0c-0.1,0-0.1,0-0.2,0.1c0-0.1,0.1-0.2,0.2-0.3c0,0.1,0.1,0.1,0.2,0.1
		c0,0.1,0,0.1,0.1,0.2C23.5,32.9,23.6,32.9,23.5,32.9L23.5,32.9z M24.3,32.7c-0.1,0-0.1-0.2,0-0.2C24.3,32.6,24.3,32.7,24.3,32.7
		L24.3,32.7z M22.6,31c0.1,0.1,0.1,0.1,0.1,0.2C22.6,31.1,22.5,31,22.6,31L22.6,31z M25,35.3c0.1,0,0.2-0.2,0.3-0.1
		c0.1,0.1-0.1,0.3-0.2,0.4C25,35.5,25,35.4,25,35.3L25,35.3z M24.3,34.4C24.3,34.5,24.3,34.5,24.3,34.4
		C24.3,34.5,24.3,34.5,24.3,34.4c0.1,0.1,0.2,0.1,0.2,0.2C24.4,34.6,24.4,34.5,24.3,34.4C24.2,34.5,24.2,34.5,24.3,34.4L24.3,34.4z
		 M24.4,35c-0.1,0,0-0.2-0.1-0.2C24.3,34.8,24.5,34.9,24.4,35L24.4,35z M25.9,32.7c0,0-0.1-0.1-0.1-0.1c0-0.1,0.1-0.2,0.1-0.3
		c0,0.1,0.1,0.1,0.2,0c-0.1-0.1-0.1-0.1-0.2,0c0-0.1-0.1-0.2-0.1-0.2c0.1,0.1,0.1,0.1,0.2,0c0.1,0.1,0.1,0.2,0.1,0.2
		c0,0,0.1,0,0.1,0.1c-0.1,0-0.1,0.1,0,0.2c0,0.1,0,0.1-0.1,0.1c0,0,0.1,0.1,0,0.1c-0.1,0-0.1-0.1-0.2-0.2
		C26,32.7,25.9,32.7,25.9,32.7L25.9,32.7z M25.7,32.5C25.7,32.4,25.7,32.4,25.7,32.5c-0.1-0.1,0-0.2-0.1-0.2
		C25.6,32.3,25.6,32.4,25.7,32.5L25.7,32.5z M24.1,31.8c0.1,0.1,0,0.1,0,0.2C24.1,31.9,24.1,31.8,24.1,31.8
		C24,31.8,24.1,31.8,24.1,31.8L24.1,31.8z M22.5,31.9c0-0.1,0-0.2,0-0.2c0,0,0,0,0,0c0,0,0,0,0,0.1C22.6,31.8,22.5,31.8,22.5,31.9
		L22.5,31.9z M26.3,34.6C26.3,34.7,26.2,34.7,26.3,34.6c-0.2,0-0.3-0.1-0.4-0.2c0,0,0.1-0.1,0-0.1s-0.1,0-0.1,0
		c-0.1-0.1,0-0.1-0.1-0.2c0.1,0,0-0.1,0.1-0.1c0.1,0,0,0.1,0,0.1c0.1,0.1,0.2,0.1,0.3,0.2C26,34.4,26,34.4,26,34.5
		c0.1,0,0.2-0.1,0.2-0.1c0,0-0.1,0.1-0.1,0.1C26.2,34.6,26.2,34.6,26.3,34.6L26.3,34.6z M23.4,32.6c0-0.1,0.1-0.1,0.1-0.2
		c0,0,0,0.1,0.1,0.1C23.5,32.5,23.4,32.6,23.4,32.6L23.4,32.6z M23,29.2C23.1,29.3,23,29.3,23,29.2c0.1,0.2,0.2,0.1,0.2,0.1
		c0,0.1,0,0.2-0.1,0.2c-0.1-0.1,0-0.1-0.1-0.2c0,0-0.1,0-0.1,0C23,29.4,22.9,29.3,23,29.2L23,29.2z M28.2,33.5
		C28.1,33.4,28.1,33.4,28.2,33.5c0-0.1,0-0.1,0-0.2c0.1,0,0.1,0,0.1,0.1C28.2,33.4,28.2,33.5,28.2,33.5L28.2,33.5z M25.4,30.9
		c-0.1,0-0.2,0.1-0.2,0.1c0.1-0.1-0.1-0.2,0-0.2C25.2,30.8,25.3,30.8,25.4,30.9C25.4,30.8,25.4,30.8,25.4,30.9
		C25.5,30.8,25.4,30.9,25.4,30.9L25.4,30.9z M22.4,29.3C22.4,29.3,22.4,29.3,22.4,29.3c0.1,0,0.1-0.1,0.1,0
		C22.5,29.3,22.5,29.4,22.4,29.3C22.4,29.4,22.3,29.4,22.4,29.3C22.3,29.4,22.3,29.3,22.4,29.3C22.4,29.3,22.4,29.3,22.4,29.3
		L22.4,29.3z M24.9,32.2c-0.1-0.1-0.1-0.1-0.1-0.2C24.9,32,24.9,32.1,24.9,32.2L24.9,32.2L24.9,32.2z M25.9,37.4
		c-0.1,0,0-0.2,0.1-0.1C26,37.3,26,37.4,25.9,37.4L25.9,37.4z M26.1,31.4c0.1-0.1,0.1,0,0.2,0c0,0,0,0.1,0,0.1c0,0,0,0-0.1,0
		C26.3,31.4,26.1,31.5,26.1,31.4L26.1,31.4z M25.8,31.6L25.8,31.6c-0.1,0-0.1-0.1-0.2-0.2c0,0,0,0,0,0.1c0,0-0.1,0,0,0
		c0,0,0.1-0.1,0.1-0.1v0c0.1-0.1,0.1,0,0.2,0.1C25.7,31.5,25.7,31.6,25.8,31.6L25.8,31.6z M25.6,34.5c0,0.1,0.1,0,0.2,0
		c0,0,0-0.1,0-0.1c0,0,0-0.1,0-0.1S25.7,34.4,25.6,34.5C25.7,34.5,25.7,34.5,25.6,34.5C25.7,34.5,25.7,34.5,25.6,34.5L25.6,34.5z
		 M25.5,26.8c0.1,0.4,0.1,0.7,0,0.9c0,0,0,0,0,0c0,0.1,0,0.1,0.1,0.1c-0.1,0.1,0.1,0.2,0.1,0.3c0.1-0.1,0.1,0,0.2,0c0,0.1,0,0-0.1,0
		v0c0.1,0.1,0.2,0.1,0.4,0.2c0,0,0-0.1,0-0.1c0.1,0.1,0.1,0.2,0.1,0.3c-0.1,0-0.2-0.1-0.2-0.2c-0.1,0-0.1,0.1-0.2,0.1
		c0-0.1-0.1-0.1-0.1-0.1c0,0.1,0,0.3-0.1,0.3c0.1,0,0.1,0,0.2,0.1c-0.1,0.1-0.2,0.1-0.3,0c0.1-0.1,0-0.2,0-0.3c0.1,0,0.2,0,0.3-0.1
		c-0.1-0.2-0.2,0.1-0.3,0c0,0,0,0,0,0.1c-0.1,0-0.1-0.1-0.1-0.1c0.1,0.3-0.2,0.4-0.4,0.2c0.1-0.1,0.1-0.1,0.2-0.1c0,0,0-0.1,0-0.1
		c-0.1,0.1-0.2,0.2-0.3,0.2c0,0,0,0,0.1,0.1c0,0.1-0.1,0.1-0.2,0.1c0-0.1-0.1-0.2,0.1-0.3c0,0,0,0,0,0.1c0.3-0.4,0.3-0.4,0.5-0.7
		C25.4,27.6,25.5,27.2,25.5,26.8L25.5,26.8z M25.1,28.4c0.1,0,0.2,0,0.3,0c0-0.1,0.1-0.2,0.2-0.2c0-0.1,0-0.1-0.1-0.2c0,0,0,0-0.1,0
		c0,0,0,0.1,0,0.1h0c0,0,0,0,0-0.1C25.3,28.1,25.2,28.2,25.1,28.4L25.1,28.4z M25.4,26.4c-0.1,0.5-0.3,1-0.5,1.3
		c-0.3,0.3-0.5,0.5-0.9,0.8C24.6,28.3,25.4,27.6,25.4,26.4L25.4,26.4z M25.3,25.7c-0.4,1.1-1,2.2-2.3,1.6
		C24.1,27.9,24.9,28,25.3,25.7L25.3,25.7z M24,32.6c0-0.2-0.1-0.5-0.2-0.8c0.1,0,0.1-0.1,0.2-0.2c0,0,0,0.1,0,0.1c0.1,0,0.1,0,0.2,0
		c0,0-0.1,0-0.1-0.1c0,0,0.1-0.1,0-0.1c0.1,0.1,0.1,0.1,0.2,0.2c0-0.1,0-0.1,0.1-0.2c0,0-0.1,0-0.1,0c0-0.1,0-0.2,0-0.2
		c-0.1,0-0.1,0-0.2,0c0,0,0,0,0,0.1c0.1,0,0.1,0.1,0,0.2c0,0,0-0.1,0-0.1c0,0-0.1,0.1-0.2,0.2c0-0.1-0.1-0.2-0.1-0.2
		c-0.1-0.3-0.1-0.6,0-0.8c-0.4,0.1-0.2,0.6,0.1,1.1v0c0,0,0,0,0,0C23.8,32.1,24,32.4,24,32.6L24,32.6z M25.1,37.7
		c0.2,0,0.4,0.1,0.6,0c0.2-0.3,0.5-0.7,0.7-1s0.4-0.7,0.5-1c0.3,0.2,0,0.8-0.4,1.2c-0.2,0.3-0.5,0.6-0.7,0.8c0.1,0,0.2-0.1,0.3-0.1
		l0,0c0.7-0.7,1.5-1.4,2.2-2.3c-0.1,0-0.2,0.1-0.2,0c0.1,0.1,0.2-0.1,0.3-0.1c0,0,0,0,0,0.1c0.1-0.1,0.1-0.1,0.2-0.2l0,0
		c0,0,0-0.1,0-0.1c0,0,0.1,0,0.1,0c0.3-0.4,0.6-0.8,0.8-1.2c0.2-0.5,0.4-0.9,0.6-1.4c-0.3-0.5-0.5-0.9-0.7-1.4
		c-0.1-0.3-0.3-0.6-0.4-0.9c0,0,0,0.1,0,0.1c-0.1-0.1-0.1-0.1-0.2-0.1c-0.5,1.3-1.4,2.9-1.4,3.8c-0.2-0.8,0.9-2.6,1.1-3.7l0-0.1h0
		c0-0.1,0.1-0.2,0-0.2c0,0,0.1,0,0.1-0.1c0-0.2,0.1-0.3,0.1-0.5c-0.1-0.2-0.2-0.5-0.3-0.7c-0.2-0.5-0.5-1-0.8-1.5
		c-0.4-0.2-0.8-0.6-1.2-1.4c-0.1-0.1-0.3-0.2-0.4-0.2c-0.2,0.1-0.4,0-0.7-0.1c-0.8,1.9-1.9,1.9-2.9,1.1l0,0l0,0l0,0l0,0l0,0l0,0l0,0
		h-0.1l0,0h0l0,0l0,0h0l0,0l0,0l0,0l0,0l0,0l0,0h0l0,0l0,0l0,0h-0.1l0,0l0,0l0,0h0l0,0h0H22l0,0l0,0c0,0,0,0-0.1,0l0,0l0,0h-0.1l0,0
		l0,0l0,0h-0.1l0,0l0,0h-0.1l0,0l0,0l0,0c0,0,0,0-0.1,0h-0.1h0h0c0.1,0,0,0.1,0,0.1c-0.1,0-0.2,0.1-0.3,0.1c0-0.1,0-0.2,0.1-0.2h0
		l0,0c0,0,0,0-0.1,0l0,0l0,0h0c0,0,0,0,0,0c-0.1,0-0.1,0-0.1,0c0,0,0,0.2-0.1,0.1c0-0.1,0-0.1,0-0.1h0h0l0,0l0,0c0,0.2,0,0.3,0,0.5
		c0.1-0.1,0.1-0.1,0.2-0.1c0,0.1-0.1,0.1-0.2,0.1v0c0,0.2,0,0.3,0.1,0.5c0,0.1,0.1,0.3,0.1,0.4c0.1,0,0.1,0.1,0.1,0.2
		c0.1,0.3,0.2,0.7,0.3,0.9c0.1,0.2,0.1,0.4,0.1,0.5c0,0,0,0,0,0c0,0.1-0.1,0.1-0.1,0.1c0,0,0-0.1,0-0.1c0,0,0.1,0,0.1,0
		c0-0.1,0-0.3-0.1-0.4c-0.2-0.4-0.5-0.9-0.6-1.4c-0.2-0.4-0.3-0.8-0.2-1.1h0h0l0,0h0h0h0h0h0h0h0l0,0h0h0h0h-0.1h0h0h0l0,0h0l0,0
		l0,0h0h0h0h0h0l0,0h0h0h0l0,0h0l0,0h0h0h0h0h0h0h0h0h0l0,0h0h0h0h0c0,0.1-0.2,0.1-0.3,0.1c0.1-0.1,0.1-0.1,0.2-0.1l0,0l0,0h0l0,0h0
		h0h0l0,0h0l0,0c0,0-0.1,0-0.1,0l0,0h0l0,0c0,0-0.1,0-0.1,0l0,0h0c0.1,0.4,0.3,0.8,0.5,1h0l0,0l0,0c0,0,0,0,0.1,0
		c0,0.1,0,0.1-0.1,0.1c0.4,0.7,0.8,0.9,0.9,1.8c0,0,0.1-0.1,0.1-0.1l0.1,0.1c0,0-0.1,0.1-0.1,0.1c0,0,0,0.1,0,0.1c0,0,0-0.1,0.1-0.1
		c0,0-0.1,0.1,0,0.1c0,0,0.1,0,0.1,0c0,0-0.1,0-0.2,0c0,0.3,0,0.7,0,1.2c0.6-0.9,0.9-1.5,0.9-2.1c0,0,0,0,0,0l0,0c0.1,0,0.2,0,0.2,0
		c-0.1,0.1,0,0.2-0.1,0.2c-0.1,0,0-0.1,0-0.2c0,0,0,0,0,0c0,0-0.1,0-0.1,0l0,0c1.1,2.7-0.4,3.1,1.8,5.6c0.1-1.3,0.2-1.4,0.7-1.9
		c0.1,1.5,0,2.2,1.7,4.7C25,37.7,25.1,37.7,25.1,37.7c0-0.1-0.1-0.2-0.2-0.4c-0.1-0.2-0.2-0.4-0.4-0.6c0,0-0.1,0-0.1,0
		c0,0,0-0.1,0.1-0.1c0,0,0,0,0,0c-0.1-0.2-0.2-0.3-0.3-0.5c-0.3-0.7-0.6-1.3-0.2-1.5c0,0.2,0,0.4,0.1,0.6c0,0,0.1,0,0.1,0
		c0,0,0-0.1,0-0.1c0.1,0,0.1,0,0.2-0.1c0.1,0.2,0.2,0,0.3,0.1c0,0.1,0,0.2-0.1,0.3c0,0,0-0.1,0-0.1c-0.1,0-0.3,0.1-0.4,0
		c0,0-0.1,0-0.1,0c0.1,0.2,0.1,0.4,0.2,0.7c0.2,0.5,0.4,0.9,0.6,1.3C25.1,37.5,25.1,37.6,25.1,37.7L25.1,37.7z M28.7,29.9
		c0-0.1,0-0.1,0.1-0.1c0,0.1,0.1,0.2,0.1,0.3c0,0-0.1,0-0.1,0C28.7,30,28.7,30,28.7,29.9C28.7,29.9,28.7,29.9,28.7,29.9L28.7,29.9z
		 M25.5,37.3c0.3-0.9-0.5-3.5,0.1-3.8c-0.4,0-0.5,0.3-0.5,0.7l-0.1-0.1c0,0-0.1,0.1-0.1,0.1c0,0,0,0.1,0,0.1c0,0,0.1-0.1,0.1-0.1
		c0,0.2,0,0.4,0.1,0.6C25.4,35.7,25.6,36.3,25.5,37.3L25.5,37.3z M32.7,26.9L32.7,26.9c0,0-0.1,0-0.1,0l0,0h0l0,0c0,0-0.1,0-0.1,0
		l0,0c-0.1,0-0.1,0-0.2,0l0,0c0,0-0.1,0-0.1,0l0,0c0,0-0.1,0-0.1,0l0,0c0,0-0.1,0-0.1,0l0,0c-0.1,0-0.1,0-0.2,0h0h0h0h0h0h0h0h0l0,0
		c0,0,0,0-0.1,0h0h0l0,0c0,0,0,0-0.1,0h0h0l0,0h0l0,0h0h0h0h0H31h0h0h0h0h0l0,0h0h0h0h0l0,0h0h0h0l0,0h0l0,0h0h0h0h-0.1l0,0l0,0h0h0
		h-0.1l0,0l0,0h0l0,0h-0.1l0,0l0,0h0h0H30l0,0c0,0,0,0-0.1,0l0,0h-0.1c0,0,0,0-0.1,0l0,0l0,0c0,0,0,0-0.1,0l0,0h-0.1l0,0h-0.1l0,0
		l0,0h-0.1l0,0l0,0h-0.1l0,0l0,0h-0.1l0,0l0,0l0,0h-0.1l0,0l0,0l-0.1,0l0,0l0,0c0,0,0,0-0.1,0c-0.2,0.1-0.3,0.2-0.5,0.3
		c0.1,0.1,0.2,0.3,0.3,0.4c0.2,0.3,0.3,0.5,0.5,0.8c0.2,0.4,0.4,0.7,0.6,1.1c0.2,0.3,0.4,0.6,0.6,0.9v0c0-0.1,0.1-0.2,0.1-0.2
		c0.1,0.4,0.1,0.5,0.2,0.6c0.1,0.1,0.2,0.3,0.3,0.3c0.2-0.8,0.3-1.6,0.1-2.4l0.6,1.4C32.1,28.9,32.5,27.9,32.7,26.9L32.7,26.9z
		 M18,26.8c-0.3,0.4-0.9,0.4-1.4,0.3c0.2-0.1,0.3-0.3,0.5-0.4c0,0,0.1,0.1,0.2,0c0,0-0.1-0.1-0.1-0.1l0,0l0,0c0,0,0,0,0.1,0l0,0
		c0,0,0,0,0.1,0l0,0l0,0h0l0,0l0,0h0h0h0l0,0l0,0h0h0h0h0h0h0h0h0h0h0l0,0l0,0l0,0h0l0,0l0,0l0,0l0,0L18,26.8L18,26.8z"/>
	<path fill="#00000B" d="M28.2,17.2c-0.7,0.1-1.4,0.2-1.6,0.8c-0.2,0.5,0,1.3,0.2,1.8c0.2,0.5,0.6,1,1,1.3c0.6,0.4,2.1,0.7,3-0.2
		c0,0,0,0,0,0c0,0,0.1-0.1,0.1-0.1l0,0c0.4-0.5,0.6-1.1,0.5-2.2c0-0.2-0.1-0.4-0.1-0.5c0,0-0.1,0-0.1,0c0-0.1,0-0.1,0.1-0.1
		c-0.2-0.3-0.4-0.5-0.9-0.6C29.7,17.1,28.8,17.1,28.2,17.2L28.2,17.2z M27.5,19.5C27.4,19.3,27.7,19.4,27.5,19.5L27.5,19.5z
		 M28.2,19.4L28.2,19.4c-0.1,0-0.2,0-0.2,0.1c0,0.1,0.1,0,0.1,0.1c-0.1,0-0.1,0.1-0.1,0.1c0-0.1-0.1-0.1,0-0.2
		C27.9,19.5,28.1,19.3,28.2,19.4L28.2,19.4z M29.3,19.7C29.3,19.7,29.3,19.7,29.3,19.7C29.3,19.7,29.3,19.7,29.3,19.7
		C29.3,19.7,29.3,19.7,29.3,19.7C29.3,19.7,29.3,19.7,29.3,19.7c0.1,0.1,0.1,0.1,0.1,0.1c0,0,0.1,0,0.1,0.1c0,0,0,0-0.1,0
		c0,0,0,0,0,0.1c0,0.1-0.1,0.1-0.1,0.1c0,0,0-0.1-0.1-0.1c0-0.1,0-0.1,0-0.2C29.2,19.9,29.2,19.9,29.3,19.7c-0.1,0.1-0.1,0.1-0.1,0
		C29.2,19.7,29.2,19.7,29.3,19.7L29.3,19.7z M29.3,19.9C29.3,19.8,29.3,19.8,29.3,19.9L29.3,19.9L29.3,19.9L29.3,19.9L29.3,19.9z
		 M26.6,18.6C26.6,18.5,26.6,18.6,26.6,18.6c0-0.1,0.1-0.2,0.1-0.2C26.7,18.5,26.6,18.5,26.6,18.6L26.6,18.6z M28.5,20.4
		c-0.1,0-0.1-0.2-0.1-0.3c0,0,0.1,0,0.1,0c0-0.1,0.1,0,0.1-0.1c0,0,0-0.1,0-0.1c0,0,0.1-0.1,0.1,0c-0.1,0.1,0,0.2,0,0.2
		c0,0,0.1,0,0.1,0c0-0.1,0.1-0.1,0.1,0c0,0-0.1,0-0.1,0l0,0c-0.1,0.1-0.1,0.1-0.2,0.2c0-0.1,0,0-0.1-0.1
		C28.5,20.3,28.5,20.3,28.5,20.4L28.5,20.4z M29.5,20.4c-0.1,0-0.1-0.1-0.2,0c0,0,0,0,0-0.1c0.1,0,0.1-0.1,0.1-0.1
		C29.5,20.3,29.5,20.3,29.5,20.4C29.5,20.4,29.5,20.4,29.5,20.4L29.5,20.4z M29.9,21.1c0-0.1,0-0.1,0.1-0.1
		C30.1,21,30,21.2,29.9,21.1L29.9,21.1z M28.3,20.4C28.3,20.4,28.2,20.4,28.3,20.4c-0.1,0-0.2,0-0.2-0.1
		C28.2,20.2,28.2,20.4,28.3,20.4L28.3,20.4z M27.7,19.7C27.7,19.7,27.7,19.7,27.7,19.7c0,0.1,0,0.2-0.1,0.2
		C27.6,19.8,27.7,19.8,27.7,19.7L27.7,19.7z M27.8,19.9c0.1,0,0,0.1,0,0.1C27.9,20,27.9,20,27.8,19.9L27.8,19.9L27.8,19.9
		C28,20,28,20,28,19.9v0c0,0.1,0.1,0.1,0.1,0.2c-0.1,0-0.1-0.1-0.2-0.1h0C27.9,20,27.9,20,27.8,19.9C27.8,20,27.8,19.9,27.8,19.9
		L27.8,19.9z M27.4,19.2C27.4,19.2,27.4,19.1,27.4,19.2c0-0.1,0.1-0.1,0.1-0.1C27.5,19.1,27.5,19.2,27.4,19.2L27.4,19.2z M27.6,19.6
		c0.1,0,0.1-0.1,0.1-0.2l0,0C27.7,19.5,27.7,19.6,27.6,19.6L27.6,19.6z M26.9,18.8c-0.1-0.1-0.2,0.1-0.3,0c0,0,0.1-0.1,0-0.1
		c0,0,0,0-0.1,0c0,0,0-0.1,0-0.1c0,0,0.1,0.1,0.1,0.1c0,0-0.1,0-0.1,0C26.7,18.8,26.8,18.7,26.9,18.8c-0.1-0.1-0.1-0.1-0.1-0.1
		C26.8,18.7,26.9,18.7,26.9,18.8C26.9,18.8,26.9,18.8,26.9,18.8L26.9,18.8z M30.5,18.6C30.5,18.6,30.5,18.6,30.5,18.6
		c0,0.1,0.1,0.1,0.1,0.1c-0.1,0-0.1,0-0.2,0C30.5,18.7,30.4,18.6,30.5,18.6L30.5,18.6z M29.8,20c-0.1-0.1-0.2-1-0.2-1
		c0.1,0,0,0,0.1-0.1c0.1,0.1,0.1-0.1,0.2-0.1c0,0,0,0.1,0,0.1V20z M30,20.9c-2.1,0.4-3.1-1.3-3.2-2c0.1,0.2,0.2,0.4,0.4,0.6
		c0,0,0,0,0.1,0c0,0,0,0.1,0,0.1c0,0.1,0.1,0.1,0.1,0.2c0-0.1,0-0.2,0.1-0.2c0.1,0,0,0.1,0,0.1c0,0,0.1,0,0.1,0
		c-0.1,0.1-0.2,0.2-0.2,0.1C28.2,20.7,29.3,20.8,30,20.9z"/>
	<path fill="#00000B" d="M24.4,18.9C24.4,18.9,24.4,18.9,24.4,18.9C24.4,18.9,24.4,18.9,24.4,18.9c-0.1,0-0.1,0-0.2,0
		c-0.1-0.1-0.1-0.1-0.2-0.2c0.1,0,0.1-0.1,0.1-0.1c0.1,0,0,0,0,0.1c0.1,0,0.2,0,0.2-0.1c0-0.1,0-0.2,0-0.3c0,0,0,0,0,0
		c0,0,0-0.1,0-0.1l-0.1,0.1c-0.1,0,0-0.1-0.1-0.1c0,0.1-0.1,0.1-0.1,0c0,0,0.1-0.1,0.1,0l0,0l0.1-0.1c0,0,0,0.1,0,0.1l0,0l0,0
		c-0.1-0.7-0.5-0.9-1.2-1c0,0,0,0.1-0.1,0.1c0,0,0-0.1,0-0.1c-0.4-0.1-0.9-0.1-1.4-0.1c-1.8,0-2.4,0.4-2.2,2.3
		c0.2,1.4,1,2.1,2.6,1.8c0.5-0.1,0.9-0.3,1.2-0.6l0,0c0,0,0,0,0,0C24,20.2,24.3,19.6,24.4,18.9L24.4,18.9z M22.3,19.2
		c0.1,0.1,0.2,0.2,0,0.2C22.4,19.4,22.2,19.3,22.3,19.2L22.3,19.2z M23.3,17.9c0-0.1,0.1-0.2,0.1-0.3C23.5,17.6,23.4,17.9,23.3,17.9
		L23.3,17.9z M23.5,18.2c0,0.1,0,0.1-0.1,0.2c-0.1-0.1-0.2,0-0.3,0C23.2,18.3,23.3,18.4,23.5,18.2c0,0-0.1-0.1,0-0.1
		c0,0,0.1,0,0.1,0c0-0.1,0-0.1,0.1-0.2c0,0,0,0.1,0,0.1c0,0,0,0,0,0C23.6,18.2,23.5,18.2,23.5,18.2L23.5,18.2z M23.7,18.9L23.7,18.9
		c0,0.1,0.1,0.2,0,0.3C23.6,19.1,23.7,19,23.7,18.9L23.7,18.9z M24,17.9c0.1,0.1,0,0.2,0.1,0.3c0,0-0.1,0.1-0.1,0.1c0,0,0,0,0,0
		c0,0-0.1,0.1-0.1,0.1l0,0c0,0,0,0.1,0,0.1c0,0,0,0,0,0c0,0,0,0,0,0c0,0,0,0,0,0.1c0,0,0,0-0.1-0.1c0,0,0-0.1,0-0.1l0,0v0l0,0
		c0,0,0-0.1,0-0.1c0,0,0,0,0,0.1h0c0,0,0-0.1,0,0c0,0,0.1-0.1,0.1-0.1c0-0.1-0.1-0.1-0.1-0.1C24,18.2,23.9,18,24,17.9L24,17.9z
		 M21.2,20.1C21.2,20.1,21.2,20.1,21.2,20.1c-0.1,0-0.1,0.1-0.2,0.1c0-0.1,0-0.1-0.1-0.1c0,0,0-0.1,0-0.1c0.1,0,0.1-0.1,0.2-0.1
		C21.1,20,21.2,19.9,21.2,20.1C21.2,20,21.3,20.1,21.2,20.1L21.2,20.1z M22.1,20.8c-0.1,0.1-0.5,0.1-0.3-0.2c0,0,0.1,0,0.2-0.1
		C22.1,20.7,22.2,20.7,22.1,20.8L22.1,20.8z M23.1,17.4C23.1,17.4,23.1,17.4,23.1,17.4c0.1,0.1,0.2,0.1,0.2,0.2
		c-0.1,0-0.2,0-0.2-0.1C23.1,17.5,23.1,17.4,23.1,17.4L23.1,17.4z M23.6,20.1c0,0,0.1-0.1,0.1-0.2c0.1,0,0,0.1,0.1,0.1
		C23.8,20,23.7,20.1,23.6,20.1L23.6,20.1z M24.1,18.4C24.2,18.4,24.2,18.4,24.1,18.4C24.2,18.4,24.2,18.4,24.1,18.4
		C24.2,18.4,24.2,18.4,24.1,18.4C24.2,18.4,24.2,18.4,24.1,18.4C24.2,18.5,24.2,18.5,24.1,18.4c0,0.1-0.1,0.1-0.1,0.1L24.1,18.4
		C24.1,18.5,24.1,18.5,24.1,18.4C24.1,18.4,24.1,18.4,24.1,18.4L24.1,18.4z M22.5,17.9C22.5,17.8,22.4,17.9,22.5,17.9
		c0-0.1-0.1-0.2,0-0.3c0,0.1,0.1,0,0.1,0.1C22.6,17.7,22.6,17.8,22.5,17.9L22.5,17.9z M22.9,17.5C23,17.5,23,17.5,22.9,17.5
		C23,17.6,23,17.6,22.9,17.5c0.1,0.2-0.2,0.5-0.3,0.3l0.1-0.1c0.1,0,0,0.1,0.1,0c0.1-0.1,0-0.1,0-0.1C22.8,17.6,22.8,17.6,22.9,17.5
		L22.9,17.5z M23.1,18.5L23.1,18.5c0,0.2-0.1,0.4-0.2,0.4C22.9,18.8,22.9,18.7,23.1,18.5L23.1,18.5z M21.4,19.4
		C21.5,19.3,21.4,19.3,21.4,19.4C21.5,19.3,21.5,19.4,21.4,19.4L21.4,19.4L21.4,19.4z M22.2,21c-2.2,0.4-2.5-1.6-2.4-2.2
		C20.3,20.8,21.3,20.8,22.2,21z"/>
	<path fill="#00000B" d="M32.2,34.1c2.2,0.3,3.7-1.3,2.5-3.4c-0.3,0-0.6,0.1-1,0c-0.1,0.1-0.1,0.3-0.2,0.2c0.1,0,0.1-0.1,0.2-0.2
		c-0.1,0-0.3,0-0.4,0c-0.6-0.1-1-0.2-1.4-0.3c-0.6,1.7-1.4-0.1-2.5-2.2l-1,0.4C29.5,31.1,30.4,33.9,32.2,34.1L32.2,34.1z M33.8,31
		c0-0.1-0.1-0.1,0-0.2c0.1,0,0.1,0,0.2,0C34,31,33.9,31,33.8,31L33.8,31z M30.5,31.3C30.5,31.4,30.6,31.4,30.5,31.3
		c0.2,0,0.2,0,0.2,0c0,0,0,0.1,0,0.1c-0.1-0.1-0.1,0.1-0.2,0.1C30.5,31.4,30.5,31.4,30.5,31.3L30.5,31.3z M32.3,34
		c-1.1-0.1-1.9-1.4-2.6-3c1,1.4,2.2,2.6,3.3,2.5c0.9-0.1,1.6-0.5,2-1c0,0.1-0.1,0.3-0.1,0.4c0,0,0.1,0.1,0,0.1c0,0-0.1,0-0.1,0
		c-0.1,0.1-0.1,0.2-0.2,0.3c0,0,0.1,0.1,0.1,0.1c0,0-0.1,0-0.1,0C34.1,33.8,33.3,34.1,32.3,34z"/>
	<path fill="#00000B" d="M33.3,30.7c-0.8-0.1-1.4-0.3-1.4-0.3c0-0.1,0.7-0.1,1.4,0c0.8,0.1,1.3,0.3,1.4,0.4c0,0-0.4,0.1-1,0
		c0,0,0,0,0,0c0.1-0.1,0.2,0,0.2-0.1c0,0,0-0.1-0.1-0.1c-0.1,0.1-0.2,0-0.3,0c0,0-0.1,0-0.1,0.1c0.1,0,0.1,0,0.2,0.1
		C33.6,30.7,33.4,30.7,33.3,30.7z"/>
	<path fill="#00000B" d="M29.3,28.2c-0.4-0.7-0.8-1.3-1.2-1.9c-0.8-0.4-1.7-0.8-2.3-1.5l-0.1,0.1l0.1,0.5c1.1,0.2,1.8,1.6,2.5,3.2
		L29.3,28.2z"/>
	<path fill="#00000B" d="M16.9,23.9l0.3,0.5c-1.5-0.7-1.1-1.8-0.2-2.1c-0.6,0.2-1,0.5-1.2,0.8c0,0,0,0.1,0,0.1l0,0
		c-0.2,0.4-0.2,0.8,0,1.1c0-0.1,0-0.1,0.1-0.1c0,0.1,0,0.1,0,0.2c0,0,0,0,0,0c0,0.1,0.1,0.2,0.1,0.3h0c0,0,0,0,0,0.1
		c0,0,0,0.1,0.1,0.1c0,0,0.1,0,0.1,0c0,0,0,0-0.1,0.1c0.4,0.6,0.9,1,1.6,1.3c0,0,0-0.1,0-0.1c0.1-0.1,0.3,0,0.4-0.1
		c0.1,0,0.1,0.1,0.1,0.1c-0.2,0.1-0.3,0-0.5,0.1c0.2,0.1,0.4,0.1,0.7,0.1c-0.7,0.1-0.4,0.1-1.1,0.1c0.5,0.2,1,0.3,1.5,0.4
		c0-0.1,0.1-0.1,0.2-0.1c0,0,0,0.1,0,0.1c0.6,0.1,1.3,0,1.9-0.1l0.1-0.1c0,0,0,0,0,0c1.7-0.3,3.4-1.1,4.5-2.1c0.2,0,0.2,0,0.4,0
		c1.8,1.8,5.5,2.9,8.2,1.8c-0.7,0-0.4,0-1.1-0.1c1-0.1,2-0.8,2.4-1.6c0,0,0,0-0.1-0.1c0,0,0.1-0.1,0.1-0.1l0,0
		c0.4-0.9,0.2-1.9-1.2-2.3c0.7,0.2,1.1,0.9,0.6,1.5c0,0,0.1,0,0.2,0c0,0.1-0.1,0.1-0.1,0.2c0,0-0.1,0-0.1,0c0,0,0,0,0-0.1
		c-0.2,0.2-0.4,0.4-0.7,0.5l0.3-0.5c-0.5,0.4-0.9,0.6-1.3,0.6c0,0.1-0.2,0.2-0.3,0.1c0-0.1,0.1,0,0.1,0l0,0c-0.2,0-0.3,0-0.5-0.1
		c0,0.1-0.1,0.1-0.1,0.1c0-0.1-0.1-0.1-0.1-0.1c0,0.1,0,0.1,0,0.2c-0.1,0-0.1-0.1-0.1-0.2c0,0,0,0,0,0c0-0.1,0-0.1,0.1-0.1
		c0.1,0.1,0.1,0.1,0.2,0c0,0.1,0.1,0.1,0.2,0c-0.2-0.1-0.4-0.2-0.5-0.3c0,0-0.1,0.1-0.1,0c0,0,0,0,0.1-0.1c-1.4-1.2-2.3-4.2-6.1-1.8
		c-0.1-0.1-0.2-0.1-0.3-0.2c0,0,0,0-0.1,0c0,0,0,0,0-0.1c-4.3-2.4-4.7,2.5-6.8,2.5c0,0,0,0,0,0c0,0-0.1,0-0.1,0c0,0,0-0.1,0-0.1
		C17.9,24.6,17.5,24.4,16.9,23.9L16.9,23.9z M28,23.4C28,23.4,28.1,23.4,28,23.4c0.2,0,0.1,0.1,0.2,0.2c0,0,0,0,0,0.1
		c0,0-0.1,0-0.1-0.1C28.1,23.5,28,23.5,28,23.4L28,23.4z M31,26.7c-0.1,0.1,0.1,0.1,0.1,0.1c0,0-0.1,0-0.1,0
		C31,26.8,31,26.7,31,26.7C31,26.7,31,26.6,31,26.7L31,26.7z M17.2,25.7c0.1,0,0.1,0.1,0.1,0.2l-0.1,0.1
		C17.2,25.8,17.3,25.8,17.2,25.7L17.2,25.7L17.2,25.7z M16.3,24.3c0,0,0.1,0,0.1,0c0,0.1,0.1,0.2,0.1,0.2c-0.1,0.1-0.4,0.2-0.4,0
		C16.2,24.5,16.2,24.3,16.3,24.3L16.3,24.3z M16.3,24.4C16.3,24.4,16.3,24.4,16.3,24.4C16.3,24.4,16.3,24.3,16.3,24.4
		C16.3,24.4,16.4,24.4,16.3,24.4L16.3,24.4L16.3,24.4z M24.8,22C24.8,22,24.8,22,24.8,22c0.1,0,0.1,0.1,0.1,0.1c0,0,0,0,0.1,0
		c0,0,0,0,0,0c0,0.1,0,0.2-0.1,0.2c0,0,0,0,0,0c-0.1,0,0-0.1,0-0.1c0,0-0.1,0.1-0.1,0C24.8,22.2,24.8,22,24.8,22L24.8,22z
		 M24.5,22.1C24.5,22.1,24.5,22.1,24.5,22.1c0-0.1,0-0.1,0-0.2C24.6,22,24.6,22.1,24.5,22.1L24.5,22.1z M24.4,22
		C24.4,22,24.4,22,24.4,22c-0.1,0-0.1-0.1-0.1-0.1C24.4,21.9,24.3,22,24.4,22L24.4,22z M25.7,23.4c0.1,0.1-0.2,0.2-0.2,0.1
		C25.6,23.5,25.7,23.5,25.7,23.4L25.7,23.4z M24.8,24.5c0,0,0.2,0.1,0.1,0.2C24.9,24.7,24.8,24.6,24.8,24.5L24.8,24.5z M25.9,23.7
		c0,0,0,0.1,0,0.1c-0.1,0-0.1-0.1-0.1-0.1C25.8,23.7,25.9,23.7,25.9,23.7L25.9,23.7z M20.1,25.4c0,0.1,0,0.1,0,0.2
		c0-0.1-0.1,0-0.1,0C20,25.5,20.1,25.4,20.1,25.4L20.1,25.4z M20.5,26.1c-0.1,0-0.1-0.1-0.2,0l0,0c0,0,0,0,0,0
		C20.3,26,20.5,26,20.5,26.1L20.5,26.1z M19,24.8C19,24.7,19,24.7,19,24.8c0-0.1,0-0.1,0.1-0.2c0,0,0,0.1,0,0.1
		C19.1,24.7,19.1,24.8,19,24.8L19,24.8z M20.7,26.2c0,0-0.1,0-0.1,0C20.7,26.1,20.7,26.2,20.7,26.2L20.7,26.2L20.7,26.2z M21.3,26.2
		C21.4,26.1,21.4,26.1,21.3,26.2C21.4,26.2,21.4,26.2,21.3,26.2L21.3,26.2L21.3,26.2z M21.3,25.7c-0.1,0-0.2,0-0.2-0.1
		C21.2,25.5,21.4,25.6,21.3,25.7L21.3,25.7z M21,25.9C21,25.9,20.9,25.8,21,25.9c0-0.1,0-0.2,0.1-0.2c0,0,0,0,0,0c0,0,0,0,0,0
		C21,25.7,21,25.9,21,25.9L21,25.9z M32.1,25.8C32,25.8,32,25.8,32.1,25.8C31.9,25.8,32,25.7,32.1,25.8c-0.1-0.1-0.1-0.2-0.2-0.2
		c0-0.1,0.1,0,0.1,0C32,25.6,32.2,25.8,32.1,25.8L32.1,25.8z M26.9,23.3c-0.1-0.1-0.2-0.1-0.3,0c0,0.1-0.1,0.1-0.1,0.1
		c0.1,0,0.1-0.1,0.2-0.1C26.7,23.2,26.8,23.2,26.9,23.3c-0.1-0.1,0-0.1,0-0.2c-0.1,0-0.1-0.1-0.1-0.2c0.1,0.1,0.3,0,0.4,0
		c0,0.1-0.1,0.2-0.2,0.2C27.1,23.2,27,23.2,26.9,23.3L26.9,23.3z M20,25.9c-0.1,0-0.2,0-0.3-0.1C19.8,25.9,19.9,25.8,20,25.9
		C20,25.9,20,25.9,20,25.9L20,25.9z M17.4,25.3C17.4,25.3,17.4,25.3,17.4,25.3c0,0.1,0,0.1,0,0.2C17.3,25.5,17.4,25.4,17.4,25.3
		L17.4,25.3z M19.2,25.8c0.1,0,0.2,0.1,0,0.3C19.2,26,19.1,25.9,19.2,25.8L19.2,25.8z M19.8,25.7c0,0.1,0,0.1-0.1,0.2c0,0,0,0,0,0
		c0,0,0,0-0.1,0c0,0,0,0-0.1,0C19.6,25.6,19.7,25.6,19.8,25.7L19.8,25.7z M32.4,24.9c0.1,0.1,0.1,0,0.2,0s0,0.1,0,0.1
		c-0.1,0-0.1,0.1-0.1,0.1C32.4,25.1,32.4,25,32.4,24.9L32.4,24.9z M33.1,24.8c0-0.1,0.1-0.1,0.1-0.1C33.2,24.8,33.1,24.9,33.1,24.8
		L33.1,24.8z M27.8,22.8C27.8,22.8,27.8,22.8,27.8,22.8c0.1,0,0.1,0,0.2,0C28,22.9,27.9,22.9,27.8,22.8
		C27.9,22.9,27.9,22.8,27.8,22.8C27.8,22.8,27.8,22.9,27.8,22.8C27.8,22.8,27.7,22.8,27.8,22.8c-0.1-0.1,0-0.1,0-0.2
		C27.9,22.7,27.8,22.7,27.8,22.8L27.8,22.8z M31,25.7c0-0.1,0.1-0.2,0.1-0.3c0,0.1,0.1,0.1,0.1,0.1C31.2,25.6,31.2,25.8,31,25.7
		C31.1,25.7,31.1,25.7,31,25.7C31.1,25.7,31.1,25.7,31,25.7L31,25.7z M32.4,25.8c-0.1-0.1-0.2-0.1-0.2-0.2
		C32.3,25.6,32.4,25.7,32.4,25.8L32.4,25.8L32.4,25.8z M16,24.1c0.1,0,0.1-0.1,0.2,0c-0.1,0.1-0.1,0.1-0.2,0.1
		C15.9,24.2,15.9,24.2,16,24.1L16,24.1z M23,23.4c0,0,0.1,0,0.2-0.1l0.1,0.1l0,0.1C23.1,23.3,23.1,23.3,23,23.4
		C23,23.4,22.9,23.4,23,23.4L23,23.4z M17.9,25.3c0,0-0.1,0-0.1,0C17.8,25.2,17.8,25.2,17.9,25.3C17.9,25.2,17.9,25.2,17.9,25.3
		L17.9,25.3z M19.4,26.5c0,0.1,0.1,0.2,0,0.3C19.3,26.6,19.4,26.6,19.4,26.5L19.4,26.5z M17.4,25.9c-0.1-0.1,0-0.1-0.1-0.2
		c0.1-0.1,0.1,0,0.2,0.1C17.4,25.8,17.5,25.9,17.4,25.9L17.4,25.9z M19.4,26.2c0,0.1,0,0.2,0.1,0.2c0,0.1-0.1,0.1-0.1,0.2
		c0,0-0.4,0-0.3-0.2l0,0c0,0-0.1-0.1,0-0.1c0.1,0,0.1,0.1,0,0.1c0,0,0,0,0.1,0.1C19.2,26.4,19.3,26.2,19.4,26.2L19.4,26.2z
		 M25.6,24.2c0.1,0,0.1,0,0.2,0C25.8,24.3,25.6,24.3,25.6,24.2L25.6,24.2z M22.1,23.9C22,24,22,24,22,24C22,24,22,23.9,22.1,23.9
		C22,23.9,22,23.9,22.1,23.9C22.1,23.8,22,23.9,22.1,23.9L22.1,23.9z M18.8,25.7C18.7,25.7,18.8,25.7,18.8,25.7c0-0.1,0-0.2,0-0.2
		C18.9,25.6,18.9,25.7,18.8,25.7L18.8,25.7L18.8,25.7z M18.8,25.4C18.9,25.4,18.9,25.4,18.8,25.4c0,0.2-0.2,0.1-0.2,0.2
		c-0.1,0-0.1,0.1-0.2,0.1c0,0,0-0.1,0-0.1c0.1-0.1,0.1,0,0.2,0C18.6,25.4,18.8,25.4,18.8,25.4L18.8,25.4L18.8,25.4z M17.1,25.3
		C17.1,25.3,17.1,25.4,17.1,25.3c0,0.1,0,0.1,0,0.1c0,0,0,0-0.1,0.1c-0.1-0.1-0.2-0.1-0.1-0.2C17,25.3,17,25.4,17.1,25.3
		C17,25.4,17,25.3,17.1,25.3L17.1,25.3z M25.3,23.9c0.1,0,0.1-0.1,0.2-0.2C25.5,23.8,25.5,24,25.3,23.9L25.3,23.9
		C25.3,24,25.3,23.9,25.3,23.9L25.3,23.9z M25.3,24.1L25.3,24.1c0,0.2-0.1,0.3-0.2,0.3c0-0.1,0.1-0.1,0.1-0.1
		C25.2,24.2,25.2,24.1,25.3,24.1C25.2,24.2,25.3,24.1,25.3,24.1L25.3,24.1z M23.7,22.8c-0.1-0.1,0.1-0.2,0.2-0.1l0,0
		C23.8,22.7,23.7,22.7,23.7,22.8L23.7,22.8z M22.7,24.6C22.6,24.6,22.6,24.6,22.7,24.6c0-0.2,0.1-0.2,0.1-0.1
		C22.8,24.5,22.7,24.6,22.7,24.6L22.7,24.6z M22.3,24.8c0,0-0.1-0.1-0.1-0.1C22.3,24.6,22.4,24.7,22.3,24.8L22.3,24.8L22.3,24.8z
		 M21.3,24.7c0.1,0.2,0.2,0.2,0.3,0.1c0,0.1-0.1,0.1-0.1,0.2c-0.1,0-0.1,0.2-0.2,0.3c0.1,0.1,0,0.2,0,0.3c0-0.1-0.1-0.1-0.1-0.2
		c-0.1,0.1-0.1,0-0.1-0.1c0,0-0.1,0-0.1,0c0,0,0-0.1,0-0.1c0,0,0.1,0,0.2-0.1c0-0.1-0.1-0.1-0.1-0.2c-0.1,0-0.1,0-0.2,0
		c0-0.1,0.1-0.2,0.2-0.2c0,0,0-0.1,0-0.1C21.2,24.7,21.3,24.7,21.3,24.7L21.3,24.7z M21.1,24.8c0.1-0.1,0.1,0,0.2,0
		c0,0.1,0,0.1,0.1,0.1c0,0.1-0.1,0.1-0.2,0.2c-0.1-0.1,0-0.2,0-0.2C21.2,25,21.1,24.9,21.1,24.8L21.1,24.8L21.1,24.8z M26.3,24.4
		L26.3,24.4L26.3,24.4L26.3,24.4c0.8,0.4,0.9,0.5,1.6,0.5c-0.2,0-0.4,0-0.5,0.1c0.2,0,0.3,0.1,0.6,0.1c-0.2,0-0.3,0-0.5,0
		c0.1,0,0.2,0.1,0.3,0.1c0,0,0,0,0,0c0,0,0,0,0,0c0,0.1,0.1,0,0.2,0.1l0,0c0.1,0,0.1,0,0.2,0c0,0,0,0,0,0l0,0c0,0,0,0,0.1,0h-0.1
		c0,0,0,0.1,0.1,0c0,0,0-0.1,0-0.1c0.1,0,0.1,0,0.2,0c0,0,0,0.1,0,0.1c0,0-0.1-0.1-0.1,0c0,0.1-0.1,0.2,0,0.3l0,0.1
		c0,0,0-0.1-0.1-0.1c0,0-0.1,0-0.1,0.1c-0.1,0,0-0.1-0.1-0.1c-0.1,0-0.1,0-0.2,0.1c0,0-0.1,0-0.1-0.1c0.1,0,0.1-0.1,0.2-0.1
		c0,0-0.1,0-0.1,0l0,0c0,0-0.1,0-0.1,0C27.2,25.1,26.7,25,26.3,24.4L26.3,24.4L26.3,24.4z M27.9,25.4c0.1,0,0.2,0.1,0.2,0.1
		c0,0,0,0-0.1-0.1c0,0,0.1,0,0.1,0c0,0,0,0.1,0,0.1c1.1,0.5,3,0.9,4.4,1C31.6,26.8,28.8,26.2,27.9,25.4L27.9,25.4z M26.7,22.7
		L26.7,22.7C26.7,22.7,26.7,22.7,26.7,22.7c-0.1,0,0-0.1,0-0.2c-0.1,0-0.1,0-0.2,0.1c0,0.1,0,0.1,0,0.2c0,0,0,0-0.1,0
		c0,0.1,0,0.1,0,0.2c0-0.1-0.1,0-0.2-0.1c0-0.1,0.1-0.1,0.1-0.1c-0.1-0.1-0.1,0.1-0.2,0c0-0.1,0.2,0,0.2-0.1c-0.1,0-0.1,0-0.1-0.1
		c0,0,0.1,0.1,0.1,0c0,0,0.1-0.1,0.1-0.1v0c0,0-0.1,0-0.1,0c-0.1,0-0.2,0-0.2,0c0.1,0,0.1-0.1,0.2-0.1c-0.1,0-0.1,0-0.2,0
		c0,0,0-0.1,0-0.1c-0.1,0.1-0.1,0-0.2,0.1c0,0.1-0.1,0.3,0.1,0.3c0,0.1-0.1,0.2,0,0.2c-0.1,0.1,0,0.2,0,0.3c-0.1,0-0.1,0-0.2-0.1
		c-0.1,0.1-0.2,0.1-0.2,0.2c-0.1-0.1,0-0.2,0.1-0.2c0,0,0,0,0-0.1c0,0,0.1,0,0.1,0c0.1,0,0.1-0.1,0.1-0.2c-0.1,0-0.3-0.1-0.2-0.3
		c0.1,0,0,0.1,0.1,0.1c0.1-0.1,0-0.1,0-0.1c0,0-0.1,0-0.2,0c0.1-0.1,0-0.2,0.1-0.2c0.1,0,0.1,0,0.2,0c0.2-0.1,0.3,0,0.5,0
		c0.3-0.2,0.7-0.4,0.9-0.5l0,0c0,0,0,0,0.1,0c1.4-0.4,2.4,0.6,3.3,1.6c-0.6-0.3-0.7-0.4-1.1-0.5c1.2,1.1,1.7,1.7,3.3,2.1
		c-1.4-0.1-1.8-0.5-3-1.4l0,0l0,0c-0.1-0.1-0.1-0.1-0.2-0.2c0,0,0,0-0.1,0c0.2,0.2,0.3,0.4,0.6,0.8c-1.3-1-1.9-1.4-2.5-1.5v0
		c0-0.1-0.1,0-0.1-0.1c-0.1,0-0.3,0-0.5,0c0,0.1,0,0.1,0.1,0.2c-0.1,0,0,0-0.1,0.1L27,22.8c0,0,0.1,0,0-0.1c0,0-0.1,0.1-0.1,0.1
		C26.8,22.8,26.8,22.7,26.7,22.7L26.7,22.7L26.7,22.7z M26.8,22.6C26.8,22.6,26.8,22.6,26.8,22.6L26.8,22.6
		C26.7,22.6,26.7,22.5,26.8,22.6C26.8,22.6,26.8,22.6,26.8,22.6L26.8,22.6L26.8,22.6z M26.9,22.6C26.9,22.6,26.9,22.5,26.9,22.6
		c-0.1-0.1-0.1-0.2,0-0.2c0.1,0,0.2,0,0.3,0L26.9,22.6c0.1-0.1,0.1-0.1,0.1-0.1C27,22.5,27,22.5,26.9,22.6L26.9,22.6L26.9,22.6z
		 M26.7,22.4L26.7,22.4L26.7,22.4C26.7,22.4,26.7,22.4,26.7,22.4L26.7,22.4z M29.6,23.3C29.6,23.3,29.5,23.3,29.6,23.3
		c-0.1,0-0.2-0.1-0.3-0.2C29.4,23.1,29.5,23.2,29.6,23.3L29.6,23.3z M22.3,23.3c-1.1,1.2-2.1,1.9-3.2,2c0,0.1,0,0.1-0.1,0.1
		c0,0,0-0.1,0-0.1c0,0-0.1,0-0.1,0c0,0,0,0.1,0,0.1c0.1,0,0.2,0.1,0.2,0.2c0,0-0.1-0.1-0.1,0c-0.1,0.1,0,0.3-0.1,0.3
		c0.1,0.1,0,0.3,0,0.4c-0.1-0.1,0-0.2,0-0.2c-0.1,0-0.1,0.1-0.2,0c0,0,0-0.1,0-0.1c-0.1,0-0.1,0.1-0.2,0.2c0.1-0.1-0.1-0.2-0.1-0.2
		c0,0,0-0.1-0.1-0.1l-0.1,0.1c-0.3-0.1,0.1-0.3,0.2-0.4c-0.1,0,0,0,0.1,0c0-0.1-0.1,0-0.1-0.1c0.1-0.1,0.1,0,0.1,0c0,0,0,0,0-0.1
		c-0.1,0-0.2,0-0.3,0c0,0-0.1,0-0.1,0s0,0-0.1,0c0,0,0,0,0,0c-0.1,0-0.3-0.1-0.4-0.1c0,0,0,0.1-0.1,0c0,0,0,0,0-0.1
		c-0.4-0.1-0.9-0.4-1.3-0.6l0.9,0.3l-0.1-0.3c0.4,0.3,0.7,0.4,1,0.4l0,0c0,0,0-0.1,0-0.1c0,0,0.1,0.1,0.1,0.1c0-0.1,0.1-0.1,0.1-0.2
		c0.1,0.1,0,0.2-0.1,0.3c1.2-0.1,2.1-1.6,3.2-2.4c0.2-0.1,0.4-0.3,0.6-0.3c0,0,0,0,0,0c0,0,0,0,0.1,0l0,0c0.7-0.3,1.5-0.2,2.4,0.4
		c-1.3,0.1-1.7,0.2-2.3,0.8c0,0,0,0.1,0.1,0.1c0,0.1-0.1,0.1-0.1,0c0,0,0,0,0-0.1c-0.1,0.1-0.3,0.3-0.5,0.5L22.3,23.3L22.3,23.3z
		 M22.9,23.8c0.4-0.4,0.6-0.6,0.8-0.7c0,0,0.1-0.1,0.1-0.1c0,0,0,0,0,0.1c0.2-0.1,0.4-0.1,0.8-0.2c-0.6,0.3-0.8,0.4-1.2,0.6
		c0,0,0,0-0.1,0C23.3,23.6,23.1,23.7,22.9,23.8L22.9,23.8z M24.8,24.5c-0.2,0.3-0.6,0.5-0.9,0.8h0c-0.1,0.1-0.1,0.2-0.1,0.3
		c-0.1,0-0.1-0.1-0.1-0.2c-0.2,0.1-0.4,0.2-0.6,0.3c0,0,0,0.1,0,0.1c0-0.1,0-0.1-0.1,0l-0.1-0.1c-0.5,0.2-1,0.3-1.4,0.4l0,0l0,0l0,0
		l0,0c0,0,0.1,0,0.1,0.1c0,0.1,0,0.1-0.1,0.1c0.1,0,0,0.1,0.1,0.1c-0.1,0-0.1,0-0.2,0c0-0.1,0.1,0,0.1-0.1l0,0c-0.1,0.1-0.1,0-0.2,0
		c-0.1,0.1-0.1,0-0.2,0.1v0c0,0,0.1,0,0.1,0c0,0.1,0,0.2-0.1,0.2c0-0.1-0.1-0.1-0.1-0.1c-0.1,0.1-0.3,0-0.2-0.1c0,0,0.1-0.1,0.1-0.1
		c-0.1-0.1-0.1,0-0.2,0c0,0-0.1,0-0.1-0.1c0-0.1,0.1,0,0.1-0.1c-0.1,0,0,0-0.1-0.1c0.1-0.1,0.2-0.1,0.4,0c0,0,0,0-0.1,0
		c0.1,0.1,0,0.2,0.1,0.2c0.1,0,0.1-0.1,0.2-0.2c0,0,0-0.1-0.1-0.1c0,0-0.1,0.1-0.1,0.1c-0.1,0,0-0.1-0.1-0.1c0,0,0.1,0,0.1,0
		c-0.1,0-0.3,0-0.4,0c0.2,0,0.3,0,0.5,0c0,0,0-0.1,0-0.1c0,0,0,0,0.1,0c0,0.1,0,0.1,0,0.1c0.1,0,0.1,0,0.1,0c0,0,0,0,0,0l0,0
		c0,0,0,0,0-0.1c-0.1,0-0.1,0-0.2,0c0,0,0.1,0,0.1-0.1c0,0,0,0,0-0.1c0,0-0.1,0-0.1,0c0,0,0.1-0.1,0.1-0.1c0,0,0-0.1,0.1-0.1
		c0,0.1,0,0.2,0,0.3c0,0,0,0,0,0c0.4-0.1,0.8-0.2,1.1-0.4l0,0c0,0,0.1-0.1,0.2,0c0.1-0.1,0.3-0.1,0.4-0.2c0,0,0,0,0,0
		c0,0-0.1,0-0.1,0c0.1-0.1,0.1-0.1,0.2-0.1c0,0,0,0,0,0.1l0,0c0.1,0,0.1-0.1,0.2-0.1l0,0c-0.2,0-0.4,0-0.8,0c0,0,0.1,0,0.1,0.1
		c-0.1,0.1-0.1,0.1-0.1,0.2c0,0-0.1,0-0.1,0c0.1,0-0.1-0.1-0.1-0.1c0.1,0,0-0.1,0.1-0.2c0,0,0.1,0.1,0.1,0.1
		c0.3-0.1,0.5-0.1,0.7-0.1c-0.1,0-0.3,0-0.6-0.1c0.1,0,0.2,0,0.3,0c-0.1-0.1,0-0.2,0-0.3c0,0,0,0-0.1,0s-0.1,0-0.1-0.1
		c0.1-0.1,0.2-0.2,0.3-0.1c0,0.1,0,0.1-0.1,0.2c0.1,0.1,0,0.2,0,0.3c0.1,0,0.3,0,0.4,0c0-0.1,0-0.1,0-0.2l0,0c0.1,0,0.1,0.1,0.1,0.1
		c0.3-0.1,0.5-0.2,1-0.4C24.7,24.5,24.8,24.5,24.8,24.5L24.8,24.5z M23.8,25.2C23.8,25.3,23.8,25.3,23.8,25.2
		C23.8,25.3,23.8,25.3,23.8,25.2z"/>
	<path fill="#00000B" d="M24.5,18.9c-0.1,0.4-0.2,0.7-0.3,1c0,0,0.1,0.1,0.1,0.2c-0.1,0-0.1-0.1-0.1-0.1c-0.1,0.3-0.3,0.5-0.5,0.7
		l0,0c0,0,0,0.1,0,0.1c0,0-0.1,0-0.1-0.1c-0.3,0.3-0.8,0.5-1.3,0.6c-0.1,0-0.2,0-0.2,0c0,0.1-0.1,0.1-0.2,0c0,0,0,0,0,0
		c-1.4,0.1-2.2-0.6-2.3-2c-0.3-2,0.4-2.4,2.3-2.4c0.4,0,0.8,0,1.1,0c0-0.1,0.1-0.1,0.1-0.1c0,0.1,0,0.1-0.1,0.2
		c1,0.1,1.7,0.4,1.6,1.5l0,0c0.1-0.1,0-0.2,0.1-0.3c0.1,0.1,0,0.2,0,0.2c0,0,0.1,0,0.1-0.1c0,0.1,0,0.1,0.1,0.1c0,0.1,0,0.1,0.1,0.1
		c0,0,0,0,0,0.1c-0.1,0-0.1,0-0.1-0.1c0,0,0,0.1-0.1,0.1c-0.1,0-0.1-0.1-0.2,0c0,0,0,0,0-0.1c0,0,0,0.1,0,0.1h0
		C24.5,18.9,24.6,18.9,24.5,18.9C24.5,18.9,24.5,18.9,24.5,18.9L24.5,18.9z M24.5,19.6c-0.1,0.1-0.2,0.2-0.1,0.3
		C24.5,19.8,24.5,19.7,24.5,19.6L24.5,19.6z M31.5,20.3c-0.1,0.1-0.1,0.2-0.1,0.2C31.4,20.4,31.3,20.4,31.5,20.3
		C31.4,20.3,31.5,20.3,31.5,20.3L31.5,20.3z M28.1,17.1c0.6-0.1,1.6-0.1,2.2,0c0.6,0.1,0.8,0.2,1,0.6c0,0,0.1,0,0.1,0
		c0,0,0,0.1-0.1,0.1c0.1,0.1,0.1,0.3,0.1,0.6c0.1,1.1-0.1,1.8-0.5,2.3c0.1,0,0.2,0,0.2-0.1c0,0,0.1,0.1,0.1,0.1
		c-0.1,0.1-0.2,0.2-0.1,0.3c0.5-0.5,0.7-1.3,0.9-2.3c0.2-1.1,0.7-0.2,0.5-1.4c-0.6-0.3-2.8-0.6-3.6-0.6c-1.3,0-2.5,0.5-3.8,0.4
		c-0.8-0.1-1.2-0.2-1.7-0.2c0,0,0,0,0,0c0,0,0,0,0,0c-0.1,0-0.3-0.1-0.4-0.1l0,0c0,0,0,0-0.1,0c0-0.1-0.1,0-0.1,0l0,0
		c-0.3,0-0.6-0.1-0.9-0.1c0,0,0,0.1,0,0.1c-0.1,0-0.2,0-0.2,0c0,0,0-0.1,0-0.1c-0.5,0-1.2,0.1-2.2,0.3c-1,0.2-1.1,0-1.1,1
		c0.9,0.6,0.3,1,1.1,2.5c0.5,0.9,1.1,1.2,2.5,1.1c1.2-0.1,1.9-0.6,2.3-1.3c0.8-1.4,0.7-2.4,1.4-2.1c0.2,0.1,0.3,0.3,0.4,0.6l0,0
		c0,0.1,0.1,0,0.1,0.1c0,0,0,0,0,0c0,0.1,0.1,0.1,0.1,0.2c0.1,0,0.1,0,0.2,0.1c0,0,0.1,0,0.1-0.1c-0.1,0-0.1-0.1-0.1-0.2
		c-0.1,0,0,0-0.1,0c0.1,0,0.1,0,0.2,0c-0.1-0.4-0.1-0.8,0-1.1C26.7,17.3,27.4,17.2,28.1,17.1L28.1,17.1z M30.9,20.7
		C30.9,20.7,30.9,20.7,30.9,20.7c0.1,0.1,0.1,0.1,0,0.2c0,0,0.1,0,0.1,0c0,0-0.1,0.1-0.1,0.1c0,0,0.1,0,0.1,0.1
		c-0.3,0.3-0.8,0.5-1.5,0.5c-2,0.2-2.7-0.9-3.1-1.9c0,0,0.1,0,0.1,0c0,0-0.1,0-0.1,0h0c0-0.1-0.1-0.2-0.1-0.3c0.1,0,0.1,0,0.2,0
		c0,0,0,0.1,0.1,0.1c0,0,0,0,0.1,0c0,0.1,0.1,0.2,0.1,0.3c0.2,0.4,0.4,0.8,0.7,1.1l0,0c0,0,0,0.1,0,0.1c0,0-0.1,0-0.1,0
		c0,0.1,0,0,0.1,0.1c0-0.1,0.1-0.1,0.1-0.2c0.1,0.1,0.2,0.1,0.2,0.2C28.4,21.4,30,21.7,30.9,20.7L30.9,20.7z M26.6,19.3
		C26.5,19.2,26.5,19.2,26.6,19.3c-0.1-0.1-0.1-0.1,0-0.1C26.5,19.2,26.6,19.2,26.6,19.3L26.6,19.3z M26.5,19.1
		C26.5,19.1,26.5,19,26.5,19.1c-0.1-0.1-0.1-0.1,0-0.2C26.5,19,26.5,19,26.5,19.1z"/>
	<path fill="#00000B" d="M25,37.8c-0.2,0.1-0.3,0.8,0,0.8c0.3,0.1,0.7,0,0.9,0c0.1,0,0.2-0.1,0.2-0.2c0,0,0-0.1,0-0.1l0,0
		c0-0.1-0.1-0.1-0.1-0.1l0,0c0,0,0,0,0,0c0,0,0.1,0,0.1,0c0-0.2,0-0.4-0.1-0.5C25.9,37.9,25.3,37.9,25,37.8L25,37.8z M25.2,38.2
		C25.1,38.1,25.3,38.2,25.2,38.2L25.2,38.2z M25.7,38.3c0,0.1,0,0.1-0.1,0.2c0,0,0,0-0.1-0.1c0.1-0.1,0-0.2,0.1-0.2
		c0.1,0,0.1-0.1,0.2-0.1c-0.1,0.1,0,0.1,0,0.2C25.8,38.2,25.8,38.3,25.7,38.3z"/>
</g>
</svg>
