<?xml version="1.0" encoding="utf-8"?>
<!DOCTYPE svg PUBLIC "-//W3C//DTD SVG 1.1//EN" "http://www.w3.org/Graphics/SVG/1.1/DTD/svg11.dtd">
<svg version="1.1" id="Layer_1" xmlns="http://www.w3.org/2000/svg" xmlns:xlink="http://www.w3.org/1999/xlink" x="0px" y="0px"
	 viewBox="0 0 50 50" enable-background="new 0 0 50 50" xml:space="preserve">
<g>
	<path fill="#00000B" d="M23.5,16h0.1H23.5L23.5,16z M27.3,16h0.2H27.3L27.3,16z M31.2,23.1v0.1v9.5c-2.6,0.7-4.7,2.7-5.3,5.3v-4.4
		c0.3-0.1,0.6-0.4,0.6-0.8s-0.4-0.9-0.9-0.9s-0.9,0.5-0.9,0.9c0,0.4,0.2,0.7,0.6,0.8v4.5c-0.7-2.6-2.7-4.7-5.3-5.3v-9.5v-0.1V22h4.3
		l-0.4,6.1l1.7,3l1.7-3L26.9,22h4.3L31.2,23.1L31.2,23.1z M29.1,13.4c0.2,0,0.4,0.2,0.4,0.4s-0.2,0.4-0.3,0.4v1.3H22v-1.3
		c-0.2,0-0.4-0.2-0.4-0.4s0.2-0.4,0.4-0.4c0.2,0,0.4,0.2,0.4,0.4c0,0.1-0.1,0.3-0.2,0.3c0.3,0.4,0.8,0.7,1.3,0.7
		c2,0,1.6-2.8,1.7-4.3c-0.3-0.1-0.5-0.5-0.5-0.8c0-0.5,0.4-0.9,0.9-0.9c0.5,0,0.9,0.4,0.9,0.9c0,0.4-0.2,0.7-0.5,0.8
		c0.1,1.5-0.3,4.3,1.7,4.3c0.5,0,1-0.3,1.3-0.7c-0.1-0.1-0.2-0.2-0.2-0.3C28.7,13.6,28.8,13.4,29.1,13.4L29.1,13.4z M25.5,17.3
		l-0.3,10.5l0.3,0.6l0.3-0.6L25.5,17.3L25.5,17.3z M23.7,16h1.9h1.7V16l0,0l0.1,0.5h-1.7h-2L23.7,16L23.7,16L23.7,16L23.7,16z
		 M34.3,20.2c0.3,0,0.5,0.2,0.5,0.5c0,0.3-0.2,0.5-0.5,0.5c-0.3,0-0.5-0.2-0.5-0.5C33.8,20.4,34,20.2,34.3,20.2L34.3,20.2z
		 M16.8,20.2c0.3,0,0.5,0.2,0.5,0.5c0,0.3-0.2,0.5-0.5,0.5c-0.3,0-0.5-0.2-0.5-0.5C16.2,20.4,16.5,20.2,16.8,20.2L16.8,20.2z
		 M16.9,18.4L16.9,18.4L16.9,18.4c-0.7,0-1.3,0.3-1.7,0.7l0,0c-0.4,0.4-0.7,1-0.7,1.6c0,0.6,0.3,1.2,0.7,1.6l0,0
		c0.4,0.4,1,0.7,1.6,0.7c0.5,0,1-0.2,1.4-0.5v11.2V34l0.3,0.1c3.8,1,5.9,4.2,7,7.8c0.5-1.3,1.8-3.7,2.5-4.8c0.9-1.3,2.2-2.3,4.5-3
		l0.3-0.1v-0.4V22.5c0.4,0.3,0.8,0.5,1.4,0.5c0.6,0,1.2-0.3,1.6-0.7l0,0c0.4-0.4,0.7-1,0.7-1.6c0-0.6-0.3-1.2-0.7-1.6l0,0
		c-0.4-0.4-0.9-0.7-1.5-0.7l0,0h-0.1h-6.7l-0.2-1.3h-0.8c0,0.7,0.1,1.4,0.1,2.2h5.8h1.8h0h0c0.4,0,0.7,0.2,0.9,0.4l0,0
		c0.3,0.3,0.4,0.6,0.4,1s-0.2,0.7-0.4,1l0,0c-0.3,0.3-0.6,0.4-1,0.4s-0.7-0.2-1-0.4l0,0c-0.2-0.3-0.4-0.6-0.4-0.9l0,0v0l0,0l0,0
		c0-0.1,0-0.3,0.1-0.4h-0.1h-0.5h-0.4h-5.3l0.1,0.9H32v12.2c-2.3,0.7-3.5,1.6-4.5,2.9c-0.8,1.1-1.4,2.3-2,3.6
		c-1.6-3.6-2.7-5.3-6.5-6.5V21.2h5.2l0.1-0.9H19h-0.4h-0.5h-0.1c0,0.1,0.1,0.3,0.1,0.4l0,0l0,0v0l0,0c0,0.4-0.2,0.7-0.4,0.9l0,0
		c-0.3,0.3-0.6,0.4-1,0.4s-0.7-0.2-1-0.4l0,0c-0.3-0.3-0.4-0.6-0.4-1c0-0.4,0.2-0.7,0.4-1l0,0c0.3-0.3,0.6-0.4,1-0.4h0h0.1h1.7h5.8
		c0-0.7,0.1-1.4,0.1-2.2h-0.8l-0.1,1.3H16.9z"/>
</g>
</svg>
