<?xml version="1.0" encoding="utf-8"?>
<!DOCTYPE svg PUBLIC "-//W3C//DTD SVG 1.1//EN" "http://www.w3.org/Graphics/SVG/1.1/DTD/svg11.dtd">
<svg version="1.1" id="Layer_1" xmlns="http://www.w3.org/2000/svg" xmlns:xlink="http://www.w3.org/1999/xlink" x="0px" y="0px"
	 viewBox="0 0 50 50" enable-background="new 0 0 50 50" xml:space="preserve">
<g>
	<path display="none" fill="#00000B" d="M8.8,32.2l-1,3.7H7l-0.8-2.8l-0.8,2.8H4.7l-1-3.7h0.8l0.6,2.5l0.7-2.5h0.8l0.7,2.5L8,32.2
		H8.8L8.8,32.2z M10.9,36c-0.6,0-1-0.2-1.3-0.5S9.1,34.6,9.1,34c0-0.6,0.2-1.1,0.5-1.4s0.8-0.5,1.3-0.5c0.6,0,1,0.2,1.3,0.5
		c0.3,0.4,0.5,0.8,0.5,1.4c0,0.6-0.2,1.1-0.5,1.4C11.9,35.8,11.5,36,10.9,36L10.9,36z M10.9,32.7c-0.3,0-0.5,0.1-0.7,0.4
		c-0.2,0.2-0.3,0.6-0.3,1c0,0.4,0.1,0.8,0.3,1c0.2,0.2,0.4,0.4,0.7,0.4c0.3,0,0.5-0.1,0.7-0.4c0.2-0.2,0.3-0.6,0.3-1
		c0-0.4-0.1-0.8-0.3-1C11.4,32.8,11.2,32.7,10.9,32.7L10.9,32.7z M16.8,35.9h-1l-1.1-1.4h-0.5v1.4h-0.8v-3.7h1.4
		c0.5,0,0.9,0.1,1.1,0.3c0.2,0.2,0.3,0.4,0.3,0.8c0,0.5-0.3,0.8-0.8,1.1L16.8,35.9L16.8,35.9z M14.2,32.8v1.1h0.4
		c0.4,0,0.6-0.1,0.7-0.2c0.1-0.1,0.2-0.3,0.2-0.5c0-0.2-0.1-0.3-0.2-0.4s-0.3-0.1-0.7-0.1H14.2L14.2,32.8z M19.7,35.9h-2.6v-3.7H18
		v3.1h1.8V35.9L19.7,35.9z M20.2,35.9v-3.7h1.2c0.5,0,0.9,0.1,1.2,0.2s0.5,0.3,0.7,0.6c0.2,0.3,0.3,0.6,0.3,1c0,0.4-0.1,0.7-0.3,1
		c-0.2,0.3-0.4,0.5-0.7,0.7c-0.3,0.1-0.7,0.2-1.2,0.2L20.2,35.9L20.2,35.9z M21,32.8v2.5h0.4c0.8,0,1.3-0.4,1.3-1.3
		c0-0.8-0.4-1.3-1.3-1.3H21L21,32.8z M29.6,35.9h-0.8v-2.6L28,35h-0.6l-0.8-1.7v2.6h-0.8v-3.7h0.9l0.9,2l0.9-2h0.9L29.6,35.9
		L29.6,35.9z M33.8,35.9h-0.8l-0.3-0.8h-1.5l-0.3,0.8H30l1.4-3.7h0.9L33.8,35.9L33.8,35.9z M32.4,34.5L31.9,33l-0.5,1.5H32.4
		L32.4,34.5z M37.7,35.9h-1l-1.1-1.4h-0.5v1.4h-0.8v-3.7h1.4c0.5,0,0.9,0.1,1.1,0.3c0.2,0.2,0.3,0.4,0.3,0.8c0,0.5-0.3,0.8-0.8,1.1
		L37.7,35.9L37.7,35.9z M35,32.8v1.1h0.4c0.4,0,0.6-0.1,0.7-0.2c0.1-0.1,0.2-0.3,0.2-0.5c0-0.2-0.1-0.3-0.2-0.4
		c-0.1-0.1-0.3-0.1-0.7-0.1H35L35,32.8z M41.4,35.9h-1l-1.2-1.5l-0.3,0.3v1.2H38v-3.8h0.8V34l1.5-1.8h0.9l-1.5,1.7L41.4,35.9
		L41.4,35.9z M44.4,35.9h-2.6v-3.7h2.6v0.6h-1.8v0.8h1.7v0.6h-1.7v1.1h1.8V35.9L44.4,35.9z M47.9,32.8h-1.2v3.1h-0.8v-3.1h-1.2v-0.6
		h3.3L47.9,32.8L47.9,32.8z M13.4,42.4c-0.5,0-0.8-0.1-1.1-0.4s-0.4-0.7-0.4-1.1c0-0.5,0.1-0.8,0.4-1.1c0.3-0.3,0.6-0.4,1.1-0.4
		c0.5,0,0.8,0.1,1.1,0.4s0.4,0.7,0.4,1.1c0,0.5-0.1,0.8-0.4,1.1S13.8,42.4,13.4,42.4L13.4,42.4z M13.4,39.9c-0.5,0-0.7,0.3-0.7,1
		c0,0.7,0.2,1,0.7,1c0.5,0,0.7-0.3,0.7-1C14,40.2,13.8,39.9,13.4,39.9L13.4,39.9z M17.1,39L17.1,39c-0.2,0-0.3-0.1-0.4-0.1
		c-0.2,0-0.3,0-0.4,0.1c-0.1,0.1-0.1,0.2-0.1,0.4v0.1h0.7V40h-0.7v2.3h-0.8V40h-0.4v-0.5h0.4v-0.1c0-0.7,0.4-0.9,1-0.9
		c0.2,0,0.4,0,0.6,0L17.1,39L17.1,39z M23.9,42.1c-0.5,0.2-1,0.3-1.4,0.3c-0.6,0-1.1-0.2-1.4-0.5c-0.4-0.3-0.5-0.8-0.5-1.4
		c0-0.6,0.2-1.1,0.5-1.4c0.4-0.4,0.8-0.5,1.4-0.5c0.5,0,0.9,0.1,1.4,0.3v0.8h-0.1c-0.3-0.2-0.5-0.4-0.7-0.4
		c-0.2-0.1-0.4-0.1-0.5-0.1c-0.4,0-0.7,0.1-0.8,0.4c-0.2,0.2-0.3,0.6-0.3,1c0,0.5,0.1,0.8,0.3,1c0.2,0.2,0.5,0.4,0.9,0.4
		c0.2,0,0.3,0,0.5-0.1v-0.8h-0.8v-0.6h1.6L23.9,42.1L23.9,42.1z M26.3,42.4c-0.6,0-1-0.2-1.3-0.5c-0.3-0.4-0.5-0.8-0.5-1.4
		c0-0.6,0.2-1.1,0.5-1.4c0.3-0.4,0.8-0.5,1.3-0.5c0.6,0,1,0.2,1.3,0.5s0.5,0.8,0.5,1.4c0,0.6-0.2,1.1-0.5,1.4
		C27.3,42.2,26.9,42.4,26.3,42.4L26.3,42.4z M26.3,39.1c-0.3,0-0.5,0.1-0.7,0.4c-0.2,0.2-0.3,0.6-0.3,1c0,0.4,0.1,0.8,0.3,1
		c0.2,0.2,0.4,0.4,0.7,0.4s0.5-0.1,0.7-0.4c0.2-0.2,0.3-0.6,0.3-1c0-0.4-0.1-0.8-0.3-1C26.8,39.2,26.6,39.1,26.3,39.1L26.3,39.1z
		 M30.3,42.4c-0.6,0-1-0.2-1.3-0.5c-0.3-0.4-0.5-0.8-0.5-1.4c0-0.6,0.2-1.1,0.5-1.4c0.3-0.4,0.8-0.5,1.3-0.5s1,0.2,1.3,0.5
		c0.3,0.4,0.5,0.8,0.5,1.4c0,0.6-0.2,1.1-0.5,1.4C31.4,42.2,30.9,42.4,30.3,42.4L30.3,42.4z M30.3,39.1c-0.3,0-0.5,0.1-0.7,0.4
		c-0.2,0.2-0.3,0.6-0.3,1c0,0.4,0.1,0.8,0.3,1c0.2,0.2,0.4,0.4,0.7,0.4c0.3,0,0.5-0.1,0.7-0.4s0.3-0.6,0.3-1c0-0.4-0.1-0.8-0.3-1
		C30.9,39.2,30.6,39.1,30.3,39.1L30.3,39.1z M32.8,42.3v-3.7H34c0.5,0,0.9,0.1,1.2,0.2c0.3,0.1,0.5,0.3,0.7,0.6
		c0.2,0.3,0.3,0.6,0.3,1c0,0.4-0.1,0.7-0.3,1c-0.2,0.3-0.4,0.5-0.7,0.7c-0.3,0.1-0.7,0.2-1.2,0.2L32.8,42.3L32.8,42.3z M33.6,39.2
		v2.5H34c0.8,0,1.3-0.4,1.3-1.3c0-0.8-0.4-1.3-1.3-1.3H33.6L33.6,39.2z M36.6,42.1v-0.8h0.1c0.2,0.2,0.4,0.3,0.6,0.4
		c0.2,0.1,0.5,0.1,0.7,0.1s0.4,0,0.6-0.1c0.1-0.1,0.2-0.2,0.2-0.4c0-0.1,0-0.2-0.1-0.3c-0.1-0.1-0.2-0.1-0.4-0.2
		c-0.1,0-0.4-0.1-0.7-0.1c-0.3-0.1-0.6-0.2-0.8-0.4c-0.2-0.2-0.3-0.4-0.3-0.7c0-0.3,0.1-0.6,0.4-0.8c0.3-0.2,0.7-0.3,1.1-0.3
		s0.9,0.1,1.3,0.3v0.8h-0.1c-0.4-0.3-0.8-0.4-1.2-0.4c-0.2,0-0.4,0-0.5,0.1c-0.1,0.1-0.2,0.2-0.2,0.3s0,0.2,0.1,0.3
		c0.1,0.1,0.2,0.1,0.4,0.2c0.2,0,0.4,0.1,0.6,0.1c0.2,0.1,0.4,0.1,0.5,0.2c0.1,0.1,0.2,0.2,0.3,0.2c0.1,0.1,0.1,0.2,0.2,0.3
		c0,0.1,0.1,0.2,0.1,0.3c0,0.4-0.2,0.7-0.5,0.9c-0.3,0.2-0.7,0.3-1.2,0.3C37.5,42.4,37.1,42.3,36.6,42.1z"/>
	<path fill="#00000B" d="M36.7,29c0,0.4-0.3,0.6-0.6,0.6c-0.4,0-0.6-0.3-0.6-0.6v-7l-4.8,3.7l0,0l0,0l0,0l0,0l0,0l0,0l0,0h0l0,0l0,0
		l0,0l0,0l0,0l0,0l0,0l0,0l0,0l0,0l0,0l0,0l0,0l0,0l0,0l0,0h0l0,0l0,0l0,0l0,0l0,0l0,0l0,0l0,0l0,0l0,0l0,0l0,0l0,0l0,0l0,0l0,0l0,0
		l0,0l0,0l0,0l0,0l0,0l0,0l0,0l0,0l0,0l0,0l0,0l0,0l0,0l0,0l0,0l0,0l0,0l0,0l0,0l0,0l0,0l0,0l0,0l0,0l0,0l0,0l0,0l0,0l0,0l0,0h0l0,0
		l0,0l0,0l0,0l0,0l0,0l0,0l0,0l0,0l0,0l0,0l0,0l0,0l0,0l0,0l0,0h0l0,0l0,0l0,0l0,0l0,0l0,0l0,0L24,21.2c-0.3-0.2-0.3-0.6-0.1-0.9
		c0.2-0.3,0.6-0.3,0.9-0.1l5.4,4.1l5.4-4.1c0.1-0.1,0.3-0.2,0.4-0.2c0.4,0,0.6,0.3,0.6,0.6V29z"/>
	<path fill="#00000B" d="M18.9,24.1L18.9,24.1L18.9,24.1L18.9,24.1L18.9,24.1L18.9,24.1L18.9,24.1L18.9,24.1L18.9,24.1L18.9,24.1
		L18.9,24.1L18.9,24.1L18.9,24.1L18.9,24.1L18.9,24.1L18.9,24.1L18.9,24.1L18.9,24.1L18.9,24.1L18.9,24.1L18.9,24.1L18.9,24.1
		L18.9,24.1L18.9,24.1L18.9,24.1L18.9,24.1L18.9,24.1L18.9,24.1L18.9,24.1L18.9,24.1L18.9,24.1L18.9,24.1L18.9,24.1L18.9,24.1
		L18.9,24.1L18.9,24.1L18.9,24.1L18.9,24.1L18.9,24.1L18.9,24.1L18.9,24.1L18.9,24.1L18.9,24.1L18.9,24.1L18.9,24.1L18.9,24.1
		L18.9,24.1L18.9,24.1L18.9,24.1L18.9,24.1L18.9,24.1L18.9,24.1L18.9,24.1L18.9,24.1L18.9,24.1L18.9,24.1L18.9,24.1L18.9,24.1
		L18.9,24.1L18.9,24.1L18.9,24.1L18.9,24.1L18.9,24.1L18.9,24.1L18.9,24.1L18.9,24.1L18.9,24.1L18.9,24.1L18.9,24.1L18.9,24.1
		L18.9,24.1L18.9,24.1L18.9,24.1l0.1,0l0,0l0,0l0,0l0,0l0,0l0,0l0,0l0,0l0,0l0,0l0,0l0,0l0,0l0,0l0,0l0,0h0l0,0l0,0l0,0l0,0l0,0l0,0
		l0,0l5.8,4.4c0.3,0.2,0.3,0.6,0.1,0.9c-0.2,0.3-0.6,0.3-0.9,0.1l-4.9-4.1l-5.4,4.1c-0.1,0.1-0.3,0.2-0.4,0.2
		c-0.4,0-0.6-0.3-0.6-0.6v-8.3c0-0.4,0.3-0.6,0.6-0.6c0.4,0,0.6,0.3,0.6,0.6v7L18.9,24.1z"/>
	<path fill="#00000B" d="M33.7,29c0,0.1,0,0.3,0,0.4c-0.9,2.4-2.8,4.1-5,5.1c-2.2,0.9-4.7,1-7.1,0.1c-2.4-0.9-4.1-2.8-5.1-5
		c-0.3-0.6-0.5-1.3-0.6-1.9l0-0.1l1.1-0.8h0c0.1,0.8,0.3,1.6,0.6,2.3c0.8,1.9,2.3,3.5,4.4,4.3s4.2,0.7,6.1-0.1c1.6-0.7,3-2,3.9-3.6
		h-3.5c-0.4,0-0.6-0.3-0.6-0.6c0-0.4,0.3-0.6,0.6-0.6H33C33.3,28.4,33.6,28.6,33.7,29L33.7,29z M15.7,25.5c0-1,0.3-2,0.7-3
		c0.9-2.4,2.8-4.1,5-5.1s4.7-1,7.1-0.1c0.3,0.1,0.5,0.5,0.4,0.8c-0.1,0.3-0.5,0.5-0.8,0.4c-2.1-0.8-4.2-0.7-6.1,0.1
		c-1.9,0.8-3.5,2.3-4.3,4.4c-0.2,0.5-0.3,1-0.4,1.5L15.7,25.5z"/>
</g>
</svg>
