<?xml version="1.0" encoding="utf-8"?>
<!DOCTYPE svg PUBLIC "-//W3C//DTD SVG 1.1//EN" "http://www.w3.org/Graphics/SVG/1.1/DTD/svg11.dtd">
<svg version="1.1" id="Layer_1" xmlns="http://www.w3.org/2000/svg" xmlns:xlink="http://www.w3.org/1999/xlink" x="0px" y="0px"
	 viewBox="0 0 50 50" enable-background="new 0 0 50 50" xml:space="preserve">
<g>
	<g>
		<path fill="#00000B" d="M23.7,20.9L23.7,20.9L23.7,20.9L23.7,20.9L23.7,20.9L23.7,20.9z M25.3,22.3L25.3,22.3
			c-0.1-0.1-0.2-0.2-0.2-0.2L25,22h-0.1c-0.2,0-0.4,0-0.6,0c-0.2,0-0.4,0-0.6,0h-0.1c-0.1,0-0.3,0-0.4,0c-0.1,0-0.2,0-0.3,0
			c0,0,0,0,0-0.1c0-0.1,0-0.1,0-0.2v0c0,0,0.1,0,0.1,0c0.1,0,0.1,0,0.2,0h0.1c0.1,0,0.2,0,0.3,0s0.2,0,0.3,0l0.7,0l-0.6-0.4
			c-0.1-0.1-0.2-0.1-0.3-0.2c-0.1-0.1-0.2-0.1-0.3-0.2c-0.1-0.1-0.2-0.1-0.2-0.2c0,0-0.1-0.1-0.1-0.1v0c0-0.1,0-0.1,0-0.2v0
			c0.1,0.1,0.1,0.1,0.2,0.2c0.1,0.1,0.3,0.2,0.4,0.3c0.2,0.1,0.3,0.2,0.5,0.4s0.3,0.3,0.5,0.4l0.1,0.1h0.1h0.1h0.1h0.2
			c0.1,0,0.3,0,0.4,0l0,0C25.6,22,25.4,22.1,25.3,22.3L25.3,22.3z M22,22.1l0,0.3c-0.2,0-0.4,0.1-0.6,0.1c-0.2,0-0.5,0.1-0.7,0.1
			c-0.2,0.1-0.4,0.1-0.6,0.2c-0.2,0-0.3,0.1-0.5,0.1l-0.1-0.2c0.2-0.1,0.3-0.1,0.5-0.1c0.2-0.1,0.5-0.1,0.7-0.2
			c0.3-0.1,0.5-0.1,0.8-0.2C21.7,22.1,21.9,22.1,22,22.1L22,22.1z M18.7,23C18.7,23,18.7,23,18.7,23c0,0.1,0.1,0.1,0.1,0.2l0,0
			c-0.4,0.2-0.7,0.3-1.1,0.5c-0.3,0.2-0.6,0.4-0.8,0.6c0,0-0.1,0.1-0.1,0.1l0,0c0-0.1,0-0.2,0.1-0.4c0.1-0.1,0.2-0.2,0.3-0.3
			c0.1-0.1,0.3-0.2,0.5-0.3c0.2-0.1,0.4-0.2,0.5-0.3C18.3,23.1,18.5,23.1,18.7,23L18.7,23z M19,19l-0.2-0.1c0.1-0.1,0.2-0.1,0.4-0.2
			c0.2,0,0.5,0,0.7,0c0.3,0.1,0.7,0.2,1,0.3c0.4,0.2,0.8,0.4,1.2,0.6c0.1,0,0.1,0.1,0.2,0.1c0.1,0,0.1,0.1,0.2,0.1
			c0.1,0,0.1,0.1,0.2,0.1c0,0,0,0,0,0l-0.1,0.3c0,0-0.1-0.1-0.1-0.1c-0.1,0-0.1-0.1-0.2-0.1c-0.1,0-0.1-0.1-0.2-0.1
			c-0.3-0.2-0.7-0.4-1-0.5c-0.3-0.1-0.6-0.2-0.8-0.3c-0.2-0.1-0.5-0.1-0.7-0.1C19.3,18.9,19.1,19,19,19L19,19z M25.8,35.2V35
			c0.2,0,0.4-0.1,0.5-0.2c0.2-0.1,0.4-0.3,0.6-0.5c0.2-0.3,0.4-0.5,0.6-0.8c0.1-0.1,0.1-0.2,0.2-0.3v0.5v0c-0.2,0.3-0.4,0.6-0.7,0.9
			c-0.2,0.2-0.4,0.4-0.7,0.5C26.2,35.1,26,35.2,25.8,35.2L25.8,35.2z M28.4,20.2L28.4,20.2c0-0.1-0.1-0.2-0.1-0.3
			c0-0.1-0.1-0.2-0.1-0.4c0-0.1-0.1-0.2-0.1-0.3c-0.1-0.4-0.3-0.7-0.5-1c-0.2-0.3-0.4-0.6-0.6-0.8c-0.2-0.2-0.4-0.4-0.6-0.5
			c-0.2-0.1-0.3-0.2-0.5-0.2v-0.2c0.2,0,0.3,0.1,0.5,0.2c0.3,0.1,0.5,0.3,0.7,0.5c0.3,0.3,0.5,0.6,0.7,0.9c0.2,0.4,0.4,0.8,0.6,1.2
			c0,0.1,0.1,0.2,0.1,0.3c0,0.1,0.1,0.2,0.1,0.3c0,0.1,0.1,0.2,0.1,0.3l0,0.1L28.4,20.2L28.4,20.2z M23.5,30.5c0.1,0,0.1,0,0.2,0
			s0.1,0,0.2,0c-0.1,0-0.1,0.1-0.2,0.1c-0.2,0.1-0.4,0.3-0.5,0.4c-0.2,0.1-0.4,0.3-0.6,0.4c-0.2,0.1-0.4,0.2-0.6,0.4
			c-0.2,0.1-0.4,0.2-0.6,0.3c-0.2,0.1-0.4,0.2-0.6,0.3c-0.2,0.1-0.3,0.1-0.5,0.2c-0.1,0-0.2,0.1-0.4,0.1c-0.1,0-0.1-0.1-0.2-0.1
			c0,0,0,0-0.1,0c0.1,0,0.2,0,0.3-0.1c0.3-0.1,0.6-0.2,0.8-0.3c0.4-0.2,0.7-0.3,1-0.5c0.1-0.1,0.3-0.2,0.4-0.3
			c0.1-0.1,0.3-0.2,0.4-0.3c0.1-0.1,0.3-0.2,0.4-0.3C23.3,30.7,23.4,30.6,23.5,30.5z"/>
		<g>
			<g>
				<path fill="#00000B" d="M25.4,15.3c-2.8,0-5.4,1.1-7.2,3s-3,4.4-3,7.2c0,2.8,1.1,5.4,3,7.2s4.4,3,7.2,3l0,0l0,0l0,0l0,0l0,0l0,0
					l0,0l0,0l0,0l0,0l0,0l0,0l0,0c0.8,0,1.6-0.1,2.3-0.3v-0.8C27,34.9,26.3,35,25.5,35l0,0c0,0-0.1,0-0.1,0l0,0l0,0l0,0l0,0l0,0l0,0
					l0,0l0,0c-0.9,0-1.8-1-2.4-2.6c-0.3-0.8-0.6-1.7-0.8-2.7c0.8,0.1,1.5,0.2,2.4,0.2v-0.8c-0.9,0-1.7-0.1-2.5-0.2
					c-0.1-0.8-0.2-1.8-0.2-2.7l0,0c0.5,0.5,0.9,1,1.4,1.5l0,0l0,0c0.4,0.4,0.8,0.8,1.3,1.2v-0.1c0-0.3,0.1-0.5,0.3-0.8
					c-0.3-0.3-0.7-0.6-1-0.9l0,0l0,0c-0.5-0.5-1-1-1.5-1.6c0.5-0.5,0.9-1,1.5-1.6l0,0l0,0c0.4-0.4,0.7-0.7,1.1-1
					c0.4-0.7,1-1.3,1.8-1.6c0.1,0,0.2-0.1,0.2-0.1c0.8-0.6,1.6-1.1,2.3-1.6l0.9-0.5v-0.8c-0.4,0.2-0.8,0.4-1.2,0.6
					c-1.6,0.9-3.6,2.5-5.5,4.4l0,0l0,0c-0.5,0.5-1,1-1.4,1.5l0,0c0.1-2.4,0.5-4.6,1.1-6.2c0.7-1.6,1.5-2.6,2.4-2.6l0,0l0,0l0,0l0,0
					l0,0l0,0l0,0l0,0c0,0,0.1,0,0.1,0l0,0c1.6,0,3.2,0.5,4.5,1.2v-0.8h0.2C28.8,15.8,27.2,15.3,25.4,15.3L25.4,15.3L25.4,15.3
					L25.4,15.3L25.4,15.3L25.4,15.3L25.4,15.3L25.4,15.3L25.4,15.3L25.4,15.3L25.4,15.3L25.4,15.3L25.4,15.3L25.4,15.3L25.4,15.3z
					 M32.8,32.7c0,0,0.1-0.1,0.1-0.1c0,0-0.1,0-0.1,0V32.7L32.8,32.7z M21,25.9c-0.7,0.8-1.3,1.6-1.8,2.4c-0.2-0.1-0.5-0.2-0.7-0.3
					c-1.6-0.7-2.6-1.5-2.6-2.4c0-2.2,0.7-4.1,1.9-5.7c0.1,0.7,0.5,1.4,0.9,2.3c0.6,0.9,1.3,2,2.2,3.1c0,0.1,0,0.2,0,0.3
					C21,25.7,21,25.8,21,25.9L21,25.9z M18.9,29L18.9,29c-0.5,0.9-0.8,1.7-1,2.3l0,0c-0.8-1.1-1.5-2.4-1.8-3.8l0,0
					c0.5,0.5,1.3,0.9,2.2,1.3C18.5,28.8,18.7,28.9,18.9,29L18.9,29z M18.7,32.3L18.7,32.3c-0.3-0.4,0-1.4,0.8-2.9
					c0-0.1,0.1-0.1,0.1-0.2c0.6,0.2,1.1,0.3,1.8,0.4c0.2,1.1,0.5,2.2,0.8,3.1c0.4,0.9,0.8,1.6,1.3,2.2C21.7,34.5,20,33.6,18.7,32.3
					L18.7,32.3L18.7,32.3z M20.1,28.5c0.3-0.5,0.7-0.9,1-1.4c0,0.6,0.1,1.1,0.2,1.7C20.8,28.7,20.4,28.6,20.1,28.5L20.1,28.5z
					 M23.5,16.3c-0.5,0.5-0.9,1.3-1.3,2.2c-0.6,1.5-1,3.4-1.1,5.6c-0.6-0.8-1.2-1.6-1.6-2.3c-0.8-1.4-1.2-2.5-0.8-2.9l0,0l0,0
					C20,17.6,21.7,16.7,23.5,16.3z"/>
				<path fill="#00000B" d="M32,34v-0.6v-0.2v-0.9v-0.4h0.5c0.4,0,0.7-0.1,1.1-0.2c0.3-0.1,0.7-0.4,0.9-0.6l0,0
					c0.3-0.3,0.5-0.6,0.6-0.9c0.1-0.3,0.2-0.7,0.2-1c0-0.4-0.1-0.7-0.2-1c-0.1-0.3-0.3-0.6-0.6-0.8l0,0l-0.1-0.1
					c-0.3-0.3-0.6-0.5-0.9-0.6c-0.3-0.1-0.7-0.2-1.1-0.2h-0.6h-0.8h0.5h-3.2H28c-0.2,0-0.4,0-0.6-0.1S27,26,26.9,25.8l-0.1-0.1
					c-0.1-0.1-0.2-0.3-0.3-0.5c-0.1-0.2-0.1-0.4-0.1-0.6c0-0.2,0-0.4,0.1-0.6c0.1-0.2,0.2-0.4,0.4-0.5c0.2-0.2,0.3-0.3,0.5-0.4
					c0.2-0.1,0.4-0.1,0.6-0.1h0.7c0.1,0,0.3,0,0.4,0c0.2,0,0.3-0.1,0.4-0.2l0,0c0.1-0.1,0.2-0.3,0.2-0.4v-2.1l-1.1,0.8v0.8H28
					c-0.4,0-0.7,0.1-1,0.2c-0.7,0.3-1.2,0.8-1.5,1.5c-0.1,0.3-0.2,0.7-0.2,1c0,0.4,0.1,0.7,0.2,1c0.1,0.3,0.3,0.6,0.6,0.8l0,0
					l0.1,0.1c0.3,0.3,0.6,0.5,0.9,0.6c0.3,0.1,0.7,0.2,1.1,0.2h0.4h3.1h0.4h0.6c0.2,0,0.4,0,0.6,0.1c0.2,0.1,0.4,0.2,0.5,0.4
					l0.1,0.1c0.1,0.1,0.2,0.3,0.3,0.5c0.1,0.2,0.1,0.4,0.1,0.6c0,0.2,0,0.4-0.1,0.6c-0.1,0.2-0.2,0.4-0.4,0.5
					c-0.2,0.2-0.3,0.3-0.5,0.4c-0.2,0.1-0.4,0.1-0.6,0.1l0,0h-1l0,0l0,0c-0.2,0-0.3,0.1-0.4,0.2l0,0c-0.1,0.1-0.2,0.3-0.2,0.4v0.4
					v0.5v0.9v0v1.2h0.6C31.7,34.2,31.8,34.1,32,34L32,34z M32,20.9v0.5v0.5c1.2,0,1.6,0,2.8,0c0.2,0,0.4,0.2,0.4,0.4v2.6
					c0,0.2-0.2,0.4-0.4,0.4h-0.4h-0.4h-5.7c-0.3,0-0.6-0.3-0.6-0.6S28,24,28.4,24h5.7v-1h-2.3h-0.2h-0.1h-0.1
					c-0.2,0-0.3-0.1-0.5-0.2l0,0c-0.1-0.1-0.2-0.3-0.2-0.5v-0.9v-0.5v-3.6H32L32,20.9L32,20.9z M29.7,33.1v1.8h-1.1v-1.2v-0.3v-0.2
					v-0.6v-0.2v-0.6h-2h-0.6h-0.2c-0.2,0-0.4-0.2-0.4-0.4v-2.6c0-0.2,0.2-0.4,0.4-0.4h0.3h0.5h5.7c0.2,0,0.3,0.1,0.4,0.2
					c0.1,0.1,0.2,0.3,0.2,0.4c0,0.2-0.1,0.3-0.2,0.4c-0.1,0.1-0.3,0.2-0.4,0.2h-5.7v1.1H29c0.2,0,0.3,0.1,0.5,0.2l0,0
					c0.1,0.1,0.2,0.3,0.2,0.5v0.4v0.7v0.2V33.1z"/>
			</g>
			<path fill="#00000B" d="M25.4,14.9c2.5,0,4.8,0.8,6.6,2.3v1.6c-1.7-1.7-4-2.7-6.6-2.7c-2.6,0-5,1.1-6.7,2.8
				c-1.7,1.7-2.8,4.1-2.8,6.7s1.1,5,2.8,6.7c1.7,1.7,4.1,2.8,6.7,2.8c1.5,0,3-0.4,4.3-1v1.3c-1.3,0.6-2.7,0.9-4.3,0.9
				c-2.9,0-5.6-1.2-7.5-3.1c-1.9-1.9-3.1-4.6-3.1-7.5s1.2-5.6,3.1-7.5S22.5,14.9,25.4,14.9L25.4,14.9z M30.9,33.3v1.4
				c0.4-0.2,0.8-0.5,1.1-0.8v-1.6C31.6,32.7,31.2,33,30.9,33.3z"/>
		</g>
	</g>
</g>
</svg>
