<svg xmlns="http://www.w3.org/2000/svg" viewBox="0 0 86.6 38.2"><path d="M79.1 32.5l-3.3 5.7h10.8l-5.4-9.4zM75.5 0l5.7 10-5.4 9.4L64.7 0zm-5.8 11.2L66.9 16l3.8 12.2-.3.6 4.7-8.1zM53.8 0l16.6 28.8-5.4 9.4L43 0zm-5.6 11l-2.9 5 3.8 12.3-.3.6 4.8-8.3-5.4-9.6zm.5 17.8zM32.2 0l16.5 28.8-5.4 9.4L21.4 0zM20.3 0L25 9.6h-5.5L11.3 0zm-9.8 0l16.6 28.8-5.4 9.4L5.1 9.4 10.5 0zm10.7 26l-.6 1.7h-1.8l1.5 1.1-.6 1.7 1.5-1.1 1.5 1.1-.6-1.7 1.5-1.1h-1.8l-.6-1.7zm-2.7-4.7l-.6 1.7h-1.8l1.5 1.1-.6 1.6 1.5-1.1 1.5 1.1-.7-1.7 1.5-1.1-1.8.1-.5-1.7zm-2.8-4.8l-.6 1.7h-1.8l1.5 1.1-.5 1.7 1.5-1.1 1.5 1.1-.6-1.7 1.5-1.1h-1.8l-.7-1.7zM13 11.8l-.6 1.7h-1.8l1.5 1.1-.6 1.7 1.5-1.1 1.5 1.1-.6-1.7 1.5-1.1h-1.8l-.6-1.7zM10.3 7l-.6 1.7H7.9l1.5 1.1-.6 1.7 1.5-1.1 1.5 1.1-.6-1.7 1.5-1.1h-1.8L10.3 7zm10.2 29.2l1.1 2-1.1-2zm1.2 2h-.4l-8.5-9.4H5.9l7.3 9.4h8.5zM5.4 28.8l5.4 9.4H0z" fill-rule="evenodd" clip-rule="evenodd" fill="#FFF"/></svg>