<?xml version="1.0" encoding="utf-8"?>
<!DOCTYPE svg PUBLIC "-//W3C//DTD SVG 1.1//EN" "http://www.w3.org/Graphics/SVG/1.1/DTD/svg11.dtd">
<svg version="1.1" id="Layer_1" xmlns="http://www.w3.org/2000/svg" xmlns:xlink="http://www.w3.org/1999/xlink" x="0px" y="0px"
	 viewBox="0 0 69.8 69.8" enable-background="new 0 0 69.8 69.8" xml:space="preserve">
<g>
	<path fill-rule="evenodd" clip-rule="evenodd" fill="#FFFFFF" d="M30.9,17.3h0.3H30.9L30.9,17.3z M38.3,17.3h0.4H38.3L38.3,17.3z
		 M46,31.2v0.3v18.9c-5.2,1.4-9.3,5.5-10.6,10.7v-8.9c0.6-0.3,1.1-0.8,1.1-1.6c0-0.9-0.8-1.8-1.8-1.8c-1,0-1.8,0.9-1.8,1.8
		s0.4,1.4,1.1,1.6v8.9c-1.3-5.2-5.4-9.3-10.6-10.7V31.5v-0.3v-2.1h8.5l-0.7,12.2l3.5,6l3.5-6l-0.7-12.2H46V31.2L46,31.2z M41.8,12
		c0.4,0,0.7,0.3,0.7,0.7c0,0.4-0.3,0.7-0.7,0.7v2.6H27.7v-2.6c-0.4,0-0.7-0.3-0.7-0.7c0-0.4,0.3-0.7,0.7-0.7c0.4,0,0.7,0.3,0.7,0.7
		c0,0.3-0.1,0.5-0.4,0.6c0.6,0.8,1.5,1.3,2.6,1.3c3.9,0,3.2-5.7,3.4-8.6C33.4,5.8,33,5.2,33,4.5c0-1,0.8-1.8,1.8-1.8
		c1,0,1.8,0.8,1.8,1.8c0,0.7-0.4,1.3-1,1.6c0.2,2.9-0.5,8.6,3.4,8.6c1.1,0,2-0.5,2.6-1.3c-0.2-0.1-0.4-0.4-0.4-0.6
		C41.1,12.3,41.4,12,41.8,12L41.8,12z M34.8,19.7l-0.6,20.9l0.6,1.1l0.6-1.1L34.8,19.7L34.8,19.7z M31.2,17.1h3.8h3.3l0,0.1l0,0
		l0.1,1h-3.5h-3.9l0.1-1L31.2,17.1L31.2,17.1L31.2,17.1z M52.2,25.5c0.6,0,1,0.4,1,1c0,0.6-0.4,1-1,1c-0.6,0-1-0.4-1-1
		C51.2,26,51.7,25.5,52.2,25.5L52.2,25.5z M17.3,25.5c0.6,0,1,0.4,1,1c0,0.6-0.4,1-1,1c-0.6,0-1-0.4-1-1
		C16.3,26,16.8,25.5,17.3,25.5L17.3,25.5z M17.5,22L17.5,22h-0.2c-1.2,0-2.4,0.5-3.2,1.3l0,0c-0.8,0.8-1.3,1.9-1.3,3.2
		c0,1.2,0.5,2.4,1.3,3.2l0,0c0.8,0.8,1.9,1.3,3.2,1.3c1,0,2-0.3,2.7-0.9v22.2V53l0.7,0.2c7.6,2,11.7,8.4,14,15.5
		c1-2.6,3.5-7.4,5.1-9.6c1.8-2.6,4.4-4.7,9-5.9l0.7-0.2v-0.7V30.1c0.8,0.6,1.7,0.9,2.7,0.9c1.2,0,2.4-0.5,3.2-1.3l0,0
		c0.8-0.8,1.3-1.9,1.3-3.2c0-1.2-0.5-2.4-1.3-3.2l0,0c-0.8-0.8-1.9-1.3-3.1-1.3v0h-0.1H38.8l-0.4-2.5h-1.5c0.1,1.4,0.2,2.9,0.3,4.3
		h11.5h3.6h0h0c0.7,0,1.4,0.3,1.9,0.8l0,0c0.5,0.5,0.8,1.2,0.8,1.9c0,0.8-0.3,1.4-0.8,1.9l0,0c-0.5,0.5-1.2,0.8-1.9,0.8
		c-0.8,0-1.4-0.3-1.9-0.8l0,0c-0.5-0.5-0.8-1.2-0.8-1.9v0v0v0v0c0-0.3,0.1-0.6,0.1-0.8h-0.1h-0.9h-0.8H37.3l0.1,1.8h10.3v24.2
		c-4.5,1.3-7,3.1-8.9,5.8c-1.7,2.3-2.8,4.5-4,7.1c-3.3-7.2-5.5-10.5-12.9-12.9V27.4h10.3l0.1-1.8H21.8H21h-0.9h-0.1
		c0.1,0.3,0.1,0.5,0.1,0.8v0v0v0v0c0,0.7-0.3,1.4-0.8,1.9l0,0c-0.5,0.5-1.2,0.8-1.9,0.8c-0.8,0-1.4-0.3-1.9-0.8l0,0
		c-0.5-0.5-0.8-1.2-0.8-1.9c0-0.8,0.3-1.4,0.8-1.9l0,0c0.5-0.5,1.2-0.8,1.9-0.8h0h0.2h3.4h11.5c0.1-1.4,0.2-2.9,0.3-4.3H31L30.7,22
		H17.5z"/>
</g>
</svg>
