<?xml version="1.0" encoding="utf-8"?>
<!-- Generator: Adobe Illustrator 18.0.0, SVG Export Plug-In . SVG Version: 6.00 Build 0)  -->
<!DOCTYPE svg PUBLIC "-//W3C//DTD SVG 1.1//EN" "http://www.w3.org/Graphics/SVG/1.1/DTD/svg11.dtd">
<svg version="1.1" id="starway_logo" xmlns="http://www.w3.org/2000/svg" xmlns:xlink="http://www.w3.org/1999/xlink" x="0px" y="0px"
	 viewBox="0 0 86.6 38.2" enable-background="new 0 0 86.6 38.2" xml:space="preserve">
<g>
	<polygon fill-rule="evenodd" clip-rule="evenodd" fill="#FFFFFF" points="79.1,32.5 75.8,38.2 86.6,38.2 81.2,28.8 	"/>
	<polygon fill-rule="evenodd" clip-rule="evenodd" fill="#FFFFFF" points="75.5,0 81.2,10 75.8,19.4 64.7,0 	"/>
	<polygon fill-rule="evenodd" clip-rule="evenodd" fill="#FFFFFF" points="69.7,11.2 66.9,16 70.7,28.2 70.4,28.8 75.1,20.7 	"/>
	<polygon fill-rule="evenodd" clip-rule="evenodd" fill="#FFFFFF" points="53.8,0 70.4,28.8 65,38.2 43,0 	"/>
	<path fill-rule="evenodd" clip-rule="evenodd" fill="#FFFFFF" d="M48.2,11l-2.9,5l3.8,12.3l-0.3,0.6l4.8-8.3L48.2,11L48.2,11z
		 M48.7,28.8L48.7,28.8L48.7,28.8z"/>
	<polygon fill-rule="evenodd" clip-rule="evenodd" fill="#FFFFFF" points="32.2,0 48.7,28.8 43.3,38.2 21.4,0 	"/>
	<polygon fill-rule="evenodd" clip-rule="evenodd" fill="#FFFFFF" points="20.3,0 25,9.6 19.5,9.6 11.3,0 	"/>
	<path fill-rule="evenodd" clip-rule="evenodd" fill="#FFFFFF" d="M10.5,0l16.6,28.8l-5.4,9.4L5.1,9.4L10.5,0L10.5,0z M21.2,26
		l-0.6,1.7l-1.8,0l1.5,1.1l-0.6,1.7l1.5-1.1l1.5,1.1l-0.6-1.7l1.5-1.1l-1.8,0L21.2,26L21.2,26z M18.5,21.3L17.9,23l-1.8,0l1.5,1.1
		L17,25.7l1.5-1.1l1.5,1.1L19.3,24l1.5-1.1L19,23L18.5,21.3L18.5,21.3z M15.7,16.5l-0.6,1.7l-1.8,0l1.5,1.1L14.3,21l1.5-1.1l1.5,1.1
		l-0.6-1.7l1.5-1.1l-1.8,0L15.7,16.5L15.7,16.5z M13,11.8l-0.6,1.7l-1.8,0l1.5,1.1l-0.6,1.7l1.5-1.1l1.5,1.1l-0.6-1.7l1.5-1.1
		l-1.8,0L13,11.8L13,11.8z M10.3,7L9.7,8.7l-1.8,0l1.5,1.1l-0.6,1.7l1.5-1.1l1.5,1.1l-0.6-1.7l1.5-1.1l-1.8,0L10.3,7z"/>
	<path fill-rule="evenodd" clip-rule="evenodd" fill="#FFFFFF" d="M20.5,36.2l1.1,2h0L20.5,36.2L20.5,36.2z M21.7,38.2l-0.4,0
		l-8.5-9.4H5.9l7.3,9.4H21.7z"/>
	<polygon fill-rule="evenodd" clip-rule="evenodd" fill="#FFFFFF" points="5.4,28.8 10.8,38.2 0,38.2 	"/>
</g>
</svg>
