<?xml version="1.0" encoding="utf-8"?>
<svg version="1.1" id="smm_picture" xmlns="http://www.w3.org/2000/svg" xmlns:xlink="http://www.w3.org/1999/xlink"
	 x="0px" y="0px" viewBox="0 0 880 640" style="enable-background:new 0 0 880 640;" xml:space="preserve">
<style type="text/css">
	.smm0{fill:#FFFFFF;}
	.smm1{fill:#55C2EF;}
	.smm2{fill:#6764AD;}
	.smm3{fill:#57579B;}
	.smm4{fill:#F4F4F4;}
	.smm5{fill:#C9CCD3;}
	.smm6{fill:#B8BBC1;}
	.smm7{fill:#7FC78A;}
	.smm8{fill:#FFC801;}
	.smm9{fill:#37ADD1;}
	.smm10{fill:#E1E6E9;}
	.smm11{fill:#6D7BA8;}
	.smm12{fill:#FFAD00;}
	.smm13{fill:#22114F;}
	.smm14{fill:#00A9FD;}
	.smm15{fill:#0055FE;}
	.smm16{fill:#96E8FE;}
	.smm17{fill:#F0F1F3;}
	.smm18{fill:#FF8200;}
</style>
<circle class="smm0" cx="609.9" cy="333.7" r="24"/>
<path class="smm1" d="M407,308.7h-4v-83c0-12.1,9.9-22,22-22h77v4h-77c-9.9,0-18,8.1-18,18V308.7z"/>
<path class="smm1" d="M726.9,440.5H575v-4h151.9c9.9,0,18-8.1,18-18V272.1c0-9.9-8.1-18-18-18H659v-4h67.9c12.1,0,22,9.9,22,22v146.3
	C748.9,430.6,739,440.5,726.9,440.5z"/>
<path class="smm2" d="M575,323.7v165H305v-165c0-8.3,6.7-15,15-15h240C568.3,308.7,575,315.4,575,323.7z"/>
<polygon class="smm2" points="574.9,353.7 574.9,384.3 535.6,423.6 535.6,393 "/>
<path class="smm2" d="M371.7,309.3c0,34.4-27.8,62.2-62.2,62.2c-1.5,0-3,0-4.4-0.2v-47.6c0-8.3,6.7-15,15-15h51.6
	C371.7,308.9,371.7,309.1,371.7,309.3z"/>
<rect x="365" y="278.7" transform="matrix(-1.836970e-16 1 -1 -1.836970e-16 838.7278 -41.2712)" class="smm3" width="150" height="240"/>
<polygon class="smm4" points="630,523.7 250,523.7 305,488.7 575,488.7 "/>
<path class="smm5" d="M615,538.7H265c-8.3,0-15-6.7-15-15l0,0h380l0,0C630,532,623.3,538.7,615,538.7z"/>
<path class="smm6" d="M467.5,531.2h-55c-4.1,0-7.5-3.4-7.5-7.5l0,0h70l0,0C475,527.9,471.6,531.2,467.5,531.2z"/>
<rect x="380" y="507.7" class="smm5" width="30" height="4"/>
<rect x="410.4" y="496.2" class="smm5" width="88.5" height="4"/>
<rect x="290" y="407.2" class="smm7" width="30" height="104.5"/>
<rect x="320" y="434.7" class="smm8" width="30" height="77"/>
<rect x="350" y="459.5" class="smm7" width="30" height="52.2"/>
<g>
	<g>
		<path class="smm1" d="M405,375.9c0,7.6-3.4,14.3-8.7,18.9c-4.4,3.8-10.1,6.1-16.3,6.1s-12-2.3-16.3-6.1c-5.3-4.6-8.7-11.4-8.7-18.9
			c0-13.8,11.2-25,25-25C393.8,350.9,405,362.1,405,375.9z"/>
		<path class="smm0" d="M380,350.9c13.8,0,25,11.2,25,25c0,7.6-3.4,14.3-8.7,18.9c-4.4,3.8-10.1,6.1-16.3,6.1s-12-2.3-16.3-6.1
			c-5.3-4.6-8.7-11.4-8.7-18.9C355,362.1,366.2,350.9,380,350.9L380,350.9z M380,346.9c-16,0-29,13-29,29c0,8.4,3.7,16.4,10,21.9
			c5.2,4.6,12,7.1,19,7.1s13.7-2.5,19-7.1c6.4-5.5,10-13.5,10-21.9C409,359.9,396,346.9,380,346.9L380,346.9z"/>
	</g>
	<path class="smm9" d="M396.3,394.8c-4.4,3.8-10.1,6.1-16.3,6.1s-12-2.3-16.3-6.1c2-6.6,8.1-11.4,15.3-11.4h2
		C388.3,383.3,394.4,388.2,396.3,394.8z"/>
	<path class="smm9" d="M380.1,380.1L380.1,380.1c-4.4,0-8-3.6-8-8v-4c0-4.4,3.6-8,8-8l0,0c4.4,0,8,3.6,8,8v4
		C388.1,376.5,384.5,380.1,380.1,380.1z"/>
</g>
<path class="smm4" d="M241,223.7h-70c-2.8,0-5-2.2-5-5v-110c0-2.8,2.2-5,5-5h70c2.8,0,5,2.2,5,5v110C246,221.5,243.8,223.7,241,223.7
	z"/>
<path class="smm1" d="M241,103.7h-70c-2.8,0-5,2.2-5,5v9h80v-9C246,106,243.8,103.7,241,103.7z"/>
<path class="smm1" d="M241,223.7h-70c-2.8,0-5-2.2-5-5v-9h80v9C246,221.5,243.8,223.7,241,223.7z"/>
<circle class="smm2" cx="173.8" cy="110.7" r="3"/>
<circle class="smm0" cx="182.5" cy="110.7" r="3"/>
<circle class="smm8" cx="191.1" cy="110.7" r="3"/>
<path class="smm8" d="M238,149h-34.7c-5.9,0-10.7-4.8-10.7-10.7l0,0c0-5.9,4.8-10.7,10.7-10.7h24c5.9,0,10.7,4.8,10.7,10.7V149z"/>
<path class="smm2" d="M174,180.4h34.7c5.9,0,10.7-4.8,10.7-10.7l0,0c0-5.9-4.8-10.7-10.7-10.7h-24c-5.9,0-10.7,4.8-10.7,10.7V180.4z"
	/>
<path class="smm4" d="M654,286.8H507c-2.8,0-5-2.2-5-5v-110c0-2.8,2.2-5,5-5h147c2.8,0,5,2.2,5,5v110
	C659,284.5,656.7,286.8,654,286.8z"/>
<path class="smm1" d="M654,166.8H507c-2.8,0-5,2.2-5,5v9h157v-9C659,169,656.7,166.8,654,166.8z"/>
<circle class="smm2" cx="509.8" cy="173.8" r="3"/>
<circle class="smm0" cx="518.4" cy="173.8" r="3"/>
<circle class="smm8" cx="527" cy="173.8" r="3"/>
<rect x="516.4" y="223.8" class="smm2" width="6" height="20.3"/>
<rect x="524.4" y="198.1" class="smm7" width="6" height="46"/>
<rect x="532.4" y="205.3" class="smm2" width="6" height="38.8"/>
<rect x="540.4" y="214.5" class="smm8" width="6" height="29.7"/>
<rect x="548.4" y="223.8" class="smm7" width="6" height="20.3"/>
<rect x="556.4" y="205.3" class="smm7" width="6" height="38.8"/>
<rect x="516.4" y="250.1" class="smm10" width="56.6" height="4"/>
<rect x="516.4" y="258.1" class="smm10" width="46" height="4"/>
<rect x="516.4" y="266.1" class="smm10" width="38" height="4"/>
<rect x="358.1" y="415.4" class="smm0" width="56.6" height="4"/>
<rect x="358.1" y="423.4" class="smm0" width="46" height="4"/>
<rect x="358.1" y="431.4" class="smm0" width="38" height="4"/>
<g>
	<path class="smm8" d="M646.2,233.8c0,8.8-3.6,16.8-9.4,22.6l-22.6-22.6l22.6-22.6C642.6,217,646.2,224.9,646.2,233.8z"/>
	<path class="smm2" d="M636.8,256.4c-5.8,5.8-13.8,9.4-22.6,9.4c-8.8,0-16.8-3.6-22.6-9.4l22.6-22.6L636.8,256.4z"/>
	<path class="smm1" d="M614.2,201.8v32l-22.6,22.6c-5.8-5.8-9.4-13.8-9.4-22.6C582.2,216.1,596.5,201.8,614.2,201.8z"/>
	<path class="smm7" d="M636.8,211.2l-22.6,22.6v-32C623,201.8,631,205.4,636.8,211.2z"/>
</g>
<g>
	<path class="smm7" d="M284.1,192.8h7.7l10.3-18v-12.9h2.6c4.3,0,7.7,3.5,7.7,7.7v5.1l-2.6,12.9h16.4c5.2,0,9.4,4.2,9.4,9.4l0,0
		c0,0.6-0.1,1.2-0.2,1.8l-3.3,16.6c-1,4.8-5.2,8.3-10.1,8.3h-37.9L284.1,192.8z"/>
	<rect x="261.2" y="187.7" class="smm1" width="15.4" height="36"/>
</g>
<path class="smm7" d="M668.8,205.3c-8.9,0-17.2-3.5-23.5-9.7c-6.3-6.3-9.7-14.6-9.7-23.5c0-8.9,3.5-17.2,9.7-23.5
	c6.3-6.3,14.6-9.7,23.5-9.7c8.9,0,17.2,3.5,23.5,9.7l0,0l0,0c6.3,6.3,9.7,14.6,9.7,23.5c0,8.9-3.5,17.2-9.7,23.5
	C686.1,201.9,677.7,205.3,668.8,205.3z M668.8,142.9c-7.8,0-15.1,3-20.7,8.6c-5.5,5.5-8.6,12.9-8.6,20.7c0,7.8,3,15.1,8.6,20.7
	c5.5,5.5,12.9,8.6,20.7,8.6c7.8,0,15.1-3,20.7-8.6c5.5-5.5,8.6-12.9,8.6-20.7c0-7.8-3-15.1-8.6-20.7l0,0
	C684,145.9,676.6,142.9,668.8,142.9z"/>
<path class="smm0" d="M689.2,167.5c-0.4-1.7-1-3.3-1.8-4.9l3.6-1.8c0.9,1.8,1.6,3.8,2.1,5.8L689.2,167.5z"/>
<path class="smm0" d="M683.6,157.3c-3.9-3.9-9.2-6.1-14.8-6.1c-5.6,0-10.8,2.2-14.8,6.1l-2.8-2.8c4.7-4.7,10.9-7.3,17.6-7.3
	c6.7,0,12.9,2.6,17.6,7.3L683.6,157.3z"/>
<rect x="705" y="194.4" transform="matrix(0.7071 -0.7071 0.7071 0.7071 56.9294 565.0604)" class="smm1" width="11.1" height="38.8"/>
<path class="smm1" d="M675.8,423.5h-14c-5.5,0-10-4.5-10-10v-6.6c-12.2-6.3-20-19.1-20-32.9c0-10.2,4.3-20.1,11.8-27.1
	c7.6-7.1,17.5-10.6,27.9-9.8c18.3,1.3,33,16,34.3,34.3l0,0c1,14.9-6.8,28.7-19.9,35.5v6.6C685.8,419,681.4,423.5,675.8,423.5z
	 M668.8,341c-8.4,0-16.3,3.1-22.5,8.9c-6.7,6.2-10.5,15-10.5,24.1c0,12.7,7.4,24.4,18.9,29.8l1.1,0.5v9.1c0,3.3,2.7,6,6,6h14
	c3.3,0,6-2.7,6-6v-9.1l1.1-0.5c12.3-5.9,19.7-18.5,18.8-32.1l0,0c-1.1-16.3-14.2-29.5-30.6-30.6C670.4,341,669.6,341,668.8,341z"/>
<path class="smm0" d="M692.9,367c-0.6-1.9-1.4-3.8-2.4-5.5l3.5-2c1.2,2,2.1,4.2,2.8,6.4L692.9,367z"/>
<path class="smm0" d="M687,356.9c-4.8-5.1-11.2-7.9-18.2-7.9c-3.4,0-6.7,0.7-9.9,2l-1.6-3.7c3.6-1.6,7.5-2.4,11.4-2.4
	c7.9,0,15.6,3.3,21.1,9.1L687,356.9z"/>
<path class="smm1" d="M668.8,450.5L668.8,450.5c-7.2,0-13-5.8-13-13v-7h26v7C681.8,444.6,676,450.5,668.8,450.5z"/>
<g>
	<g>
		<path class="smm0" d="M664.8,382.4v39.1V382.4z"/>
		<rect x="662.8" y="382.4" class="smm8" width="4" height="39.1"/>
	</g>
	<g>
		<path class="smm0" d="M672.8,382.4v39.1V382.4z"/>
		<rect x="670.8" y="382.4" class="smm8" width="4" height="39.1"/>
	</g>
</g>
<polygon class="smm8" points="671.3,378.6 666.4,374.6 661.5,378.6 656.6,374.6 651.7,378.6 645.5,373.5 648,370.5 651.7,373.4 
	656.6,369.4 661.5,373.4 666.4,369.4 671.3,373.4 676.2,369.4 681.1,373.4 686,369.4 692.2,374.4 689.7,377.6 686,374.6 
	681.1,378.6 676.2,374.6 "/>
<path class="smm7" d="M240.4,410.2c-0.5,1.8-1.4,3.5-2.3,5.2l4.7,5.8l-9,9l-5.8-4.8c-0.8,0.4-1.6,0.8-2.5,1.2
	c-0.9,0.4-1.8,0.6-2.7,0.9l-0.8,7.3h-12.8l-0.7-7.3c-1.8-0.5-3.5-1.1-5.1-2l-5.8,4.7l-9-9l4.7-5.8c-0.4-0.8-0.8-1.7-1.2-2.6
	c-0.4-0.9-0.6-1.7-0.9-2.6l-7.3-0.7v-12.8l7.3-0.8c0.5-1.8,1.1-3.5,2-5.2l-4.7-5.8l9-9l5.8,4.7c0.8-0.5,1.7-0.9,2.6-1.3
	c0.9-0.4,1.7-0.8,2.6-1l0.7-7.6H222l0.8,7.6c1.8,0.5,3.6,1.4,5.2,2.4l5.8-4.7l9,9l-4.7,5.8c0.4,0.8,0.9,1.6,1.2,2.5
	c0.4,0.9,0.8,1.8,1,2.7l7.6,0.8v12.8L240.4,410.2z"/>
<g>
	<path class="smm11" d="M331.8,352.9l0.5-0.3c15.6-8.2,26.2-24.6,26.2-43.4c0-27.1-22-49.1-49.1-49.1c-18.8,0-35.2,10.6-43.4,26.2
		l-0.3,0.5L331.8,352.9z"/>
	<path class="smm0" d="M332.7,354.7l-1.8-3.5l0.5-0.3c15.5-8.2,25.2-24.1,25.2-41.6c0-25.9-21.1-47-47.1-47
		c-17.5,0-33.5,9.6-41.7,25.2l-0.3,0.5L264,286l0.3-0.5c8.9-16.9,26.2-27.3,45.2-27.3c28.1,0,51.1,22.9,51.1,51
		c0,19-10.5,36.3-27.3,45.2L332.7,354.7z"/>
</g>
<circle class="smm2" cx="309.5" cy="309.3" r="47.1"/>
<path class="smm0" d="M279,339.7c-16.8-16.8-16.8-44.1,0-60.9c16.8-16.8,44.1-16.8,60.9,0c16.8,16.8,16.8,44.1,0,60.9
	C323.1,356.5,295.8,356.5,279,339.7z"/>
<g>
	<rect x="291.6" y="287.8" class="smm2" width="8.3" height="44.4"/>
	<rect x="300" y="277.6" class="smm2" width="8.3" height="10.2"/>
	<rect x="312.5" y="277.6" class="smm2" width="8.3" height="10.2"/>
	<rect x="300" y="330.5" class="smm2" width="8.3" height="10.4"/>
	<rect x="312.5" y="330.5" class="smm2" width="8.3" height="10.4"/>
	<path class="smm2" d="M318.6,334.7h-32v-8.3c2.8,0,5-2.2,5-5V297c0-2.8-2.2-5-5-5v-8.3h31.3c7.8,0,14.1,6.3,14.1,14.1
		c0,3.6-1.3,6.8-3.5,9.3c3.5,2.9,5.7,7.2,5.7,12.1C334.2,327.7,327.2,334.7,318.6,334.7z M299,326.4h19.6c4,0,7.3-3.3,7.3-7.3
		c0-4-3.3-7.3-7.3-7.3H300v9.6C300,323.1,299.6,324.8,299,326.4z M300,303.4h18c3.2,0,5.7-2.6,5.7-5.7c0-3.2-2.6-5.7-5.7-5.7h-19
		c0.6,1.5,1,3.2,1,5V303.4z"/>
</g>
<circle class="smm12" cx="216" cy="402.7" r="18"/>
<rect x="440" y="323.7" class="smm0" width="120" height="150"/>
<polygon class="smm7" points="619.2,330.2 505.8,443.6 470,443.6 413.3,500.2 402,500.2 466.7,435.6 502.5,435.6 613.6,324.5 "/>
<rect x="350" y="415.4" class="smm8" width="4" height="4"/>
<rect x="350" y="423.4" class="smm8" width="4" height="4"/>
<circle class="smm13" cx="440" cy="316.2" r="3"/>
<path class="smm14" d="M590.8,511.7h-53.1v-53.1C567,458.6,590.8,482.4,590.8,511.7z"/>
<path class="smm8" d="M575.3,474.2l-37.6,37.6v-53.1C552.4,458.6,565.7,464.5,575.3,474.2z"/>
<path class="smm7" d="M537.7,458.6v53.1h-53.1C484.6,482.4,508.4,458.6,537.7,458.6z"/>
<path class="smm1" d="M590.8,511.7h-53.1l37.6-37.6C584.9,483.8,590.8,497.1,590.8,511.7z"/>
<rect x="477" y="354.8" class="smm5" width="56.6" height="4"/>
<rect x="477" y="346.8" class="smm5" width="47.2" height="4"/>
<rect x="477" y="338.8" class="smm5" width="38" height="4"/>
<circle class="smm1" cx="461" cy="348.8" r="11"/>
<rect x="458.2" y="373.8" class="smm8" width="10" height="10"/>
<rect x="472.2" y="373.8" class="smm10" width="10" height="10"/>
<rect x="486.2" y="373.8" class="smm5" width="10" height="10"/>
<rect x="500.2" y="373.8" class="smm10" width="10" height="10"/>
<rect x="514.2" y="373.8" class="smm10" width="10" height="10"/>
<rect x="458.2" y="387.8" class="smm10" width="10" height="10"/>
<rect x="472.2" y="387.8" class="smm10" width="10" height="10"/>
<rect x="486.2" y="387.8" class="smm10" width="10" height="10"/>
<rect x="500.2" y="387.8" class="smm10" width="10" height="10"/>
<rect x="514.2" y="387.8" class="smm10" width="10" height="10"/>
<rect x="458.2" y="401.8" class="smm5" width="10" height="10"/>
<rect x="472.2" y="401.8" class="smm10" width="10" height="10"/>
<rect x="486.2" y="401.8" class="smm10" width="10" height="10"/>
<rect x="458.2" y="415.8" class="smm5" width="10" height="10"/>
<rect x="472.2" y="415.8" class="smm10" width="10" height="10"/>
<rect x="486.2" y="415.8" class="smm10" width="10" height="10"/>
<rect x="500.2" y="401.8" class="smm10" width="10" height="10"/>
<rect x="514.2" y="401.8" class="smm10" width="10" height="10"/>
<rect x="646.8" y="436.5" class="smm2" width="44" height="4"/>
<g>
	<g>
		<path class="smm14" d="M684.8,430.5h-32H684.8z"/>
		<rect x="652.8" y="428.5" class="smm0" width="32" height="4"/>
	</g>
	<g>
		<path class="smm14" d="M684.8,438.5h-32H684.8z"/>
		<rect x="652.8" y="436.5" class="smm0" width="32" height="4"/>
	</g>
</g>
<rect x="659" y="250.1" class="smm2" width="6" height="4"/>
<rect x="575.3" y="436.5" class="smm15" width="6" height="4"/>
<path class="smm1" d="M502,254.1h-42c-12.1,0-22-9.9-22-22v-91.7h4v91.7c0,9.9,8.1,18,18,18h42V254.1z"/>
<rect x="496" y="250.1" class="smm2" width="6" height="4"/>
<rect x="496" y="203.7" class="smm2" width="6" height="4"/>
<rect x="403" y="302.7" class="smm2" width="4" height="6"/>
<rect x="442" y="203.7" class="smm2" width="6" height="4"/>
<rect x="432" y="203.7" class="smm2" width="6" height="4"/>
<rect x="438" y="142.4" class="smm2" width="4" height="7"/>
<circle class="smm1" cx="439.8" cy="118" r="25.4"/>
<polygon class="smm2" points="438.5,134.1 421.4,117 427.8,110.7 438.5,121.4 471.7,88.2 478.1,94.6 "/>
<ellipse class="smm7" cx="703.8" cy="286.8" rx="15.3" ry="15.4"/>
<ellipse class="smm0" cx="368" cy="237" rx="15.3" ry="15.4"/>
<path class="smm7" d="M483.2,157.1h-1.9c-1.7-4.8-5.5-8.5-10.3-10.3V145c4.8-1.7,8.5-5.5,10.3-10.3h1.9c1.7,4.8,5.5,8.5,10.3,10.3
	v1.9C488.6,148.6,484.9,152.3,483.2,157.1z M473.9,145.9c3.6,1.8,6.5,4.7,8.3,8.3c1.8-3.6,4.7-6.5,8.3-8.3c-3.6-1.8-6.5-4.7-8.3-8.3
	C480.4,141.2,477.5,144.1,473.9,145.9z"/>
<path class="smm16" d="M389,190.3h-1.9c-3.1-8.7-9.9-15.5-18.6-18.6v-1.9c8.7-3.1,15.5-9.9,18.6-18.6h1.9c3.1,8.7,9.9,15.5,18.6,18.6
	v1.9C398.9,174.9,392.1,181.6,389,190.3z M371.6,170.8c7.4,3.3,13.2,9.2,16.5,16.5c3.3-7.4,9.1-13.2,16.5-16.5
	c-7.4-3.3-13.2-9.2-16.5-16.5C384.8,161.6,379,167.5,371.6,170.8z"/>
<path class="smm0" d="M740.5,124.4c-5,1.8-8.9,5.7-10.7,10.7c-1.8-5-5.7-8.9-10.7-10.7c5-1.8,8.9-5.7,10.7-10.7
	C731.6,118.7,735.6,122.6,740.5,124.4z"/>
<path class="smm17" d="M176.7,345.3c-5,1.8-8.9,5.7-10.7,10.7c-1.8-5-5.7-8.9-10.7-10.7c5-1.8,8.9-5.7,10.7-10.7
	C167.8,339.6,171.7,343.5,176.7,345.3z"/>
<path class="smm2" d="M349.7,142.4c-5,1.8-8.9,5.7-10.7,10.7c-1.8-5-5.7-8.9-10.7-10.7c5-1.8,8.9-5.7,10.7-10.7
	C340.8,136.7,344.7,140.7,349.7,142.4z"/>
<ellipse class="smm2" cx="776.9" cy="411.8" rx="10.7" ry="10.7"/>
<ellipse class="smm2" cx="251.1" cy="458.6" rx="11.6" ry="10.7"/>
<circle class="smm1" cx="756.3" cy="177.7" r="24"/>
<circle class="smm7" cx="112.1" cy="339" r="26"/>
<rect x="752.3" y="170.6" class="smm8" width="8" height="20.4"/>
<polygon class="smm8" points="756.3,164.3 743.9,176.8 768.8,176.8 "/>
<g>
	<circle class="smm1" cx="206" cy="286.6" r="24"/>
	
		<rect x="193.6" y="284.8" transform="matrix(0.7072 -0.707 0.707 0.7072 -144.4907 228.6549)" class="smm0" width="20.4" height="8"/>
	<polygon class="smm0" points="215.4,277.1 197.8,277.1 215.4,294.7 	"/>
</g>
<path class="smm18" d="M216,414.7c-6.6,0-12-5.4-12-12c0-6.6,5.4-12,12-12c6.6,0,12,5.4,12,12C228,409.3,222.6,414.7,216,414.7z
	 M216,394.7c-4.4,0-8,3.6-8,8c0,4.4,3.6,8,8,8c4.4,0,8-3.6,8-8C224,398.3,220.4,394.7,216,394.7z"/>
<rect x="213.4" y="380.1" transform="matrix(0.8843 -0.4668 0.4668 0.8843 -146.4189 173.2612)" class="smm0" width="126.2" height="4"/>
<rect x="173.5" y="340.3" transform="matrix(0.4668 -0.8843 0.8843 0.4668 -176.5326 391.7119)" class="smm0" width="126.2" height="4"/>
<path class="smm0" d="M216,414.7c-6.6,0-12-5.4-12-12c0-1.9,0.5-3.9,1.4-5.6l0.1-0.1l3.5,1.9l-0.1,0.1c-0.6,1.1-0.9,2.4-0.9,3.7
	c0,4.4,3.6,8,8,8c1.3,0,2.6-0.3,3.7-0.9l0.1,0l1.9,3.5l-0.1,0.1C219.9,414.3,217.9,414.7,216,414.7z"/>
<g>
	<path class="smm0" d="M127.8,268.7c-1.2,0-2.4-0.1-3.5-0.3c-3.9-0.7-6.7-4.1-6.7-8.1v-1.2h4v1.2c0,2,1.4,3.8,3.4,4.1
		c1.9,0.3,3.8,0.3,5.6,0c2-0.4,3.4-2.1,3.4-4.1c0-1.8-1.2-3.5-2.9-4l-7.9-2.5c-3.4-1.1-5.7-4.2-5.7-7.8c0-4,2.8-7.4,6.7-8.1
		c2.3-0.4,4.7-0.4,7.1,0c3.9,0.7,6.7,4.1,6.7,8.1v1.2h-4V246c0-2-1.4-3.8-3.4-4.1c-1.9-0.3-3.8-0.3-5.6,0c-2,0.4-3.4,2.1-3.4,4.1
		c0,1.8,1.2,3.5,2.9,4l7.9,2.5c3.4,1.1,5.7,4.2,5.7,7.8c0,4-2.8,7.4-6.7,8.1C130.2,268.6,129,268.7,127.8,268.7z"/>
	<rect x="125.8" y="234.4" class="smm0" width="4" height="5.2"/>
	<rect x="125.8" y="266.7" class="smm0" width="4" height="5.2"/>
</g>
<path class="smm8" d="M127.8,282.6c-16.3,0-29.5-13.2-29.5-29.5s13.2-29.5,29.5-29.5s29.5,13.2,29.5,29.5S144.1,282.6,127.8,282.6z
	 M127.8,227.6c-14.1,0-25.5,11.4-25.5,25.5c0,14.1,11.4,25.5,25.5,25.5s25.5-11.4,25.5-25.5C153.3,239.1,141.9,227.6,127.8,227.6z"
	/>
<g>
	<rect x="97.1" y="343.4" class="smm8" width="6" height="6"/>
	<rect x="105.1" y="337.4" class="smm8" width="6" height="12"/>
	<rect x="113.1" y="331.4" class="smm8" width="6" height="18"/>
	<rect x="121.1" y="325.4" class="smm8" width="6" height="24"/>
</g>
<g>
	<path class="smm8" d="M796.1,362.7c-12,0-21.7-9.7-21.7-21.7s9.7-21.7,21.7-21.7c7.5,0,14.4,3.8,18.4,10.2l-3.4,2.1
		c-3.3-5.2-8.9-8.3-15-8.3c-9.8,0-17.7,8-17.7,17.7c0,9.8,8,17.7,17.7,17.7c6.1,0,11.8-3.1,15-8.3l3.4,2.1
		C810.5,358.9,803.6,362.7,796.1,362.7z"/>
	<g>
		<rect x="771.2" y="335" class="smm8" width="30.3" height="4"/>
		<rect x="771.2" y="343" class="smm8" width="30.3" height="4"/>
	</g>
</g>
<path class="smm8" d="M430.2,285.1c-4.4,0-8-3.6-8-8c0-4.4,3.6-8,8-8c4.4,0,8,3.6,8,8C438.2,281.6,434.6,285.1,430.2,285.1z
	 M430.2,273.1c-2.2,0-4,1.8-4,4c0,2.2,1.8,4,4,4c2.2,0,4-1.8,4-4C434.2,274.9,432.4,273.1,430.2,273.1z"/>
<circle class="smm2" cx="668.8" cy="469.3" r="3"/>
<circle class="smm2" cx="687.8" cy="469.3" r="3"/>
<circle class="smm2" cx="706.8" cy="469.3" r="3"/>
<circle class="smm2" cx="725.8" cy="469.3" r="3"/>
<circle class="smm1" cx="789.3" cy="244.1" r="3"/>
<circle class="smm14" cx="374.9" cy="110.7" r="3"/>
<circle class="smm2" cx="272" cy="161.9" r="3"/>
<circle class="smm2" cx="176.6" cy="249.6" r="3"/>
<circle class="smm17" cx="598.2" cy="140.4" r="3"/>
<circle class="smm17" cx="816.5" cy="387.8" r="3"/>
<circle class="smm17" cx="725.8" cy="349.4" r="3"/>
<path class="smm17" d="M219.3,458.6c0,1.7-1.5,3-3.3,3c-1.8,0-3.3-1.3-3.3-3c0-1.7,1.5-3,3.3-3C217.8,455.6,219.3,457,219.3,458.6z"
	/>
<g>
	<circle class="smm1" cx="144.1" cy="412.3" r="3"/>
</g>
<g>
	<ellipse transform="matrix(0.1602 -0.9871 0.9871 0.1602 136.5642 714.7964)" class="smm1" cx="488.4" cy="277.1" rx="3" ry="3"/>
	<ellipse transform="matrix(0.1602 -0.9871 0.9871 0.1602 120.6077 696.0417)" class="smm1" cx="469.4" cy="277.1" rx="3" ry="3"/>
	<ellipse transform="matrix(0.1602 -0.9871 0.9871 0.1602 104.6511 677.287)" class="smm1" cx="450.4" cy="277.1" rx="3" ry="3"/>
</g>
<path class="smm2" d="M769.3,252.1c-4.4,0-8-3.6-8-8c0-4.4,3.6-8,8-8c4.4,0,8,3.6,8,8C777.3,248.5,773.8,252.1,769.3,252.1z
	 M769.3,240.1c-2.2,0-4,1.8-4,4c0,2.2,1.8,4,4,4c2.2,0,4-1.8,4-4C773.3,241.9,771.5,240.1,769.3,240.1z"/>
<path class="smm2" d="M144.1,394.1c-3.9,0-7-3.1-7-7c0-3.9,3.1-7,7-7c3.9,0,7,3.1,7,7C151.1,391,147.9,394.1,144.1,394.1z
	 M144.1,382.1c-2.8,0-5,2.2-5,5c0,2.8,2.2,5,5,5c2.8,0,5-2.2,5-5C149.1,384.4,146.8,382.1,144.1,382.1z"/>
<path class="smm2" d="M144.1,203.3c-3.9,0-7-3.1-7-7c0-3.9,3.1-7,7-7c3.9,0,7,3.1,7,7C151.1,200.1,147.9,203.3,144.1,203.3z
	 M144.1,191.3c-2.8,0-5,2.2-5,5c0,2.8,2.2,5,5,5c2.8,0,5-2.2,5-5C149.1,193.5,146.8,191.3,144.1,191.3z"/>
<path class="smm8" d="M244.4,256.6c-3.9,0-7-3.1-7-7c0-3.9,3.1-7,7-7c3.9,0,7,3.1,7,7C251.4,253.5,248.2,256.6,244.4,256.6z
	 M244.4,244.6c-2.8,0-5,2.2-5,5c0,2.8,2.2,5,5,5c2.8,0,5-2.2,5-5C249.4,246.8,247.1,244.6,244.4,244.6z"/>
<path class="smm2" d="M725.8,334.9c-3.9,0-7-3.1-7-7c0-3.9,3.1-7,7-7c3.9,0,7,3.1,7,7C732.8,331.8,729.7,334.9,725.8,334.9z
	 M725.8,322.9c-2.8,0-5,2.2-5,5c0,2.8,2.2,5,5,5c2.8,0,5-2.2,5-5C730.8,325.2,728.6,322.9,725.8,322.9z"/>
<path class="smm2" d="M509.8,120.7c-3.9,0-7-3.1-7-7c0-3.9,3.1-7,7-7s7,3.1,7,7C516.8,117.6,513.7,120.7,509.8,120.7z M509.8,108.7
	c-2.8,0-5,2.2-5,5c0,2.8,2.2,5,5,5s5-2.2,5-5C514.8,111,512.6,108.7,509.8,108.7z"/>
<path class="smm1" d="M614.2,477.3c-4.4,0-8-3.6-8-8c0-4.4,3.6-8,8-8c4.4,0,8,3.6,8,8C622.2,473.7,618.6,477.3,614.2,477.3z
	 M614.2,465.3c-2.2,0-4,1.8-4,4c0,2.2,1.8,4,4,4c2.2,0,4-1.8,4-4C618.2,467.1,616.4,465.3,614.2,465.3z"/>
<polygon class="smm7" points="619.8,347.8 611.8,347.8 611.8,331.8 595.8,331.8 595.8,323.8 619.8,323.8 "/>
</svg>
