<?xml version="1.0" encoding="utf-8"?>
<svg version="1.1" id="smm2" xmlns="http://www.w3.org/2000/svg" xmlns:xlink="http://www.w3.org/1999/xlink" x="0px" y="0px"
	 viewBox="0 0 900 630" style="enable-background:new 0 0 900 630;" xml:space="preserve">
<style type="text/css">
	.smmm0{fill:#F4F4F4;}
	.smmm1{fill:#A6DAE9;}
	.smmm2{fill:#55C2EF;}
	.smmm3{fill:#7FC78A;}
	.smmm4{fill:#FFC801;}
	.smmm5{fill:#6764AD;}
	.smmm6{fill:#FFFFFF;}
	.smmm7{fill:#1B5E8F;}
</style>
<g>
	<path class="smmm0" d="M309,357c0,39.5-32,71.6-71.6,71.6c-39.5,0-71.6-32.1-71.6-71.6c0-39.5,32-71.6,71.6-71.6
		C276.9,285.5,309,317.5,309,357z"/>
	<circle class="smmm0" cx="252.5" cy="269.8" r="71.6"/>
	<circle class="smmm0" cx="311.7" cy="207.4" r="71.6"/>
	<circle class="smmm0" cx="387" cy="165.4" r="71.6"/>
	<circle class="smmm0" cx="471" cy="148.2" r="71.6"/>
	<circle class="smmm0" cx="553.9" cy="165.4" r="71.6"/>
	<circle class="smmm0" cx="631.4" cy="208.5" r="71.6"/>
	<circle class="smmm0" cx="687.4" cy="267.7" r="71.6"/>
	<path class="smmm0" d="M775.1,357c0,39.5-32,71.6-71.6,71.6c-39.5,0-71.6-32.1-71.6-71.6c0-39.5,32-71.6,71.6-71.6
		C743,285.5,775.1,317.5,775.1,357z"/>
	<path class="smmm0" d="M666.4,420.5c0,39.5-32,71.6-71.6,71.6c-39.5,0-71.6-32-71.6-71.6c0-39.5,32-71.6,71.6-71.6
		C634.3,349,666.4,381,666.4,420.5z"/>
	<rect x="240.1" y="209" class="smmm0" width="474.7" height="219.6"/>
	<path class="smmm1" d="M462.9,427.7c1.3-0.1,2.6-0.2,4-0.2h-4V427.7z"/>
	<path class="smmm0" d="M466.9,427.5c22.5,0,41,17.8,43.2,40.5h0.1l4.2,24.1h84.4v-64.6H466.9z"/>
</g>
<g>
	<path class="smmm2" d="M640.6,242.9l-13.7-1.1l0-10.4c-2.9-1-5.5-2.5-8-4.3l-8.2,5.9l-8.9-10.4l7.3-7.4c-1.3-2.8-2.2-5.7-2.6-8.7
		l-9.9-1.6l1.1-13.7l10.4,0c1-2.9,2.5-5.5,4.3-8l-5.9-8.2L617,166l7.4,7.3c2.8-1.3,5.7-2.2,8.7-2.6l1.6-9.9l13.7,1.1l0,10.4
		c2.9,1,5.5,2.5,8,4.3l8.2-5.9l8.9,10.4l-7.3,7.4c1.3,2.8,2.2,5.7,2.6,8.7l9.9,1.6l-1.1,13.7l-10.4,0c-1,2.9-2.5,5.5-4.3,8l5.9,8.2
		l-10.4,8.9l-7.4-7.3c-2.8,1.3-5.7,2.2-8.7,2.6L640.6,242.9z M629.9,239.1l8.3,0.7l1.6-9.5l1.1-0.1c3.4-0.4,6.7-1.4,9.8-2.9l0.9-0.5
		l7,6.9l6.3-5.4l-5.6-7.8l0.7-0.9c2.2-2.7,3.8-5.7,4.8-9l0.3-1l9.8,0l0.7-8.3l-9.5-1.5l-0.1-1.1c-0.4-3.4-1.3-6.7-2.9-9.8l-0.5-0.9
		l6.9-7l-5.4-6.3l-7.8,5.6l-0.9-0.7c-2.7-2.2-5.7-3.8-9-4.8l-1-0.3l0-9.8l-8.3-0.7l-1.5,9.4l-1.1,0.1c-3.4,0.4-6.7,1.4-9.8,2.9
		l-0.9,0.5l-7-6.9l-6.3,5.4l5.6,7.8l-0.7,0.9c-2.2,2.7-3.8,5.7-4.8,9l-0.3,1l-9.8,0l-0.7,8.3l9.5,1.5l0.1,1.1
		c0.4,3.4,1.4,6.7,2.9,9.8l0.5,0.9l-6.9,7l5.4,6.3l7.8-5.6l0.9,0.7c2.7,2.2,5.7,3.8,9,4.8l1,0.3L629.9,239.1z"/>
	<path class="smmm2" d="M637.7,215.5c-3.9,0-7.7-1.6-10.4-4.8c-2.4-2.8-3.5-6.3-3.2-9.9c0.3-3.6,2-6.9,4.8-9.3
		c2.8-2.4,6.3-3.5,9.9-3.2c3.6,0.3,6.9,2,9.3,4.8l0,0c4.9,5.7,4.2,14.4-1.5,19.3C644,214.5,640.8,215.5,637.7,215.5z M637.7,191.1
		c-2.5,0-5,0.9-7,2.6c-2.2,1.9-3.5,4.5-3.7,7.3c-0.2,2.9,0.7,5.6,2.5,7.8c3.8,4.5,10.6,5,15.1,1.2c4.5-3.8,5-10.6,1.2-15.1l0,0
		c-1.9-2.2-4.5-3.5-7.3-3.7C638.2,191.1,638,191.1,637.7,191.1z"/>
</g>
<g>
	<path class="smmm3" d="M649.8,252.9l-0.7-2.8c0.9-0.2,1.8-0.5,2.7-0.7l0.8,2.8C651.8,252.4,650.8,252.7,649.8,252.9z M655.6,251.2
		l-1-2.8c0.9-0.3,1.8-0.7,2.6-1l1.2,2.7C657.5,250.5,656.5,250.9,655.6,251.2z M661.1,248.8l-1.3-2.6c0.8-0.4,1.7-0.9,2.5-1.3
		l1.5,2.5C662.9,247.9,662,248.4,661.1,248.8z M666.4,245.8l-1.6-2.5c0.8-0.5,1.6-1.1,2.3-1.6l1.7,2.4
		C668,244.7,667.2,245.3,666.4,245.8z M671.2,242.3l-1.9-2.2l0.5-0.4c0.6-0.5,1.1-0.9,1.6-1.4l2,2.1c-0.6,0.5-1.1,1-1.7,1.5
		L671.2,242.3z M675.6,238.2l-2.1-2c0.7-0.7,1.3-1.4,1.9-2.1l2.2,1.9C677,236.7,676.3,237.4,675.6,238.2z M679.5,233.6l-2.3-1.8
		c0.6-0.8,1.1-1.5,1.7-2.3l2.4,1.6C680.7,232,680.1,232.8,679.5,233.6z M682.9,228.6l-2.5-1.5c0.5-0.8,0.9-1.6,1.4-2.5l2.6,1.3
		C683.9,226.9,683.4,227.7,682.9,228.6z M685.6,223.2l-2.7-1.2c0.4-0.9,0.7-1.7,1.1-2.6l2.7,1C686.4,221.4,686,222.3,685.6,223.2z
		 M687.8,217.6l-2.8-0.9c0.3-0.9,0.5-1.8,0.8-2.7l2.8,0.7C688.3,215.7,688,216.7,687.8,217.6z M689.2,211.8l-2.9-0.6
		c0.2-0.9,0.3-1.9,0.5-2.8l2.9,0.4C689.6,209.8,689.4,210.8,689.2,211.8z M690,205.8l-2.9-0.2c0.1-0.9,0.1-1.9,0.1-2.8l2.9,0.1
		C690.1,203.8,690.1,204.8,690,205.8z M687.2,199.9c0-0.9-0.1-1.9-0.2-2.8l2.9-0.3c0.1,1,0.2,2,0.2,3L687.2,199.9z M686.6,194.3
		c-0.1-0.9-0.3-1.9-0.5-2.8l2.9-0.6c0.2,1,0.4,2,0.5,3L686.6,194.3z M685.5,188.7c-0.2-0.9-0.5-1.8-0.8-2.7l2.8-0.9
		c0.3,1,0.6,1.9,0.9,2.9L685.5,188.7z M683.6,183.3c-0.3-0.9-0.7-1.7-1.1-2.6l2.6-1.3c0.4,0.9,0.8,1.8,1.2,2.8L683.6,183.3z
		 M681.2,178.2c-0.4-0.8-0.9-1.6-1.4-2.5l2.5-1.5c0.5,0.9,1,1.7,1.5,2.6L681.2,178.2z M678.2,173.4c-0.5-0.8-1.1-1.5-1.7-2.3
		l2.3-1.8c0.6,0.8,1.2,1.6,1.8,2.4L678.2,173.4z M674.7,168.9c-0.6-0.7-1.3-1.4-2-2.1l2.1-2.1c0.7,0.7,1.4,1.4,2.1,2.2L674.7,168.9z
		 M670.7,164.9c-0.7-0.6-1.4-1.2-2.2-1.8l1.8-2.3c0.8,0.6,1.6,1.3,2.3,1.9L670.7,164.9z M605.5,164.2l-1.9-2.2
		c0.8-0.6,1.6-1.3,2.3-1.9l1.8,2.3C607,163,606.2,163.6,605.5,164.2z M666.2,161.3c-0.8-0.5-1.6-1.1-2.4-1.6l1.5-2.5
		c0.8,0.5,1.7,1.1,2.5,1.7L666.2,161.3z M610.1,160.7l-1.6-2.4c0.8-0.6,1.7-1.1,2.5-1.6l1.5,2.5
		C611.6,159.7,610.8,160.2,610.1,160.7z M661.4,158.3c-0.8-0.5-1.7-0.9-2.5-1.3l1.2-2.6c0.9,0.4,1.8,0.9,2.7,1.4L661.4,158.3z
		 M614.9,157.8l-1.3-2.6c0.9-0.5,1.8-0.9,2.7-1.3l1.2,2.7C616.6,157,615.8,157.4,614.9,157.8z M656.2,155.9c-0.9-0.4-1.8-0.7-2.7-1
		l0.9-2.8c0.9,0.3,1.9,0.7,2.8,1L656.2,155.9z M620.1,155.5l-1-2.7c0.9-0.4,1.9-0.7,2.8-1l0.9,2.8
		C621.9,154.9,621,155.2,620.1,155.5z M650.9,154.1c-0.9-0.2-1.8-0.5-2.8-0.7l0.6-2.9c1,0.2,2,0.5,2.9,0.7L650.9,154.1z
		 M625.6,153.8l-0.7-2.8c1-0.2,2-0.5,2.9-0.6l0.5,2.9C627.4,153.4,626.5,153.6,625.6,153.8z M645.3,152.9c-0.9-0.1-1.9-0.3-2.8-0.4
		l0.3-2.9c1,0.1,2,0.2,3,0.4L645.3,152.9z M631.1,152.8l-0.4-2.9c1-0.1,2-0.2,3-0.3l0.2,2.9C633,152.5,632.1,152.6,631.1,152.8z
		 M639.6,152.4c-0.9,0-1.9,0-2.8,0l0-2.9c1,0,2,0,3,0L639.6,152.4z"/>
	<path class="smmm3" d="M511.6,296.9c-0.8,0-1.6-0.1-2.4-0.2l0.4-2.9c0.9,0.1,1.8,0.2,2.7,0.1l0.1,2.9
		C512.1,296.8,511.9,296.9,511.6,296.9z M515.5,296.4l-0.6-2.9c0.9-0.2,1.7-0.5,2.5-0.8l1.1,2.7
		C517.6,295.9,516.6,296.2,515.5,296.4z M506.1,296c-1-0.3-2-0.7-2.9-1.2l1.4-2.6c0.8,0.4,1.6,0.8,2.5,1L506.1,296z M500.5,293.1
		c-0.8-0.6-1.6-1.4-2.3-2.2l2.2-2c0.6,0.7,1.3,1.3,2,1.8L500.5,293.1z M496.2,288.4c-0.6-0.9-1.1-1.9-1.5-2.8l2.7-1.1
		c0.3,0.8,0.7,1.6,1.2,2.4L496.2,288.4z M493.9,282.5c-0.2-1-0.3-2.1-0.4-3.2l2.9-0.1c0,0.9,0.1,1.8,0.3,2.6L493.9,282.5z
		 M496.5,276.6l-2.9-0.4c0.1-1,0.4-2.1,0.7-3.1l2.8,0.9C496.9,274.8,496.7,275.7,496.5,276.6z M498.2,271.5l-2.6-1.4
		c0.5-0.9,1.1-1.8,1.7-2.7l2.3,1.8C499.1,270,498.6,270.7,498.2,271.5z M501.5,267.4l-1.9-2.2l0.3-0.3l1.9,2.2L501.5,267.4z"/>
	<path class="smmm3" d="M503.2,265.9l-2.1-2.1l2.1-2.1l2.1,2.1L503.2,265.9z M507.3,261.7l-2.1-2.1l2.1-2.1l2.1,2.1L507.3,261.7z
		 M511.5,257.6l-2.1-2.1l2.1-2.1l2.1,2.1L511.5,257.6z M515.6,253.5l-2.1-2.1l2.1-2.1l2.1,2.1L515.6,253.5z M519.8,249.4l-2.1-2.1
		l2.1-2.1l2.1,2.1L519.8,249.4z M524,245.3l-2.1-2.1l2.1-2.1l2.1,2.1L524,245.3z M528.1,241.1l-2.1-2.1l2.1-2.1l2.1,2.1L528.1,241.1
		z M532.3,237l-2.1-2.1l2.1-2.1l2.1,2.1L532.3,237z M536.4,232.9l-2.1-2.1l2.1-2.1l2.1,2.1L536.4,232.9z M540.6,228.8l-2.1-2.1
		l2.1-2.1l2.1,2.1L540.6,228.8z M544.7,224.7l-2.1-2.1l2.1-2.1l2.1,2.1L544.7,224.7z M548.9,220.5l-2.1-2.1l2.1-2.1l2.1,2.1
		L548.9,220.5z M553.1,216.4l-2.1-2.1l2.1-2.1l2.1,2.1L553.1,216.4z M557.2,212.3l-2.1-2.1l2.1-2.1l2.1,2.1L557.2,212.3z
		 M561.4,208.2l-2.1-2.1l2.1-2.1l2.1,2.1L561.4,208.2z M565.5,204.1l-2.1-2.1l2.1-2.1l2.1,2.1L565.5,204.1z M569.7,199.9l-2.1-2.1
		l2.1-2.1l2.1,2.1L569.7,199.9z M573.8,195.8l-2.1-2.1l2.1-2.1l2.1,2.1L573.8,195.8z M578,191.7l-2.1-2.1l2.1-2.1l2.1,2.1L578,191.7
		z M582.2,187.6l-2.1-2.1l2.1-2.1l2.1,2.1L582.2,187.6z M586.3,183.5l-2.1-2.1l2.1-2.1l2.1,2.1L586.3,183.5z M590.5,179.3l-2.1-2.1
		l2.1-2.1l2.1,2.1L590.5,179.3z M594.6,175.2l-2.1-2.1l2.1-2.1l2.1,2.1L594.6,175.2z M598.8,171.1l-2.1-2.1l2.1-2.1l2.1,2.1
		L598.8,171.1z M602.9,167l-2.1-2.1l2.1-2.1l2.1,2.1L602.9,167z M607.1,162.9l-2.1-2.1l0.5-0.5l2.1,2.1L607.1,162.9z"/>
	<path class="smmm3" d="M520.3,294.8l-0.9-2.8l2.8-0.9l0.9,2.8L520.3,294.8z M525.9,293l-0.9-2.8l2.8-0.9l0.9,2.8L525.9,293z
		 M531.5,291.2l-0.9-2.8l2.8-0.9l0.9,2.8L531.5,291.2z M537.1,289.4l-0.9-2.8l2.8-0.9l0.9,2.8L537.1,289.4z M542.6,287.6l-0.9-2.8
		l2.8-0.9l0.9,2.8L542.6,287.6z M548.2,285.8l-0.9-2.8l2.8-0.9l0.9,2.8L548.2,285.8z M553.8,284l-0.9-2.8l2.8-0.9l0.9,2.8L553.8,284
		z M559.3,282.2l-0.9-2.8l2.8-0.9l0.9,2.8L559.3,282.2z M564.9,280.5l-0.9-2.8l2.8-0.9l0.9,2.8L564.9,280.5z M570.5,278.7l-0.9-2.8
		l2.8-0.9l0.9,2.8L570.5,278.7z M576.1,276.9l-0.9-2.8l2.8-0.9l0.9,2.8L576.1,276.9z M581.6,275.1l-0.9-2.8l2.8-0.9l0.9,2.8
		L581.6,275.1z M587.2,273.3l-0.9-2.8l2.8-0.9l0.9,2.8L587.2,273.3z M592.8,271.5l-0.9-2.8l2.8-0.9l0.9,2.8L592.8,271.5z
		 M598.4,269.7l-0.9-2.8l2.8-0.9l0.9,2.8L598.4,269.7z M603.9,267.9l-0.9-2.8l2.8-0.9l0.9,2.8L603.9,267.9z M609.5,266.1l-0.9-2.8
		l2.8-0.9l0.9,2.8L609.5,266.1z M615.1,264.3l-0.9-2.8l2.8-0.9l0.9,2.8L615.1,264.3z M620.6,262.6l-0.9-2.8l2.8-0.9l0.9,2.8
		L620.6,262.6z M626.2,260.8l-0.9-2.8l2.8-0.9l0.9,2.8L626.2,260.8z M631.8,259l-0.9-2.8l2.8-0.9l0.9,2.8L631.8,259z M637.4,257.2
		l-0.9-2.8l2.8-0.9l0.9,2.8L637.4,257.2z M642.9,255.4l-0.9-2.8l2.8-0.9l0.9,2.8L642.9,255.4z M648.5,253.6l-0.9-2.8l2.8-0.9
		l0.9,2.8L648.5,253.6z"/>
</g>
<g>
	<g>
		<path class="smmm4" d="M512.2,285.9c-0.2,0-0.4,0-0.6,0c-1.9-0.2-3.6-1-4.8-2.5c-2.5-3-2.2-7.5,0.8-10c3-2.5,7.5-2.2,10,0.8v0
			c1.2,1.4,1.8,3.3,1.7,5.2c-0.1,1.9-1,3.6-2.5,4.8C515.5,285.3,513.9,285.9,512.2,285.9z M512.2,274.6c-1,0-1.9,0.3-2.7,1
			c-1.8,1.5-2,4.1-0.5,5.9c0.7,0.9,1.7,1.4,2.9,1.5c1.1,0.1,2.2-0.3,3-1c0.9-0.7,1.4-1.7,1.5-2.9c0.1-1.1-0.3-2.2-1-3
			C514.5,275.1,513.3,274.6,512.2,274.6z"/>
		<g>
			
				<rect x="504.5" y="268.9" transform="matrix(0.7608 -0.649 0.649 0.7608 -55.195 393.3654)" class="smmm4" width="2.9" height="5.3"/>
			
				<rect x="516.9" y="283.4" transform="matrix(0.7608 -0.649 0.649 0.7608 -61.6495 404.8708)" class="smmm4" width="2.9" height="5.3"/>
		</g>
		<g>
			
				<rect x="500.1" y="279.1" transform="matrix(0.9834 -0.1815 0.1815 0.9834 -42.5717 95.9297)" class="smmm4" width="5.3" height="2.9"/>
			
				<rect x="518.9" y="275.6" transform="matrix(0.9834 -0.1815 0.1815 0.9834 -41.6309 99.277)" class="smmm4" width="5.3" height="2.9"/>
		</g>
		<g>
			
				<rect x="506.3" y="286.3" transform="matrix(0.3341 -0.9425 0.9425 0.3341 67.6729 671.3704)" class="smmm4" width="5.3" height="2.9"/>
			
				<rect x="512.7" y="268.4" transform="matrix(0.3341 -0.9425 0.9425 0.3341 88.8612 665.4086)" class="smmm4" width="5.3" height="2.9"/>
		</g>
	</g>
</g>
<g>
	<rect x="537.7" y="415.1" class="smmm5" width="18.2" height="2.9"/>
	<rect x="528.2" y="415.1" class="smmm5" width="6.1" height="2.9"/>
</g>
<g>
	<rect x="495.6" y="398.2" class="smmm5" width="18.2" height="2.9"/>
	<rect x="486" y="398.2" class="smmm5" width="6.1" height="2.9"/>
</g>
<g>
	<rect x="698.8" y="228.2" class="smmm5" width="18.2" height="2.9"/>
	<rect x="720.5" y="228.2" class="smmm5" width="6.1" height="2.9"/>
</g>
<g>
	<path class="smmm5" d="M363.8,371H343l3.9-19.2c-2.9-2.1-4.6-5.4-4.6-9c0-6.1,5-11.1,11.1-11.1c6.1,0,11.1,5,11.1,11.1
		c0,3.6-1.7,6.9-4.6,9L363.8,371z M346.5,368h13.7l-3.5-17.7l0.9-0.5c2.5-1.5,4-4.1,4-7c0-4.5-3.7-8.2-8.2-8.2
		c-4.5,0-8.2,3.7-8.2,8.2c0,2.9,1.5,5.5,4,7l0.9,0.5L346.5,368z"/>
</g>
<g>
	<rect x="546.7" y="260.9" class="smmm2" width="1.9" height="2.9"/>
	<path class="smmm2" d="M722.5,303.9h-2.9v-2.9h2.9V303.9z M716.6,303.9h-2.9v-2.9h2.9V303.9z M710.8,303.9h-2.9v-2.9h2.9V303.9z
		 M704.9,303.9H702v-2.9h2.9V303.9z M699,303.9h-2.9v-2.9h2.9V303.9z M693.2,303.9h-2.9v-2.9h2.9V303.9z M687.3,303.9h-2.9v-2.9h2.9
		V303.9z M681.5,303.9h-2.9v-2.9h2.9V303.9z M675.6,303.9h-2.9v-2.9h2.9V303.9z M669.7,303.9h-2.9v-2.9h2.9V303.9z M663.9,303.9H661
		v-2.9h2.9V303.9z M658,303.9h-2.9v-2.9h2.9V303.9z M652.2,303.9h-2.9v-2.9h2.9V303.9z M646.3,303.9h-2.9v-2.9h2.9V303.9z
		 M640.4,303.9h-2.9v-2.9h2.9V303.9z M634.6,303.9h-2.9v-2.9h2.9V303.9z M628.7,303.9h-2.9v-2.9h2.9V303.9z M622.9,303.9h-2.9v-2.9
		h2.9V303.9z M617,303.9h-2.9v-2.9h2.9V303.9z M611.1,303.9h-2.9v-2.9h2.9V303.9z M605.3,303.9h-2.9v-2.9h2.9V303.9z M599.4,303.9
		h-2.9v-2.9h2.9V303.9z M593.5,303.9h-2.9v-2.9h2.9V303.9z M587.7,303.9h-2.9v-2.9h2.9V303.9z M581.8,303.9h-2.9v-2.9h2.9V303.9z
		 M576,303.9H573v-2.9h2.9V303.9z M570.1,303.9h-2.9v-2.9h2.9V303.9z M564.2,303.9h-2.9v-2.9h2.9V303.9z M558.4,303.9h-2.9v-2.9h2.9
		V303.9z M552.5,303.9h-2.9v-2.9h2.9V303.9z M546.7,303.9h-2.9v-2.9h2.9V303.9z M540.8,303.9h-2.9v-2.9h2.9V303.9z M534.9,303.9H532
		v-2.9h2.9V303.9z M529.1,303.9h-2.9v-2.9h2.9V303.9z M523.2,303.9h-2.9v-2.9h2.9V303.9z M517.4,303.9h-2.9v-2.9h2.9V303.9z
		 M511.5,303.9h-2.9v-2.9h2.9V303.9z M505.6,303.9h-2.9v-2.9h2.9V303.9z M499.8,303.9h-2.9v-2.9h2.9V303.9z M493.9,303.9h-0.7v-2.9
		h0.7V303.9z M725.6,303.7l-0.3-2.9c0.9-0.1,1.8-0.3,2.7-0.5l0.7,2.8C727.7,303.4,726.6,303.6,725.6,303.7z M731.6,302.1l-1.2-2.7
		c0.8-0.4,1.6-0.8,2.4-1.2l1.5,2.5C733.5,301.2,732.6,301.7,731.6,302.1z M737,298.8l-1.9-2.2c0.7-0.6,1.3-1.2,1.9-1.9l2.2,1.9
		C738.5,297.4,737.8,298.2,737,298.8z M741.1,294.2l-2.4-1.6c0.5-0.8,0.9-1.6,1.3-2.4l2.7,1.2C742.2,292.4,741.7,293.3,741.1,294.2z
		 M743.8,288.5l-2.8-0.8c0.3-0.9,0.5-1.8,0.6-2.6l2.9,0.4C744.3,286.4,744.1,287.5,743.8,288.5z M741.7,282.3c0-0.9-0.1-1.8-0.2-2.7
		l2.9-0.4c0.2,1,0.2,2.1,0.2,3.1L741.7,282.3z M740.9,276.9c-0.3-0.9-0.6-1.7-1-2.5l2.6-1.3c0.4,0.9,0.8,1.9,1.1,2.9L740.9,276.9z
		 M738.6,272.1c-0.5-0.8-1.1-1.5-1.7-2.1l2.2-2c0.7,0.8,1.4,1.6,1.9,2.5L738.6,272.1z M735,268c-0.7-0.6-1.4-1.1-2.2-1.6l1.5-2.5
		c0.9,0.5,1.8,1.2,2.6,1.8L735,268z M730.3,265.2c-0.8-0.3-1.7-0.6-2.6-0.9l0.7-2.8c1,0.3,2,0.6,3,1L730.3,265.2z M725.1,263.9
		c-0.6-0.1-1.3-0.1-1.9-0.1h-0.9v-2.9h0.9c0.7,0,1.5,0,2.2,0.1L725.1,263.9z M719.4,263.8h-2.9v-2.9h2.9V263.8z M713.5,263.8h-2.9
		v-2.9h2.9V263.8z M707.6,263.8h-2.9v-2.9h2.9V263.8z M701.8,263.8h-2.9v-2.9h2.9V263.8z M695.9,263.8H693v-2.9h2.9V263.8z
		 M690.1,263.8h-2.9v-2.9h2.9V263.8z M684.2,263.8h-2.9v-2.9h2.9V263.8z M678.3,263.8h-2.9v-2.9h2.9V263.8z M672.5,263.8h-2.9v-2.9
		h2.9V263.8z M666.6,263.8h-2.9v-2.9h2.9V263.8z M660.8,263.8h-2.9v-2.9h2.9V263.8z M654.9,263.8H652v-2.9h2.9V263.8z M649,263.8
		h-2.9v-2.9h2.9V263.8z M643.2,263.8h-2.9v-2.9h2.9V263.8z M637.3,263.8h-2.9v-2.9h2.9V263.8z M631.4,263.8h-2.9v-2.9h2.9V263.8z
		 M625.6,263.8h-2.9v-2.9h2.9V263.8z M619.7,263.8h-2.9v-2.9h2.9V263.8z M613.9,263.8h-2.9v-2.9h2.9V263.8z M608,263.8h-2.9v-2.9
		h2.9V263.8z M602.1,263.8h-2.9v-2.9h2.9V263.8z M596.3,263.8h-2.9v-2.9h2.9V263.8z M590.4,263.8h-2.9v-2.9h2.9V263.8z M584.6,263.8
		h-2.9v-2.9h2.9V263.8z M578.7,263.8h-2.9v-2.9h2.9V263.8z M572.8,263.8h-2.9v-2.9h2.9V263.8z M567,263.8H564v-2.9h2.9V263.8z
		 M561.1,263.8h-2.9v-2.9h2.9V263.8z M555.3,263.8h-2.9v-2.9h2.9V263.8z"/>
	<rect x="489.5" y="300.9" class="smmm2" width="1.9" height="2.9"/>
</g>
<g>
	<g>
		<rect x="254.7" y="168.1" class="smmm2" width="2.9" height="13"/>
		
			<rect x="280.9" y="180.7" transform="matrix(0.342 -0.9397 0.9397 0.342 17.9172 389.9044)" class="smmm2" width="13" height="2.9"/>
		
			<rect x="307.7" y="198.5" transform="matrix(0.6427 -0.7661 0.7661 0.6427 -40.9524 312.1512)" class="smmm2" width="13" height="2.9"/>
		
			<rect x="326.8" y="224.4" transform="matrix(0.8659 -0.5002 0.5002 0.8659 -68.3047 196.9717)" class="smmm2" width="13" height="2.9"/>
		
			<rect x="335.8" y="255.3" transform="matrix(0.9848 -0.1739 0.1739 0.9848 -39.4266 63.4222)" class="smmm2" width="13" height="2.9"/>
		
			<rect x="179.8" y="332.6" transform="matrix(0.6427 -0.7661 0.7661 0.6427 -189.3456 262.096)" class="smmm2" width="13" height="2.9"/>
		
			<rect x="160.8" y="306.7" transform="matrix(0.8659 -0.5002 0.5002 0.8659 -131.7 124.9677)" class="smmm2" width="13" height="2.9"/>
		
			<rect x="151.7" y="275.8" transform="matrix(0.9847 -0.1745 0.1745 0.9847 -45.9577 31.8585)" class="smmm2" width="13" height="2.9"/>
		
			<rect x="158.8" y="238.7" transform="matrix(0.173 -0.9849 0.9849 0.173 -108.9611 360.5459)" class="smmm2" width="2.9" height="13"/>
		
			<rect x="171.7" y="209.2" transform="matrix(0.4997 -0.8662 0.8662 0.4997 -100.2142 257.8835)" class="smmm2" width="2.9" height="13"/>
		
			<rect x="193.9" y="185.9" transform="matrix(0.7658 -0.6431 0.6431 0.7658 -77.9902 170.6689)" class="smmm2" width="2.9" height="13"/>
		
			<rect x="222.7" y="171.7" transform="matrix(0.9394 -0.3427 0.3427 0.9394 -47.4707 87.6011)" class="smmm2" width="2.9" height="13"/>
	</g>
	<g>
		<path class="smmm3" d="M282.2,382.7h-2.9v-23.1h32.4c10,0,18-8.1,18-18.1v-30h15.7l-22.3-38.7l0-0.4c0-1.1,0.1-2.1,0.1-3.2
			c0-39.1-31.8-70.9-70.9-70.9c-39.1,0-70.9,31.8-70.9,70.9c0,18.9,7.4,36.7,20.7,50.1l0.4,0.4v63.1h-2.9v-61.9
			c-13.6-13.9-21.1-32.2-21.1-51.7c0-40.7,33.1-73.8,73.8-73.8c40.7,0,73.8,33.1,73.8,73.8c0,1,0,1.9-0.1,2.9l24.5,42.4h-17.9v27.1
			c0,11.6-9.4,21-21,21h-29.4V382.7z"/>
	</g>
	<g>
		<path class="smmm2" d="M253.1,326.5c-31.2,0-56.6-25.4-56.6-56.6c0-31.2,25.4-56.6,56.6-56.6v2.9c-29.6,0-53.7,24.1-53.7,53.7
			c0,29.6,24.1,53.7,53.7,53.7c29.6,0,53.7-24.1,53.7-53.7h2.9C309.7,301.1,284.3,326.5,253.1,326.5z"/>
		<g>
			<path class="smmm3" d="M309.7,269.9h-2.9c0-0.6,0-1.2,0-1.8l2.9-0.1C309.7,268.6,309.7,269.2,309.7,269.9z"/>
			<path class="smmm3" d="M306.5,264.5c-0.1-0.9-0.2-1.8-0.3-2.7l2.9-0.4c0.1,0.9,0.3,1.9,0.4,2.9L306.5,264.5z M305.7,259.1
				c-0.2-0.9-0.4-1.8-0.6-2.7l2.8-0.7c0.2,0.9,0.5,1.9,0.6,2.8L305.7,259.1z M304.4,253.8c-0.3-0.9-0.6-1.7-0.9-2.6l2.7-1
				c0.3,0.9,0.6,1.8,0.9,2.7L304.4,253.8z M302.5,248.7c-0.4-0.8-0.7-1.7-1.1-2.5l2.6-1.3c0.4,0.9,0.8,1.7,1.2,2.6L302.5,248.7z
				 M300,243.8c-0.4-0.8-0.9-1.6-1.4-2.4l2.5-1.6c0.5,0.8,1,1.7,1.5,2.5L300,243.8z M297.1,239.1c-0.5-0.7-1.1-1.5-1.6-2.2l2.3-1.8
				c0.6,0.8,1.2,1.5,1.7,2.3L297.1,239.1z M293.8,234.8c-0.6-0.7-1.2-1.4-1.8-2l2.1-2c0.7,0.7,1.3,1.4,1.9,2.1L293.8,234.8z
				 M290,230.9c-0.7-0.6-1.3-1.2-2-1.8l1.9-2.2c0.7,0.6,1.5,1.3,2.1,1.9L290,230.9z M285.8,227.3c-0.7-0.6-1.5-1.1-2.2-1.6l1.7-2.4
				c0.8,0.5,1.6,1.1,2.3,1.7L285.8,227.3z M281.3,224.2c-0.8-0.5-1.6-0.9-2.4-1.4l1.4-2.6c0.8,0.5,1.7,1,2.5,1.5L281.3,224.2z
				 M276.6,221.6c-0.8-0.4-1.7-0.8-2.5-1.1l1.1-2.7c0.9,0.4,1.8,0.8,2.6,1.2L276.6,221.6z M271.5,219.4c-0.8-0.3-1.7-0.6-2.6-0.9
				l0.9-2.8c0.9,0.3,1.8,0.6,2.7,0.9L271.5,219.4z M266.3,217.8c-0.9-0.2-1.8-0.4-2.7-0.6l0.6-2.9c0.9,0.2,1.9,0.4,2.8,0.6
				L266.3,217.8z M260.9,216.7c-0.9-0.1-1.8-0.2-2.7-0.3l0.3-2.9c1,0.1,1.9,0.2,2.9,0.3L260.9,216.7z"/>
			<path class="smmm3" d="M254.9,216.2c-0.6,0-1.2,0-1.8,0v-2.9c0.6,0,1.3,0,1.9,0L254.9,216.2z"/>
		</g>
		<g>
			<path class="smmm2" d="M253.1,308.5v-2.9c19.7,0,35.7-16,35.7-35.7c0-19.7-16-35.7-35.7-35.7c-19.7,0-35.7,16-35.7,35.7h-2.9
				c0-21.3,17.3-38.6,38.6-38.6c21.3,0,38.6,17.3,38.6,38.6C291.7,291.2,274.4,308.5,253.1,308.5z"/>
			<g>
				<path class="smmm3" d="M214.6,271.8c0-0.6,0-1.3,0-1.9h2.9c0,0.6,0,1.2,0,1.8L214.6,271.8z"/>
				<path class="smmm3" d="M248.4,308.2c-1-0.1-2-0.3-2.9-0.5l0.6-2.9c0.9,0.2,1.8,0.3,2.7,0.4L248.4,308.2z M242.6,307
					c-0.9-0.3-1.9-0.6-2.8-0.9l1-2.7c0.9,0.3,1.7,0.6,2.6,0.8L242.6,307z M237.1,305c-0.9-0.4-1.8-0.9-2.6-1.3l1.4-2.6
					c0.8,0.4,1.6,0.9,2.4,1.2L237.1,305z M231.9,302.1c-0.8-0.5-1.6-1.1-2.4-1.7l1.8-2.3c0.7,0.6,1.5,1.1,2.2,1.6L231.9,302.1z
					 M227.2,298.5c-0.7-0.7-1.4-1.3-2.1-2.1l2.1-2c0.6,0.7,1.3,1.3,2,1.9L227.2,298.5z M223.2,294.3c-0.6-0.8-1.2-1.6-1.8-2.4
					l2.4-1.7c0.5,0.7,1.1,1.5,1.6,2.2L223.2,294.3z M219.8,289.4c-0.5-0.8-1-1.7-1.4-2.6l2.6-1.3c0.4,0.8,0.8,1.6,1.3,2.4
					L219.8,289.4z M217.2,284.1c-0.4-0.9-0.7-1.8-1-2.8l2.8-0.9c0.3,0.9,0.6,1.7,0.9,2.6L217.2,284.1z M215.5,278.5
					c-0.2-1-0.4-1.9-0.5-2.9l2.9-0.4c0.1,0.9,0.3,1.8,0.5,2.7L215.5,278.5z"/>
				<path class="smmm3" d="M253.1,308.5c-0.7,0-1.3,0-2,0l0.2-2.9c0.6,0,1.2,0,1.8,0V308.5z"/>
			</g>
		</g>
		<path class="smmm4" d="M253.1,290.4c-11.3,0-20.5-9.2-20.5-20.5c0-11.3,9.2-20.5,20.5-20.5c11.3,0,20.6,9.2,20.6,20.5
			C273.7,281.2,264.4,290.4,253.1,290.4z M253.1,252.3c-9.7,0-17.6,7.9-17.6,17.6c0,9.7,7.9,17.6,17.6,17.6
			c9.7,0,17.6-7.9,17.6-17.6C270.7,260.2,262.8,252.3,253.1,252.3z"/>
	</g>
</g>
<g>
	<path class="smmm6" d="M447.9,186h38.7c0.3-3.7,1.1-8.4,3.4-11.5c14.3-18.4,15.2-35.9,15.2-37.2c0-21-17-38-38-38
		c-21,0-37.9,17-37.9,38c0,1.2,0.9,18.8,15.2,37.2C446.9,177.6,447.7,182.3,447.9,186z"/>
	<g>
		
			<rect x="452" y="143.8" transform="matrix(0.9841 -0.1773 0.1773 0.9841 -22.0774 83.0408)" class="smmm4" width="2.9" height="42.4"/>
		
			<rect x="460" y="163.6" transform="matrix(0.1772 -0.9842 0.9842 0.1772 233.5343 609.3763)" class="smmm4" width="42.4" height="2.9"/>
	</g>
	<polygon class="smmm4" points="479.5,150.8 478.4,150.8 473.1,148.7 467.9,150.8 466.8,150.8 461.6,148.7 456.3,150.8 455.2,150.8 
		449.4,148.5 450.5,145.8 455.8,147.8 461,145.8 462.1,145.8 467.3,147.8 472.6,145.8 473.7,145.8 478.9,147.8 484.2,145.8 
		485.3,148.5 	"/>
	<g>
		<rect x="442.7" y="185" class="smmm4" width="49.3" height="2.9"/>
		<rect x="442.7" y="194.6" class="smmm4" width="49.3" height="2.9"/>
		<rect x="442.7" y="204.1" class="smmm4" width="49.3" height="2.9"/>
		<rect x="449.4" y="213.7" class="smmm4" width="35.9" height="2.9"/>
		<rect x="446.9" y="186.9" class="smmm4" width="2.9" height="18.2"/>
	</g>
	<g>
		<rect x="465.9" y="84.8" class="smmm4" width="2.9" height="7.5"/>
		
			<rect x="453.3" y="86.5" transform="matrix(0.966 -0.2587 0.2587 0.966 -7.8641 120.7386)" class="smmm4" width="2.9" height="7.5"/>
		
			<rect x="441.6" y="91.3" transform="matrix(0.8659 -0.5003 0.5003 0.8659 11.8593 234.4165)" class="smmm4" width="2.9" height="7.5"/>
		
			<rect x="431.6" y="99" transform="matrix(0.7069 -0.7073 0.7073 0.7069 54.2175 336.4331)" class="smmm4" width="2.9" height="7.5"/>
		
			<rect x="423.9" y="109.1" transform="matrix(0.5001 -0.866 0.866 0.5001 114.9196 424.7505)" class="smmm4" width="2.9" height="7.5"/>
		<rect x="419" y="120.8" transform="matrix(0.2587 -0.966 0.966 0.2587 191.4317 498.51)" class="smmm4" width="2.9" height="7.5"/>
		<rect x="415.1" y="135.6" class="smmm4" width="7.5" height="2.9"/>
		
			<rect x="416.7" y="148.2" transform="matrix(0.9658 -0.2593 0.2593 0.9658 -24.4171 114.1574)" class="smmm4" width="7.5" height="2.9"/>
		
			<rect x="421.6" y="159.9" transform="matrix(0.8661 -0.4999 0.4999 0.8661 -23.6808 234.2616)" class="smmm4" width="7.5" height="2.9"/>
		
			<rect x="429.3" y="169.9" transform="matrix(0.7074 -0.7068 0.7068 0.7074 5.5773 356.2101)" class="smmm4" width="7.5" height="2.9"/>
		
			<rect x="500.2" y="167.6" transform="matrix(0.7076 -0.7066 0.7066 0.7076 25.5863 404.5727)" class="smmm4" width="2.9" height="7.5"/>
		
			<rect x="507.9" y="157.6" transform="matrix(0.4997 -0.8662 0.8662 0.4997 115.0653 521.8874)" class="smmm4" width="2.9" height="7.5"/>
		
			<rect x="512.7" y="145.9" transform="matrix(0.2587 -0.966 0.966 0.2587 236.6264 607.6059)" class="smmm4" width="2.9" height="7.5"/>
		<rect x="512.1" y="135.6" class="smmm4" width="7.5" height="2.9"/>
		
			<rect x="510.4" y="123.1" transform="matrix(0.9659 -0.2589 0.2589 0.9659 -14.7109 137.3727)" class="smmm4" width="7.5" height="2.9"/>
		
			<rect x="505.6" y="111.4" transform="matrix(0.8661 -0.4999 0.4999 0.8661 11.8079 269.7556)" class="smmm4" width="7.5" height="2.9"/>
		
			<rect x="497.9" y="101.3" transform="matrix(0.7069 -0.7073 0.7073 0.7069 74.3004 384.9188)" class="smmm4" width="7.5" height="2.9"/>
		
			<rect x="487.8" y="93.6" transform="matrix(0.4995 -0.8663 0.8663 0.4995 163.6374 473.448)" class="smmm4" width="7.5" height="2.9"/>
		
			<rect x="476.1" y="88.8" transform="matrix(0.2587 -0.966 0.966 0.2587 268.5807 530.4653)" class="smmm4" width="7.5" height="2.9"/>
	</g>
</g>
<g>
	<g>
		<path class="smmm5" d="M734.4,408.4l-13.5,0l-0.8-10.2c-2.9-0.8-5.6-2-8.1-3.6l-7.5,6.4l-9.5-9.5l6.6-7.8c-1.5-2.6-2.5-5.4-3.2-8.3
			l-9.8-0.8V361l10.2-0.8c0.8-2.9,2-5.6,3.6-8.1l-6.4-7.5l9.5-9.5l7.8,6.6c2.6-1.5,5.4-2.5,8.3-3.2l0.8-9.8h13.5l0.8,10.2
			c2.9,0.8,5.6,2,8.1,3.6l7.5-6.4l9.5,9.5l-6.6,7.8c1.5,2.6,2.5,5.4,3.2,8.3l9.8,0.8l0,13.5l-10.2,0.8c-0.8,2.9-2,5.6-3.6,8.1
			l6.4,7.5l-9.5,9.5l-7.8-6.6c-2.6,1.5-5.4,2.5-8.3,3.2L734.4,408.4z M723.6,405.5l8.1,0l0.8-9.4l1.1-0.2c3.3-0.6,6.4-1.8,9.3-3.6
			l0.9-0.6l7.4,6.2l5.7-5.7l-6.1-7.2l0.6-0.9c1.9-2.8,3.3-5.9,4-9.1l0.2-1l9.6-0.8l0-8.1l-9.4-0.8l-0.2-1.1
			c-0.6-3.3-1.8-6.4-3.6-9.3l-0.6-0.9l6.2-7.4l-5.7-5.7L745,346l-0.9-0.6c-2.8-1.9-5.9-3.3-9.1-4l-1-0.2l-0.8-9.6H725l-0.8,9.4
			l-1.1,0.2c-3.3,0.6-6.4,1.8-9.3,3.6l-0.9,0.6l-7.4-6.2l-5.7,5.7l6.1,7.2l-0.6,0.9c-1.9,2.8-3.3,5.8-4,9.1l-0.2,1l-9.6,0.8v8.1
			l9.4,0.8l0.2,1.1c0.6,3.3,1.8,6.4,3.6,9.3l0.5,0.9l-6.2,7.4l5.7,5.7l7.2-6.1l0.9,0.6c2.8,1.9,5.9,3.3,9.1,4l1,0.2L723.6,405.5z
			 M728.4,388c-5.2,0-10.1-2-13.8-5.7c-7.6-7.6-7.6-20,0-27.6c3.7-3.7,8.6-5.7,13.8-5.7c0,0,0,0,0,0c5.2,0,10.1,2,13.8,5.7
			c7.6,7.6,7.6,20,0,27.6C738.5,385.9,733.6,388,728.4,388z M728.4,351.9c-4.4,0-8.6,1.7-11.7,4.9c-6.5,6.5-6.5,17,0,23.4
			c3.1,3.1,7.3,4.9,11.7,4.9s8.6-1.7,11.7-4.9c6.5-6.5,6.5-17,0-23.4C737,353.6,732.8,351.9,728.4,351.9
			C728.4,351.9,728.4,351.9,728.4,351.9z"/>
	</g>
	<g>
		<path class="smmm5" d="M728.4,374c-4.7,0-8.6-3.9-8.6-8.6c0-4.7,3.9-8.6,8.6-8.6c4.7,0,8.6,3.9,8.6,8.6
			C737,370.2,733.2,374,728.4,374z M728.4,359.7c-3.1,0-5.7,2.5-5.7,5.7c0,3.1,2.5,5.7,5.7,5.7s5.7-2.5,5.7-5.7
			C734.1,362.3,731.5,359.7,728.4,359.7z"/>
		<path class="smmm5" d="M742.4,381.1h-2.9v-0.6c0-3.1-2.5-5.7-5.7-5.7h-10.7c-3.1,0-5.7,2.5-5.7,5.7v0.6h-2.9v-0.6
			c0-4.7,3.9-8.6,8.6-8.6h10.7c4.7,0,8.6,3.9,8.6,8.6V381.1z"/>
	</g>
</g>
<path class="smmm6" d="M606.3,393.4h-11.8l-0.9,10.5c-3.9,0.7-7.5,2.2-10.7,4.1l-8.3-7l-8.3,8.3l6.8,8c-2.1,3.1-3.7,6.7-4.6,10.5
	l-10.8,0.9v11.8l10.5,0.9c0.7,3.8,2.2,7.5,4.1,10.7l-7,8.3l8.3,8.3l8-6.8c3.1,2.1,6.7,3.7,10.5,4.6l0.9,10.8h11.8l0.9-10.5
	c3.8-0.7,7.5-2.1,10.7-4.1l8.3,7l8.3-8.3l-6.8-8c2.1-3.1,3.7-6.7,4.6-10.5l10.8-0.9l0-11.8l-10.5-0.9c-0.7-3.8-2.1-7.5-4.1-10.7
	l7-8.3l-8.3-8.3l-8,6.8c-3.1-2.1-6.7-3.7-10.5-4.6L606.3,393.4z M612.7,435.3c0,7.2-5.8,13.1-13.1,13.1c-7.2,0-13-5.8-13-13.1
	c0-7.2,5.8-13,13-13C606.9,422.3,612.7,428.1,612.7,435.3z"/>
<g>
	<polygon class="smmm6" points="341.6,417.4 291.2,417.4 291.2,387.2 299.2,387.2 299.2,377.8 309.6,387.2 341.6,387.2 	"/>
	<rect x="301" y="404.4" class="smmm5" width="30.7" height="2.9"/>
	<rect x="301" y="396.7" class="smmm5" width="30.7" height="2.9"/>
</g>
<g>
	<path class="smmm5" d="M392.7,144l-12.5-11.3h-27.4v-23.1h47.9v23.1h-8V144z M355.7,129.8h25.6l8.4,7.6v-7.6h8v-17.3h-42V129.8z"/>
	<rect x="360.8" y="120" class="smmm5" width="30.7" height="2.9"/>
</g>
<g>
	<rect x="669.5" y="403.9" class="smmm6" width="46.3" height="2.9"/>
	<rect x="669.5" y="412.8" class="smmm6" width="46.3" height="2.9"/>
	<polygon class="smmm5" points="654,415.6 647.6,411.5 649.2,409 653.3,411.7 660.5,402.8 662.8,404.6 	"/>
</g>
<g>
	<path class="smmm6" d="M578.5,104.2l-10.6-3l-3.5,9.2c-3.6-0.3-7.3,0-10.7,1l-5.6-8.4l-9.6,5.3l4,8.9c-2.7,2.3-5.1,5-6.8,8.2l-9.9-2
		l-3,10.6l9.2,3.5c-0.3,3.6,0,7.3,1,10.7l-8.4,5.6l5.3,9.6l8.9-4c2.3,2.7,5,5.1,8.2,6.8l-2,9.9l10.6,3l3.5-9.2c3.6,0.3,7.3,0,10.7-1
		l5.6,8.4l9.6-5.3l-4-8.9c2.7-2.3,5.1-5,6.8-8.2l9.9,2l3-10.6l-9.2-3.5c0.3-3.6,0-7.2-1-10.7l8.4-5.6l-5.3-9.6l-8.9,4
		c-2.3-2.7-5-5.1-8.2-6.8L578.5,104.2z"/>
</g>
<g>
	<g>
		<g>
			<rect x="559.3" y="117.1" class="smmm5" width="2.9" height="4.9"/>
			
				<rect x="568.8" y="120.9" transform="matrix(0.5006 -0.8657 0.8657 0.5006 179.3533 555.6617)" class="smmm5" width="4.9" height="2.9"/>
			
				<rect x="576.5" y="128.6" transform="matrix(0.8661 -0.4998 0.4998 0.8661 12.4853 306.7798)" class="smmm5" width="4.9" height="2.9"/>
			<rect x="579.3" y="139.1" class="smmm5" width="4.9" height="2.9"/>
			
				<rect x="577.5" y="148.7" transform="matrix(0.4999 -0.8661 0.8661 0.4999 158.6914 577.024)" class="smmm5" width="2.9" height="4.9"/>
			
				<rect x="569.8" y="156.4" transform="matrix(0.8659 -0.5002 0.5002 0.8659 -2.8297 307.0514)" class="smmm5" width="2.9" height="4.9"/>
			<rect x="559.3" y="159.2" class="smmm5" width="2.9" height="4.9"/>
			
				<rect x="547.8" y="157.3" transform="matrix(0.5003 -0.8658 0.8658 0.5003 137.4387 555.7653)" class="smmm5" width="4.9" height="2.9"/>
			
				<rect x="540.1" y="149.6" transform="matrix(0.8661 -0.4998 0.4998 0.8661 -2.8984 291.3932)" class="smmm5" width="4.9" height="2.9"/>
			<rect x="537.3" y="139.1" class="smmm5" width="4.9" height="2.9"/>
			
				<rect x="541.1" y="127.6" transform="matrix(0.5005 -0.8657 0.8657 0.5005 158.3898 534.684)" class="smmm5" width="2.9" height="4.9"/>
			
				<rect x="548.8" y="119.9" transform="matrix(0.8664 -0.4993 0.4993 0.8664 12.3985 291.1153)" class="smmm5" width="2.9" height="4.9"/>
		</g>
		<g>
			<polygon class="smmm5" points="561.1,141.4 551.3,135.3 552.9,132.8 560.6,137.6 570.9,127.1 573,129.1 			"/>
		</g>
	</g>
</g>
<g>
	<g>
		<path class="smmm3" d="M528.5,196.7c-4,0-7.2-3.2-7.2-7.2c0-4,3.2-7.2,7.2-7.2s7.2,3.2,7.2,7.2C535.7,193.5,532.5,196.7,528.5,196.7
			z M528.5,185.2c-2.4,0-4.3,1.9-4.3,4.3c0,2.4,1.9,4.3,4.3,4.3s4.3-1.9,4.3-4.3C532.8,187.1,530.8,185.2,528.5,185.2z"/>
		<g>
			<rect x="527" y="177.1" class="smmm3" width="2.9" height="5.4"/>
			<rect x="527" y="196.5" class="smmm3" width="2.9" height="5.4"/>
		</g>
		<g>
			
				<rect x="518.6" y="181.9" transform="matrix(0.5002 -0.8659 0.8659 0.5002 100.0342 542.6215)" class="smmm3" width="2.9" height="5.4"/>
			
				<rect x="535.4" y="191.6" transform="matrix(0.5004 -0.8658 0.8658 0.5004 99.9363 561.921)" class="smmm3" width="2.9" height="5.4"/>
		</g>
		<g>
			
				<rect x="517.4" y="192.9" transform="matrix(0.8658 -0.5004 0.5004 0.8658 -27.4572 286.3585)" class="smmm3" width="5.4" height="2.9"/>
			
				<rect x="534.2" y="183.2" transform="matrix(0.8658 -0.5004 0.5004 0.8658 -20.3415 293.4699)" class="smmm3" width="5.4" height="2.9"/>
		</g>
	</g>
</g>
<path class="smmm6" d="M328.7,146.6c2.8-2.7,7.1-4.1,12.8-4.1c5.7,0,10.2,1.4,13.4,4.2c3.2,2.8,4.8,6.4,4.8,10.7c0,2-0.3,3.9-1,5.5
	c-1.2,2.9-3.4,5.5-6.7,7.7c-1.3,0.8-2.2,1.4-2.7,1.7c-0.5,0.3-1.4,0.9-2.9,1.8c-1.4,0.9-2.5,1.9-3.1,3c-0.6,1.1-1,3.4-1.2,7h-2.7
	l-0.1-3.9c0-2.6,1.1-5.9,3.4-10c2.2-4.1,3.4-8.3,3.4-12.9c0-3.7-0.6-6.5-1.9-8.5c-1.3-2-3.3-3-6.1-3c-1.8,0-3.1,0.4-3.9,1.2
	c-0.8,0.8-1.2,1.6-1.2,2.5c0,0.4,0.1,0.7,0.2,0.9c0.1,0.2,0.3,0.6,0.7,0.9l0.6,0.8c0.7,0.8,1.2,1.6,1.4,2.3c0.3,0.7,0.4,1.5,0.4,2.6
	c0,1.7-0.6,3-1.7,4c-1.1,1-2.5,1.5-4,1.5c-1.7,0-3.1-0.6-4.3-1.8c-1.2-1.2-1.8-2.9-1.8-5.2C324.4,152.3,325.9,149.4,328.7,146.6z
	 M335.5,193.3c1.5-1.5,3.3-2.2,5.4-2.2c2.1,0,3.9,0.8,5.4,2.2c1.5,1.5,2.3,3.3,2.3,5.4c0,2.1-0.8,3.9-2.3,5.4
	c-1.5,1.5-3.3,2.2-5.4,2.2c-2.1,0-3.9-0.7-5.4-2.2c-1.5-1.5-2.2-3.3-2.2-5.4C333.3,196.6,334,194.8,335.5,193.3z"/>
<g>
	<path class="smmm5" d="M369.7,240.3l-1.9-2.3l4.5-3.7c1.3-0.8,2.8-2.1,2.8-3.6v-4.2c0-2.6-2.1-4.7-4.7-4.7h-4.9
		c-2.6,0-4.7,2.1-4.7,4.7v2h-2.9v-2c0-4.2,3.4-7.6,7.6-7.6h4.9c4.2,0,7.6,3.4,7.6,7.6v4.2c0,2.2-1.4,4.2-4.1,6L369.7,240.3z"/>
	<path class="smmm5" d="M366.3,248.5h-2.9v-4.2c0-2.2,1.4-4.2,4.1-6l4.3-3.5l1.9,2.3l-4.5,3.7c-1.3,0.8-2.8,2.1-2.8,3.6V248.5z"/>
	<rect x="363.4" y="252.5" class="smmm5" width="2.9" height="4.8"/>
</g>
<path class="smmm6" d="M211.1,342.8c1.7-1.6,3.7-2.3,6-2.3c2.2,0,4.2,0.8,5.9,2.3c1.7,1.5,2.6,4.1,2.6,7.6c0,1.1-0.3,2.8-0.8,5
	c-0.5,2.2-1.5,5.9-2.9,11c-0.8,3.1-1.4,5.6-1.7,7.7c-0.3,2-0.8,6.2-1.5,12.3h-2.9c-0.9-7.8-1.6-12.6-1.9-14.4c-0.3-1.8-1-4.4-2-7.7
	c-1.2-4.2-2-7-2.4-8.4c-0.6-2.2-0.8-3.9-0.8-5.1C208.6,347,209.4,344.3,211.1,342.8z M211,396.7c1.7-1.6,3.7-2.5,6-2.5
	s4.4,0.8,6,2.5c1.7,1.6,2.5,3.7,2.5,6c0,2.4-0.8,4.4-2.5,6c-1.7,1.7-3.7,2.5-6,2.5s-4.4-0.8-6-2.5c-1.7-1.7-2.5-3.7-2.5-6
	C208.6,400.4,209.4,398.4,211,396.7z"/>
<g>
	<g>
		<rect x="783.9" y="205.3" class="smmm2" width="2.9" height="6.5"/>
	</g>
	<g>
		<rect x="775" y="209" transform="matrix(0.7069 -0.7073 0.7073 0.7069 77.4164 611.4281)" class="smmm2" width="2.9" height="6.5"/>
	</g>
	<g>
		<rect x="769.5" y="219.8" class="smmm2" width="6.5" height="2.9"/>
	</g>
	<g>
		
			<rect x="773.2" y="228.8" transform="matrix(0.7073 -0.7069 0.7069 0.7073 64.523 616.2858)" class="smmm2" width="6.5" height="2.9"/>
	</g>
	<g>
		<rect x="783.9" y="230.7" class="smmm2" width="2.9" height="6.5"/>
	</g>
	<g>
		<rect x="792.9" y="227" transform="matrix(0.7072 -0.707 0.707 0.7072 69.8224 629.0553)" class="smmm2" width="2.9" height="6.5"/>
	</g>
	<g>
		<rect x="794.8" y="219.8" class="smmm2" width="6.5" height="2.9"/>
	</g>
	<g>
		
			<rect x="791.1" y="210.8" transform="matrix(0.7073 -0.7069 0.7069 0.7073 82.444 623.7132)" class="smmm2" width="6.5" height="2.9"/>
	</g>
</g>
<g>
	<path class="smmm5" d="M299.5,169.2c-1.2,0-2.3-0.2-3.4-0.6l1-2.8c0.8,0.3,1.5,0.4,2.4,0.4V169.2z M302.8,168.6l-1-2.8
		c0.8-0.3,1.5-0.7,2.1-1.2l1.9,2.3C304.9,167.7,303.9,168.2,302.8,168.6z M293.2,166.9c-0.9-0.7-1.6-1.6-2.2-2.6l2.5-1.5
		c0.4,0.7,0.9,1.3,1.5,1.8L293.2,166.9z M308,164.4l-2.5-1.5c0.4-0.7,0.7-1.4,0.8-2.2l2.9,0.5C309,162.3,308.6,163.4,308,164.4z
		 M289.9,161.1c-0.1-0.6-0.1-1.1-0.1-1.7c0-0.6,0.1-1.2,0.2-1.7l2.9,0.5c-0.1,0.4-0.1,0.8-0.1,1.2c0,0.4,0,0.8,0.1,1.2L289.9,161.1z
		 M306.3,158.2c-0.1-0.8-0.4-1.6-0.8-2.2l2.5-1.4c0.6,1,1,2.1,1.1,3.2L306.3,158.2z M293.6,155.9l-2.5-1.5c0.6-1,1.3-1.9,2.2-2.6
		l1.9,2.2C294.5,154.6,294,155.2,293.6,155.9z M304,154.2c-0.6-0.5-1.3-0.9-2.1-1.2l1-2.7c1.1,0.4,2.1,1,2.9,1.7L304,154.2z
		 M297.2,152.9l-1-2.8c1.1-0.4,2.2-0.6,3.3-0.6l0,2.9C298.7,152.5,298,152.7,297.2,152.9z"/>
</g>
<g>
	<rect x="206.5" y="112.7" class="smmm4" width="5.4" height="2.9"/>
	
		<rect x="201.9" y="105.2" transform="matrix(0.4999 -0.8661 0.8661 0.4999 9.8808 230.5162)" class="smmm4" width="5.4" height="2.9"/>
	
		<rect x="194.3" y="104.3" transform="matrix(0.8663 -0.4996 0.4996 0.8663 -27.2815 112.1218)" class="smmm4" width="2.9" height="5.4"/>
	<rect x="189" y="113.3" class="smmm4" width="5.4" height="2.9"/>
	
		<rect x="193.6" y="120.7" transform="matrix(0.4998 -0.8661 0.8661 0.4998 -7.6313 231.1871)" class="smmm4" width="5.4" height="2.9"/>
	<rect x="203.6" y="119.2" transform="matrix(0.866 -0.5 0.5 0.866 -33.4612 118.8741)" class="smmm4" width="2.9" height="5.4"/>
</g>
<g>
	<rect x="712.5" y="280.6" class="smmm5" width="20.5" height="2.9"/>
	<rect x="721.3" y="271.9" class="smmm5" width="2.9" height="20.5"/>
</g>
<path class="smmm5" d="M122.1,264.9h-2.2V262h2.2V264.9z M117.7,264.9h-2.2V262h2.2V264.9z M113.3,264.9h-2.2V262h2.2V264.9z
	 M108.9,264.9h-2.2V262h2.2V264.9z M104.5,264.9h-2.2V262h2.2V264.9z M100.1,264.9H98V262h2.2V264.9z"/>
<g>
	<g>
		<rect x="140.5" y="383.6" class="smmm3" width="2.9" height="7.3"/>
	</g>
	<g>
		
			<rect x="130.5" y="387.8" transform="matrix(0.707 -0.7072 0.7072 0.707 -238.1283 208.0171)" class="smmm3" width="2.9" height="7.3"/>
	</g>
	<g>
		<rect x="124.2" y="399.9" class="smmm3" width="7.3" height="2.9"/>
	</g>
	<g>
		
			<rect x="128.3" y="409.9" transform="matrix(0.7068 -0.7074 0.7074 0.7068 -252.3288 213.9984)" class="smmm3" width="7.3" height="2.9"/>
	</g>
	<g>
		<rect x="140.5" y="411.9" class="smmm3" width="2.9" height="7.3"/>
	</g>
	<g>
		
			<rect x="150.5" y="407.8" transform="matrix(0.7071 -0.7071 0.7071 0.7071 -246.3737 227.9337)" class="smmm3" width="2.9" height="7.3"/>
	</g>
	<g>
		<rect x="152.5" y="399.9" class="smmm3" width="7.3" height="2.9"/>
	</g>
	<g>
		
			<rect x="148.3" y="389.9" transform="matrix(0.7073 -0.7069 0.7069 0.7073 -232.208 222.0073)" class="smmm3" width="7.3" height="2.9"/>
	</g>
</g>
<g>
	<g>
		<path class="smmm2" d="M434.7,394.1c-33.2,0-60.1-27-60.1-60.1c0-27.8,18.7-51.7,45.6-58.3v-27.4h-3.8v-23.6h36.8v23.6h-3.8v27.4
			c15.8,3.9,29.5,14.3,37.7,28.5c1.3,2.2,2.4,4.5,3.4,6.8l-2.7,1.1c-0.9-2.2-2-4.4-3.2-6.5c-7.9-13.9-21.4-23.8-36.9-27.4l-1.1-0.3
			v-32.7h3.8v-17.7h-30.9v17.7h3.8V278l-1.1,0.3c-26.2,6-44.4,28.9-44.4,55.8c0,31.5,25.7,57.2,57.2,57.2c5.1,0,10.2-0.7,15.1-2
			l0.8,2.8C445.5,393.4,440.1,394.1,434.7,394.1z"/>
	</g>
	<rect x="431.3" y="255.3" class="smmm2" width="2.9" height="19.1"/>
	<rect x="423.9" y="233.5" class="smmm2" width="19.1" height="4"/>
	<path class="smmm2" d="M389.4,333h-4c0-19.3,11.5-36.7,29.3-44.2l1.6,3.7C400,299.4,389.4,315.3,389.4,333z"/>
	<g>
		<g>
			<path class="smmm4" d="M510.2,377.8H411c-1.7,0-3.1-1.4-3.1-3.1v-40.8c0-1.7,1.4-3.1,3.1-3.1h99.1c1.7,0,3.1,1.4,3.1,3.1v40.8
				C513.3,376.4,511.9,377.8,510.2,377.8z M411,333.7c-0.1,0-0.2,0.1-0.2,0.2v40.8c0,0.1,0.1,0.2,0.2,0.2h99.1
				c0.1,0,0.2-0.1,0.2-0.2v-40.8c0-0.1-0.1-0.2-0.2-0.2H411z"/>
			<g>
				<g>
					<rect x="417.7" y="342" class="smmm4" width="7.8" height="2.9"/>
					<rect x="430.7" y="342" class="smmm4" width="7.8" height="2.9"/>
					<rect x="443.7" y="342" class="smmm4" width="7.8" height="2.9"/>
					<rect x="456.7" y="342" class="smmm4" width="7.8" height="2.9"/>
					<rect x="469.7" y="342" class="smmm4" width="7.8" height="2.9"/>
					<rect x="482.7" y="342" class="smmm4" width="7.8" height="2.9"/>
					<rect x="495.7" y="342" class="smmm4" width="7.8" height="2.9"/>
				</g>
				<g>
					<rect x="417.7" y="352.8" class="smmm4" width="7.8" height="2.9"/>
					<rect x="430.7" y="352.8" class="smmm4" width="7.8" height="2.9"/>
					<rect x="443.7" y="352.8" class="smmm4" width="7.8" height="2.9"/>
					<rect x="456.7" y="352.8" class="smmm4" width="7.8" height="2.9"/>
					<rect x="469.7" y="352.8" class="smmm4" width="7.8" height="2.9"/>
					<rect x="482.7" y="352.8" class="smmm4" width="7.8" height="2.9"/>
					<rect x="495.7" y="352.8" class="smmm4" width="7.8" height="2.9"/>
				</g>
				<g>
					<rect x="417.7" y="363.6" class="smmm4" width="7.8" height="2.9"/>
					<rect x="430.7" y="363.6" class="smmm4" width="7.8" height="2.9"/>
					<rect x="443.7" y="363.6" class="smmm4" width="46.9" height="2.9"/>
					<rect x="495.7" y="363.6" class="smmm4" width="7.8" height="2.9"/>
				</g>
			</g>
		</g>
	</g>
	<g>
		<rect x="420.2" y="260.9" class="smmm2" width="1.9" height="2.9"/>
		<path class="smmm2" d="M480.9,318.9H478v-2.9h2.9V318.9z M475,318.9h-2.9v-2.9h2.9V318.9z M469.1,318.9h-2.9v-2.9h2.9V318.9z
			 M463.2,318.9h-2.9v-2.9h2.9V318.9z M457.3,318.9h-2.9v-2.9h2.9V318.9z M451.4,318.9h-2.9v-2.9h2.9V318.9z M445.5,318.9h-2.9v-2.9
			h2.9V318.9z M439.7,318.9h-2.9v-2.9h2.9V318.9z M433.8,318.9h-2.9v-2.9h2.9V318.9z M427.9,318.9h-2.9v-2.9h2.9V318.9z M422,318.9
			H419v-2.9h2.9V318.9z M416.1,318.9h-2.9v-2.9h2.9V318.9z M410.2,318.9h-2.9v-2.9h2.9V318.9z M404.3,318.9h-2.9v-2.9h2.9V318.9z
			 M398.4,318.9h-2.9v-2.9h2.9V318.9z M392.5,318.9h-2.9v-2.9h2.9V318.9z M386.6,318.9h-2.2c-0.3,0-0.5,0-0.8,0l0.1-2.9
			c0.2,0,0.5,0,0.7,0h2.2V318.9z M380.5,318.6c-1-0.1-2-0.3-3-0.6l0.7-2.8c0.9,0.2,1.8,0.4,2.7,0.5L380.5,318.6z M374.5,317.1
			c-1-0.4-1.9-0.8-2.9-1.2l1.3-2.6c0.8,0.4,1.7,0.8,2.6,1.1L374.5,317.1z M369,314.4c-0.9-0.5-1.7-1.2-2.5-1.8l1.8-2.3
			c0.7,0.6,1.5,1.1,2.3,1.6L369,314.4z M364.1,310.6c-0.7-0.7-1.4-1.5-2.1-2.3l2.3-1.9c0.6,0.7,1.2,1.4,1.9,2.1L364.1,310.6z
			 M360.2,305.8c-0.6-0.9-1.1-1.8-1.6-2.7l2.6-1.3c0.4,0.8,0.9,1.6,1.4,2.4L360.2,305.8z M357.3,300.3c-0.4-1-0.7-2-1-3l2.8-0.8
			c0.2,0.9,0.5,1.8,0.9,2.7L357.3,300.3z M355.7,294.3c-0.2-1-0.3-2.1-0.3-3.1l2.9-0.1c0,0.9,0.1,1.9,0.3,2.8L355.7,294.3z
			 M358.4,288.3l-2.9-0.2c0.1-1,0.2-2.1,0.3-3.1l2.9,0.5C358.5,286.4,358.4,287.4,358.4,288.3z M359.3,282.8l-2.8-0.8
			c0.3-1,0.6-2,1-2.9l2.7,1.1C359.8,281,359.5,281.9,359.3,282.8z M361.4,277.6l-2.6-1.4c0.5-0.9,1-1.8,1.6-2.7l2.4,1.6
			C362.3,276,361.8,276.8,361.4,277.6z M364.5,273l-2.2-1.9c0.7-0.8,1.4-1.5,2.1-2.3l2,2.1C365.7,271.6,365.1,272.3,364.5,273z
			 M368.5,269.2l-1.8-2.3c0.8-0.6,1.7-1.2,2.6-1.8l1.5,2.5C370,268.1,369.2,268.6,368.5,269.2z M373.3,266.3l-1.3-2.6
			c0.9-0.4,1.9-0.8,2.9-1.2l1,2.8C375,265.5,374.1,265.9,373.3,266.3z M378.5,264.5l-0.7-2.9c1-0.2,2-0.4,3.1-0.5l0.3,2.9
			C380.3,264.1,379.4,264.2,378.5,264.5z M384,263.8l0-2.9l3,0v2.9L384,263.8z M416.4,263.8h-2.9v-2.9h2.9V263.8z M410.5,263.8h-2.9
			v-2.9h2.9V263.8z M404.6,263.8h-2.9v-2.9h2.9V263.8z M398.8,263.8h-2.9v-2.9h2.9V263.8z M392.9,263.8h-2.9v-2.9h2.9V263.8z"/>
		<rect x="484.8" y="315.9" class="smmm2" width="1.9" height="2.9"/>
	</g>
	<g>
		<rect x="545.3" y="260.9" class="smmm2" width="1.9" height="2.9"/>
		<path class="smmm2" d="M541.5,263.8h-3v-2.9h3V263.8z M535.6,263.8h-3v-2.9h3V263.8z M529.7,263.8h-3v-2.9h3V263.8z M523.8,263.8h-3
			v-2.9h3V263.8z M517.9,263.8h-3v-2.9h3V263.8z M512,263.8h-3v-2.9h3V263.8z M506.1,263.8h-3v-2.9h3V263.8z M500.1,263.8h-3v-2.9h3
			V263.8z M494.2,263.8h-3v-2.9h3V263.8z M488.3,263.8h-3v-2.9h3V263.8z M482.4,263.8h-3v-2.9h3V263.8z M476.5,263.8h-3v-2.9h3
			V263.8z M470.6,263.8h-3v-2.9h3V263.8z M464.7,263.8h-3v-2.9h3V263.8z M458.8,263.8h-3v-2.9h3V263.8z M452.9,263.8h-0.3v-2.9h0.3
			V263.8z"/>
		<rect x="448.8" y="260.9" class="smmm2" width="1.9" height="2.9"/>
	</g>
	<g>
		<rect x="485.4" y="316" class="smmm2" width="1.9" height="2.9"/>
		<path class="smmm2" d="M537.9,345.5h-3v-2.9h3V345.5z M532,345.5h-3v-2.9h3V345.5z M526.1,345.5h-3v-2.9h3V345.5z M520.1,345.5h-3
			v-2.9h3V345.5z M541.2,345.2l-0.6-2.9c0.9-0.2,1.7-0.5,2.5-0.8l1.2,2.7C543.3,344.6,542.3,345,541.2,345.2z M547.1,342.4l-1.8-2.3
			c0.7-0.5,1.3-1.2,1.9-1.8l2.3,1.9C548.8,341,548,341.8,547.1,342.4z M551.2,337.4l-2.6-1.3c0.4-0.8,0.7-1.6,0.9-2.5l2.8,0.7
			C552.1,335.4,551.7,336.4,551.2,337.4z M552.8,331.1l-2.9-0.1l0-0.3c0-0.8-0.1-1.6-0.2-2.4l2.9-0.6c0.2,1,0.3,2,0.3,3L552.8,331.1
			z M548.8,325.9c-0.4-0.8-0.8-1.6-1.3-2.3l2.3-1.8c0.7,0.9,1.2,1.8,1.7,2.8L548.8,325.9z M545.7,321.7c-0.7-0.6-1.4-1.1-2.2-1.5
			l1.4-2.6c1,0.5,1.9,1.1,2.7,1.8L545.7,321.7z M541.1,319.3c-0.8-0.2-1.7-0.4-2.6-0.4l0.1-2.9c1.1,0,2.2,0.2,3.2,0.5L541.1,319.3z
			 M535.5,318.9h-3V316h3V318.9z M529.6,318.9h-3V316h3V318.9z M523.7,318.9h-3V316h3V318.9z M517.7,318.9h-3V316h3V318.9z
			 M511.8,318.9h-3V316h3V318.9z M505.9,318.9h-3V316h3V318.9z M500,318.9h-3V316h3V318.9z M494,318.9h-3V316h3V318.9z"/>
		<rect x="511" y="342.6" class="smmm2" width="1.9" height="2.9"/>
	</g>
</g>
<g>
	<path class="smmm6" d="M631.8,338.6l50.2,0c3.5,0,6.3-2.8,6.3-6.3v-2.6c0-3.5-2.8-6.3-6.3-6.3l-50.2,0V338.6z"/>
	<path class="smmm6" d="M580.1,336.7h61.5c3.5,0,6.3-2.2,6.3-4.8v-2c0-2.7-2.8-4.8-6.3-4.8h-61.5V336.7z"/>
	<path class="smmm5" d="M678,338.6h-3v-16.3c0-2.7-2.2-4.8-4.8-4.8h-29.9v-3h29.9c4.3,0,7.8,3.5,7.8,7.8V338.6z"/>
	<rect x="630.1" y="323.3" class="smmm5" width="3" height="15.6"/>
	<rect x="578.7" y="323.3" class="smmm5" width="3" height="15.6"/>
	<g>
		<path class="smmm5" d="M559.8,332.6v-3c4.1,0,9.2-2.1,9.6-3.5l0.3-1.1h9v3h-6.9C569.8,331,563.3,332.6,559.8,332.6z"/>
		<path class="smmm5" d="M578.7,337.2h-9l-0.3-1.1c-0.4-1.4-5.5-3.5-9.6-3.5v-3c3.4,0,10,1.6,12,4.7h6.9V337.2z"/>
	</g>
</g>
<g>
	<path class="smmm2" d="M642.4,377.6H523.3v-22.2h119.1V377.6z M526.2,374.7h113.2v-16.4H526.2V374.7z"/>
	<rect x="531.4" y="356.8" class="smmm2" width="2.9" height="9.3"/>
	<rect x="539.6" y="356.8" class="smmm2" width="2.9" height="5"/>
	<rect x="547.7" y="356.8" class="smmm2" width="2.9" height="9.3"/>
	<rect x="555.8" y="356.8" class="smmm2" width="2.9" height="5"/>
	<rect x="564" y="356.8" class="smmm2" width="2.9" height="9.3"/>
	<rect x="572.1" y="356.8" class="smmm2" width="2.9" height="5"/>
	<rect x="580.2" y="356.8" class="smmm2" width="2.9" height="9.3"/>
	<rect x="588.3" y="356.8" class="smmm2" width="2.9" height="5"/>
	<rect x="596.5" y="356.8" class="smmm2" width="2.9" height="9.3"/>
	<rect x="604.6" y="356.8" class="smmm2" width="2.9" height="5"/>
	<rect x="612.7" y="356.8" class="smmm2" width="2.9" height="9.3"/>
	<rect x="620.9" y="356.8" class="smmm2" width="2.9" height="5"/>
	<rect x="629" y="356.8" class="smmm2" width="2.9" height="9.3"/>
</g>
<g>
	<polygon class="smmm5" points="368.5,191 356.2,179.7 368.5,168.4 370.5,170.5 360.6,179.7 370.5,188.8 	"/>
	<rect x="359.6" y="178.2" class="smmm5" width="57.9" height="2.9"/>
</g>
<g>
	<polygon class="smmm5" points="404.6,214.1 402.6,211.9 412.6,202.8 402.6,193.6 404.6,191.4 416.9,202.8 	"/>
	<rect x="355.6" y="201.3" class="smmm5" width="57.9" height="2.9"/>
</g>
<g>
	<polygon class="smmm6" points="495.4,241.2 486.7,232.4 489.5,229.6 495.4,235.5 513.6,217.4 516.4,220.2 	"/>
</g>
<path class="smmm6" d="M602.8,252.7c0-0.3,0.1-0.7,0.1-1c0-4-3.2-7.2-7.2-7.2c-0.8,0-1.5,0.2-2.2,0.4c-1.1-7.2-7.2-12.7-14.7-12.7
	c-1.1,0-2.2,0.1-3.2,0.4c-3.3-3.7-8.1-6-13.5-6c-8.5,0-15.7,5.9-17.6,13.8c0,0,0,0,0,0c-5.9,0-10.8,4.8-10.8,10.8
	c0,0.5,0.1,1,0.1,1.5H602.8z"/>
<g>
	<path class="smmm5" d="M259.2,403.8c-0.4,0-0.8-0.3-1-0.7l-11.8-36l-11.8,36c-0.2,0.5-0.7,0.8-1.3,0.6c-0.5-0.2-0.8-0.7-0.6-1.3
		l12.7-38.9c0.1-0.4,0.5-0.7,1-0.7s0.8,0.3,1,0.7l12.7,38.9c0.2,0.5-0.1,1.1-0.6,1.3C259.4,403.8,259.3,403.8,259.2,403.8z"/>
	<g>
		<path class="smmm5" d="M237.1,403.8h-6.1c-0.6,0-1-0.4-1-1s0.4-1,1-1h6.1c0.6,0,1,0.4,1,1S237.7,403.8,237.1,403.8z"/>
		<path class="smmm5" d="M261.9,403.8h-6.1c-0.6,0-1-0.4-1-1s0.4-1,1-1h6.1c0.6,0,1,0.4,1,1S262.4,403.8,261.9,403.8z"/>
	</g>
	<path class="smmm5" d="M254.6,391.8h-16.3c-0.6,0-1-0.4-1-1s0.4-1,1-1h16.3c0.6,0,1,0.4,1,1S255.1,391.8,254.6,391.8z"/>
	<path class="smmm7" d="M263.5,383.4c-1.6,0-3-0.5-4-1.5c-1-1-1.6-2.2-1.6-3.6c0-1.4,0.5-2.5,1.4-3.3c0.8-0.7,1.7-1.2,2.6-1.4
		c0.7-0.2,2.1-0.5,4.3-1c2.1-0.5,3.5-0.9,4.5-1.2c0.3-0.1,0.7-0.1,0.9,0.1s0.4,0.5,0.4,0.8v1.1c0,2.8-0.4,4.8-1.1,6.1
		c-0.7,1.2-1.7,2.2-3.1,2.9C266.6,383.1,265.1,383.4,263.5,383.4z M270.1,373.7c-0.9,0.3-2.1,0.6-3.4,0.9c-2.2,0.5-3.5,0.8-4.2,1
		c-0.7,0.2-1.3,0.5-1.8,1c-0.5,0.4-0.7,1-0.7,1.8c0,0.9,0.3,1.6,0.9,2.2c0.6,0.6,1.5,0.9,2.6,0.9c1.3,0,2.4-0.3,3.5-0.8
		c1-0.6,1.8-1.3,2.3-2.1C269.6,377.8,270.1,376.5,270.1,373.7z"/>
	<path class="smmm5" d="M271.3,383.3c-0.6,0-1-0.4-1-1v-11.8c0-2.5-1.9-4.6-4.3-4.6h-1.3c-1.7,0-3.3,1.1-3.9,2.8
		c-0.2,0.5-0.8,0.8-1.3,0.6c-0.5-0.2-0.8-0.8-0.6-1.3c1-2.5,3.3-4,5.8-4h1.3c3.5,0,6.3,3,6.3,6.6v11.8
		C272.3,382.8,271.8,383.3,271.3,383.3z"/>
</g>
<g>
	<rect x="375.4" y="400" class="smmm2" width="47.5" height="2"/>
	<rect x="416.7" y="401" class="smmm2" width="2" height="9.2"/>
	<rect x="403.9" y="401" class="smmm2" width="2" height="9.2"/>
	<rect x="410.3" y="401" class="smmm2" width="2" height="5.6"/>
	<g>
		<g>
			<path class="smmm2" d="M373.3,402.4c-2.4,0-4.6-0.9-6.2-2.6c-1.7-1.7-2.6-3.9-2.6-6.2c0-2.4,0.9-4.6,2.6-6.2
				c1.7-1.7,3.9-2.6,6.2-2.6c4.9,0,8.8,4,8.8,8.8C382.1,398.4,378.2,402.4,373.3,402.4z M373.3,386.7c-1.8,0-3.5,0.7-4.8,2
				s-2,3-2,4.8c0,1.8,0.7,3.5,2,4.8s3,2,4.8,2c3.8,0,6.8-3.1,6.8-6.8C380.1,389.8,377.1,386.7,373.3,386.7z"/>
			<path class="smmm2" d="M373.3,418.4L373.3,418.4c-4.9,0-8.8-4-8.8-8.8c0-4.9,4-8.8,8.8-8.8c4.9,0,8.8,4,8.8,8.8
				C382.1,414.4,378.2,418.4,373.3,418.4z M373.3,402.7c-3.8,0-6.8,3.1-6.8,6.8c0,3.8,3.1,6.8,6.8,6.8c3.8,0,6.8-3.1,6.8-6.8
				C380.1,405.8,377.1,402.7,373.3,402.7z"/>
		</g>
		<path class="smmm2" d="M359.1,410.4c-4.9,0-8.8-4-8.8-8.8c0-4.9,4-8.8,8.8-8.8c4.9,0,8.8,4,8.8,8.8
			C367.9,406.4,363.9,410.4,359.1,410.4z M359.1,394.7c-3.8,0-6.8,3.1-6.8,6.8c0,3.8,3.1,6.8,6.8,6.8c3.8,0,6.8-3.1,6.8-6.8
			C365.9,397.8,362.8,394.7,359.1,394.7z"/>
	</g>
</g>
<polygon class="smmm0" points="577.4,572.1 526.4,572.1 514.4,492.1 565.4,492.1 "/>
</svg>
