<?xml version="1.0" encoding="utf-8"?>
<!-- Generator: Adobe Illustrator 22.0.0, SVG Export Plug-In . SVG Version: 6.00 Build 0)  -->
<svg version="1.1" id="starway_logo" xmlns="http://www.w3.org/2000/svg" xmlns:xlink="http://www.w3.org/1999/xlink" x="0px"
	 y="0px" viewBox="0 0 86.6 38.2" style="enable-background:new 0 0 86.6 38.2;" xml:space="preserve">
<style type="text/css">
	.st0{fill:#333333;}
</style>
<g>
	<polygon class="st0" points="79.1,32.5 75.8,38.2 86.6,38.2 81.2,28.8 	"/>
	<polygon class="st0" points="75.5,0 81.2,10 75.8,19.4 64.7,0 	"/>
	<polygon class="st0" points="69.7,11.2 66.9,16 70.7,28.2 70.4,28.8 75.1,20.7 	"/>
	<polygon class="st0" points="53.8,0 70.4,28.8 65,38.2 43,0 	"/>
	<path class="st0" d="M48.2,11l-2.9,5l3.8,12.3l-0.3,0.6l4.8-8.3L48.2,11L48.2,11z M48.7,28.8L48.7,28.8L48.7,28.8z"/>
	<polygon class="st0" points="32.2,0 48.7,28.8 43.3,38.2 21.4,0 	"/>
	<polygon class="st0" points="20.3,0 25,9.6 19.5,9.6 11.3,0 	"/>
	<path class="st0" d="M10.5,0l16.6,28.8l-5.4,9.4L5.1,9.4L10.5,0L10.5,0z M21.2,26l-0.6,1.7h-1.8l1.5,1.1l-0.6,1.7l1.5-1.1l1.5,1.1
		l-0.6-1.7l1.5-1.1h-1.8L21.2,26L21.2,26z M18.5,21.3L17.9,23h-1.8l1.5,1.1L17,25.7l1.5-1.1l1.5,1.1L19.3,24l1.5-1.1L19,23
		L18.5,21.3L18.5,21.3z M15.7,16.5l-0.6,1.7h-1.8l1.5,1.1L14.3,21l1.5-1.1l1.5,1.1l-0.6-1.7l1.5-1.1h-1.8L15.7,16.5L15.7,16.5z
		 M13,11.8l-0.6,1.7h-1.8l1.5,1.1l-0.6,1.7l1.5-1.1l1.5,1.1l-0.6-1.7l1.5-1.1h-1.8L13,11.8L13,11.8z M10.3,7L9.7,8.7H7.9l1.5,1.1
		l-0.6,1.7l1.5-1.1l1.5,1.1l-0.6-1.7l1.5-1.1h-1.8L10.3,7z"/>
	<path class="st0" d="M20.5,36.2l1.1,2l0,0L20.5,36.2L20.5,36.2z M21.7,38.2h-0.4l-8.5-9.4H5.9l7.3,9.4H21.7z"/>
	<polygon class="st0" points="5.4,28.8 10.8,38.2 0,38.2 	"/>
</g>
</svg>
