<?xml version="1.0" encoding="utf-8"?>
<!-- Generator: Adobe Illustrator 22.0.0, SVG Export Plug-In . SVG Version: 6.00 Build 0)  -->
<svg version="1.1" id="branding" xmlns="http://www.w3.org/2000/svg" xmlns:xlink="http://www.w3.org/1999/xlink" x="0px" y="0px"
	 viewBox="0 0 140 112" style="enable-background:new 0 0 140 112;" xml:space="preserve">
<style type="text/css">
	.st0{fill:#040405;}
	.st1{fill:#BC0A21;}
	.st2{fill:#FFFFFF;}
</style>
<path class="st0" d="M96.2,58.9H78.5c-0.8,0-1.4-0.6-1.4-1.4s0.6-1.4,1.4-1.4h17.7c0.8,0,1.4,0.6,1.4,1.4S97,58.9,96.2,58.9z"/>
<path class="st0" d="M96.2,66.7H78.5c-0.8,0-1.4-0.6-1.4-1.4s0.6-1.4,1.4-1.4h17.7c0.8,0,1.4,0.6,1.4,1.4S97,66.7,96.2,66.7z"/>
<path class="st0" d="M88.9,74.1H78.4c-0.8,0-1.4-0.6-1.4-1.4s0.6-1.4,1.4-1.4h10.5c0.8,0,1.4,0.6,1.4,1.4S89.7,74.1,88.9,74.1z"/>
<path class="st1" d="M83.1,81.6h-3.7c-0.8,0-1.4-0.6-1.4-1.4s0.6-1.4,1.4-1.4h3.7c0.8,0,1.4,0.6,1.4,1.4S83.9,81.6,83.1,81.6z"/>
<path class="st0" d="M99.6,89.4H75c-1.8,0-3.3-1.5-3.3-3.3V44.5c0-1.8,1.5-3.3,3.3-3.3h24.6c1.8,0,3.3,1.5,3.3,3.3v41.7
	C102.9,88,101.4,89.4,99.6,89.4z M75,44c-0.2,0-0.5,0.2-0.5,0.5v41.7c0,0.2,0.2,0.5,0.5,0.5h24.6c0.2,0,0.5-0.2,0.5-0.5V44.5
	c0-0.2-0.2-0.5-0.5-0.5H75z"/>
<path class="st1" d="M92.5,51.7H81.6c-0.8,0-1.4-0.6-1.4-1.4s0.6-1.4,1.4-1.4h10.9c0.8,0,1.4,0.6,1.4,1.4S93.3,51.7,92.5,51.7z"/>
<path class="st2" d="M75.5,59H47.2c-2.1,0-3.9-1.7-3.9-3.9V37.6c0-2.1,1.7-3.9,3.9-3.9h28.3c2.1,0,3.9,1.7,3.9,3.9v17.5
	C79.4,57.3,77.7,59,75.5,59z"/>
<path class="st0" d="M57.7,87.5H33.1c-1.8,0-3.3-1.5-3.3-3.3V67.8c0-1.8,1.5-3.3,3.3-3.3h24.6c1.8,0,3.3,1.5,3.3,3.3v16.4
	C61,86,59.5,87.5,57.7,87.5z M33.1,67.3c-0.2,0-0.5,0.2-0.5,0.5v16.4c0,0.2,0.2,0.5,0.5,0.5h24.6c0.2,0,0.5-0.2,0.5-0.5V67.8
	c0-0.2-0.2-0.5-0.5-0.5H33.1z"/>
<path class="st0" d="M73.5,56H48.9c-1.8,0-3.3-1.5-3.3-3.3V36.3c0-1.8,1.5-3.3,3.3-3.3h24.6c1.8,0,3.3,1.5,3.3,3.3v16.4
	C76.8,54.5,75.3,56,73.5,56z M48.9,35.9c-0.2,0-0.5,0.2-0.5,0.5v16.4c0,0.2,0.2,0.5,0.5,0.5h24.6c0.2,0,0.5-0.2,0.5-0.5V36.3
	c0-0.2-0.2-0.5-0.5-0.5H48.9V35.9z"/>
<g>
	<path class="st1" d="M50.8,81.3c-0.1,0-0.3,0-0.4-0.1c-0.2-0.1-0.3-0.4-0.3-0.6l0.2-1.4l-1-1c-0.1-0.1-0.2-0.3-0.2-0.4l0,0v-0.1
		c0.1-0.3,0.3-0.4,0.5-0.5L51,77l0.7-1.3c0.2-0.4,0.9-0.4,1.1,0l0.7,1.3l1.4,0.2c0.2,0,0.4,0.2,0.5,0.4c0.1,0.2,0,0.5-0.2,0.6l-1,1
		l0.2,1.4c0,0.2-0.1,0.5-0.3,0.6s-0.4,0.2-0.7,0.1l-1.1-0.7L51,81.2C50.9,81.3,50.9,81.3,50.8,81.3z"/>
</g>
<path class="st0" d="M47.8,73.7L47.8,73.7H37c-0.8,0-1.4-0.6-1.4-1.4c0-0.8,0.6-1.4,1.4-1.4l0,0h10.8c0.8,0,1.4,0.6,1.4,1.4
	S48.6,73.7,47.8,73.7z"/>
<path class="st1" d="M101.4,23c0,1.5-9,3.5-9,3.5v-7C92.5,19.6,101.4,21.5,101.4,23L101.4,23z M96.9,23c-0.7-0.2-1.4-0.4-2.2-0.6
	v1.3C95.1,23.6,96.2,23.3,96.9,23z"/>
<path class="st0" d="M90,27.1H49.5v-7.9H90V27.1z M52.3,24.2h34.9V22H52.3V24.2z"/>
<path class="st1" d="M46.9,27.1h-5c-2,0-3.6-1.6-3.6-3.6v-0.8c0-2,1.6-3.6,3.6-3.6h5V27.1z M41.9,21.9c-0.4,0-0.8,0.4-0.8,0.8v0.8
	c0,0.4,0.4,0.8,0.8,0.8H44v-2.4C44,21.9,41.9,21.9,41.9,21.9z"/>
<path class="st0" d="M43.2,79.7L43.2,79.7H37c-0.8,0-1.4-0.6-1.4-1.4c0-0.8,0.6-1.4,1.4-1.4l0,0h6.2c0.8,0,1.4,0.6,1.4,1.4
	C44.6,79.1,44,79.7,43.2,79.7z"/>
<path class="st0" d="M64.3,51L64.3,51h-6.2c-0.8,0-1.4-0.6-1.4-1.4s0.6-1.4,1.4-1.4l0,0h6.2c0.8,0,1.4,0.6,1.4,1.4S65.1,51,64.3,51z
	"/>
<g>
	<path class="st1" d="M92,83.3c-0.1,0-0.3,0-0.4-0.1c-0.2-0.1-0.3-0.4-0.3-0.6l0.2-1.4l-1-1c-0.1-0.1-0.2-0.3-0.2-0.4l0,0v-0.1
		c0.1-0.3,0.3-0.4,0.5-0.5l1.4-0.2l0.7-1.3c0.2-0.4,0.9-0.4,1.1,0l0.7,1.3l1.4,0.2c0.2,0,0.4,0.2,0.5,0.4c0.1,0.2,0,0.5-0.2,0.6
		l-1,1l0.2,1.4c0,0.2-0.1,0.5-0.3,0.6c-0.2,0.1-0.4,0.2-0.7,0.1l-1.3-0.6L92,83.3C92.2,83.3,92.1,83.3,92,83.3z"/>
</g>
<g>
	<path class="st1" d="M59.8,45.5c-0.1,0-0.3,0-0.4-0.1c-0.2-0.1-0.3-0.4-0.3-0.6l0.2-1.4l-1-1c-0.1-0.1-0.2-0.3-0.2-0.4l0,0v-0.1
		c0.1-0.3,0.3-0.4,0.5-0.5l1.4-0.2l0.7-1.3c0.2-0.4,0.9-0.4,1.1,0l0.7,1.3l1.4,0.2c0.2,0,0.4,0.2,0.5,0.4c0.1,0.2,0,0.5-0.2,0.6
		l-1,1l0.2,1.4c0,0.2-0.1,0.5-0.3,0.6c-0.2,0.1-0.4,0.2-0.7,0.1l-1.3-0.6L59.8,45.5C60,45.4,59.9,45.5,59.8,45.5z"/>
</g>
</svg>
