<?xml version="1.0" encoding="utf-8"?>
<!DOCTYPE svg PUBLIC "-//W3C//DTD SVG 1.1//EN" "http://www.w3.org/Graphics/SVG/1.1/DTD/svg11.dtd">
<svg version="1.1" id="graphic-design" xmlns="http://www.w3.org/2000/svg" xmlns:xlink="http://www.w3.org/1999/xlink" x="0px"
	 y="0px" viewBox="0 0 140 112" enable-background="new 0 0 140 112" xml:space="preserve">
<g>
	
		<path fill-rule="evenodd" clip-rule="evenodd" fill="none" stroke="#020203" stroke-width="2.8346" stroke-miterlimit="22.9256" d="
		M24.7,25.5H101c3.2,0,5.8,2.6,5.8,5.8v50.8c0,3.2-2.6,5.8-5.8,5.8H24.7c-3.2,0-5.8-2.6-5.8-5.8V31.3C18.9,28.1,21.5,25.5,24.7,25.5
		z"/>
	
		<path fill-rule="evenodd" clip-rule="evenodd" fill="none" stroke="#BE0A21" stroke-width="2.8346" stroke-miterlimit="22.9256" d="
		M72.4,52l6.5,1.1c0.4,0.1,0.8,0.4,0.9,0.8c0.1,0.4,0,0.9-0.3,1.2l-4.6,4.7l1,6.5c0.1,0.4-0.1,0.9-0.5,1.1c-0.2,0.2-0.5,0.2-0.7,0.2
		c-0.2,0-0.4,0-0.5-0.1l-5.9-2.9l-5.9,2.9c-0.4,0.2-0.9,0.2-1.2-0.1c-0.4-0.3-0.5-0.7-0.5-1.1l1-6.5L57,55.1
		c-0.2-0.2-0.3-0.5-0.3-0.8v0l0.1-0.4c0.1-0.4,0.5-0.7,0.9-0.8l6.5-1.1l3.1-5.9c0.2-0.4,0.6-0.6,1.1-0.6c0.4,0,0.8,0.2,1.1,0.6
		L72.4,52z"/>
	
		<line fill-rule="evenodd" clip-rule="evenodd" fill="none" stroke="#020203" stroke-width="2.8346" stroke-miterlimit="22.9256" x1="29.3" y1="32.5" x2="29.3" y2="43.4"/>
	
		<line fill-rule="evenodd" clip-rule="evenodd" fill="none" stroke="#020203" stroke-width="2.8346" stroke-miterlimit="22.9256" x1="29.3" y1="70" x2="29.3" y2="80.9"/>
	
		<rect x="39.3" y="33.7" fill-rule="evenodd" clip-rule="evenodd" fill="none" stroke="#020203" stroke-width="2.8346" stroke-miterlimit="22.9256" width="59.7" height="45.9"/>
	
		<path fill-rule="evenodd" clip-rule="evenodd" fill="none" stroke="#020203" stroke-width="2.8346" stroke-miterlimit="22.9256" d="
		M29.3,61.8c2.7,0,4.9-2.2,4.9-4.9c0-2.7-2.2-4.9-4.9-4.9s-4.9,2.2-4.9,4.9C24.5,59.6,26.7,61.8,29.3,61.8z"/>
	<path fill-rule="evenodd" clip-rule="evenodd" fill="#BE0A21" d="M118,90.1c-1.5,0-3.5-9-3.5-9h7C121.5,81.1,119.5,90.1,118,90.1
		L118,90.1z"/>
	
		<rect x="115.4" y="36.7" fill-rule="evenodd" clip-rule="evenodd" fill="none" stroke="#020203" stroke-width="2.8346" stroke-miterlimit="22.9256" width="5.1" height="40.5"/>
	
		<path fill-rule="evenodd" clip-rule="evenodd" fill="none" stroke="#BE0A21" stroke-width="2.8346" stroke-miterlimit="22.9256" d="
		M117.5,25.5h0.8c1.2,0,2.2,1,2.2,2.2v3.6h-5.2v-3.6C115.3,26.5,116.3,25.5,117.5,25.5z"/>
</g>
</svg>
