<?xml version="1.0" encoding="utf-8"?>
<!DOCTYPE svg PUBLIC "-//W3C//DTD SVG 1.1//EN" "http://www.w3.org/Graphics/SVG/1.1/DTD/svg11.dtd">
<svg version="1.1" id="logo-design" xmlns="http://www.w3.org/2000/svg" xmlns:xlink="http://www.w3.org/1999/xlink" x="0px"
	 y="0px" viewBox="0 0 140 112" enable-background="new 0 0 140 112" xml:space="preserve">
<g>
	<path fill-rule="evenodd" clip-rule="evenodd" fill="#BE0A20" d="M69.9,57.9c1,0,1.8-0.8,1.8-1.8s-0.8-1.8-1.8-1.8
		s-1.8,0.8-1.8,1.8S68.9,57.9,69.9,57.9z"/>
	<path fill-rule="evenodd" clip-rule="evenodd" fill="#020203" d="M84.9,68.7l-9.4-1.6l-0.1,0L75.4,67L71,58.6l0,0
		c-0.1-0.2-0.3-0.4-0.5-0.6c-0.2-0.1-0.5-0.2-0.8-0.2c-0.3,0-0.5,0.1-0.8,0.2c-0.2,0.1-0.4,0.3-0.5,0.6L64,67L64,67.1l-0.1,0
		l-9.4,1.6c-0.3,0-0.5,0.2-0.7,0.3c-0.2,0.2-0.4,0.4-0.4,0.7c0,0.1,0,0.1-0.1,0.2c0,0.1,0,0.1,0,0.2h0v0h0c0,0.2,0,0.4,0.1,0.5
		c0.1,0.2,0.2,0.3,0.3,0.5l6.7,6.8l0.1,0.1l0,0.1L59,87.6c0,0.3,0,0.5,0.1,0.8c0.1,0.2,0.3,0.5,0.5,0.6c0.2,0.2,0.5,0.3,0.7,0.3
		c0.3,0,0.5,0,0.8-0.1v0l8.5-4.2l0.1-0.1l0.1,0.1l8.5,4.2c0.1,0.1,0.2,0.1,0.3,0.1c0.1,0,0.2,0,0.3,0c0.2,0,0.3,0,0.4-0.1v0
		c0.1,0,0.3-0.1,0.4-0.2c0.2-0.2,0.4-0.4,0.5-0.6v0c0.1-0.2,0.1-0.5,0.1-0.8L79,78.2l0-0.1l0.1-0.1l6.6-6.8c0.2-0.2,0.3-0.4,0.4-0.7
		c0.1-0.3,0.1-0.5,0-0.8c-0.1-0.3-0.2-0.5-0.4-0.7C85.4,68.9,85.2,68.8,84.9,68.7L84.9,68.7z M76.4,76.5c-0.2,0.2-0.3,0.4-0.3,0.6
		C76,77.3,76,77.5,76,77.8l1,7l0.1,0.5L76.7,85l-6.3-3.2c-0.2-0.1-0.4-0.2-0.6-0.2c-0.2,0-0.4,0.1-0.6,0.2l0,0L62.7,85l-0.4,0.2
		l0.1-0.5l1-7c0-0.2,0-0.5-0.1-0.7c-0.1-0.2-0.2-0.4-0.3-0.6l-5-5l-0.3-0.3l0.5-0.1l7-1.2c0.2,0,0.4-0.1,0.6-0.3
		c0.2-0.1,0.3-0.3,0.4-0.5l0,0l3.3-6.3l0.2-0.4l0.2,0.4l3.3,6.3c0.1,0.2,0.3,0.4,0.4,0.5v0c0.2,0.1,0.4,0.2,0.6,0.3l7,1.2l0.5,0.1
		l-0.3,0.3L76.4,76.5z"/>
	<path fill-rule="evenodd" clip-rule="evenodd" fill="#020203" d="M69.7,59.1c1.6,0,2.8-1.3,2.8-2.8c0-1.6-1.3-2.8-2.8-2.8
		c-1.6,0-2.8,1.3-2.8,2.8C66.9,57.9,68.1,59.1,69.7,59.1z"/>
	
		<path fill-rule="evenodd" clip-rule="evenodd" fill="none" stroke="#020203" stroke-width="2.8346" stroke-miterlimit="22.9256" d="
		M41,68.2c7.6-7.6,17.9-11.9,28.7-11.9s21.1,4.3,28.7,11.9"/>
	
		<rect x="37.7" y="66.9" transform="matrix(-0.5736 0.8191 -0.8191 -0.5736 119.5942 76.1144)" fill-rule="evenodd" clip-rule="evenodd" fill="none" stroke="#BE0A21" stroke-width="2.8346" stroke-miterlimit="22.9256" width="4.5" height="4.5"/>
	
		<rect x="97.2" y="66.9" transform="matrix(0.5736 0.8191 -0.8191 0.5736 99.0591 -51.9256)" fill-rule="evenodd" clip-rule="evenodd" fill="none" stroke="#BE0A21" stroke-width="2.8346" stroke-miterlimit="22.9256" width="4.5" height="4.5"/>
	
		<path fill-rule="evenodd" clip-rule="evenodd" fill="none" stroke="#020203" stroke-width="2.8346" stroke-miterlimit="22.9256" d="
		M77.5,45.3l-4.6-11.1h-3.1h-3.1l-4.6,11.1c4.5,1.6,7.7,5.9,7.8,10.9C69.8,51.1,73,46.9,77.5,45.3z"/>
	
		<rect x="65.4" y="27.9" fill-rule="evenodd" clip-rule="evenodd" fill="none" stroke="#020203" stroke-width="2.8346" stroke-miterlimit="22.9256" width="8.6" height="6.3"/>
	
		<polyline fill-rule="evenodd" clip-rule="evenodd" fill="none" stroke="#020203" stroke-width="2.8346" stroke-miterlimit="22.9256" points="
		63.9,22.4 63.9,27.9 75.4,27.9 75.4,22.4 	"/>
	
		<line fill-rule="evenodd" clip-rule="evenodd" fill="none" stroke="#020203" stroke-width="2.8346" stroke-miterlimit="22.9256" x1="69.7" y1="43.1" x2="69.7" y2="51"/>
</g>
</svg>
