<?xml version="1.0" encoding="utf-8"?>
<!DOCTYPE svg PUBLIC "-//W3C//DTD SVG 1.1//EN" "http://www.w3.org/Graphics/SVG/1.1/DTD/svg11.dtd">
<svg version="1.1" id="qa" xmlns="http://www.w3.org/2000/svg" xmlns:xlink="http://www.w3.org/1999/xlink" x="0px" y="0px"
	 viewBox="0 0 140 112" enable-background="new 0 0 140 112" xml:space="preserve">
<g>
	<path fill-rule="evenodd" clip-rule="evenodd" fill="#BE0A20" d="M70.7,82.5l0.3,1.9c0.1,0.4,0,0.7-0.1,1.1v0
		c-0.1,0.3-0.4,0.6-0.7,0.9l0,0c-0.2,0.1-0.4,0.2-0.6,0.3c-0.2,0.1-0.4,0.1-0.6,0.1c-0.1,0-0.3,0-0.5-0.1h0c-0.2,0-0.3-0.1-0.4-0.2
		l-3.4-1.7l-3.4,1.7c-0.3,0.2-0.7,0.2-1.1,0.2c-0.4,0-0.7-0.2-1-0.4v0c-0.3-0.2-0.5-0.5-0.7-0.8v0c-0.1-0.3-0.2-0.7-0.1-1.1l0.6-3.8
		l-2.7-2.7c-0.2-0.2-0.3-0.4-0.4-0.6c-0.1-0.2-0.1-0.5-0.2-0.7l0,0v0v-0.1l0-0.1l0-0.2l0-0.1l0-0.1c0.1-0.4,0.3-0.7,0.6-0.9
		c0.3-0.2,0.6-0.4,1-0.5l3.8-0.6l1.2-2.3c0.3,1.1,0.7,2.1,1.2,3L63,75.5L62.8,76l-0.6,0.1l-3.6,0.6l2.5,2.6l0.4,0.4l-0.1,0.6
		l-0.5,3.6l3.2-1.6l0.5-0.3l0.5,0.3l3.2,1.6L68,80.4C68.8,81.2,69.7,81.9,70.7,82.5z"/>
	<path fill-rule="evenodd" clip-rule="evenodd" fill="#020203" d="M89.6,57c1.2,1.2,2.2,2.7,2.9,4.3c0.6,1.5,1,3.2,1,5
		c0,1.8-0.4,3.5-1,5c-0.7,1.6-1.6,3.1-2.9,4.3s-2.7,2.2-4.3,2.9c-1.5,0.6-3.2,1-5,1c-1.8,0-3.5-0.4-5-1c-1.6-0.7-3.1-1.6-4.3-2.9h0
		c-1.2-1.2-2.2-2.7-2.9-4.3c-0.6-1.5-1-3.2-1-5c0-1.8,0.4-3.5,1-5c0.7-1.6,1.6-3.1,2.9-4.3l0,0c1.2-1.2,2.7-2.2,4.3-2.9
		c1.5-0.6,3.2-1,5-1c1.8,0,3.5,0.4,5,1C86.9,54.8,88.4,55.8,89.6,57L89.6,57L89.6,57z M102.1,86.9c0-0.2,0-0.3-0.1-0.5h0
		c-0.1-0.1-0.2-0.3-0.3-0.4l-9-9l0,0l-0.4-0.4l-0.1-0.1l0.1-0.1l0.4-0.5l0,0c0.5-0.7,1-1.4,1.4-2.2c0.4-0.8,0.8-1.5,1-2.4
		c0.3-0.8,0.5-1.6,0.6-2.5c0.1-0.8,0.2-1.7,0.2-2.6c0-2.1-0.4-4.1-1.2-6c-0.8-1.9-2-3.6-3.4-5.1c-1.4-1.4-3.2-2.6-5.1-3.4
		c-1.8-0.8-3.9-1.2-6-1.2c-2.1,0-4.1,0.4-6,1.2c-1.9,0.8-3.6,2-5.1,3.4c-1.4,1.4-2.6,3.2-3.4,5.1c-0.8,1.8-1.2,3.9-1.2,6
		c0,2.1,0.4,4.1,1.2,6c0.8,1.9,2,3.6,3.4,5.1c1.4,1.4,3.2,2.6,5.1,3.4c1.8,0.8,3.9,1.2,6,1.2c0.9,0,1.7-0.1,2.6-0.2
		c0.9-0.1,1.7-0.4,2.5-0.6c0.8-0.3,1.6-0.6,2.4-1c0.8-0.4,1.5-0.9,2.2-1.4l0,0l0.5-0.4l0.1-0.1l0.1,0.1l0.4,0.4l9,9
		c0.1,0.1,0.1,0.1,0.2,0.2c0.1,0,0.1,0.1,0.2,0.1h0c0.1,0,0.2,0.1,0.2,0.1h0c0.1,0,0.2,0,0.3,0c0.1,0,0.2,0,0.3,0h0
		c0.1,0,0.2,0,0.2-0.1h0c0.1,0,0.1-0.1,0.2-0.1l0,0c0.1,0,0.1-0.1,0.2-0.2l0,0c0.1-0.1,0.2-0.2,0.2-0.4
		C102.1,87.2,102.1,87,102.1,86.9L102.1,86.9z M93.9,51.2c-0.4-0.3-0.7-0.7-1.1-1c-0.4-0.4-0.9-0.7-1.4-1v-1.4c0-0.2,0-0.3,0.1-0.5
		v0c0.1-0.2,0.2-0.3,0.3-0.4l0,0c0.1-0.1,0.3-0.2,0.4-0.3c0.1-0.1,0.3-0.1,0.5-0.1c0.2,0,0.3,0,0.5,0.1c0.1,0.1,0.2,0.1,0.4,0.2
		l0.1,0.1c0.1,0.1,0.2,0.3,0.3,0.4c0.1,0.1,0.1,0.3,0.1,0.5V51.2L93.9,51.2z M67.1,50.6v-2.8c0-0.2,0-0.3-0.1-0.5
		c-0.1-0.2-0.2-0.3-0.3-0.4c-0.1-0.1-0.3-0.2-0.4-0.3c-0.1-0.1-0.3-0.1-0.5-0.1c-0.2,0-0.3,0-0.5,0.1h0c-0.2,0.1-0.3,0.2-0.4,0.3
		s-0.2,0.3-0.3,0.4c-0.1,0.1-0.1,0.3-0.1,0.5v5.7c0.3-0.5,0.7-0.9,1.1-1.4C66.1,51.6,66.6,51.1,67.1,50.6L67.1,50.6z M47.4,60.9
		h-6.2h-0.7h-0.1v-0.1v-0.7V49.8v-0.7V49h0.1h0.7h6.2H48h0.1v0.1v0.7v10.3v0.7v0.1H48H47.4L47.4,60.9z M37.9,47.8v14.4
		c0,0.2,0,0.3,0.1,0.5v0c0.1,0.2,0.2,0.3,0.3,0.4l0,0v0c0.1,0.1,0.2,0.2,0.4,0.2c0.1,0.1,0.3,0.1,0.5,0.1h10.3c0.2,0,0.3,0,0.5-0.1
		c0.2-0.1,0.3-0.2,0.4-0.3l0,0c0.1-0.1,0.2-0.3,0.3-0.4c0.1-0.1,0.1-0.3,0.1-0.5V47.8c0-0.2,0-0.3-0.1-0.5c-0.1-0.1-0.1-0.3-0.2-0.4
		h0l0,0c-0.1-0.1-0.3-0.2-0.4-0.3c-0.1-0.1-0.3-0.1-0.5-0.1H39.1c-0.2,0-0.3,0-0.5,0.1h0c-0.2,0.1-0.3,0.2-0.4,0.3h0
		C38.1,47,38,47.1,38,47.3v0C37.9,47.4,37.9,47.6,37.9,47.8L37.9,47.8z M57.7,46.5c-0.2,0-0.3,0-0.5,0.1c-0.1,0.1-0.3,0.1-0.4,0.2
		l-0.1,0.1c-0.1,0.1-0.2,0.3-0.3,0.4v0c-0.1,0.1-0.1,0.3-0.1,0.5v14.4c0,0.2,0,0.3,0.1,0.5v0c0.1,0.2,0.2,0.3,0.3,0.4l0.1,0.1
		c0.1,0.1,0.2,0.2,0.4,0.2c0.1,0.1,0.3,0.1,0.5,0.1c0.2,0,0.3,0,0.5-0.1c0.2-0.1,0.3-0.2,0.4-0.3l0,0c0.1-0.1,0.2-0.3,0.3-0.4
		c0.1-0.1,0.1-0.3,0.1-0.5V47.8c0-0.2,0-0.3-0.1-0.5c-0.1-0.2-0.2-0.3-0.3-0.4l0,0c-0.1-0.1-0.3-0.2-0.4-0.3
		C58,46.5,57.8,46.5,57.7,46.5L57.7,46.5z M39.1,69.1c-0.2,0-0.3,0-0.5,0.1c-0.1,0.1-0.3,0.1-0.4,0.2l-0.1,0.1
		c-0.1,0.1-0.2,0.3-0.3,0.4v0c-0.1,0.1-0.1,0.3-0.1,0.5v14.4c0,0.2,0,0.3,0.1,0.5v0c0.1,0.2,0.2,0.3,0.3,0.4l0,0v0
		c0.1,0.1,0.2,0.2,0.4,0.2c0.1,0.1,0.3,0.1,0.5,0.1c0.2,0,0.3,0,0.5-0.1h0c0.2-0.1,0.3-0.2,0.4-0.3h0c0.1-0.1,0.2-0.3,0.3-0.4v0
		c0.1-0.1,0.1-0.3,0.1-0.5V70.4c0-0.2,0-0.3-0.1-0.5v0c-0.1-0.2-0.2-0.3-0.3-0.4v0c-0.1-0.1-0.3-0.2-0.4-0.3h0
		C39.5,69.2,39.3,69.1,39.1,69.1L39.1,69.1z M82.3,38.3h-6.2h-0.7h-0.1v-0.1v-0.7V27.2v-0.7v-0.1h0.1h0.7h6.2H83h0.1v0.1v0.7v10.3
		v0.7v0.1H83H82.3L82.3,38.3z M72.9,25.1v14.4c0,0.2,0,0.3,0.1,0.5c0.1,0.1,0.1,0.3,0.2,0.4h0l0,0c0.1,0.1,0.3,0.2,0.4,0.3h0
		c0.1,0.1,0.3,0.1,0.5,0.1h10.3c0.2,0,0.3,0,0.5-0.1h0c0.2-0.1,0.3-0.2,0.4-0.3c0.1-0.1,0.2-0.3,0.3-0.4v0c0.1-0.1,0.1-0.3,0.1-0.5
		V25.1c0-0.2,0-0.3-0.1-0.5c-0.1-0.2-0.2-0.3-0.3-0.4l0,0C85.2,24.1,85,24,84.9,24c-0.1-0.1-0.3-0.1-0.5-0.1H74.1
		c-0.2,0-0.3,0-0.5,0.1h0c-0.2,0.1-0.3,0.2-0.4,0.3c-0.1,0.1-0.2,0.3-0.3,0.4v0C72.9,24.8,72.9,25,72.9,25.1L72.9,25.1z M92.6,40.8
		c0.2,0,0.3,0,0.5-0.1c0.2-0.1,0.3-0.2,0.4-0.3v0c0.1-0.1,0.2-0.3,0.3-0.4c0.1-0.1,0.1-0.3,0.1-0.5V25.1c0-0.2,0-0.3-0.1-0.5
		c-0.1-0.2-0.2-0.3-0.3-0.4l-0.1-0.1c-0.1-0.1-0.2-0.2-0.4-0.2c-0.1-0.1-0.3-0.1-0.5-0.1c-0.2,0-0.3,0-0.5,0.1
		c-0.2,0.1-0.3,0.2-0.4,0.3v0c-0.1,0.1-0.2,0.3-0.3,0.4v0c-0.1,0.1-0.1,0.3-0.1,0.5v14.4c0,0.2,0,0.3,0.1,0.5
		c0.1,0.2,0.2,0.3,0.3,0.4v0c0.1,0.1,0.3,0.2,0.4,0.3C92.3,40.8,92.5,40.8,92.6,40.8L92.6,40.8z M65.9,40.8c0.2,0,0.3,0,0.5-0.1
		c0.1-0.1,0.3-0.1,0.4-0.2l0,0c0.1-0.1,0.2-0.3,0.3-0.4c0.1-0.1,0.1-0.3,0.1-0.5V25.1c0-0.2,0-0.3-0.1-0.5v0
		c-0.1-0.2-0.2-0.3-0.3-0.4c-0.1-0.1-0.3-0.2-0.4-0.3c-0.1-0.1-0.3-0.1-0.5-0.1c-0.2,0-0.3,0-0.5,0.1h0c-0.2,0.1-0.3,0.2-0.4,0.3
		s-0.2,0.3-0.3,0.4c-0.1,0.1-0.1,0.3-0.1,0.5v14.4c0,0.2,0,0.3,0.1,0.5c0.1,0.1,0.1,0.3,0.2,0.4h0l0,0c0.1,0.1,0.3,0.2,0.4,0.3h0
		C65.5,40.8,65.7,40.8,65.9,40.8L65.9,40.8z M55.6,38.3h-6.2h-0.7h-0.1v-0.1v-0.7V27.2v-0.7v-0.1h0.1h0.7h6.2h0.7h0.1v0.1v0.7v10.3
		v0.7v0.1h-0.1H55.6L55.6,38.3z M46.1,25.1v14.4c0,0.2,0,0.3,0.1,0.5c0.1,0.1,0.1,0.3,0.2,0.4h0l0,0c0.1,0.1,0.3,0.2,0.4,0.3h0
		c0.1,0.1,0.3,0.1,0.5,0.1h10.3c0.2,0,0.3,0,0.5-0.1h0c0.2-0.1,0.3-0.2,0.4-0.3c0.1-0.1,0.2-0.3,0.3-0.4v0c0.1-0.1,0.1-0.3,0.1-0.5
		V25.1c0-0.2,0-0.3-0.1-0.5c-0.1-0.2-0.2-0.3-0.3-0.4l0,0c-0.1-0.1-0.3-0.2-0.4-0.3c-0.1-0.1-0.3-0.1-0.5-0.1H47.4
		c-0.2,0-0.3,0-0.5,0.1h0c-0.2,0.1-0.3,0.2-0.4,0.3v0c-0.1,0.1-0.2,0.3-0.3,0.4C46.1,24.8,46.1,25,46.1,25.1L46.1,25.1z M37.9,25.1
		v14.4c0,0.2,0,0.3,0.1,0.5c0.1,0.1,0.1,0.3,0.2,0.4h0l0,0c0.1,0.1,0.3,0.2,0.4,0.3h0c0.1,0.1,0.3,0.1,0.5,0.1c0.2,0,0.3,0,0.5-0.1
		c0.1-0.1,0.3-0.1,0.4-0.2l0,0c0.1-0.1,0.2-0.3,0.3-0.4v0c0.1-0.1,0.1-0.3,0.1-0.5V25.1c0-0.2,0-0.3-0.1-0.5v0
		c-0.1-0.2-0.2-0.3-0.3-0.4v0c-0.1-0.1-0.3-0.2-0.4-0.3h0c-0.1-0.1-0.3-0.1-0.5-0.1c-0.2,0-0.3,0-0.5,0.1h0
		c-0.2,0.1-0.3,0.2-0.4,0.3c-0.1,0.1-0.2,0.3-0.3,0.4v0C37.9,24.8,37.9,25,37.9,25.1z"/>
	<path fill-rule="evenodd" clip-rule="evenodd" fill="#BE0A20" d="M82,79.8c1.4-0.2,2.8-0.5,4-1.1l-5.7-2.8l-0.6-0.3l-0.6,0.3
		l-4.9,2.4c1.1,0.6,2.3,1,3.6,1.3l1.9-1L82,79.8L82,79.8z M87.5,77.9l-1-6.5l-0.1-0.7l0.5-0.5l5.7-5.8c0,0,0,0,0,0c0,0,0,0,0,0v0
		c0,0,0,0,0,0c0,0,0,0,0,0l-8.1-1.4l-0.7-0.1l-0.3-0.6l-3.8-7.2l0,0c0,0,0,0,0,0c0,0,0,0,0,0c0,0,0,0,0,0c0,0,0,0,0,0l0,0l-3.8,7.2
		l-0.3,0.6l-0.7,0.1l-7.7,1.3c0.2-1,0.5-2,0.9-2.9l5.7-1l3.5-6.6h0c0.1-0.1,0.1-0.2,0.2-0.3c1-0.2,2-0.4,3.1-0.4
		c0.4,0,0.9,0,1.3,0.1c0.2,0.2,0.3,0.4,0.4,0.6h0l3.5,6.6l7.3,1.2c0.6,1.5,0.9,3.2,0.9,4.9c0,0.2,0,0.4,0,0.6l-4.5,4.6l0.6,4.3
		C89.3,76.7,88.4,77.4,87.5,77.9L87.5,77.9z M67.1,64.8c-0.1,0.6-0.1,1.1-0.1,1.7c0,0.8,0.1,1.6,0.2,2.3l2.8,2.9l-0.4,2.8
		c0.7,0.9,1.5,1.8,2.4,2.5l0.8-5.6l0.1-0.7l-0.5-0.5L67.1,64.8z"/>
</g>
</svg>
