<?xml version="1.0" encoding="utf-8"?>
<!DOCTYPE svg PUBLIC "-//W3C//DTD SVG 1.1//EN" "http://www.w3.org/Graphics/SVG/1.1/DTD/svg11.dtd">
<svg version="1.1" id="security" xmlns="http://www.w3.org/2000/svg" xmlns:xlink="http://www.w3.org/1999/xlink" x="0px" y="0px"
	 viewBox="0 0 140 112" enable-background="new 0 0 140 112" xml:space="preserve">
<g>
	
		<path fill-rule="evenodd" clip-rule="evenodd" fill="none" stroke="#020203" stroke-width="2.8346" stroke-miterlimit="22.9256" d="
		M122.8,69H60v8.5h58.8c2.2,0,4-1.8,4-4V69z"/>
	<path fill-rule="evenodd" clip-rule="evenodd" fill="#BE0A20" d="M82.7,52.6l1.9,0.3c0.1,0,0.2,0.1,0.3,0.2c0,0.1,0,0.3-0.1,0.3
		l-1.3,1.3l0.3,1.9c0,0.1,0,0.3-0.1,0.3c-0.1,0-0.1,0.1-0.2,0.1c-0.1,0-0.1,0-0.2,0l-1.7-0.8L79.9,57c-0.1,0.1-0.2,0-0.4,0
		c-0.1-0.1-0.2-0.2-0.1-0.3l0.3-1.9l-1.3-1.3c-0.1-0.1-0.1-0.1-0.1-0.2v0l0-0.1c0-0.1,0.1-0.2,0.3-0.2l1.9-0.3l0.9-1.7
		c0.1-0.1,0.2-0.2,0.3-0.2c0.1,0,0.2,0.1,0.3,0.2L82.7,52.6z"/>
	
		<path fill-rule="evenodd" clip-rule="evenodd" fill="none" stroke="#020203" stroke-width="2.8346" stroke-miterlimit="22.9256" d="
		M47.8,25.5h68.3c1.5,0,2.6,1.2,2.6,2.6v32.4c0,1.5-1.2,2.6-2.6,2.6H47.8c-1.5,0-2.6-1.2-2.6-2.6V28.1
		C45.1,26.7,46.3,25.5,47.8,25.5z"/>
	
		<line fill-rule="evenodd" clip-rule="evenodd" fill="none" stroke="#020203" stroke-width="2.8346" stroke-linecap="round" stroke-miterlimit="22.9256" x1="52.9" y1="32.3" x2="110.9" y2="32.3"/>
	
		<line fill-rule="evenodd" clip-rule="evenodd" fill="none" stroke="#020203" stroke-width="2.8346" stroke-linecap="round" stroke-miterlimit="22.9256" x1="52.9" y1="38.6" x2="110.9" y2="38.6"/>
	
		<line fill-rule="evenodd" clip-rule="evenodd" fill="none" stroke="#020203" stroke-width="2.8346" stroke-linecap="round" stroke-miterlimit="22.9256" x1="52.9" y1="44.8" x2="110.9" y2="44.8"/>
	<path fill-rule="evenodd" clip-rule="evenodd" fill="#FFFFFF" d="M56.8,93.4c15.6,0,28.3-12.7,28.3-28.3
		c0-15.6-12.7-28.3-28.3-28.3S28.5,49.4,28.5,65.1C28.5,80.7,41.2,93.4,56.8,93.4z"/>
	<path fill-rule="evenodd" clip-rule="evenodd" fill="#020203" d="M56.8,44.5c5.7,0,10.8,2.3,14.5,6c3.7,3.7,6,8.9,6,14.5
		c0,5.7-2.3,10.8-6,14.5c-3.7,3.7-8.9,6-14.5,6c-5.7,0-10.8-2.3-14.5-6c-2.5-2.5-4.4-5.6-5.3-9.2h-2.7c1,4.2,3.2,8,6.2,11
		c4.2,4.2,10,6.8,16.4,6.8c6.4,0,12.2-2.6,16.4-6.8c4.2-4.2,6.8-10,6.8-16.4c0-6.4-2.6-12.2-6.8-16.4c-4.2-4.2-10-6.8-16.4-6.8
		c-3.2,0-6.2,0.6-9,1.8l2,2C52.1,44.9,54.4,44.5,56.8,44.5L56.8,44.5z M24.8,66.2c-0.5,2.1-2.4,3.7-4.7,3.7c-2.7,0-4.9-2.2-4.9-4.9
		c0-2.7,2.2-4.9,4.9-4.9c2.3,0,4.2,1.6,4.7,3.8h8.8c0.1-3.1,0.9-6,2.2-8.7h3c-1.6,2.9-2.5,6.3-2.5,9.8c0,0.4,0,0.8,0,1.1H35h-1.3
		h-3.8H24.8L24.8,66.2z M17.5,65.1c0,1.4,1.2,2.6,2.6,2.6c1.4,0,2.6-1.2,2.6-2.6c0-1.4-1.2-2.6-2.6-2.6
		C18.6,62.4,17.5,63.6,17.5,65.1L17.5,65.1z M40.4,48.7L40.4,48.7c1.1-1.1,2.3-2.1,3.6-3l1.9,1.9c-1.3,0.8-2.5,1.8-3.6,2.8
		c-0.1,0.1-0.3,0.3-0.4,0.5h-0.1h-3.3h-6.6c-0.6,0-1.1-0.5-1.1-1.1v-3.5c-2.1-0.5-3.8-2.4-3.8-4.7c0-2.7,2.2-4.9,4.9-4.9
		c2.7,0,4.9,2.2,4.9,4.9c0,2.3-1.6,4.2-3.8,4.7v2.4H40.4L40.4,48.7z M29.2,41.6c0-1.4,1.2-2.6,2.6-2.6c1.4,0,2.6,1.2,2.6,2.6
		c0,1.4-1.2,2.6-2.6,2.6C30.3,44.2,29.2,43.1,29.2,41.6z"/>
	<path fill-rule="evenodd" clip-rule="evenodd" fill="#BE0A20" d="M110.2,52.6l1.9,0.3c0.1,0,0.2,0.1,0.3,0.2c0,0.1,0,0.3-0.1,0.3
		l-1.3,1.3l0.3,1.9c0,0.1,0,0.3-0.1,0.3c-0.1,0-0.1,0.1-0.2,0.1c-0.1,0-0.1,0-0.2,0l-1.7-0.8l-1.7,0.8c-0.1,0.1-0.2,0-0.4,0
		c-0.1-0.1-0.2-0.2-0.1-0.3l0.3-1.9l-1.3-1.3c-0.1-0.1-0.1-0.1-0.1-0.2v0l0-0.1c0-0.1,0.1-0.2,0.3-0.2l1.9-0.3l0.9-1.7
		c0.1-0.1,0.2-0.2,0.3-0.2c0.1,0,0.2,0.1,0.3,0.2L110.2,52.6z"/>
	<path fill-rule="evenodd" clip-rule="evenodd" fill="#BE0A20" d="M101.1,52.6l1.9,0.3c0.1,0,0.2,0.1,0.3,0.2c0,0.1,0,0.3-0.1,0.3
		l-1.3,1.3l0.3,1.9c0,0.1,0,0.3-0.1,0.3c-0.1,0-0.1,0.1-0.2,0.1c-0.1,0-0.1,0-0.2,0l-1.7-0.8L98.2,57c-0.1,0.1-0.2,0-0.4,0
		c-0.1-0.1-0.2-0.2-0.1-0.3l0.3-1.9l-1.3-1.3c-0.1-0.1-0.1-0.1-0.1-0.2v0l0-0.1c0-0.1,0.1-0.2,0.3-0.2l1.9-0.3l0.9-1.7
		c0.1-0.1,0.2-0.2,0.3-0.2c0.1,0,0.2,0.1,0.3,0.2L101.1,52.6z"/>
	<path fill-rule="evenodd" clip-rule="evenodd" fill="#BE0A20" d="M91.9,52.6l1.9,0.3c0.1,0,0.2,0.1,0.3,0.2c0,0.1,0,0.3-0.1,0.3
		l-1.3,1.3l0.3,1.9c0,0.1,0,0.3-0.1,0.3c-0.1,0-0.1,0.1-0.2,0.1c-0.1,0-0.1,0-0.2,0l-1.7-0.8L89,57c-0.1,0.1-0.2,0-0.4,0
		c-0.1-0.1-0.2-0.2-0.1-0.3l0.3-1.9l-1.3-1.3c-0.1-0.1-0.1-0.1-0.1-0.2v0l0-0.1c0-0.1,0.1-0.2,0.3-0.2l1.9-0.3l0.9-1.7
		c0.1-0.1,0.2-0.2,0.3-0.2c0.1,0,0.2,0.1,0.3,0.2L91.9,52.6z"/>
	<path fill-rule="evenodd" clip-rule="evenodd" fill="#B90B2B" d="M50.8,62.3v-6.6c0-1.9,1.8-3,3.6-3h5.5c1.9,0,3,1.2,3,3v4h-2v-3.4
		c0-1.1-0.6-1.7-1.7-1.7H55c-1.1,0-2.3,0.6-2.3,1.7v6h9.5c1.5,0,2.6,1.2,2.6,2.6v8.8c0,1.5-1.2,2.6-2.6,2.6H51.3
		c-1.5,0-2.6-1.2-2.6-2.6V65c0-1.5,1.2-2.6,2.6-2.6H50.8L50.8,62.3z M58.8,68.3c0-1.1-0.9-2-2-2c-1.1,0-2,0.9-2,2
		c0,0.8,0.4,1.4,1.1,1.8v2.6c0,0.5,0.4,0.9,0.9,0.9h0.1c0.5,0,0.9-0.4,0.9-0.9v-2.5C58.4,69.8,58.8,69.1,58.8,68.3z"/>
</g>
</svg>
