<?xml version="1.0" encoding="utf-8"?>
<!DOCTYPE svg PUBLIC "-//W3C//DTD SVG 1.1//EN" "http://www.w3.org/Graphics/SVG/1.1/DTD/svg11.dtd">
<svg version="1.1" id="seo" xmlns="http://www.w3.org/2000/svg" xmlns:xlink="http://www.w3.org/1999/xlink" x="0px" y="0px"
	 viewBox="0 0 140 112" enable-background="new 0 0 140 112" xml:space="preserve">
<g>
	
		<path fill-rule="evenodd" clip-rule="evenodd" fill="none" stroke="#020203" stroke-width="2.8346" stroke-miterlimit="22.9256" d="
		M26.1,24.9h66.5c3.1,0,5.7,2.6,5.7,5.7v40.1c0,3.1-2.6,5.7-5.7,5.7H26.1c-3.1,0-5.7-2.6-5.7-5.7V30.6C20.4,27.5,23,24.9,26.1,24.9z
		"/>
	
		<line fill-rule="evenodd" clip-rule="evenodd" fill="none" stroke="#020203" stroke-width="2.8346" stroke-linecap="round" stroke-miterlimit="22.9256" x1="21.1" y1="65.5" x2="47.6" y2="65.5"/>
	<g>
		<path fill-rule="evenodd" clip-rule="evenodd" fill="#020203" d="M27.5,29.2h49.3c0.8,0,1.4,0.6,1.4,1.4c0,0.8-0.6,1.4-1.4,1.4
			H27.5v27.1l0,0.1v0c0,0.8-0.6,1.4-1.4,1.4c-0.8,0-1.4-0.6-1.4-1.4l0-0.1V32.1c0-0.8,0.3-1.5,0.8-2C26,29.5,26.8,29.2,27.5,29.2
			L27.5,29.2z M27.5,32.1L27.5,32.1C27.5,32.1,27.5,32.1,27.5,32.1L27.5,32.1L27.5,32.1z"/>
	</g>
	
		<line fill-rule="evenodd" clip-rule="evenodd" fill="none" stroke="#020203" stroke-width="2.8346" stroke-linecap="round" stroke-miterlimit="22.9256" x1="44.1" y1="86.8" x2="74.5" y2="86.8"/>
	<path fill-rule="evenodd" clip-rule="evenodd" fill="#BE0A20" d="M92.3,30l0.8,0.1c0.1,0,0.1,0,0.1,0.1c0,0.1,0,0.1,0,0.2L92.7,31
		l0.1,0.8c0,0.1,0,0.1-0.1,0.1c0,0-0.1,0-0.1,0c0,0,0,0-0.1,0l-0.8-0.4L91,32.1c-0.1,0-0.1,0-0.2,0c0,0-0.1-0.1-0.1-0.1l0.1-0.8
		l-0.6-0.6c0,0,0-0.1,0-0.1v0l0,0c0-0.1,0.1-0.1,0.1-0.1l0.8-0.1l0.4-0.8c0-0.1,0.1-0.1,0.1-0.1c0.1,0,0.1,0,0.1,0.1L92.3,30z"/>
	<path fill-rule="evenodd" clip-rule="evenodd" fill="#BE0A20" d="M87.2,30l0.8,0.1c0.1,0,0.1,0,0.1,0.1c0,0.1,0,0.1,0,0.2L87.5,31
		l0.1,0.8c0,0.1,0,0.1-0.1,0.1c0,0-0.1,0-0.1,0c0,0,0,0-0.1,0l-0.8-0.4l-0.8,0.4c-0.1,0-0.1,0-0.2,0c0,0-0.1-0.1-0.1-0.1l0.1-0.8
		l-0.6-0.6c0,0,0-0.1,0-0.1v0l0,0c0-0.1,0.1-0.1,0.1-0.1l0.8-0.1l0.4-0.8c0-0.1,0.1-0.1,0.1-0.1c0.1,0,0.1,0,0.1,0.1L87.2,30z"/>
	<path fill-rule="evenodd" clip-rule="evenodd" fill="#BE0A20" d="M82.6,30l0.8,0.1c0.1,0,0.1,0,0.1,0.1c0,0.1,0,0.1,0,0.2L82.9,31
		l0.1,0.8c0,0.1,0,0.1-0.1,0.1c0,0-0.1,0-0.1,0c0,0,0,0-0.1,0l-0.8-0.4l-0.8,0.4c-0.1,0-0.1,0-0.2,0c0,0-0.1-0.1-0.1-0.1l0.1-0.8
		l-0.6-0.6c0,0,0-0.1,0-0.1v0l0,0c0-0.1,0.1-0.1,0.1-0.1l0.8-0.1l0.4-0.8c0-0.1,0.1-0.1,0.1-0.1c0.1,0,0.1,0,0.1,0.1L82.6,30z"/>
	
		<line fill-rule="evenodd" clip-rule="evenodd" fill="none" stroke="#020203" stroke-width="2.8346" stroke-miterlimit="22.9256" x1="54.1" y1="77" x2="54.1" y2="87.4"/>
	
		<line fill-rule="evenodd" clip-rule="evenodd" fill="none" stroke="#020203" stroke-width="2.8346" stroke-miterlimit="22.9256" x1="64.5" y1="77" x2="64.5" y2="87.4"/>
	
		<path fill-rule="evenodd" clip-rule="evenodd" fill="none" stroke="#020203" stroke-width="2.8346" stroke-linecap="round" stroke-miterlimit="22.9256" d="
		M26.2,40.6c0.5,0,22.2,0,22.2,0"/>
	<circle fill-rule="evenodd" clip-rule="evenodd" fill="#BE0A20" cx="59.2" cy="70.5" r="1.5"/>
	<path fill-rule="evenodd" clip-rule="evenodd" fill="#FFFFFF" d="M52.9,32h70.7c1.6,0,2.9,1.5,2.9,3.3V77c0,1.8-1.3,3.3-2.9,3.3
		H52.9c-1.6,0-2.9-1.5-2.9-3.3V35.3C50,33.5,51.3,32,52.9,32z"/>
	
		<path fill-rule="evenodd" clip-rule="evenodd" fill="none" stroke="#020203" stroke-width="2.8346" stroke-miterlimit="22.9256" d="
		M58,37.5h60.5c1.4,0,2.5,1.1,2.5,2.5v32.3c0,1.4-1.1,2.5-2.5,2.5H58c-1.4,0-2.5-1.1-2.5-2.5V40C55.5,38.6,56.7,37.5,58,37.5z"/>
	
		<line fill-rule="evenodd" clip-rule="evenodd" fill="none" stroke="#020203" stroke-width="2.8346" stroke-linecap="round" stroke-miterlimit="22.9256" x1="61.8" y1="67.6" x2="71.2" y2="57.4"/>
	
		<line fill-rule="evenodd" clip-rule="evenodd" fill="none" stroke="#020203" stroke-width="2.8346" stroke-linecap="round" stroke-miterlimit="22.9256" x1="80.1" y1="62.4" x2="88.4" y2="53.2"/>
	
		<line fill-rule="evenodd" clip-rule="evenodd" fill="none" stroke="#020203" stroke-width="2.8346" stroke-linecap="round" stroke-miterlimit="22.9256" x1="96.4" y1="60.1" x2="88.4" y2="53.2"/>
	
		<line fill-rule="evenodd" clip-rule="evenodd" fill="none" stroke="#020203" stroke-width="2.8346" stroke-linecap="round" stroke-miterlimit="22.9256" x1="80.1" y1="62.4" x2="71.2" y2="57.4"/>
	
		<line fill-rule="evenodd" clip-rule="evenodd" fill="none" stroke="#020203" stroke-width="2.8346" stroke-linecap="round" stroke-miterlimit="22.9256" x1="101.8" y1="55.5" x2="96.4" y2="60.1"/>
	<polygon fill-rule="evenodd" clip-rule="evenodd" fill="#BE0A20" points="98.4,54.3 104.5,52.6 102.7,58.8 	"/>
	
		<path fill-rule="evenodd" clip-rule="evenodd" fill="none" stroke="#020203" stroke-width="2.5" stroke-linecap="round" stroke-miterlimit="22.9256" d="
		M114.4,45.1l3.8,0.6c0.3,0,0.5,0.2,0.5,0.5c0.1,0.2,0,0.5-0.2,0.7l-2.7,2.7l0.6,3.8c0,0.3-0.1,0.5-0.3,0.7
		c-0.1,0.1-0.3,0.1-0.4,0.1c-0.1,0-0.2,0-0.3-0.1l-3.4-1.7l-3.4,1.7c-0.2,0.1-0.5,0.1-0.7-0.1c-0.2-0.2-0.3-0.4-0.3-0.7l0.6-3.8
		l-2.7-2.7c-0.1-0.1-0.2-0.3-0.2-0.5v0l0-0.2c0.1-0.2,0.3-0.4,0.5-0.5l3.8-0.6l1.8-3.4c0.1-0.2,0.4-0.4,0.6-0.4
		c0.3,0,0.5,0.1,0.6,0.4L114.4,45.1z"/>
</g>
</svg>
