<?xml version="1.0" encoding="utf-8"?>
<!-- Generator: Adobe Illustrator 22.0.0, SVG Export Plug-In . SVG Version: 6.00 Build 0)  -->
<svg version="1.1" id="smm_icon" xmlns="http://www.w3.org/2000/svg" xmlns:xlink="http://www.w3.org/1999/xlink" x="0px" y="0px"
	 viewBox="0 0 140 112" style="enable-background:new 0 0 140 112;" xml:space="preserve">
<style type="text/css">
	.smm0{fill:#BE0A21;}
	.smm1{fill:#020203;}
	.smm2{fill-rule:evenodd;clip-rule:evenodd;fill:none;stroke:#020203;stroke-width:2.8346;stroke-miterlimit:22.9256;}
	.smm3{opacity:0.93;fill:#020203;}
	.smm4{fill-rule:evenodd;clip-rule:evenodd;fill:#BE0A21;}
</style>
<g>
	<g>
		<g>
			<path class="smm0" d="M96.88886,83.25516c-0.0842,0-0.16841-0.01778-0.24668-0.05213
				c-0.23849-0.10564-5.82874-2.64382-5.82874-7.2385c0-2.01015,1.63517-3.64517,3.64516-3.64517
				c0.91258,0,1.76695,0.33576,2.43011,0.93858c0.66331-0.60281,1.51768-0.93858,2.43027-0.93858
				c2.01015,0,3.64516,1.63518,3.64516,3.64517c0,4.59468-5.5901,7.13287-5.82874,7.2385
				C97.05743,83.23737,96.97322,83.25516,96.88886,83.25516z"/>
		</g>
	</g>
	<g>
		<g>
			<path class="smm0" d="M101.45968,39.87163l-4.65991-0.00002l-1.06041-1.06041h-0.84087c-0.29316,0-0.53021-0.23705-0.53021-0.5302
				v-3.18137c0-0.29303,0.23705-0.53008,0.53021-0.53008c-0.00359,0,0.71459-0.04046,1.77965-0.93639
				c1.14226-0.96092,1.96297-2.9544,1.97066-2.97523c0.08131-0.1999,0.27605-0.3303,0.49147-0.3303h0.80515
				c0.4338,0,0.78547,0.35167,0.78547,0.78547v2.39577h0.53034c0.14088,0,0.27538,0.05598,0.37487,0.15533
				C102.96519,34.99343,102.90639,38.75808,101.45968,39.87163z"/>
		</g>
	</g>
	<g>
		<g>
			<path class="smm0" d="M93.82865,39.87161h-1.04171c-0.88368,0-1.60004-0.71636-1.60004-1.60004V35.1089
				c0-0.88368,0.71636-1.60004,1.60004-1.60004h1.04171c0.88367,0,1.60004,0.71636,1.60004,1.60004v3.16267
				C95.42869,39.15525,94.71233,39.87161,93.82865,39.87161z"/>
		</g>
	</g>
	<g>
		<path class="smm0" d="M44.08463,70.78762c-3.40381-0.05943-6.22137,2.66073-6.2808,6.06528
			c-0.05943,3.4046,2.66146,6.22159,6.06527,6.28102c3.40359,0.05938,6.2216-2.66095,6.28103-6.06549
			C50.20951,73.66382,47.48839,70.847,44.08463,70.78762z M46.27819,77.77271l-1.54318-0.02746l-0.02695,1.54391
			c-0.00746,0.4266-0.35863,0.76557-0.78506,0.75812c-0.42643-0.00746-0.76558-0.35863-0.75817-0.78506l0.02695-1.54443
			l-1.54335-0.02746c-0.42643-0.00745-0.76557-0.35847-0.75817-0.78506c0.00746-0.42648,0.35942-0.76557,0.78512-0.75817
			l1.54335,0.02746l0.02695-1.54217c0.00746-0.42643,0.35863-0.76557,0.78506-0.75817
			c0.42643,0.00745,0.76558,0.35863,0.75812,0.78512L44.76196,76.202l1.54318,0.02746
			c0.42643,0.00746,0.76558,0.35863,0.75817,0.78506C47.05586,77.44118,46.70406,77.78011,46.27819,77.77271z"/>
	</g>
</g>
<path class="smm1" d="M37.58008,62.80859c-0.68506,0-1.2876-0.49805-1.39795-1.19629
	c-0.28223-1.78125-0.42529-3.60645-0.42529-5.4248c0-2.03076,0.17822-4.06689,0.53027-6.05127
	c0.13672-0.77051,0.86768-1.28516,1.64307-1.14795c0.77051,0.13623,1.28467,0.87207,1.14795,1.64307
	c-0.32275,1.82129-0.48633,3.69092-0.48633,5.55615c0,1.6709,0.13135,3.34668,0.39014,4.98145
	c0.12256,0.77344-0.40479,1.49902-1.17822,1.62207C37.72852,62.80273,37.65381,62.80859,37.58008,62.80859z"/>
<path class="smm2" d="M37.6826,50.38401"/>
<path class="smm2" d="M56.10189,26.31441"/>
<path class="smm1" d="M56.10303,27.73242c-0.53125,0-1.04053-0.30029-1.28271-0.81201
	c-0.33447-0.70801-0.03174-1.55273,0.67578-1.8877c4.61475-2.18115,9.56152-3.28711,14.70264-3.28711
	c4.6499,0,9.16064,0.91064,13.40674,2.70703c0.72168,0.30518,1.05859,1.13672,0.75391,1.85791
	c-0.30469,0.71973-1.1377,1.05762-1.85742,0.75342c-3.89551-1.64795-8.03516-2.4834-12.30322-2.4834
	c-4.71924,0-9.2583,1.01465-13.49072,3.01562C56.51221,27.68848,56.30615,27.73242,56.10303,27.73242z"/>
<path class="smm2" d="M83.05367,25.75829"/>
<path class="smm2" d="M102.71526,50.38352"/>
<path class="smm1" d="M102.70703,63.46973c-0.08301,0-0.16699-0.00781-0.25195-0.02246
	c-0.77051-0.13867-1.2832-0.875-1.14551-1.64551c0.3291-1.83887,0.49609-3.72852,0.49609-5.61426
	c0-1.86865-0.16309-3.73828-0.48633-5.55615c-0.13672-0.771,0.37695-1.50684,1.14746-1.64355
	c0.7666-0.13818,1.50684,0.37598,1.64355,1.14746c0.35254,1.98145,0.53125,4.01758,0.53125,6.05225
	c0,2.05273-0.18262,4.11035-0.54102,6.11426C103.97754,62.9873,103.37988,63.46973,102.70703,63.46973z"/>
<path class="smm2" d="M102.70466,62.05137"/>
<path class="smm2" d="M83.05366,86.61714"/>
<path class="smm1" d="M70.19873,90.62988c-4.15869,0-8.22412-0.7334-12.08301-2.17969
	c-0.7334-0.27441-1.10498-1.0918-0.83057-1.82422c0.2749-0.73438,1.09473-1.10547,1.82471-0.83008
	c3.54053,1.32617,7.271,1.99805,11.08887,1.99805c4.26807,0,8.40674-0.83496,12.30322-2.48242
	c0.71875-0.30664,1.55273,0.0332,1.85742,0.75391s-0.03223,1.55273-0.75391,1.85742
	C79.3584,89.71875,74.84766,90.62988,70.19873,90.62988z"/>
<path class="smm2" d="M58.61257,87.12273"/>
<path class="smm2" d="M37.58181,61.39056"/>
<path class="smm3" d="M96.88867,48.07129c-6.5127,0-11.81152-5.29883-11.81152-11.81201s5.29883-11.81201,11.81152-11.81201
	s11.81152,5.29883,11.81152,11.81201S103.40137,48.07129,96.88867,48.07129z M96.88867,27.28223
	c-4.9502,0-8.97754,4.02686-8.97754,8.97705s4.02734,8.97705,8.97754,8.97705s8.97754-4.02686,8.97754-8.97705
	S101.83887,27.28223,96.88867,27.28223z"/>
<path class="smm1" d="M43.97705,48.07129c-6.51318,0-11.81201-5.29883-11.81201-11.81201s5.29883-11.81201,11.81201-11.81201
	s11.81201,5.29883,11.81201,11.81201S50.49023,48.07129,43.97705,48.07129z M43.97705,27.28223
	c-4.9502,0-8.97705,4.02686-8.97705,8.97705s4.02686,8.97705,8.97705,8.97705s8.97705-4.02686,8.97705-8.97705
	S48.92725,27.28223,43.97705,27.28223z"/>
<path class="smm1" d="M43.97705,88.77246c-6.51318,0-11.81201-5.29883-11.81201-11.81152s5.29883-11.81152,11.81201-11.81152
	s11.81201,5.29883,11.81201,11.81152S50.49023,88.77246,43.97705,88.77246z M43.97705,67.9834
	C39.02686,67.9834,35,72.01074,35,76.96094s4.02686,8.97754,8.97705,8.97754s8.97705-4.02734,8.97705-8.97754
	S48.92725,67.9834,43.97705,67.9834z"/>
<path class="smm3" d="M96.88867,88.77246c-6.5127,0-11.81152-5.29883-11.81152-11.81152s5.29883-11.81152,11.81152-11.81152
	s11.81152,5.29883,11.81152,11.81152S103.40137,88.77246,96.88867,88.77246z M96.88867,67.9834
	c-4.9502,0-8.97754,4.02734-8.97754,8.97754s4.02734,8.97754,8.97754,8.97754s8.97754-4.02734,8.97754-8.97754
	S101.83887,67.9834,96.88867,67.9834z"/>
<path class="smm1" d="M70.10156,70.10938c-8.50098,0-15.41699-6.91699-15.41699-15.41748
	c0-8.50098,6.91602-15.41699,15.41699-15.41699s15.41699,6.91602,15.41699,15.41699
	C85.51855,63.19238,78.60254,70.10938,70.10156,70.10938z M70.10156,42.10986c-6.9375,0-12.58203,5.64453-12.58203,12.58203
	c0,6.93799,5.64453,12.58154,12.58203,12.58154s12.58105-5.64355,12.58105-12.58154
	C82.68262,47.75439,77.03906,42.10986,70.10156,42.10986z"/>
<path class="smm1" d="M72.48828,79.20508h-4.77393c-2.62842,0-4.76709-2.13867-4.76709-4.76758v-6.82031
	c0-0.47266,0.23535-0.91309,0.62744-1.17676c0.3916-0.26367,0.88965-0.31348,1.32666-0.13574
	c3.17578,1.2998,6.60352,1.29004,10.48047-0.0293c0.43164-0.14746,0.90918-0.07715,1.28125,0.18945
	c0.37207,0.26562,0.59277,0.69531,0.59277,1.15234v6.82031C77.25586,77.06641,75.11719,79.20508,72.48828,79.20508z
	 M65.78223,69.58789v4.84961c0,1.06543,0.8667,1.93164,1.93213,1.93164h4.77393c1.06543,0,1.93164-0.86621,1.93164-1.93164v-4.92188
	C71.35645,70.28809,68.50195,70.3125,65.78223,69.58789z"/>
<path class="smm1" d="M64.6709,75.1123c-0.68164,0-1.28271-0.49316-1.39697-1.18848
	c-0.12695-0.77246,0.39648-1.50098,1.16895-1.62793l11.16553-1.83398c0.77051-0.12598,1.50098,0.39551,1.62793,1.16895
	c0.12695,0.77246-0.39648,1.50098-1.16895,1.62793l-11.16455,1.83398C64.82471,75.10547,64.74756,75.1123,64.6709,75.1123z"/>
<path class="smm0" d="M68.01611,64.99121c-0.78271,0-1.41748-0.63477-1.41748-1.41797v-9.55371
	c0-0.78271,0.63477-1.41748,1.41748-1.41748s1.41748,0.63477,1.41748,1.41748v9.55371
	C69.43359,64.35645,68.79883,64.99121,68.01611,64.99121z"/>
<path class="smm0" d="M65.23486,58.21875c-2.31543,0-4.19873-1.88379-4.19873-4.19922s1.8833-4.19873,4.19873-4.19873
	s4.19873,1.8833,4.19873,4.19873S67.55029,58.21875,65.23486,58.21875z M65.23486,52.65576
	c-0.75195,0-1.36377,0.61182-1.36377,1.36377s0.61182,1.36377,1.36377,1.36377s1.36377-0.61182,1.36377-1.36377
	S65.98682,52.65576,65.23486,52.65576z"/>
<path class="smm0" d="M72.18652,64.99121c-0.7832,0-1.41748-0.63477-1.41748-1.41797v-9.55371
	c0-0.78271,0.63428-1.41748,1.41748-1.41748s1.41797,0.63477,1.41797,1.41748v9.55371
	C73.60449,64.35645,72.96973,64.99121,72.18652,64.99121z"/>
<path class="smm0" d="M74.96777,58.21875c-2.31543,0-4.19873-1.88379-4.19873-4.19922s1.8833-4.19873,4.19873-4.19873
	s4.19922,1.8833,4.19922,4.19873S77.2832,58.21875,74.96777,58.21875z M74.96777,52.65576
	c-0.75195,0-1.36328,0.61182-1.36328,1.36377s0.61133,1.36377,1.36328,1.36377s1.36328-0.61182,1.36328-1.36377
	S75.71973,52.65576,74.96777,52.65576z"/>
<path class="smm0" d="M72.18652,60.39746h-4.17041c-0.78271,0-1.41748-0.63477-1.41748-1.41797s0.63477-1.41797,1.41748-1.41797
	h4.17041c0.7832,0,1.41797,0.63477,1.41797,1.41797S72.96973,60.39746,72.18652,60.39746z"/>
<path class="smm1" d="M65.23486,69.35938c-0.78271,0-1.41748-0.63477-1.41748-1.41797v-3.53906
	c0-1.58105,1.40967-2.03906,6.28418-2.03906c4.87402,0,6.28418,0.45801,6.28418,2.03906v3.41992
	c0,0.7832-0.63477,1.41797-1.41797,1.41797s-1.41797-0.63477-1.41797-1.41797v-2.45801
	c-0.7334-0.09277-1.97754-0.16504-3.44824-0.16504c-1.47168,0-2.71484,0.07227-3.44922,0.16504v2.57715
	C66.65234,68.72461,66.01758,69.35938,65.23486,69.35938z"/>
<path class="smm4" d="M45.9879,34.00408l3.19028,0.53482c0.21316,0.03664,0.39013,0.18789,0.4564,0.39449
	c0.06744,0.20543,0.01326,0.4323-0.13838,0.58667l-2.26597,2.30846l0.47596,3.19996c0.03313,0.2144-0.0573,0.42879-0.23311,0.55587
	c-0.10057,0.07406-0.22102,0.11148-0.34141,0.11148c-0.08855,0-0.17665-0.01988-0.25851-0.06081l-2.89629-1.44191l-2.8959,1.44191
	c-0.19335,0.09628-0.42567,0.07757-0.60109-0.05067c-0.17464-0.12708-0.26546-0.34147-0.23311-0.55587l0.47596-3.19996
	l-2.26519-2.30846c-0.1072-0.10798-0.16567-0.25182-0.16677-0.39994v-0.01442l0.02761-0.1723
	c0.06744-0.2066,0.24324-0.35785,0.45764-0.39449l3.18982-0.53482l1.49532-2.8694c0.10057-0.1914,0.29821-0.31185,0.51572-0.31185
	c0.21674,0,0.41554,0.12045,0.51611,0.31185L45.9879,34.00408z"/>
</svg>
