<?xml version="1.0" encoding="utf-8"?>
<svg version="1.1" id="smm_icon_second" xmlns="http://www.w3.org/2000/svg" xmlns:xlink="http://www.w3.org/1999/xlink" x="0px" y="0px"
	 viewBox="0 0 140 112" style="enable-background:new 0 0 140 112;" xml:space="preserve">
<style type="text/css">
	.smm_second0{fill:#BE0A20;}
	.smm_second1{fill-rule:evenodd;clip-rule:evenodd;fill:#020203;}
	.smm_second2{fill:#020203;}
</style>
<path class="smm_second0" d="M89.3,33.2c-5,0-9.1-4.1-9.1-9.1c0-5,4.1-9.1,9.1-9.1c5,0,9.1,4.1,9.1,9.1C98.3,29.2,94.3,33.2,89.3,33.2z
	 M89.3,18c-3.4,0-6.2,2.8-6.2,6.2c0,3.4,2.8,6.2,6.2,6.2c3.4,0,6.2-2.8,6.2-6.2C95.5,20.7,92.7,18,89.3,18z"/>
<path class="smm_second0" d="M100.4,64.1c-7.5,0-13.6-6.1-13.6-13.6c0-7.5,6.1-13.6,13.6-13.6c7.5,0,13.6,6.1,13.6,13.6
	C114,58,107.9,64.1,100.4,64.1z M100.4,39.7c-5.9,0-10.8,4.8-10.8,10.8c0,5.9,4.8,10.8,10.8,10.8c5.9,0,10.8-4.8,10.8-10.8
	C111.2,44.5,106.4,39.7,100.4,39.7z"/>
<path class="smm_second0" d="M102.4,88.5c-5.5,0-10-4.5-10-10c0-5.5,4.5-10,10-10c5.5,0,10,4.5,10,10C112.4,84,107.9,88.5,102.4,88.5z
	 M102.4,71.3c-4,0-7.2,3.2-7.2,7.2s3.2,7.2,7.2,7.2c4,0,7.2-3.2,7.2-7.2S106.4,71.3,102.4,71.3z"/>
<path class="smm_second1" d="M90.5,22.8l1.9,0.3c0.1,0,0.2,0.1,0.3,0.2c0,0.1,0,0.3-0.1,0.4l-1.4,1.4l0.3,1.9c0,0.1,0,0.3-0.1,0.3
	c-0.1,0-0.1,0.1-0.2,0.1c-0.1,0-0.1,0-0.2,0l-1.8-0.9l-1.8,0.9c-0.1,0.1-0.3,0-0.4,0C87,27.3,87,27.2,87,27.1l0.3-1.9l-1.4-1.4
	c-0.1-0.1-0.1-0.2-0.1-0.2v0l0-0.1c0-0.1,0.1-0.2,0.3-0.2l1.9-0.3l0.9-1.7c0.1-0.1,0.2-0.2,0.3-0.2c0.1,0,0.3,0.1,0.3,0.2L90.5,22.8
	z"/>
<g>
	<g>
		<path class="smm_second2" d="M102.4,82.8c-0.1,0-0.2,0-0.2-0.1c-0.2-0.1-4-1.8-4-5c0-1.5,1.2-2.6,2.6-2.6c0.6,0,1.2,0.2,1.6,0.6
			c0.5-0.4,1-0.6,1.6-0.6c1.5,0,2.6,1.2,2.6,2.6c0,3.2-3.8,4.9-4,5C102.6,82.8,102.5,82.8,102.4,82.8z"/>
	</g>
</g>
<path class="smm_second2" d="M105.2,48.7c-0.1-0.1-0.2-0.2-0.4-0.2h-0.5v-1.6c0-0.9-0.7-1.6-1.6-1.6l0,0c-0.2,0-0.4,0.1-0.5,0.3
	c0,0-0.8,2-2,3c-0.5,0.4-0.9,0.7-1.2,0.8V49c0-0.3-0.2-0.5-0.5-0.5H96c-0.7,0-1.2,0.6-1.2,1.2v3.9c0,0.7,0.6,1.2,1.2,1.2h2.5
	c0.3,0,0.5-0.2,0.5-0.5v-0.5h0.3l0.7,0.7c0.2,0.2,0.5,0.4,0.9,0.4h3.6c0.4,0,0.8-0.2,1-0.5C106.4,52.9,106.4,49.8,105.2,48.7z"/>
<g>
	<path class="smm_second2" d="M88,77.1L76.4,32.3c-0.1-0.5-0.5-0.8-0.9-1c-0.4-0.2-0.9-0.1-1.3,0.2c-11.5,8.3-24,14.5-37.1,18.4
		c-5.8,1.7-9.2,7.7-7.7,13.6l2.4,9.3c1.3,5.1,5.9,8.4,10.9,8.4c0.8,0,1.6-0.1,2.4-0.2c13.8-2.9,27.7-3.6,41.4-2.2
		c0.5,0,0.9-0.1,1.2-0.5C88,78,88.1,77.5,88,77.1z M44.5,78.2c-4.5,0.9-8.8-1.8-10-6.1l-2.4-9.3c-1.1-4.4,1.4-8.9,5.7-10.2
		c1.5-0.5,3.1-0.9,4.6-1.5l6.8,26.2C47.7,77.6,46.1,77.9,44.5,78.2z M52,76.9l-6.9-26.7c6.8-2.5,13.5-5.6,19.9-9.3l8.9,34.5
		C66.6,75.2,59.3,75.8,52,76.9z M76.9,75.4l-9.3-36c2.2-1.4,4.5-2.8,6.6-4.3l10.6,40.8C82.1,75.6,79.5,75.4,76.9,75.4z"/>
	<path class="smm_second2" d="M56.8,83.9c-0.8-0.1-1.5,0.4-1.6,1.2l-1.4,8.9c-0.1,0.7-0.8,1.2-1.5,1.1c-0.7-0.1-1.2-0.8-1.1-1.5l1.4-8.9
		c0.1-0.8-0.4-1.5-1.2-1.6c-0.8-0.1-1.5,0.4-1.6,1.2l-1.4,8.9c-0.4,2.3,1.2,4.4,3.5,4.8c0.2,0,0.4,0.1,0.7,0.1c2,0,3.8-1.5,4.1-3.5
		l1.4-8.9C58.1,84.7,57.5,84,56.8,83.9z"/>
	<path class="smm_second0" d="M37.4,67.7l5.6-1.5c0.8-0.2,1.2-1,1-1.7c-0.2-0.8-1-1.2-1.7-1L36.7,65c-0.8,0.2-1.2,1-1,1.7
		c0.2,0.6,0.7,1.1,1.4,1.1C37.1,67.8,37.2,67.8,37.4,67.7z"/>
	<path class="smm_second0" d="M36.6,62.8l5.1-2.9c0.7-0.4,0.9-1.2,0.5-1.9c-0.4-0.7-1.2-0.9-1.9-0.5l-5.1,2.9c-0.7,0.4-0.9,1.2-0.5,1.9
		c0.3,0.5,0.7,0.7,1.2,0.7C36.1,63,36.4,62.9,36.6,62.8z"/>
	<path class="smm_second0" d="M44.2,69.7l-5.8-0.1c-0.8,0-1.4,0.6-1.4,1.4c0,0.8,0.6,1.4,1.4,1.4l5.8,0.1c0,0,0,0,0,0c0.8,0,1.4-0.6,1.4-1.4
		C45.6,70.4,45,69.7,44.2,69.7z"/>
</g>
</svg>
