<?xml version="1.0" encoding="utf-8"?>
<!DOCTYPE svg PUBLIC "-//W3C//DTD SVG 1.1//EN" "http://www.w3.org/Graphics/SVG/1.1/DTD/svg11.dtd">
<svg version="1.1" id="ux-ui" xmlns="http://www.w3.org/2000/svg" xmlns:xlink="http://www.w3.org/1999/xlink" x="0px" y="0px"
	 viewBox="0 0 140 112" enable-background="new 0 0 140 112" xml:space="preserve">
<g>
	<path fill-rule="evenodd" clip-rule="evenodd" fill="#BE0A21" d="M47.2,51.8l1.2,0.2c0.1,0,0.1,0.1,0.2,0.1c0,0.1,0,0.2-0.1,0.2
		l-0.8,0.8l0.2,1.2c0,0.1,0,0.2-0.1,0.2c0,0-0.1,0-0.1,0c0,0-0.1,0-0.1,0l-1-0.5l-1,0.5c-0.1,0-0.2,0-0.2,0c-0.1,0-0.1-0.1-0.1-0.2
		l0.2-1.2l-0.8-0.8c0,0-0.1-0.1-0.1-0.1v0l0-0.1c0-0.1,0.1-0.1,0.2-0.1l1.2-0.2l0.5-1c0-0.1,0.1-0.1,0.2-0.1c0.1,0,0.2,0,0.2,0.1
		L47.2,51.8z"/>
	<path fill-rule="evenodd" clip-rule="evenodd" fill="#020203" d="M29.2,51.8c1.6,0,2.8-1.3,2.8-2.8c0-1.6-1.3-2.8-2.8-2.8
		c-1.6,0-2.8,1.3-2.8,2.8C26.4,50.5,27.7,51.8,29.2,51.8z"/>
	
		<line fill-rule="evenodd" clip-rule="evenodd" fill="none" stroke="#020203" stroke-width="2.8346" stroke-miterlimit="22.9256" x1="45.7" y1="33.3" x2="70.6" y2="33.3"/>
	
		<line fill-rule="evenodd" clip-rule="evenodd" fill="none" stroke="#020203" stroke-width="2.8346" stroke-miterlimit="22.9256" x1="45.7" y1="39.6" x2="58.7" y2="39.6"/>
	
		<line fill-rule="evenodd" clip-rule="evenodd" fill="none" stroke="#020203" stroke-width="2.8346" stroke-miterlimit="22.9256" x1="45.8" y1="45.9" x2="52.3" y2="45.9"/>
	
		<line fill-rule="evenodd" clip-rule="evenodd" fill="none" stroke="#020203" stroke-width="2.8346" stroke-miterlimit="22.9256" x1="36.5" y1="73.5" x2="36.5" y2="24.4"/>
	
		<path fill-rule="evenodd" clip-rule="evenodd" fill="none" stroke="#BE0A20" stroke-width="2.8346" stroke-linecap="round" stroke-miterlimit="22.9256" d="
		M76.9,86.5c-1.7,0-3-1.4-3-3V45.2c0-1.7,1.4-3,3-3h19.7c1.7,0,3,1.4,3,3"/>
	
		<path fill-rule="evenodd" clip-rule="evenodd" fill="none" stroke="#020203" stroke-width="2.8346" stroke-miterlimit="22.9256" d="
		M92.1,35.3v-6.4c0-2.5-2.1-4.6-4.6-4.6H26.2c-2.5,0-4.6,2.1-4.6,4.6v40c0,2.5,2.1,4.6,4.6,4.6h41.7"/>
	
		<path fill-rule="evenodd" clip-rule="evenodd" fill="none" stroke="#020203" stroke-width="2.8346" stroke-miterlimit="22.9256" d="
		M77.3,47.1"/>
	
		<path fill-rule="evenodd" clip-rule="evenodd" fill="none" stroke="#020203" stroke-width="2.8346" stroke-miterlimit="22.9256" d="
		M87,47.1"/>
	
		<polyline fill-rule="evenodd" clip-rule="evenodd" fill="none" stroke="#020203" stroke-width="2.8346" stroke-miterlimit="22.9256" points="
		87.4,47.3 78.7,47.2 78.7,59.8 	"/>
	
		<line fill-rule="evenodd" clip-rule="evenodd" fill="none" stroke="#020203" stroke-width="2.8346" stroke-miterlimit="22.9256" x1="74" y1="77.6" x2="88.5" y2="77.6"/>
	
		<path fill-rule="evenodd" clip-rule="evenodd" fill="none" stroke="#BE0A20" stroke-width="2.8346" stroke-linecap="round" stroke-miterlimit="22.9256" d="
		M88.8,64.1"/>
	
		<path fill-rule="evenodd" clip-rule="evenodd" fill="none" stroke="#020203" stroke-width="2.8346" stroke-miterlimit="22.9256" d="
		M99.6,55.4V45.2c0-1.7-1.4-3-3-3H76.9c-1.7,0-3,1.4-3,3v38.2c0,1.7,1.4,3,3,3h12.7"/>
	
		<path fill-rule="evenodd" clip-rule="evenodd" fill="none" stroke="#020203" stroke-width="2.8346" stroke-miterlimit="22.9256" d="
		M108.9,68.1l8.1,1.4c0.5,0.1,1,0.5,1.2,1c0.2,0.5,0,1.1-0.4,1.5l-5.8,5.9l1.2,8.1c0.1,0.5-0.1,1.1-0.6,1.4
		c-0.3,0.2-0.6,0.3-0.9,0.3c-0.2,0-0.5-0.1-0.7-0.2l-7.4-3.7l-7.4,3.7c-0.5,0.2-1.1,0.2-1.5-0.1c-0.4-0.3-0.7-0.9-0.6-1.4l1.2-8.1
		l-5.8-5.9c-0.3-0.3-0.4-0.6-0.4-1v0l0.1-0.4c0.2-0.5,0.6-0.9,1.2-1l8.1-1.4l3.8-7.3c0.3-0.5,0.8-0.8,1.3-0.8c0.6,0,1.1,0.3,1.3,0.8
		L108.9,68.1z"/>
	<circle fill-rule="evenodd" clip-rule="evenodd" fill="#BE0A21" cx="86.7" cy="82" r="1.4"/>
	<path fill-rule="evenodd" clip-rule="evenodd" fill="#BE0A21" d="M79.4,64.8l1.2,0.2c0.1,0,0.1,0.1,0.2,0.1c0,0.1,0,0.2-0.1,0.2
		l-0.8,0.8l0.2,1.2c0,0.1,0,0.2-0.1,0.2c0,0-0.1,0-0.1,0c0,0-0.1,0-0.1,0l-1-0.5l-1,0.5c-0.1,0-0.2,0-0.2,0c-0.1,0-0.1-0.1-0.1-0.2
		l0.2-1.2l-0.8-0.8c0,0-0.1-0.1-0.1-0.1v0l0-0.1c0-0.1,0.1-0.1,0.2-0.1l1.2-0.2l0.5-1c0-0.1,0.1-0.1,0.2-0.1c0.1,0,0.2,0,0.2,0.1
		L79.4,64.8z"/>
</g>
</svg>
