<?xml version="1.0" encoding="utf-8"?>
<!DOCTYPE svg PUBLIC "-//W3C//DTD SVG 1.1//EN" "http://www.w3.org/Graphics/SVG/1.1/DTD/svg11.dtd">
<svg version="1.1" id="web-design" xmlns="http://www.w3.org/2000/svg" xmlns:xlink="http://www.w3.org/1999/xlink" x="0px" y="0px"
	 viewBox="0 0 140 112" enable-background="new 0 0 140 112" xml:space="preserve">
<g>
	
		<path fill-rule="evenodd" clip-rule="evenodd" fill="none" stroke="#020203" stroke-width="2.8346" stroke-miterlimit="22.9256" d="
		M33,23.2h64.9c3,0,5.5,2.5,5.5,5.5v39.1c0,3-2.5,5.5-5.5,5.5H33c-3,0-5.5-2.5-5.5-5.5V28.8C27.4,25.7,29.9,23.2,33,23.2z"/>
	
		<line fill-rule="evenodd" clip-rule="evenodd" fill="none" stroke="#020203" stroke-width="2.8346" stroke-miterlimit="22.9256" x1="28.1" y1="62.8" x2="102.4" y2="62.8"/>
	<g>
		<path fill-rule="evenodd" clip-rule="evenodd" fill="#020203" d="M34.4,27.4h48.1c0.8,0,1.4,0.6,1.4,1.4c0,0.8-0.6,1.4-1.4,1.4
			H34.4v26.4l0,0v0c0,0.8-0.6,1.4-1.4,1.4s-1.4-0.6-1.4-1.4l0-0.1V30.2c0-0.8,0.3-1.5,0.8-2C32.9,27.7,33.6,27.4,34.4,27.4
			L34.4,27.4z M34.4,30.2L34.4,30.2C34.4,30.2,34.4,30.2,34.4,30.2C34.4,30.2,34.4,30.2,34.4,30.2L34.4,30.2z"/>
	</g>
	
		<line fill-rule="evenodd" clip-rule="evenodd" fill="none" stroke="#020203" stroke-width="2.8346" stroke-linecap="round" stroke-miterlimit="22.9256" x1="50.5" y1="83.6" x2="80.3" y2="83.6"/>
	<path fill-rule="evenodd" clip-rule="evenodd" fill="#BE0A21" d="M97.6,28.2l0.8,0.1c0.1,0,0.1,0,0.1,0.1c0,0.1,0,0.1,0,0.2
		l-0.6,0.6l0.1,0.8c0,0.1,0,0.1-0.1,0.1c0,0-0.1,0-0.1,0c0,0,0,0-0.1,0l-0.7-0.4l-0.7,0.4c0,0-0.1,0-0.2,0c0,0-0.1-0.1-0.1-0.1
		l0.1-0.8l-0.6-0.6c0,0,0-0.1,0-0.1v0l0,0c0-0.1,0.1-0.1,0.1-0.1l0.8-0.1l0.4-0.7c0,0,0.1-0.1,0.1-0.1c0.1,0,0.1,0,0.1,0.1
		L97.6,28.2z"/>
	<path fill-rule="evenodd" clip-rule="evenodd" fill="#BE0A21" d="M92.6,28.2l0.8,0.1c0.1,0,0.1,0,0.1,0.1c0,0.1,0,0.1,0,0.2
		l-0.6,0.6L93,30c0,0.1,0,0.1-0.1,0.1c0,0-0.1,0-0.1,0c0,0,0,0-0.1,0l-0.7-0.4l-0.7,0.4c0,0-0.1,0-0.2,0c0,0-0.1-0.1-0.1-0.1
		l0.1-0.8l-0.6-0.6c0,0,0-0.1,0-0.1v0l0,0c0-0.1,0.1-0.1,0.1-0.1l0.8-0.1l0.4-0.7c0,0,0.1-0.1,0.1-0.1c0.1,0,0.1,0,0.1,0.1
		L92.6,28.2z"/>
	<path fill-rule="evenodd" clip-rule="evenodd" fill="#BE0A21" d="M88.1,28.2l0.8,0.1c0.1,0,0.1,0,0.1,0.1c0,0.1,0,0.1,0,0.2
		l-0.6,0.6l0.1,0.8c0,0.1,0,0.1-0.1,0.1c0,0-0.1,0-0.1,0c0,0,0,0-0.1,0l-0.7-0.4l-0.7,0.4c0,0-0.1,0-0.2,0c0,0-0.1-0.1-0.1-0.1
		l0.1-0.8l-0.6-0.6c0,0,0-0.1,0-0.1v0l0,0c0-0.1,0.1-0.1,0.1-0.1l0.8-0.1l0.4-0.7c0,0,0.1-0.1,0.1-0.1c0.1,0,0.1,0,0.1,0.1
		L88.1,28.2z"/>
	
		<line fill-rule="evenodd" clip-rule="evenodd" fill="none" stroke="#020203" stroke-width="2.8346" stroke-miterlimit="22.9256" x1="60.3" y1="74" x2="60.3" y2="84.2"/>
	
		<line fill-rule="evenodd" clip-rule="evenodd" fill="none" stroke="#020203" stroke-width="2.8346" stroke-miterlimit="22.9256" x1="70.5" y1="74" x2="70.5" y2="84.2"/>
	<path fill="#020203" d="M91.2,39.9H33.1c-0.8,0-1.4-0.6-1.4-1.4s0.6-1.4,1.4-1.4h58.2c0.8,0,1.4,0.6,1.4,1.4S92,39.9,91.2,39.9z"/>
	<circle fill-rule="evenodd" clip-rule="evenodd" fill="#BE0A21" cx="65.3" cy="67.7" r="1.5"/>
	<path fill-rule="evenodd" clip-rule="evenodd" fill="#FFFFFF" d="M102,60.5l6.2,1c2.5,0.4,4.5,2.2,5.2,4.5c0.8,2.4,0.2,5-1.6,6.7
		l-4.4,4.5l0.9,6.2c0.4,2.5-0.7,4.9-2.7,6.4c-1.1,0.8-2.5,1.3-3.9,1.3c-1,0-2.1-0.2-3-0.7l-5.6-2.8l-5.6,2.8
		c-2.2,1.1-4.9,0.9-6.9-0.6c-2-1.5-3-3.9-2.7-6.4l0.9-6.2l-4.4-4.5c-1.2-1.2-1.9-2.9-1.9-4.6l0-0.5l0.2-1.3l0.1-0.4
		c0.8-2.4,2.8-4.1,5.3-4.5l6.2-1l2.9-5.5c1.2-2.2,3.4-3.6,5.9-3.6c2.5,0,4.8,1.4,5.9,3.6L102,60.5z"/>
	
		<path fill-rule="evenodd" clip-rule="evenodd" fill="none" stroke="#020203" stroke-width="2.8346" stroke-miterlimit="22.9256" d="
		M98.3,65.5l8.1,1.4c0.5,0.1,1,0.5,1.2,1c0.2,0.5,0,1.1-0.4,1.5l-5.8,5.9l1.2,8.1c0.1,0.5-0.1,1.1-0.6,1.4c-0.3,0.2-0.6,0.3-0.9,0.3
		c-0.2,0-0.5-0.1-0.7-0.2l-7.4-3.7l-7.4,3.7c-0.5,0.2-1.1,0.2-1.5-0.1c-0.4-0.3-0.7-0.9-0.6-1.4l1.2-8.1l-5.8-5.9
		c-0.3-0.3-0.4-0.6-0.4-1v0l0.1-0.4c0.2-0.5,0.6-0.9,1.2-1l8.1-1.4l3.8-7.3c0.3-0.5,0.8-0.8,1.3-0.8c0.6,0,1.1,0.3,1.3,0.8
		L98.3,65.5z"/>
</g>
</svg>
