<?xml version="1.0" encoding="utf-8"?>
<svg version="1.1" id="fb" xmlns="http://www.w3.org/2000/svg" xmlns:xlink="http://www.w3.org/1999/xlink" x="0px" y="0px"
	 viewBox="0 0 100 100" style="enable-background:new 0 0 100 100;" xml:space="preserve">
<style type="text/css">
	.fb-st0{fill-rule:evenodd;clip-rule:evenodd;fill:#FFFFFF;}
</style>
<path class="fb-st0" d="M56,33.3c1.5,0,3,0,4.6,0c0.2,0,0.4,0,0.6,0v-7.9c-0.8-0.1-1.7-0.2-2.5-0.2C57.1,25,55.5,25,54,25
	c-2.4,0.1-4.6,0.6-6.6,2c-2.3,1.6-3.5,3.9-4,6.6c-0.2,1.1-0.2,2.3-0.3,3.4c0,1.8,0,3.6,0,5.3v0.7h-7.6v8.8H43v22.2h9.2V51.9h7.5
	c0.4-2.9,0.8-5.9,1.2-8.9c-0.6,0-1.1,0-1.7,0c-2.1,0-7,0-7,0s0-4.4,0.1-6.3C52.3,34.2,53.9,33.4,56,33.3z"/>
</svg>
