<?xml version="1.0" encoding="utf-8"?>
<svg version="1.1" id="g-plus" xmlns="http://www.w3.org/2000/svg" xmlns:xlink="http://www.w3.org/1999/xlink" x="0px" y="0px"
	 viewBox="0 0 100 100" style="enable-background:new 0 0 100 100;" xml:space="preserve">
<style type="text/css">
	.g-plus-st0{fill-rule:evenodd;clip-rule:evenodd;fill:#FFFFFF;}
</style>
<path class="g-plus-st0" d="M39.8,48.1c0,0.1,0,0.2,0,0.3c0,2.1,0,6.7,0,6.7s8.8,0,9.3,0c0,0.7-0.8,3.5-3.4,5.2c-1.5,1-3.2,1.5-5,1.6
	c-1.3,0.1-2.5,0-3.8-0.4c-3.9-1.2-6.7-4.7-7.1-9c-0.1-1.1,0-2.1,0.2-3.1c1.2-5,5.9-8.8,11.4-8c2.4,0.4,3.8,1.4,5.1,2.5
	c1.7-1.7,3.3-3.3,5-5c-0.4-0.3-1.4-1.3-3.1-2.3c-2.5-1.5-5.3-2.2-8.2-2.2c-0.6,0-1.1,0-1.7,0c-1,0-1.9,0.2-2.9,0.4
	c-3.7,1-6.9,2.9-9.3,5.9c-2.3,2.9-3.6,6.2-3.8,9.9c-0.1,1.6,0,3.1,0.4,4.7c1,4.3,3.2,7.7,6.8,10.3c2.7,2,5.8,3.1,9.2,3.3
	c1.9,0.1,3.8-0.1,5.7-0.6c3.5-0.9,6.4-2.7,8.5-5.6c3.1-4.2,3.9-9.5,3-14.6C50.6,48.1,45.2,48.1,39.8,48.1L39.8,48.1z M77,48.3h-5.9
	v-5.9v-0.2h-0.2h-4.4h-0.2v0.2v5.9h-5.9h-0.2v0.2v4.4V53h0.2h5.9v5.9v0.2h0.2h4.4h0.2v-0.2V53H77h0.2v-0.2v-4.4v-0.2H77z"/>
</svg>
