<?xml version="1.0" encoding="utf-8"?>
<svg version="1.1" id="insta" xmlns="http://www.w3.org/2000/svg" xmlns:xlink="http://www.w3.org/1999/xlink" x="0px" y="0px"
	 viewBox="0 0 100 100" style="enable-background:new 0 0 100 100;" xml:space="preserve">
<style type="text/css">
	.insta-st0{fill-rule:evenodd;clip-rule:evenodd;fill:#FFFFFF;}
</style>
<path class="insta-st0" d="M64,28.7H36.8c-3.4,0-6.2,2.8-6.2,6.2v27.3c0,3.4,2.8,6.2,6.2,6.2H64c3.4,0,6.2-2.8,6.2-6.2V34.9
	C70.3,31.5,67.5,28.7,64,28.7L64,28.7z M58.9,34.2L58.9,34.2c0-0.6,0.5-1.1,1.1-1.1h4.8c0.6,0,1.1,0.5,1.1,1.1V39
	c0,0.6-0.5,1.1-1.1,1.1H60c-0.6,0-1.1-0.5-1.1-1.1V34.2L58.9,34.2z M43.1,45.7L43.1,45.7c1.1-2.9,4-5,7.3-5c3.3,0,6.2,2.1,7.3,5
	c0.4,0.9,0.5,1.9,0.5,2.9c0,4.3-3.5,7.9-7.9,7.9c-4.3,0-7.9-3.5-7.9-7.9C42.5,47.6,42.7,46.6,43.1,45.7L43.1,45.7z M66,62.2L66,62.2
	c0,1.1-0.9,2-2,2H36.8c-1.1,0-2-0.9-2-2V45.7h3.9c-0.2,0.9-0.3,1.9-0.3,2.9c0,6.7,5.4,12.1,12.1,12.1c6.7,0,12.1-5.4,12.1-12.1
	c0-1-0.1-1.9-0.3-2.9H66V62.2z"/>
</svg>
