<?xml version="1.0" encoding="utf-8"?>
<svg version="1.1" id="linked" xmlns="http://www.w3.org/2000/svg" xmlns:xlink="http://www.w3.org/1999/xlink" x="0px" y="0px"
	 viewBox="0 0 100 100" style="enable-background:new 0 0 100 100;" xml:space="preserve">
<style type="text/css">
	.linked-st0{fill:#FFFFFF;}
</style>
<g>
	<path class="linked-st0" d="M36.4,32.7v26.4H47v7.5H27.6V32.7H36.4z"/>
	<path class="linked-st0" d="M57.8,43.5v3h0.1c0.9-1.4,2-2.3,3.1-2.9s2.6-0.9,4.2-0.9c2,0,3.7,0.4,5,1.2c1.3,0.8,2.2,1.9,2.8,3.3
		c0.6,1.4,0.9,3.1,0.9,5.1v14.2h-8.2V55.3v-1.1c0-1.5-0.2-2.7-0.7-3.6c-0.5-0.9-1.5-1.4-3-1.4c-2.9,0-4.3,1.8-4.3,5.3v12h-8.2V43.5
		H57.8z"/>
</g>
</svg>
